#N canvas 175 436 463 370 10;
#X floatatom 76 114 0 0 0 0 - - -;
#X floatatom 13 113 0 0 0 0 - - -;
#X text 23 140 value | nr | channel;
#X obj 45 263 outlet;
#X obj 95 263 outlet;
#X obj 145 263 outlet;
#X obj 44 224 spigot;
#X obj 60 243 bng 15 250 50 0 empty empty empty 17 7 0 10 -262144 -1
-1;
#X obj 59 198 == 65;
#X obj 100 219 spigot;
#X obj 116 238 bng 15 250 50 0 empty empty empty 17 7 0 10 -262144
-1 -1;
#X obj 156 218 spigot;
#X obj 172 237 bng 15 250 50 0 empty empty empty 17 7 0 10 -262144
-1 -1;
#X obj 115 193 == 66;
#X obj 171 192 == 64;
#X obj 29 79 inlet;
#X obj 79 79 inlet;
#X connect 0 0 8 0;
#X connect 0 0 13 0;
#X connect 0 0 14 0;
#X connect 1 0 6 0;
#X connect 1 0 9 0;
#X connect 1 0 11 0;
#X connect 6 0 7 0;
#X connect 6 0 3 0;
#X connect 8 0 6 1;
#X connect 9 0 10 0;
#X connect 9 0 4 0;
#X connect 11 0 12 0;
#X connect 11 0 5 0;
#X connect 13 0 9 1;
#X connect 14 0 11 1;
#X connect 15 0 1 0;
#X connect 16 0 0 0;
#X coords 0 370 1 369 85 60 0;
