#N canvas 384 328 463 370 10;
#X floatatom 65 71 0 0 0 0 - - -;
#X floatatom 27 71 0 0 0 0 - - -;
#X text 12 97 value | nr | channel;
#X obj 34 220 outlet;
#X obj 84 220 outlet;
#X obj 134 220 outlet;
#X obj 33 181 spigot;
#X obj 49 200 bng 15 250 50 0 empty empty empty 17 7 0 10 -262144 -1
-1;
#X obj 89 176 spigot;
#X obj 105 195 bng 15 250 50 0 empty empty empty 17 7 0 10 -262144
-1 -1;
#X obj 145 175 spigot;
#X obj 161 194 bng 15 250 50 0 empty empty empty 17 7 0 10 -262144
-1 -1;
#X obj 48 154 == 67;
#X obj 104 150 == 68;
#X obj 160 149 == 69;
#X obj 15 15 inlet;
#X obj 65 15 inlet;
#X connect 0 0 12 0;
#X connect 0 0 13 0;
#X connect 0 0 14 0;
#X connect 1 0 6 0;
#X connect 1 0 8 0;
#X connect 1 0 10 0;
#X connect 6 0 7 0;
#X connect 6 0 3 0;
#X connect 8 0 9 0;
#X connect 8 0 4 0;
#X connect 10 0 11 0;
#X connect 10 0 5 0;
#X connect 12 0 6 1;
#X connect 13 0 8 1;
#X connect 14 0 10 1;
#X connect 15 0 1 0;
#X connect 16 0 0 0;
#X coords 0 370 1 369 85 60 0;
