#N canvas 384 328 463 370 10;
#X floatatom 65 71 0 0 0 0 - - -;
#X floatatom 27 71 0 0 0 0 - - -;
#X text 12 97 value | nr | channel;
#X obj 34 220 outlet;
#X obj 84 220 outlet;
#X obj 33 181 spigot;
#X obj 49 200 bng 15 250 50 0 empty empty empty 17 7 0 10 -262144 -1
-1;
#X obj 89 176 spigot;
#X obj 105 195 bng 15 250 50 0 empty empty empty 17 7 0 10 -262144
-1 -1;
#X obj 103 150 == 79;
#X obj 48 154 == 72;
#X obj 27 44 inlet;
#X obj 77 44 inlet;
#X connect 0 0 9 0;
#X connect 0 0 10 0;
#X connect 1 0 5 0;
#X connect 1 0 7 0;
#X connect 5 0 6 0;
#X connect 5 0 3 0;
#X connect 7 0 8 0;
#X connect 7 0 4 0;
#X connect 9 0 7 1;
#X connect 10 0 5 1;
#X connect 11 0 1 0;
#X connect 12 0 0 0;
#X coords 0 370 1 369 85 60 0;
