#N canvas 0 23 1045 808 10;
#X obj 11 54 tgl 15 0 empty empty empty 17 7 0 10 -204786 -1 -1 1 1
;
#X msg 11 74 \; pd dsp \$1;
#X obj 518 291 writesf~ 2;
#X obj 506 320 bng 25 250 50 0 empty empty empty 17 7 0 10 -261234
-1 -1;
#X text 276 28 MIDI I/O objects;
#X floatatom 314 83 0 0 0 0 - - -;
#X floatatom 276 83 0 0 0 0 - - -;
#X floatatom 352 82 0 0 0 0 - - -;
#X obj 276 56 ctlin;
#X obj 13 28 loadbang;
#X obj 417 460 bng 30 250 50 0 empty empty Browse 35 7 0 10 -260097
-1 -1;
#X obj 520 458 bng 30 250 50 0 empty empty Hit 35 7 0 10 -204786 -1
-1;
#X obj 417 495 openpanel;
#X obj 150 481 symbol;
#X msg 150 460 symbol samples/Comfast_kick.wav;
#X msg 150 440 symbol samples/Foals-Miami.wav;
#X obj 594 458 bng 30 250 50 0 empty empty Stop 35 7 0 10 -261682 -1
-1;
#X obj 41 722 fx/dly1~;
#X text 152 1107 comment;
#X obj 840 668 utils/dac_;
#X obj 670 298 s~ outR;
#X obj 614 298 s~ outL;
#X obj 637 696 r~ outL;
#X obj 697 696 r~ outR;
#X msg 520 492 0;
#X obj 420 519 sampler;
#X floatatom 150 31 0 0 0 0 - - -;
#X obj 120 31 key;
#X obj 180 31 keyname;
#X symbolatom 179 52 10 0 0 0 - - -, f 10;
#N canvas 910 166 714 682 start_stop 0;
#X obj 63 114 spigot;
#X obj 42 151 bng 15 250 50 0 empty empty empty 17 7 0 10 -262144 -1
-1;
#X obj 131 66 bng 15 250 50 0 empty empty empty 17 7 0 10 -262144 -1
-1;
#X obj 122 116 tgl 15 0 empty empty empty 17 7 0 10 -262144 -1 -1 0
1;
#X obj 122 168 bng 15 250 50 0 empty empty empty 17 7 0 10 -262144
-1 -1;
#X obj 122 137 moses 1;
#X obj 187 127 change;
#X obj 162 248 bng 15 250 50 0 empty empty empty 17 7 0 10 -261234
-1 -1;
#X obj 215 228 bng 15 250 50 0 empty empty empty 17 7 0 10 -204786
-1 -1;
#X obj 166 179 moses 2;
#X msg 192 150 1;
#X msg 232 150 2;
#X obj 52 43 inlet;
#X text 45 17 gate start/stop;
#X obj 455 52 inlet;
#X text 412 29 sample name/nr;
#X obj 437 205 i;
#X obj 373 501 outlet;
#X msg 373 258 start;
#X obj 98 534 outlet;
#X msg 395 284 open -bytes 3 samples/\$1.wav;
#X msg 328 468 stop;
#X text 288 125 on start \; stop possible current recording \; open
file \; start rec;
#X text 51 555 finished recording;
#X obj 112 501 bng 15 250 50 0 empty empty empty 17 7 0 10 -262144
-1 -1;
#X obj 326 189 bng 15 250 50 0 empty empty empty 17 7 0 10 -261682
-1 -1;
#X obj 215 203 delay 1 1 samp;
#X text 12 306 min. rec time: 100 ms;
#X text 11 257 max rec time: 10 ms;
#X obj 182 384 cputime;
#X obj 246 312 loadbang;
#X obj 182 426 moses;
#X obj 226 446 bng 15 250 50 0 empty empty empty 17 7 0 10 -262144
-1 -1;
#X obj 184 446 bng 15 250 50 0 empty empty empty 17 7 0 10 -262144
-1 -1;
#X floatatom 241 422 6 0 0 0 - - -, f 6;
#X text 389 525 msg out;
#X obj 182 406 * 10;
#X obj 58 353 delay;
#X obj 17 368 bng 15 250 50 0 empty empty empty 17 7 0 10 -262144 -1
-1;
#X msg 97 329 0;
#X obj 43 458 spigot;
#X floatatom 95 458 5 0 0 0 - - -, f 5;
#X msg 105 436 1;
#X text 18 600 on start \; start min rec timer \; if stop \; use min
rec time;
#X floatatom 296 542 5 0 0 0 - - -, f 5;
#X obj 296 561 change;
#X msg 305 519 0;
#X msg 296 605 stop;
#X obj 58 212 delay 10000;
#X msg 226 475 1;
#X obj 296 583 moses 1;
#X text 344 603 stop after reset;
#X obj 356 277 bng 15 250 50 0 empty empty empty 17 7 0 10 -262144
-1 -1;
#X obj 482 479 bng 15 250 50 0 empty empty empty 17 7 0 10 -262144
-1 -1;
#X obj 307 628 bng 15 250 50 0 empty empty empty 17 7 0 10 -262144
-1 -1;
#X msg 246 334 1000;
#X obj 481 502 outlet;
#X text 485 527 stop current rec;
#X obj 81 73 > 0.1;
#X connect 0 0 1 0;
#X connect 3 0 5 0;
#X connect 3 0 6 0;
#X connect 5 0 4 0;
#X connect 6 0 10 0;
#X connect 6 0 9 0;
#X connect 7 0 29 1;
#X connect 8 0 16 0;
#X connect 8 0 29 0;
#X connect 8 0 37 0;
#X connect 8 0 39 0;
#X connect 8 0 48 0;
#X connect 9 0 7 0;
#X connect 9 0 10 0;
#X connect 9 1 11 0;
#X connect 9 1 25 0;
#X connect 9 1 26 0;
#X connect 10 0 9 1;
#X connect 11 0 9 1;
#X connect 12 0 0 0;
#X connect 12 0 2 0;
#X connect 12 0 58 0;
#X connect 14 0 16 1;
#X connect 16 0 20 0;
#X connect 16 0 18 0;
#X connect 18 0 17 0;
#X connect 18 0 52 0;
#X connect 20 0 17 0;
#X connect 21 0 17 0;
#X connect 21 0 46 0;
#X connect 21 0 53 0;
#X connect 24 0 19 0;
#X connect 25 0 21 0;
#X connect 26 0 8 0;
#X connect 29 0 36 0;
#X connect 30 0 55 0;
#X connect 31 0 33 0;
#X connect 31 1 32 0;
#X connect 32 0 49 0;
#X connect 33 0 42 0;
#X connect 36 0 31 0;
#X connect 36 0 34 0;
#X connect 37 0 38 0;
#X connect 37 0 40 0;
#X connect 39 0 41 0;
#X connect 40 0 49 0;
#X connect 41 0 40 1;
#X connect 42 0 41 0;
#X connect 44 0 45 0;
#X connect 45 0 50 0;
#X connect 46 0 44 0;
#X connect 47 0 17 0;
#X connect 47 0 24 0;
#X connect 47 0 54 0;
#X connect 48 0 7 0;
#X connect 49 0 44 0;
#X connect 50 1 47 0;
#X connect 53 0 56 0;
#X connect 55 0 31 1;
#X connect 55 0 37 1;
#X connect 58 0 0 1;
#X connect 58 0 3 0;
#X coords 0 682 1 681 150 90 0;
#X restore 506 268 pd start_stop;
#X obj 506 246 r gate1;
#X msg 149 419 symbol samples/\$1.wav;
#X obj 254 94 bng 10 250 50 0 empty empty empty 17 7 0 10 -33289 -4034
-1;
#X text 198 112 midi ctl activity;
#X obj 149 188 utils/sample_selector;
#X obj 149 345 i;
#X obj 178 349 utils/drumpads;
#X obj 614 166 utils/adc_;
#X obj 637 719 utils/sum~;
#N canvas 517 154 720 511 djm 0;
#X obj 189 375 vsl 15 20 0 1 0 0 empty empty empty 0 -9 0 10 -262144
-1 -1 1900 1;
#X obj 209 375 vsl 15 20 0 1 0 0 empty empty empty 0 -9 0 10 -262144
-1 -1 1900 1;
#X obj 229 375 vsl 15 20 0 1 0 0 empty empty empty 0 -9 0 10 -262144
-1 -1 1900 1;
#X obj 73 207 vsl 15 20 0 1 0 0 empty empty empty 0 -9 0 10 -262144
-1 -1 0 1;
#X obj 93 207 vsl 15 20 0 1 0 0 empty empty empty 0 -9 0 10 -262144
-1 -1 0 1;
#X obj 350 293 loadbang;
#X msg 191 184 0;
#X obj 119 213 hsl 20 15 0 1 0 0 empty empty empty -2 -8 0 10 -262144
-1 -1 0 1;
#X obj 68 182 utils/djm/faders;
#X obj 179 344 utils/djm/knobsA;
#X msg 164 321 64;
#X obj 497 376 vsl 15 20 0 1 0 0 empty empty empty 0 -9 0 10 -262144
-1 -1 1900 1;
#X obj 517 376 vsl 15 20 0 1 0 0 empty empty empty 0 -9 0 10 -262144
-1 -1 1900 1;
#X obj 537 376 vsl 15 20 0 1 0 0 empty empty empty 0 -9 0 10 -262144
-1 -1 1900 1;
#X msg 456 318 64;
#X obj 487 345 utils/djm/knobsB;
#X obj 324 377 vsl 15 20 0 1 0 0 empty empty empty 0 -9 0 10 -262144
-1 -1 1900 1;
#X obj 344 377 vsl 15 20 0 1 0 0 empty empty empty 0 -9 0 10 -262144
-1 -1 1900 1;
#X obj 364 377 vsl 15 20 0 1 0 0 empty empty empty 0 -9 0 10 -262144
-1 -1 1900 1;
#X msg 316 322 64;
#X obj 314 346 utils/djm/knobsMiddle;
#X obj 367 188 utils/djm/knobsTop;
#X msg 334 189 0;
#X obj 389 215 hsl 30 15 0 1 0 0 empty empty empty -2 -8 0 10 -262144
-1 -1 0 1;
#X obj 428 217 hsl 30 15 0 1 0 0 empty empty empty -2 -8 0 10 -262144
-1 -1 0 1;
#X obj 322 28 inlet;
#X obj 339 59 tgl 15 0 empty empty empty 17 7 0 10 -262144 -1 -1 1
1;
#X obj 67 253 s gate1;
#X obj 431 241 s lpf;
#X obj 385 244 s hpf;
#X text 127 21 MIDI I/O objects;
#X floatatom 165 76 0 0 0 0 - - -;
#X floatatom 127 76 0 0 0 0 - - -;
#X floatatom 203 75 0 0 0 0 - - -;
#X obj 127 49 ctlin;
#X text 109 100 value | nr | channel;
#X obj 124 125 spigot;
#X obj 174 125 spigot;
#X obj 224 125 spigot;
#X floatatom 243 171 5 0 0 0 - - -, f 5;
#X floatatom 269 169 5 0 0 0 - - -, f 5;
#X floatatom 243 300 5 0 0 0 - - -, f 5;
#X floatatom 273 279 5 0 0 0 - - -, f 5;
#X obj 320 163 loadbang;
#X text 542 495 comment;
#X obj 180 420 s sampler-pitch;
#X obj 446 431 s dly-rate;
#X obj 15 73 expr $f1 / 127;
#X floatatom 15 95 5 0 0 0 - - -, f 5;
#X obj 20 133 outlet;
#X obj 309 428 s lo;
#X obj 349 428 s mid;
#X obj 399 428 s hi;
#X connect 0 0 45 0;
#X connect 3 0 27 0;
#X connect 5 0 10 0;
#X connect 5 0 19 0;
#X connect 5 0 14 0;
#X connect 6 0 3 0;
#X connect 6 0 4 0;
#X connect 6 0 7 0;
#X connect 8 0 3 0;
#X connect 8 1 4 0;
#X connect 8 2 7 0;
#X connect 9 0 0 0;
#X connect 9 1 1 0;
#X connect 9 2 2 0;
#X connect 10 0 2 0;
#X connect 10 0 1 0;
#X connect 10 0 0 0;
#X connect 11 0 46 0;
#X connect 14 0 13 0;
#X connect 14 0 12 0;
#X connect 14 0 11 0;
#X connect 15 0 11 0;
#X connect 15 1 12 0;
#X connect 15 2 13 0;
#X connect 16 0 50 0;
#X connect 17 0 51 0;
#X connect 18 0 52 0;
#X connect 19 0 18 0;
#X connect 19 0 17 0;
#X connect 19 0 16 0;
#X connect 20 0 16 0;
#X connect 20 1 17 0;
#X connect 20 2 18 0;
#X connect 21 0 23 0;
#X connect 21 1 24 0;
#X connect 22 0 24 0;
#X connect 22 0 23 0;
#X connect 23 0 29 0;
#X connect 24 0 28 0;
#X connect 25 0 26 0;
#X connect 26 0 38 1;
#X connect 26 0 37 1;
#X connect 26 0 36 1;
#X connect 31 0 37 0;
#X connect 32 0 47 0;
#X connect 33 0 38 0;
#X connect 34 0 32 0;
#X connect 34 1 31 0;
#X connect 34 2 33 0;
#X connect 36 0 8 0;
#X connect 36 0 39 0;
#X connect 37 0 8 1;
#X connect 37 0 40 0;
#X connect 39 0 41 0;
#X connect 39 0 21 0;
#X connect 40 0 42 0;
#X connect 40 0 21 1;
#X connect 41 0 9 0;
#X connect 41 0 20 0;
#X connect 41 0 15 0;
#X connect 42 0 9 1;
#X connect 42 0 20 1;
#X connect 42 0 15 1;
#X connect 43 0 6 0;
#X connect 43 0 22 0;
#X connect 47 0 48 0;
#X connect 47 0 36 0;
#X connect 48 0 49 0;
#X restore 424 45 pd djm;
#X obj 417 24 tgl 15 0 empty empty empty 17 7 0 10 -1 -4034 -1 1 1
;
#X obj 439 15 loadbang;
#X floatatom 424 67 5 0 0 0 - - -, f 5;
#X obj 679 484 r hpf;
#X obj 723 482 r lpf;
#X obj 635 516 fx/filter~;
#X obj 733 576 fx/filter3~;
#X obj 786 547 r lo;
#X obj 826 547 r mid;
#X obj 876 547 r hi;
#X obj 43 878 fx/limiter~;
#X obj 383 888 limiter~;
#X connect 0 0 1 0;
#X connect 3 0 36 0;
#X connect 6 0 33 0;
#X connect 8 0 6 0;
#X connect 8 1 5 0;
#X connect 8 2 7 0;
#X connect 9 0 0 0;
#X connect 10 0 12 0;
#X connect 11 0 24 0;
#X connect 12 0 25 0;
#X connect 13 0 25 0;
#X connect 13 0 11 0;
#X connect 14 0 13 0;
#X connect 15 0 13 0;
#X connect 16 0 25 2;
#X connect 17 0 51 0;
#X connect 17 0 51 1;
#X connect 22 0 39 0;
#X connect 23 0 39 1;
#X connect 24 0 25 1;
#X connect 25 0 39 0;
#X connect 25 1 39 1;
#X connect 27 0 26 0;
#X connect 28 1 29 0;
#X connect 30 0 3 0;
#X connect 30 1 2 0;
#X connect 30 2 16 0;
#X connect 31 0 30 0;
#X connect 32 0 13 0;
#X connect 35 0 36 0;
#X connect 35 1 30 1;
#X connect 36 0 32 0;
#X connect 37 0 32 0;
#X connect 38 0 21 0;
#X connect 38 0 2 0;
#X connect 38 1 20 0;
#X connect 38 1 2 1;
#X connect 39 0 46 0;
#X connect 39 1 46 1;
#X connect 40 0 43 0;
#X connect 41 0 40 0;
#X connect 42 0 41 0;
#X connect 44 0 46 2;
#X connect 45 0 46 3;
#X connect 46 0 47 0;
#X connect 46 1 47 1;
#X connect 47 0 19 0;
#X connect 47 1 19 1;
#X connect 48 0 47 2;
#X connect 49 0 47 3;
#X connect 50 0 47 4;
