#N canvas 72 145 551 446 10;
#X msg 126 158 read \$1;
#X msg 169 113 symbol samples/1.wav;
#X obj 169 135 symbol;
#X msg 243 45 print;
#X obj 113 183 print;
#X msg 38 37 open samples/10.wav;
#X obj 27 91 writesf~ 2;
#X obj 153 242 readsf~ 2;
#X obj 301 243 utils/dac_;
#X msg 140 215 open samples/10.wav;
#X msg 251 153 print;
#X msg 36 306 read -resize \$1 chL chR;
#N canvas 0 22 450 278 (subpatch) 0;
#X array chL 1 float 2;
#X coords 0 1 1 -1 100 140 1 0 0;
#X restore 423 35 graph;
#N canvas 0 22 450 278 (subpatch) 0;
#X array chR 100 float 3;
#A 0 0 0 0 0 0 0 0 0 0 0 0 0 0 0 0 0 0 0 0 0 0 0 0 0 0 0 0 0 0 0 0
0 0 0 0 0 0 0 0 0 0 0 0 0 0 0 0 0 0 0 0 0 0 0 0 0 0 0 0 0 0 0 0 0 0
0 0 0 0 0 0 0 0 0 0 0 0 0 0 0 0 0 0 0 0 0 0 0 0 0 0 0 0 0 0 0 0 0 0
0;
#X coords 0 1 100 -1 100 140 1 0 0;
#X restore 429 201 graph;
#X msg 15 276 open samples/10.wav;
#X obj 36 328 soundfiler;
#X obj 35 163 openpanel;
#X obj 35 185 print;
#X obj 29 140 bng 15 250 50 0 empty empty empty 17 7 0 10 -262144 -1
-1;
#X floatatom 36 350 5 0 0 0 - - -, f 5;
#X floatatom 116 356 5 0 0 0 - - -, f 5;
#X connect 0 0 4 0;
#X connect 1 0 2 0;
#X connect 2 0 0 0;
#X connect 3 0 6 0;
#X connect 5 0 6 0;
#X connect 9 0 7 0;
#X connect 10 0 9 0;
#X connect 11 0 15 0;
#X connect 14 0 11 0;
#X connect 15 0 19 0;
#X connect 15 1 20 0;
#X connect 16 0 17 0;
#X connect 18 0 16 0;
