#N canvas 109 334 404 464 10;
#X obj 62 323 clip~ -1 1;
#X obj 62 347 *~;
#X obj 12 347 *~;
#X floatatom 50 245 5 0 0 0 - - -, f 5;
#X obj 50 223 !- 1;
#X obj 12 379 +~;
#X obj 12 401 outlet~;
#X obj 108 136 hsl 60 30 0 1 0 0 empty empty Mix -2 -8 0 10 -261682
-1 -1 3700 1;
#X obj 230 96 loadbang;
#X obj 230 141 line;
#X obj 108 184 hsl 60 20 1 0.1 0 0 empty empty Reduction -2 -8 0 10
-261234 -1 -1 5300 1;
#X floatatom 132 274 5 0 0 0 - - -, f 5;
#X obj 132 252 !- 0;
#X obj 12 285 +~;
#X obj 14 18 inlet~;
#X obj 174 90 line;
#X msg 174 67 0 \, 0.5 200;
#X floatatom 212 227 5 0 0 0 - - -, f 5;
#X msg 230 118 1 \, 0.9 100;
#X floatatom 227 182 5 0 0 0 - - -, f 5;
#X text 103 100 Distortion;
#X floatatom 141 370 5 0 0 0 - - -, f 5;
#X obj 62 369 *~;
#X obj 141 348 expr if($f1 < 0.4 \, 1.8 - $f1 - $f1 \, 1);
#X connect 0 0 1 0;
#X connect 1 0 22 0;
#X connect 2 0 5 0;
#X connect 4 0 3 0;
#X connect 4 0 2 1;
#X connect 5 0 6 0;
#X connect 7 0 4 0;
#X connect 7 0 19 0;
#X connect 7 0 22 1;
#X connect 8 0 18 0;
#X connect 8 0 16 0;
#X connect 9 0 10 0;
#X connect 10 0 12 0;
#X connect 10 0 0 2;
#X connect 10 0 17 0;
#X connect 10 0 23 0;
#X connect 12 0 11 0;
#X connect 12 0 0 1;
#X connect 13 0 0 0;
#X connect 13 0 2 0;
#X connect 14 0 13 0;
#X connect 15 0 7 0;
#X connect 16 0 15 0;
#X connect 18 0 9 0;
#X connect 22 0 5 1;
#X connect 23 0 21 0;
#X connect 23 0 1 1;
#X coords 0 -1 1 1 75 110 2 100 100;
