#N canvas 56 129 680 575 10;
#X obj -25 310 delwrite~ asd1 500;
#X obj -40 155 delread~ asd1 500;
#X obj 105 137 vsl 15 100 0.01 1.1 0 0 empty empty Feedback 0 -9 0
10 -262131 -1 -1 4450 1;
#X text -192 80 comment;
#X obj -129 411 *~;
#X obj 221 136 vsl 15 100 0.01 1 0 0 empty empty Dry 0 -9 0 10 -204786
-1 -1 8900 1;
#X obj 243 136 vsl 15 100 0.01 1 0 0 empty empty Wet 0 -9 0 10 -204786
-1 -1 0 1;
#X obj -25 276 *~ 0.9;
#X obj -100 411 *~ 1;
#X obj -113 448 +~;
#X obj -113 470 outlet~;
#X obj -133 95 +~;
#X obj -131 31 inlet~;
#X obj -83 32 inlet~;
#X obj -115 189 *~ 1;
#X text -112 170 volume pre;
#X text -78 433 volume post;
#X msg 207 29 color \$1;
#X text 104 104 dly1;
#X obj 128 165 hsl 80 15 1 1000 0 0 empty empty Time -2 -8 0 10 -262131
-1 -1 981 1;
#X floatatom 157 149 5 0 0 0 - - -, f 5;
#X obj 303 42 loadbang;
#X msg 303 64 0.9;
#X msg 363 64 0.5;
#X obj 114 363 * 100;
#X floatatom 156 121 5 0 0 0 - - -, f 5;
#X text 191 121 %;
#X text 194 150 ms;
#X obj 353 211 vsl 25 100 25 22050 1 0 empty empty empty 0 -9 0 10
-232576 -1 -1 9900 1;
#X obj 439 256 loadbang;
#X text 352 172 LP;
#X msg 479 278 1;
#X floatatom 352 189 6 0 0 0 - - -, f 6;
#X obj 402 364 i;
#X obj -40 213 lop~, f 6;
#X msg 439 278 22050;
#X obj -40 191 hip~, f 6;
#X obj 134 223 hsl 60 15 25 20000 0 0 empty empty empty -2 -8 0 10
-203904 -1 -1 2946 1;
#X obj 134 203 hsl 60 15 1 15000 0 0 empty empty empty -2 -8 0 10 -203904
-1 -1 19 1;
#X text 135 183 Filter;
#X text 197 223 LP;
#X text 197 203 HP;
#X msg 393 64 125;
#X msg -14 87 \$1 100;
#X obj -14 109 line;
#X msg 231 406 color \$1;
#X obj 484 339 vsl 25 100 1 50 1 0 empty empty empty 0 -9 0 10 -232576
-1 -1 0 1;
#X floatatom 484 447 5 0 0 0 - - -, f 5;
#X obj 231 384 expr if($f1 < 5 \, 4 \, 5);
#X msg 333 64 0;
#X msg 333 105 50;
#X msg 363 105 10000;
#X obj 208 7 expr if($f1 > 0.95 \, 4 \, 5);
#X connect 1 0 36 0;
#X connect 2 0 7 1;
#X connect 2 0 24 0;
#X connect 2 0 52 0;
#X connect 4 0 9 0;
#X connect 5 0 4 1;
#X connect 6 0 8 1;
#X connect 7 0 0 0;
#X connect 8 0 9 1;
#X connect 9 0 10 0;
#X connect 11 0 4 0;
#X connect 11 0 14 0;
#X connect 12 0 11 0;
#X connect 14 0 0 0;
#X connect 17 0 2 0;
#X connect 19 0 20 0;
#X connect 19 0 43 0;
#X connect 19 0 48 0;
#X connect 21 0 22 0;
#X connect 21 0 49 0;
#X connect 21 0 23 0;
#X connect 21 0 42 0;
#X connect 21 0 50 0;
#X connect 21 0 51 0;
#X connect 22 0 5 0;
#X connect 23 0 2 0;
#X connect 24 0 25 0;
#X connect 28 0 33 0;
#X connect 29 0 35 0;
#X connect 29 0 31 0;
#X connect 33 0 32 0;
#X connect 34 0 8 0;
#X connect 34 0 7 0;
#X connect 35 0 28 0;
#X connect 36 0 34 0;
#X connect 37 0 34 1;
#X connect 38 0 36 1;
#X connect 42 0 19 0;
#X connect 43 0 44 0;
#X connect 44 0 1 0;
#X connect 45 0 19 0;
#X connect 46 0 45 0;
#X connect 46 0 47 0;
#X connect 48 0 45 0;
#X connect 49 0 6 0;
#X connect 50 0 38 0;
#X connect 51 0 37 0;
#X connect 52 0 17 0;
#X coords 0 -1 1 1 165 145 2 100 100;
