#N canvas 127 516 501 356 10;
#X obj 75 27 inlet;
#X obj 96 4 inlet;
#X obj 120 28 inlet;
#X obj 145 6 inlet;
#X obj 164 32 inlet;
#X obj 250 30 inlet;
#X obj 275 7 inlet;
#X obj 297 32 inlet;
#X obj 328 10 inlet;
#X obj 341 34 inlet;
#X obj 374 10 inlet;
#X obj 389 34 inlet;
#X obj 17 288 outlet;
#X obj 34 312 outlet;
#X obj 69 291 outlet;
#X obj 94 316 outlet;
#X obj 128 293 outlet;
#X obj 203 291 outlet;
#X obj 227 316 outlet;
#X obj 255 294 outlet;
#X obj 283 319 outlet;
#X obj 306 294 outlet;
#X obj 334 319 outlet;
#X obj 359 294 outlet;
#X obj 280 101 pianokey_white;
#X obj 220 101 pianokey_white;
#X obj 100 101 pianokey_white;
#X obj 130 101 pianokey_white;
#X obj 160 101 pianokey_white;
#X obj 190 101 pianokey_white;
#X obj 250 101 pianokey_white;
#X obj 210 100 pianokey_black;
#X obj 240 100 pianokey_black;
#X obj 270 100 pianokey_black;
#X obj 120 100 pianokey_black;
#X obj 150 100 pianokey_black;
#X connect 0 0 26 1;
#X connect 1 0 34 1;
#X connect 2 0 27 1;
#X connect 3 0 35 0;
#X connect 4 0 28 1;
#X connect 5 0 29 1;
#X connect 6 0 31 1;
#X connect 7 0 25 1;
#X connect 8 0 32 1;
#X connect 9 0 30 1;
#X connect 10 0 33 1;
#X connect 11 0 24 1;
#X connect 24 0 23 0;
#X connect 25 0 19 0;
#X connect 26 0 12 0;
#X connect 27 0 14 0;
#X connect 28 0 16 0;
#X connect 29 0 17 0;
#X connect 30 0 21 0;
#X connect 31 0 18 0;
#X connect 32 0 20 0;
#X connect 33 0 22 0;
#X connect 34 0 13 0;
#X connect 35 0 15 0;
#X coords 0 -1 1 1 205 76 2 100 100;
