#N canvas 1020 424 575 442 10;
#X obj 40 57 inlet~;
#X obj 96 247 vd~ chorus-\$0;
#X obj 212 133 osc~ 2;
#X obj 96 269 outlet~;
#X obj 40 79 delwrite~ chorus-\$0 50;
#X obj 299 237 ../../utils/vu_~;
#X obj 212 66 inlet;
#X text 224 46 rate;
#X obj 274 68 inlet;
#X text 275 47 delay time;
#X obj 344 83 * 50;
#X obj 95 223 +~ 1;
#X obj 212 88 pow 2;
#X floatatom 289 150 5 0 0 0 - - -, f 5;
#X obj 344 127 clip 0.5 50;
#X floatatom 165 130 5 0 0 0 - - -, f 5;
#X obj 212 111 expr $f1 + 0.02;
#X msg 344 149 \$1 10;
#X floatatom 409 172 5 0 0 0 - - -, f 5;
#X obj 344 171 line;
#X obj 96 200 *~ 1;
#X obj 344 105 + 0.5;
#X obj 450 67 inlet;
#X text 446 45 feedback;
#X obj 450 149 s feedback-\$0;
#X obj 35 125 r feedback-\$0;
#X obj 10 146 *~ 0;
#X floatatom 507 82 5 0 0 0 - - -, f 5;
#X obj 450 89 pow 0.5;
#X obj 450 111 * 0.5;
#X floatatom 507 120 5 0 0 0 - - -, f 5;
#X connect 0 0 4 0;
#X connect 1 0 3 0;
#X connect 1 0 26 0;
#X connect 2 0 5 0;
#X connect 2 0 20 0;
#X connect 6 0 12 0;
#X connect 8 0 10 0;
#X connect 10 0 21 0;
#X connect 11 0 1 0;
#X connect 12 0 16 0;
#X connect 14 0 13 0;
#X connect 14 0 17 0;
#X connect 16 0 2 0;
#X connect 16 0 15 0;
#X connect 17 0 18 0;
#X connect 17 0 19 0;
#X connect 19 0 20 1;
#X connect 20 0 11 0;
#X connect 21 0 14 0;
#X connect 22 0 28 0;
#X connect 25 0 26 1;
#X connect 26 0 4 0;
#X connect 28 0 27 0;
#X connect 28 0 29 0;
#X connect 29 0 24 0;
#X connect 29 0 30 0;
