#N canvas 909 426 450 300 10;
#X obj 67 68 inlet~;
#X obj 117 68 inlet~;
#X obj 67 210 outlet~;
#X obj 127 210 outlet~;
#X obj 67 122 clip~ -1 1;
#X obj 147 122 clip~ -1 1;
#X obj 67 90 *~ 1;
#X obj 117 90 *~ 1;
#X obj 192 71 f \$1;
#X obj 191 37 loadbang;
#X obj 67 174 *~ 1;
#X obj 147 174 *~ 1;
#X text 275 148 output volume;
#X obj 338 110 inlet;
#X text 21 35 creaton arg = gain pre;
#X connect 0 0 6 0;
#X connect 1 0 7 0;
#X connect 4 0 10 0;
#X connect 5 0 11 0;
#X connect 6 0 4 0;
#X connect 7 0 5 0;
#X connect 8 0 6 1;
#X connect 8 0 7 1;
#X connect 9 0 8 0;
#X connect 10 0 2 0;
#X connect 11 0 3 0;
#X connect 13 0 11 1;
#X connect 13 0 10 1;
