#N canvas 704 371 491 279 10;
#X obj 32 46 inlet~;
#X obj 32 208 outlet~;
#X obj 32 125 clip~ -1 1;
#X obj 166 42 inlet;
#X obj 216 42 inlet;
#X obj 112 125 clip~ -0.8 0.8;
#X obj 221 125 clip~ -0.5 0.5;
#X obj 115 43 inlet;
#X obj 32 147 *~ 1;
#X obj 112 147 *~ 0;
#X obj 221 147 *~ 0;
#X obj 166 74 * 1.25;
#X obj 216 74 * 2;
#X text 243 73 gain corrections;
#X text 95 15 channel levels (track 1 may distort as well!);
#X connect 0 0 2 0;
#X connect 0 0 6 0;
#X connect 0 0 5 0;
#X connect 2 0 8 0;
#X connect 3 0 11 0;
#X connect 4 0 12 0;
#X connect 5 0 9 0;
#X connect 6 0 10 0;
#X connect 7 0 8 1;
#X connect 8 0 1 0;
#X connect 9 0 1 0;
#X connect 10 0 1 0;
#X connect 11 0 9 1;
#X connect 12 0 10 1;
