#N canvas 211 299 450 300 10;
#X obj 40 28 inlet;
#X obj 103 32 inlet;
#X floatatom 53 54 5 0 0 0 - - -, f 5;
#X floatatom 103 54 5 0 0 0 - - -, f 5;
#X obj 111 79 i;
#X obj 53 73 t b f;
#X obj 63 153 spigot;
#X obj 63 175 moses 127;
#X obj 113 214 outlet;
#X obj 60 212 outlet;
#X obj 105 119 == \$1;
#X connect 0 0 2 0;
#X connect 1 0 3 0;
#X connect 2 0 5 0;
#X connect 3 0 4 1;
#X connect 4 0 6 0;
#X connect 5 0 4 0;
#X connect 5 1 10 0;
#X connect 6 0 7 0;
#X connect 7 0 8 0;
#X connect 7 1 9 0;
#X connect 10 0 6 1;
