#N canvas 865 260 450 300 10;
#X obj 171 104 tgl 20 0 empty empty empty 27 7 0 10 -228856 -1 -1 1
1;
#X msg 177 66 1;
#X obj 31 244 *~;
#X obj 61 244 *~;
#X obj 104 137 vu_;
#X obj 67 284 outlet~;
#X obj 11 284 outlet~;
#X obj 118 105 vsl 15 25 0.01 1 1 0 empty empty empty 0 -9 0 10 -66577
-228856 -1 2400 1;
#X obj 215 40 loadbang;
#X obj 215 84 line;
#X msg 215 62 set 0 \, 1 100;
#X obj 9 55 adc~ 1 2 3 4;
#X obj 139 137 vu_;
#X obj 121 244 *~;
#X obj 151 244 *~;
#X obj 182 284 outlet~;
#X obj 126 284 outlet~;
#X connect 0 0 2 1;
#X connect 0 0 3 1;
#X connect 0 0 13 1;
#X connect 0 0 14 1;
#X connect 1 0 0 0;
#X connect 2 0 6 0;
#X connect 3 0 5 0;
#X connect 8 0 10 0;
#X connect 8 0 1 0;
#X connect 9 0 7 0;
#X connect 10 0 9 0;
#X connect 11 0 2 0;
#X connect 11 0 4 0;
#X connect 11 1 3 0;
#X connect 11 1 4 1;
#X connect 11 2 12 0;
#X connect 11 2 13 0;
#X connect 11 3 12 1;
#X connect 11 3 14 0;
#X connect 13 0 16 0;
#X connect 14 0 15 0;
#X coords 0 -1 1 1 100 125 2 100 100;
