#N canvas 282 303 723 392 10;
#X obj 199 80 f \$1;
#X text 333 171 save;
#X obj 138 40 loadbang;
#X obj 97 157 pack f f;
#X obj 98 131 f;
#X obj 137 131 f;
#X obj 256 163 pack f f;
#X obj 257 137 f;
#X obj 296 137 f;
#X obj 273 62 bng 15 250 50 0 empty empty empty 17 7 0 10 -262144 -1
-1;
#X floatatom 181 146 5 0 0 0 - - -, f 5;
#X floatatom 207 170 5 0 0 0 - - -, f 5;
#X floatatom 161 191 5 0 0 0 - - -, f 5;
#X floatatom 49 146 5 0 0 0 - - -, f 5;
#X msg 310 191 \; track-\$1 write ../data/track-\$2.txt;
#X msg 59 246 \; track-\$1 read ../data/track-\$2.txt;
#X obj 258 34 inlet;
#X text 84 225 read;
#X obj 560 101 table track-\$1;
#X obj 152 81 f \$1;
#X obj 83 87 t b;
#X obj 57 82 bng 15 250 50 0 empty empty empty 17 7 0 10 -262144 -1
-1;
#X obj 24 285 tabread track-\$1;
#X obj 20 33 inlet;
#X text 15 13 read index;
#X text 252 14 save table to disk;
#X text 42 63 reread from disk;
#X obj 440 41 inlet;
#X text 434 21 write (index \, value);
#X obj 24 307 outlet;
#X obj 403 130 tabwrite track-\$1;
#X obj 440 63 unpack f f;
#X obj 440 85 i;
#X obj 490 90 i;
#X connect 0 0 5 1;
#X connect 0 0 8 1;
#X connect 0 0 11 0;
#X connect 2 0 0 0;
#X connect 2 0 19 0;
#X connect 3 0 15 0;
#X connect 4 0 3 0;
#X connect 4 0 13 0;
#X connect 5 0 3 1;
#X connect 5 0 12 0;
#X connect 6 0 14 0;
#X connect 7 0 6 0;
#X connect 8 0 6 1;
#X connect 9 0 7 0;
#X connect 9 0 8 0;
#X connect 16 0 9 0;
#X connect 19 0 4 1;
#X connect 19 0 7 1;
#X connect 19 0 10 0;
#X connect 19 0 20 0;
#X connect 20 0 4 0;
#X connect 20 0 5 0;
#X connect 21 0 20 0;
#X connect 22 0 29 0;
#X connect 23 0 22 0;
#X connect 27 0 31 0;
#X connect 31 0 32 0;
#X connect 31 1 33 0;
#X connect 32 0 30 1;
#X connect 33 0 30 0;
