#N canvas 648 250 450 550 10;
#X obj 105 107 hsl 30 15 0 1 0 0 empty empty empty -2 -8 0 10 -191407
-1 -1 0 1;
#X obj 16 209 inlet~;
#X obj 31 405 *~;
#X obj 160 236 line;
#X floatatom 160 258 5 0 0 0 - - -, f 5;
#X msg 160 214 \$1 10;
#X obj 41 451 outlet~;
#X obj 25 26 loadbang;
#X obj 25 70 line;
#X obj 242 43 inlet;
#X obj 75 210 inlet~;
#X obj 90 406 *~;
#X obj 100 452 outlet~;
#X obj 158 133 expr 1 - $f1;
#X obj 167 165 pow 0.5;
#X floatatom 167 187 5 0 0 0 - - -, f 5;
#X obj 96 137 pow 0.5;
#X floatatom 96 159 5 0 0 0 - - -, f 5;
#X obj 212 233 line;
#X floatatom 212 255 5 0 0 0 - - -, f 5;
#X msg 212 211 \$1 10;
#X msg 25 48 set 0 \, 0.5 100;
#X obj 61 407 *~;
#X obj 120 408 *~;
#X connect 0 0 13 0;
#X connect 0 0 16 0;
#X connect 1 0 2 0;
#X connect 1 0 22 0;
#X connect 2 0 6 0;
#X connect 3 0 4 0;
#X connect 3 0 11 1;
#X connect 3 0 23 1;
#X connect 5 0 3 0;
#X connect 7 0 21 0;
#X connect 8 0 0 0;
#X connect 9 0 0 0;
#X connect 10 0 11 0;
#X connect 10 0 23 0;
#X connect 11 0 12 0;
#X connect 13 0 14 0;
#X connect 14 0 15 0;
#X connect 14 0 20 0;
#X connect 16 0 17 0;
#X connect 16 0 5 0;
#X connect 18 0 19 0;
#X connect 18 0 2 1;
#X connect 18 0 22 1;
#X connect 20 0 18 0;
#X connect 21 0 8 0;
#X connect 22 0 12 0;
#X connect 23 0 6 0;
#X coords 0 -1 1 1 40 30 2 100 100;
