#N canvas 278 379 381 354 10;
#X obj 140 102 vsl 30 79 0.01 1 1 0 empty empty empty 0 -9 0 10 -66577
-1 -1 5761 1;
#X obj 23 212 *~;
#X obj 73 212 *~;
#X obj 37 33 env~;
#X obj 37 55 - 100;
#X obj 79 33 env~;
#X obj 79 55 - 100;
#X obj 102 102 vu 15 80 empty empty -1 -8 0 10 -66577 -1 0 0;
#X obj 23 7 inlet~;
#X obj 73 7 inlet~;
#X obj 23 250 dac~ 1 2;
#X obj 119 102 vu 15 80 empty empty -1 -8 0 10 -66577 -1 0 0;
#X obj 173 19 loadbang;
#X obj 123 7 inlet;
#X msg 173 41 set 0 \, 0.3 200;
#X obj 173 63 line;
#X connect 0 0 1 1;
#X connect 0 0 2 1;
#X connect 1 0 10 0;
#X connect 2 0 10 1;
#X connect 3 0 4 0;
#X connect 4 0 7 0;
#X connect 5 0 6 0;
#X connect 6 0 11 0;
#X connect 8 0 1 0;
#X connect 8 0 3 0;
#X connect 9 0 2 0;
#X connect 9 0 5 0;
#X connect 12 0 14 0;
#X connect 13 0 0 0;
#X connect 14 0 15 0;
#X connect 15 0 0 0;
#X coords 0 -1 1 1 70 84 2 100 100;
