#N canvas 1007 373 450 300 10;
#X obj 105 124 hsl 60 15 -100 100 0 0 empty empty Detune -2 -8 0 10
-262130 -1 -1 2963 1;
#X obj 58 160 i;
#X floatatom 154 105 5 0 0 0 - - -, f 5;
#X obj 238 238 print;
#X obj 171 124 bng 15 250 50 0 empty empty empty 17 7 0 10 -262130
-1 -1;
#X msg 307 175 0;
#X msg 240 216 Detune: \$1 ct;
#X obj 32 31 inlet;
#X obj 97 30 inlet;
#X obj 58 204 line;
#X obj 58 226 outlet;
#X obj 211 80 loadbang;
#X obj 26 61 to_negative_range;
#X msg 58 182 \$1 25;
#X obj 26 84 - 0.007;
#X obj 26 106 * 500;
#X text 197 30 midi knob \; center pos: offset -0.007;
#X connect 0 0 1 0;
#X connect 1 0 2 0;
#X connect 1 0 13 0;
#X connect 2 0 6 0;
#X connect 4 0 5 0;
#X connect 5 0 0 0;
#X connect 5 0 6 0;
#X connect 6 0 3 0;
#X connect 7 0 12 0;
#X connect 8 0 2 0;
#X connect 9 0 10 0;
#X connect 11 0 4 0;
#X connect 12 0 14 0;
#X connect 13 0 9 0;
#X connect 14 0 15 0;
#X connect 15 0 0 0;
#X coords 0 -1 1 1 90 45 2 100 100;
