#N canvas 0 23 735 543 10;
#X obj 222 376 vsl 15 20 0 1 0 0 empty empty empty 0 -9 0 10 -262144
-1 -1 956 1;
#X obj 242 376 vsl 15 20 0 1 0 0 empty empty empty 0 -9 0 10 -262144
-1 -1 956 1;
#X obj 262 376 vsl 15 20 0 1 0 0 empty empty empty 0 -9 0 10 -262144
-1 -1 956 1;
#X obj 106 208 vsl 15 20 0 1 0 0 empty empty empty 0 -9 0 10 -262144
-1 -1 0 1;
#X obj 126 208 vsl 15 20 0 1 0 0 empty empty empty 0 -9 0 10 -262144
-1 -1 0 1;
#X obj 383 294 loadbang;
#X msg 224 185 0;
#X obj 152 214 hsl 20 15 0 1 0 0 empty empty empty -2 -8 0 10 -262144
-1 -1 0 1;
#X obj 530 377 vsl 15 20 0 1 0 0 empty empty empty 0 -9 0 10 -262144
-1 -1 950 1;
#X obj 550 377 vsl 15 20 0 1 0 0 empty empty empty 0 -9 0 10 -262144
-1 -1 950 1;
#X obj 570 377 vsl 15 20 0 1 0 0 empty empty empty 0 -9 0 10 -262144
-1 -1 950 1;
#X obj 357 378 vsl 15 20 0 1 0 0 empty empty empty 0 -9 0 10 -262144
-1 -1 950 1;
#X obj 377 378 vsl 15 20 0 1 0 0 empty empty empty 0 -9 0 10 -262144
-1 -1 950 1;
#X obj 397 378 vsl 15 20 0 1 0 0 empty empty empty 0 -9 0 10 -262144
-1 -1 950 1;
#X obj 422 216 hsl 30 15 0 1 0 0 empty empty empty -2 -8 0 10 -262144
-1 -1 2900 1;
#X obj 461 218 hsl 30 15 0 1 0 0 empty empty empty -2 -8 0 10 -262144
-1 -1 2900 1;
#X obj 355 29 inlet;
#X obj 372 60 tgl 15 0 empty empty empty 17 7 0 10 -262144 -1 -1 0
1;
#X obj 100 254 s gate1;
#X obj 434 245 s lpf;
#X obj 388 248 s hpf;
#X text 160 22 MIDI I/O objects;
#X floatatom 198 77 0 0 0 0 - - -;
#X floatatom 160 77 0 0 0 0 - - -;
#X floatatom 236 76 0 0 0 0 - - -;
#X obj 160 50 ctlin;
#X text 142 101 value | nr | channel;
#X obj 157 126 spigot;
#X obj 207 126 spigot;
#X obj 257 126 spigot;
#X floatatom 262 169 5 0 0 0 - - -, f 5;
#X floatatom 302 170 5 0 0 0 - - -, f 5;
#X floatatom 276 301 5 0 0 0 - - -, f 5;
#X floatatom 306 280 5 0 0 0 - - -, f 5;
#X obj 353 164 loadbang;
#X text 575 496 comment;
#X obj 479 432 s dly-rate;
#X floatatom 10 124 5 0 0 0 - - -, f 5;
#X obj 39 159 outlet;
#X obj 362 452 s lo;
#X obj 382 429 s mid;
#X obj 432 429 s hi;
#X msg 539 188 1;
#X msg 349 323 0.5;
#X obj 457 20 notein;
#X floatatom 457 42 5 0 0 0 - - -, f 5;
#X floatatom 477 62 5 0 0 0 - - -, f 5;
#X floatatom 517 45 5 0 0 0 - - -, f 5;
#X obj 10 102 expr $f1 / 127;
#X obj 143 411 s sampler-pitch;
#X obj 160 254 s sampler-pos;
#X msg 165 350 0.503;
#X obj 448 138 s toggle-hit-stop;
#X obj 445 118 bng 15 250 50 0 empty empty empty 17 7 0 10 -262144
-1 -1;
#N canvas 0 23 450 300 2btns 0;
#X obj 76 30 inlet;
#X obj 126 30 inlet;
#X floatatom 76 52 5 0 0 0 - - -, f 5;
#X floatatom 126 52 5 0 0 0 - - -, f 5;
#X obj 54 152 spigot;
#X obj 151 160 spigot;
#X obj 184 135 == 34;
#X obj 100 126 == 33;
#X obj 54 174 moses 127;
#X obj 113 207 bng 15 250 50 0 empty empty empty 17 7 0 10 -262144
-1 -1;
#X obj 64 208 bng 15 250 50 0 empty empty empty 17 7 0 10 -262144 -1
-1;
#X obj 156 190 moses 127;
#X obj 215 223 bng 15 250 50 0 empty empty empty 17 7 0 10 -262144
-1 -1;
#X obj 166 224 bng 15 250 50 0 empty empty empty 17 7 0 10 -262144
-1 -1;
#X obj 57 243 outlet;
#X obj 107 243 outlet;
#X obj 165 243 outlet;
#X obj 215 243 outlet;
#X floatatom 118 150 5 0 0 0 - - -, f 5;
#X obj 126 71 i;
#X obj 76 71 t b f;
#X connect 0 0 2 0;
#X connect 1 0 3 0;
#X connect 2 0 20 0;
#X connect 3 0 19 1;
#X connect 4 0 8 0;
#X connect 5 0 11 0;
#X connect 6 0 5 1;
#X connect 7 0 4 1;
#X connect 7 0 18 0;
#X connect 8 0 10 0;
#X connect 8 0 14 0;
#X connect 8 1 9 0;
#X connect 8 1 15 0;
#X connect 11 0 13 0;
#X connect 11 0 16 0;
#X connect 11 1 12 0;
#X connect 11 1 17 0;
#X connect 19 0 4 0;
#X connect 19 0 5 0;
#X connect 20 0 19 0;
#X connect 20 1 7 0;
#X connect 20 1 6 0;
#X restore 435 94 pd 2btns;
#N canvas 0 23 450 300 switch 0;
#X obj 76 30 inlet;
#X obj 78 73 == 35;
#X obj 78 126 tgl 15 0 empty empty empty 17 7 0 10 -262144 -1 -1 0
1;
#X obj 83 155 outlet;
#X obj 78 95 == 0;
#X obj 163 50 loadbang;
#X msg 163 72 0;
#X connect 0 0 1 0;
#X connect 1 0 4 0;
#X connect 2 0 3 0;
#X connect 4 0 2 0;
#X connect 5 0 6 0;
#X connect 6 0 2 0;
#X restore 528 91 pd switch;
#X obj 540 116 s sampler-loop;
#X obj 166 433 s sampler-length;
#X obj 108 286 s dly-feedback;
#X msg 489 319 0.5;
#X obj 514 451 s dly-mod;
#X obj 581 422 s rvb-all;
#X obj 266 410 s filter-peak;
#X msg 362 198 1;
#X obj 212 345 djm/knobsA;
#X obj 347 347 djm/knobsMiddle;
#X obj 520 346 djm/knobsB;
#X obj 400 189 djm/knobsTop;
#X obj 101 183 djm/faders;
#X connect 0 0 49 0;
#X connect 1 0 57 0;
#X connect 2 0 62 0;
#X connect 3 0 18 0;
#X connect 4 0 58 0;
#X connect 5 0 51 0;
#X connect 5 0 43 0;
#X connect 5 0 59 0;
#X connect 6 0 3 0;
#X connect 6 0 4 0;
#X connect 6 0 7 0;
#X connect 7 0 50 0;
#X connect 8 0 36 0;
#X connect 9 0 60 0;
#X connect 10 0 61 0;
#X connect 11 0 39 0;
#X connect 12 0 40 0;
#X connect 13 0 41 0;
#X connect 14 0 19 0;
#X connect 16 0 17 0;
#X connect 17 0 29 1;
#X connect 17 0 28 1;
#X connect 17 0 27 1;
#X connect 22 0 28 0;
#X connect 23 0 48 0;
#X connect 24 0 29 0;
#X connect 25 0 23 0;
#X connect 25 1 22 0;
#X connect 25 2 24 0;
#X connect 27 0 30 0;
#X connect 27 0 68 0;
#X connect 28 0 31 0;
#X connect 28 0 68 1;
#X connect 30 0 32 0;
#X connect 30 0 67 0;
#X connect 31 0 33 0;
#X connect 31 0 67 1;
#X connect 32 0 64 0;
#X connect 32 0 65 0;
#X connect 32 0 66 0;
#X connect 33 0 64 1;
#X connect 33 0 65 1;
#X connect 33 0 66 1;
#X connect 34 0 6 0;
#X connect 34 0 63 0;
#X connect 34 0 42 0;
#X connect 37 0 38 0;
#X connect 42 0 15 0;
#X connect 43 0 13 0;
#X connect 43 0 12 0;
#X connect 43 0 11 0;
#X connect 44 0 45 0;
#X connect 44 1 46 0;
#X connect 44 2 47 0;
#X connect 45 0 54 0;
#X connect 45 0 55 0;
#X connect 46 0 54 1;
#X connect 48 0 37 0;
#X connect 48 0 27 0;
#X connect 51 0 2 0;
#X connect 51 0 1 0;
#X connect 51 0 0 0;
#X connect 53 0 52 0;
#X connect 54 1 53 0;
#X connect 55 0 56 0;
#X connect 59 0 10 0;
#X connect 59 0 9 0;
#X connect 59 0 8 0;
#X connect 63 0 14 0;
#X connect 64 0 0 0;
#X connect 64 1 1 0;
#X connect 64 2 2 0;
#X connect 65 0 11 0;
#X connect 65 1 12 0;
#X connect 65 2 13 0;
#X connect 66 0 8 0;
#X connect 66 1 9 0;
#X connect 66 2 10 0;
#X connect 67 0 14 0;
#X connect 67 1 15 0;
#X connect 68 0 3 0;
#X connect 68 1 4 0;
#X connect 68 2 7 0;
