#N canvas 287 287 450 300 10;
#X obj 57 68 line;
#X obj 52 19 inlet;
#X obj 57 90 outlet;
#X obj 210 192 line;
#X floatatom 304 144 5 0 0 0 - - -, f 5;
#X obj 330 96 loadbang;
#X obj 304 122 f \$1;
#X obj 203 136 pack f f;
#X obj 205 113 bondo;
#X msg 209 171 \$1 \$2;
#X msg 56 47 \$1 10;
#X obj 197 76 f;
#X floatatom 210 214 5 0 0 0 - - -, f 5;
#X text 218 52 with default arg;
#X connect 0 0 2 0;
#X connect 1 0 10 0;
#X connect 3 0 12 0;
#X connect 5 0 6 0;
#X connect 6 0 4 0;
#X connect 6 0 8 1;
#X connect 7 0 9 0;
#X connect 8 0 7 0;
#X connect 8 1 7 1;
#X connect 9 0 3 0;
#X connect 10 0 0 0;
#X connect 11 0 8 0;
