#N canvas 290 320 555 400 10;
#X obj 193 51 bng 15 250 50 0 empty empty empty 17 7 0 10 -262144 -1
-1;
#X obj 193 76 f;
#X obj 223 77 + 1;
#X floatatom 193 98 5 0 0 0 - - -, f 5;
#X obj 125 161 spigot;
#X obj 125 184 bng 15 250 50 0 empty empty empty 17 7 0 10 -262144
-1 -1;
#X msg 125 138 0;
#X text 297 109 limit;
#X obj 193 30 inlet;
#X obj 255 30 inlet;
#X msg 280 179 0;
#X text 278 202 reset;
#X obj 305 30 inlet;
#X obj 241 202 bng 15 250 50 0 empty empty empty 17 7 0 10 -262144
-1 -1;
#X obj 193 228 outlet;
#X obj 243 228 outlet;
#X obj 55 161 spigot;
#X obj 55 184 bng 15 250 50 0 empty empty empty 17 7 0 10 -262144 -1
-1;
#X msg 55 138 0;
#X obj 158 138 == 0;
#X obj 88 138 == 0;
#X text 12 242 inlet 2: limit;
#X text 12 262 inlet 3: force reset;
#X text 12 282 outlet 1: step #;
#X text 12 302 outlet 2: cycle start;
#X text 12 222 inlet 1: gate in;
#X floatatom 255 103 5 0 0 0 - - -, f 5;
#X text 109 345 instead of modulo \, reset counter at limit;
#X obj 207 279 bng 15 250 50 0 empty empty empty 17 7 0 10 -262144
-1 -1;
#X obj 255 122 - 1;
#X text 307 79 limit;
#X msg 267 77 4;
#X obj 193 117 + 1;
#X obj 353 60 loadbang;
#X text 38 9 looper: bang / max / reset;
#X connect 0 0 1 0;
#X connect 0 0 6 0;
#X connect 0 0 18 0;
#X connect 1 0 2 0;
#X connect 1 0 3 0;
#X connect 2 0 1 1;
#X connect 3 0 19 0;
#X connect 3 0 20 0;
#X connect 3 0 32 0;
#X connect 4 0 5 0;
#X connect 4 0 10 0;
#X connect 6 0 4 0;
#X connect 8 0 0 0;
#X connect 9 0 26 0;
#X connect 10 0 13 0;
#X connect 10 0 1 1;
#X connect 12 0 10 0;
#X connect 12 0 1 0;
#X connect 16 0 17 0;
#X connect 16 0 15 0;
#X connect 18 0 16 0;
#X connect 19 0 4 1;
#X connect 20 0 16 1;
#X connect 26 0 29 0;
#X connect 26 0 10 0;
#X connect 29 0 19 1;
#X connect 31 0 26 0;
#X connect 32 0 14 0;
#X connect 32 0 28 0;
#X connect 33 0 31 0;
