#N canvas 146 341 1000 541 10;
#X obj 19 38 inlet~;
#X obj 222 11 r mixer-mix1;
#X obj 41 13 inlet~;
#X obj 97 11 inlet~;
#X obj 129 35 inlet~;
#X obj 243 35 r mixer-mix2;
#X obj 254 56 r mixer-mix3;
#X obj 279 138 r mixer-pan1;
#X obj 105 204 pan_mono;
#X obj 289 158 r mixer-pan2;
#X obj 299 178 r mixer-pan3;
#X obj 83 457 outlet~;
#X obj 142 459 outlet~;
#X obj 126 395 +~;
#X obj 170 400 +~;
#X obj 20 230 vu_;
#X obj 16 337 vu_;
#X obj 152 203 pan_mono;
#X obj 88 432 clip~ -1 1;
#X obj 167 432 clip~ -1 1;
#X obj 485 184 r mixer-hi1;
#X obj 495 204 r mixer-od1;
#X obj 583 153 r mixer-lo2;
#X obj 593 173 r mixer-hi2;
#X obj 603 193 r mixer-od2;
#X obj 618 242 r mixer-lo3;
#X obj 628 262 r mixer-hi3;
#X obj 638 282 r mixer-od3;
#X obj 462 156 r mixer-lo1;
#X obj 102 322 ../fx/filter_minimal 1;
#X obj 107 106 mixer_channel;
#X obj 143 106 mixer_channel;
#X obj 182 106 mixer_channel;
#X obj 229 322 ../fx/filter_minimal 2;
#X obj 355 323 ../fx/filter_minimal 3;
#X obj 205 214 ../utils/cross_fader;
#X connect 0 0 30 0;
#X connect 1 0 30 2;
#X connect 2 0 31 0;
#X connect 3 0 32 0;
#X connect 4 0 32 1;
#X connect 5 0 31 2;
#X connect 6 0 32 2;
#X connect 7 0 8 1;
#X connect 8 0 15 0;
#X connect 8 0 29 0;
#X connect 8 1 15 1;
#X connect 8 1 29 1;
#X connect 9 0 17 1;
#X connect 10 0 35 2;
#X connect 13 0 16 0;
#X connect 13 0 18 0;
#X connect 14 0 16 1;
#X connect 14 0 19 0;
#X connect 17 0 33 0;
#X connect 17 1 33 1;
#X connect 18 0 11 0;
#X connect 19 0 12 0;
#X connect 20 0 29 3;
#X connect 21 0 29 4;
#X connect 22 0 33 2;
#X connect 23 0 33 3;
#X connect 24 0 33 4;
#X connect 25 0 34 2;
#X connect 26 0 34 3;
#X connect 27 0 34 4;
#X connect 28 0 29 2;
#X connect 29 0 13 0;
#X connect 29 1 14 0;
#X connect 30 0 8 0;
#X connect 31 0 17 0;
#X connect 32 0 35 0;
#X connect 32 1 35 1;
#X connect 33 0 13 0;
#X connect 33 1 14 0;
#X connect 34 0 13 0;
#X connect 34 1 14 0;
#X connect 35 0 34 0;
#X connect 35 1 34 1;
#X coords 0 -1 1 1 200 200 2 100 100;
