#N canvas 504 375 450 300 10;
#X obj 107 114 vsl 15 60 0 1 0 0 empty empty empty 0 -9 0 10 -228856
-1 -1 0 1;
#X obj 16 209 inlet~;
#X obj 16 231 *~;
#X obj 158 238 line;
#X floatatom 158 260 5 0 0 0 - - -, f 5;
#X msg 158 216 \$1 10;
#X obj 16 253 outlet~;
#X obj 25 26 loadbang;
#X obj 25 70 line;
#X msg 25 48 set 0 \, 1 100;
#X obj 242 43 inlet;
#X obj 75 210 inlet~;
#X obj 75 232 *~;
#X obj 75 254 outlet~;
#X obj 153 181 * 1.2;
#X floatatom 207 195 5 0 0 0 - - -, f 5;
#X floatatom 223 151 5 0 0 0 - - -, f 5;
#X obj 153 159 pow 2;
#X connect 0 0 16 0;
#X connect 0 0 17 0;
#X connect 1 0 2 0;
#X connect 2 0 6 0;
#X connect 3 0 4 0;
#X connect 3 0 2 1;
#X connect 3 0 12 1;
#X connect 5 0 3 0;
#X connect 7 0 9 0;
#X connect 8 0 0 0;
#X connect 9 0 8 0;
#X connect 10 0 0 0;
#X connect 11 0 12 0;
#X connect 12 0 13 0;
#X connect 14 0 5 0;
#X connect 14 0 15 0;
#X connect 17 0 14 0;
#X coords 0 -1 1 1 30 90 2 100 100;
