#N canvas 146 341 450 457 10;
#X obj 19 38 inlet~;
#X obj 222 11 r mixer-mix1;
#X obj 41 13 inlet~;
#X obj 97 11 inlet~;
#X obj 129 35 inlet~;
#X obj 243 35 r mixer-mix2;
#X obj 254 56 r mixer-mix3;
#X obj 107 106 mixer_channel;
#X obj 143 106 mixer_channel;
#X obj 182 106 mixer_channel;
#X obj 279 138 r mixer-pan1;
#X obj 200 204 pan;
#X obj 105 204 pan_mono;
#X obj 289 158 r mixer-pan2;
#X obj 299 178 r mixer-pan3;
#X obj 63 373 outlet~;
#X obj 122 375 outlet~;
#X obj 106 311 +~;
#X obj 150 316 +~;
#X obj 320 283 vu_;
#X obj 227 337 vu_;
#X obj 152 203 pan_mono;
#X connect 0 0 7 0;
#X connect 1 0 7 2;
#X connect 2 0 8 0;
#X connect 3 0 9 0;
#X connect 4 0 9 1;
#X connect 5 0 8 2;
#X connect 6 0 9 2;
#X connect 7 0 12 0;
#X connect 8 0 21 0;
#X connect 9 0 11 0;
#X connect 9 1 11 1;
#X connect 10 0 12 1;
#X connect 11 0 17 0;
#X connect 11 1 18 0;
#X connect 12 0 17 0;
#X connect 12 0 19 0;
#X connect 12 1 18 0;
#X connect 12 1 19 1;
#X connect 13 0 21 1;
#X connect 14 0 11 2;
#X connect 17 0 15 0;
#X connect 17 0 20 0;
#X connect 18 0 16 0;
#X connect 18 0 20 1;
#X connect 21 0 17 0;
#X connect 21 1 18 0;
#X coords 0 -1 1 1 200 200 2 100 100;
