#N canvas 504 375 450 300 10;
#X obj 107 114 vsl 15 60 0.01 1.01 1 0 empty empty empty 0 -9 0 10
-228856 -1 -1 5887 1;
#X obj 16 209 inlet~;
#X obj 16 231 *~;
#X obj 152 220 line;
#X obj 154 172 - 0.01;
#X floatatom 152 242 5 0 0 0 - - -, f 5;
#X msg 152 198 \$1 10;
#X obj 16 253 outlet~;
#X obj 25 26 loadbang;
#X obj 25 70 line;
#X msg 25 48 set 0 \, 1 100;
#X obj 242 43 inlet;
#X obj 75 210 inlet~;
#X obj 75 232 *~;
#X obj 75 254 outlet~;
#X connect 0 0 4 0;
#X connect 1 0 2 0;
#X connect 2 0 7 0;
#X connect 3 0 5 0;
#X connect 3 0 2 1;
#X connect 3 0 13 1;
#X connect 4 0 6 0;
#X connect 6 0 3 0;
#X connect 8 0 10 0;
#X connect 9 0 0 0;
#X connect 10 0 9 0;
#X connect 11 0 0 0;
#X connect 12 0 13 0;
#X connect 13 0 14 0;
#X coords 0 -1 1 1 30 90 2 100 100;
