#N canvas 483 103 911 833 10;
#X obj 326 614 vsl 15 20 0 1 0 0 empty empty empty 0 -9 0 10 -262144
-1 -1 956 1;
#X obj 346 614 vsl 15 20 0 1 0 0 empty empty empty 0 -9 0 10 -262144
-1 -1 956 1;
#X obj 366 614 vsl 15 20 0 1 0 0 empty empty empty 0 -9 0 10 -262144
-1 -1 956 1;
#X obj 487 532 loadbang;
#X msg 46 629 0;
#X obj 634 615 vsl 15 20 0 1 0 0 empty empty empty 0 -9 0 10 -262144
-1 -1 950 1;
#X obj 654 615 vsl 15 20 0 1 0 0 empty empty empty 0 -9 0 10 -262144
-1 -1 950 1;
#X obj 674 615 vsl 15 20 0 1 0 0 empty empty empty 0 -9 0 10 -262144
-1 -1 950 1;
#X obj 461 616 vsl 15 20 0 1 0 0 empty empty empty 0 -9 0 10 -262144
-1 -1 950 1;
#X obj 481 616 vsl 15 20 0 1 0 0 empty empty empty 0 -9 0 10 -262144
-1 -1 950 1;
#X obj 501 616 vsl 15 20 0 1 0 0 empty empty empty 0 -9 0 10 -262144
-1 -1 950 1;
#X obj 423 34 inlet;
#X obj 440 65 tgl 15 0 empty empty empty 17 7 0 10 -260097 -1 -1 1
1;
#X obj 755 454 s lpf;
#X obj 238 744 s hpf;
#X text 228 27 MIDI I/O objects;
#X floatatom 266 82 0 0 0 0 - - -;
#X floatatom 228 82 0 0 0 0 - - -;
#X floatatom 304 81 0 0 0 0 - - -;
#X obj 228 55 ctlin;
#X text 210 106 value | nr | channel;
#X obj 225 131 spigot;
#X obj 275 131 spigot;
#X obj 325 131 spigot;
#X obj 175 608 loadbang;
#X text 679 734 comment;
#X obj 439 334 s dly-rate;
#X floatatom 116 146 5 0 0 0 - - -, f 5;
#X obj 82 306 s lo;
#X obj 100 281 s mid;
#X obj 127 306 s hi;
#X msg 453 561 0.5;
#X obj 890 67 notein;
#X floatatom 890 89 5 0 0 0 - - -, f 5;
#X floatatom 937 87 5 0 0 0 - - -, f 5;
#X floatatom 950 52 5 0 0 0 - - -, f 5;
#X obj 116 124 expr $f1 / 127;
#X obj 247 649 s sampler-pitch;
#X obj 103 725 s sampler-pos;
#X msg 269 588 0.503;
#X obj 461 447 s toggle-hit-stop;
#X obj 553 425 s sampler-loop;
#X obj 270 671 s sampler-length;
#X msg 593 557 0.5;
#X obj 474 353 s dly-mod;
#X obj 604 337 s rvb-all;
#X obj 370 648 s filter-peak;
#N canvas 0 23 450 300 knobs1 0;
#X floatatom 116 75 0 0 0 0 - - -;
#X floatatom 53 74 0 0 0 0 - - -;
#X text 61 57 value | nr | channel;
#X obj 59 220 outlet;
#X obj 109 220 outlet;
#X obj 159 220 outlet;
#X obj 58 181 spigot;
#X obj 114 176 spigot;
#X obj 170 175 spigot;
#X obj 69 40 inlet;
#X obj 119 40 inlet;
#X obj 209 220 outlet;
#X obj 220 175 spigot;
#X obj 73 155 == 18;
#X obj 129 150 == 14;
#X obj 185 149 == 10;
#X obj 235 149 == 6;
#X connect 0 0 13 0;
#X connect 0 0 14 0;
#X connect 0 0 15 0;
#X connect 0 0 16 0;
#X connect 1 0 6 0;
#X connect 1 0 7 0;
#X connect 1 0 8 0;
#X connect 1 0 12 0;
#X connect 6 0 3 0;
#X connect 7 0 4 0;
#X connect 8 0 5 0;
#X connect 9 0 1 0;
#X connect 10 0 0 0;
#X connect 12 0 11 0;
#X connect 13 0 6 1;
#X connect 14 0 7 1;
#X connect 15 0 8 1;
#X connect 16 0 12 1;
#X restore 105 215 pd knobs1;
#N canvas 0 23 450 300 knobs2 0;
#X restore 316 583 pd knobs2;
#N canvas 0 23 450 300 knobs3 0;
#X restore 451 585 pd knobs3;
#N canvas 0 23 450 300 knobs4 0;
#X restore 624 584 pd knobs4;
#X obj 103 243 vsl 15 20 0 1 0 0 empty empty empty 0 -9 0 10 -262144
-1 -1 0 1;
#X obj 123 243 vsl 15 20 0 1 0 0 empty empty empty 0 -9 0 10 -262144
-1 -1 0 1;
#X obj 143 243 vsl 15 20 0 1 0 0 empty empty empty 0 -9 0 10 -262144
-1 -1 0 1;
#X obj 163 243 vsl 15 20 0 1 0 0 empty empty empty 0 -9 0 10 -262144
-1 -1 0 1;
#X obj 145 282 s top;
#N canvas 0 23 450 300 lr 0;
#X obj 37 37;
#X restore 74 410 pd lr;
#N canvas 0 23 450 300 encoder 0;
#X floatatom 116 75 0 0 0 0 - - -;
#X floatatom 53 74 0 0 0 0 - - -;
#X text 61 57 value | nr | channel;
#X obj 67 243 outlet;
#X obj 75 145 spigot;
#X obj 69 40 inlet;
#X obj 119 40 inlet;
#X obj 94 124 == 3;
#X obj 103 184 moses 64;
#X obj 141 248 outlet;
#X floatatom 103 206 5 0 0 0 - - -, f 5;
#X floatatom 75 167 5 0 0 0 - - -, f 5;
#X connect 0 0 7 0;
#X connect 1 0 4 0;
#X connect 4 0 8 0;
#X connect 4 0 11 0;
#X connect 5 0 1 0;
#X connect 6 0 0 0;
#X connect 7 0 4 1;
#X connect 8 0 3 0;
#X connect 8 0 10 0;
#X connect 8 1 9 0;
#X restore 31 64 pd encoder;
#X text 389 716 comment;
#X obj 293 250 vsl 15 20 0 1 0 0 empty empty empty 0 -9 0 10 -262144
-1 -1 0 1;
#X obj 313 250 vsl 15 20 0 1 0 0 empty empty empty 0 -9 0 10 -262144
-1 -1 0 1;
#X obj 333 250 vsl 15 20 0 1 0 0 empty empty empty 0 -9 0 10 -262144
-1 -1 0 1;
#X obj 353 250 vsl 15 20 0 1 0 0 empty empty empty 0 -9 0 10 -262144
-1 -1 0 1;
#N canvas 0 23 450 300 faders 0;
#X floatatom 116 75 0 0 0 0 - - -;
#X floatatom 53 74 0 0 0 0 - - -;
#X text 61 57 value | nr | channel;
#X obj 59 220 outlet;
#X obj 109 220 outlet;
#X obj 159 220 outlet;
#X obj 58 181 spigot;
#X obj 114 176 spigot;
#X obj 170 175 spigot;
#X obj 69 40 inlet;
#X obj 119 40 inlet;
#X obj 209 220 outlet;
#X obj 220 175 spigot;
#X obj 73 155 == 48;
#X obj 129 150 == 49;
#X obj 185 149 == 50;
#X obj 235 149 == 51;
#X obj 278 220 outlet;
#X obj 289 175 spigot;
#X obj 304 149 == 64, f 17;
#X connect 0 0 13 0;
#X connect 0 0 14 0;
#X connect 0 0 15 0;
#X connect 0 0 16 0;
#X connect 0 0 19 0;
#X connect 1 0 6 0;
#X connect 1 0 7 0;
#X connect 1 0 8 0;
#X connect 1 0 12 0;
#X connect 1 0 18 0;
#X connect 6 0 3 0;
#X connect 7 0 4 0;
#X connect 8 0 5 0;
#X connect 9 0 1 0;
#X connect 10 0 0 0;
#X connect 12 0 11 0;
#X connect 13 0 6 1;
#X connect 14 0 7 1;
#X connect 15 0 8 1;
#X connect 16 0 12 1;
#X connect 18 0 17 0;
#X connect 19 0 18 1;
#X restore 131 367 pd faders;
#N canvas 0 23 450 300 knobs2 0;
#X floatatom 116 75 0 0 0 0 - - -;
#X floatatom 53 74 0 0 0 0 - - -;
#X text 61 57 value | nr | channel;
#X obj 59 220 outlet;
#X obj 109 220 outlet;
#X obj 159 220 outlet;
#X obj 58 181 spigot;
#X obj 74 200 bng 15 250 50 0 empty empty empty 17 7 0 10 -262144 -1
-1;
#X obj 114 176 spigot;
#X obj 130 195 bng 15 250 50 0 empty empty empty 17 7 0 10 -262144
-1 -1;
#X obj 170 175 spigot;
#X obj 186 194 bng 15 250 50 0 empty empty empty 17 7 0 10 -262144
-1 -1;
#X obj 69 40 inlet;
#X obj 119 40 inlet;
#X obj 209 220 outlet;
#X obj 220 175 spigot;
#X obj 236 194 bng 15 250 50 0 empty empty empty 17 7 0 10 -262144
-1 -1;
#X floatatom 171 77 5 0 0 0 - - -, f 5;
#X obj 73 155 == 19;
#X obj 129 150 == 15;
#X obj 185 149 == 11;
#X obj 235 149 == 7;
#X connect 0 0 18 0;
#X connect 0 0 19 0;
#X connect 0 0 20 0;
#X connect 0 0 21 0;
#X connect 1 0 6 0;
#X connect 1 0 8 0;
#X connect 1 0 10 0;
#X connect 1 0 15 0;
#X connect 6 0 7 0;
#X connect 6 0 3 0;
#X connect 8 0 9 0;
#X connect 8 0 4 0;
#X connect 10 0 11 0;
#X connect 10 0 5 0;
#X connect 12 0 1 0;
#X connect 13 0 0 0;
#X connect 15 0 16 0;
#X connect 15 0 14 0;
#X connect 18 0 6 1;
#X connect 19 0 8 1;
#X connect 20 0 10 1;
#X connect 21 0 15 1;
#X restore 295 222 pd knobs2;
#X obj 272 313;
#X obj 290 288;
#X obj 335 289;
#X obj 317 313;
#X obj 465 246 vsl 15 20 0 1 0 0 empty empty empty 0 -9 0 10 -262144
-1 -1 0 1;
#X obj 485 246 vsl 15 20 0 1 0 0 empty empty empty 0 -9 0 10 -262144
-1 -1 0 1;
#X obj 505 246 vsl 15 20 0 1 0 0 empty empty empty 0 -9 0 10 -262144
-1 -1 0 1;
#X obj 525 246 vsl 15 20 0 1 0 0 empty empty empty 0 -9 0 10 -262144
-1 -1 0 1;
#X obj 507 285;
#X obj 489 309;
#N canvas 0 23 450 300 knobs3 0;
#X floatatom 116 75 0 0 0 0 - - -;
#X floatatom 53 74 0 0 0 0 - - -;
#X text 61 57 value | nr | channel;
#X obj 59 220 outlet;
#X obj 109 220 outlet;
#X obj 159 220 outlet;
#X obj 58 181 spigot;
#X obj 114 176 spigot;
#X obj 170 175 spigot;
#X obj 69 40 inlet;
#X obj 119 40 inlet;
#X obj 209 220 outlet;
#X obj 220 175 spigot;
#X floatatom 171 77 5 0 0 0 - - -, f 5;
#X obj 73 155 == 20;
#X obj 185 149 == 12;
#X obj 129 150 == 16;
#X obj 235 149 == 8;
#X connect 0 0 14 0;
#X connect 0 0 15 0;
#X connect 0 0 16 0;
#X connect 0 0 17 0;
#X connect 1 0 6 0;
#X connect 1 0 7 0;
#X connect 1 0 8 0;
#X connect 1 0 12 0;
#X connect 6 0 3 0;
#X connect 7 0 4 0;
#X connect 8 0 5 0;
#X connect 9 0 1 0;
#X connect 10 0 0 0;
#X connect 12 0 11 0;
#X connect 14 0 6 1;
#X connect 15 0 8 1;
#X connect 16 0 7 1;
#X connect 17 0 12 1;
#X restore 467 218 pd knobs3;
#X obj 633 244 vsl 15 20 0 1 0 0 empty empty empty 0 -9 0 10 -262144
-1 -1 0 1;
#X obj 653 244 vsl 15 20 0 1 0 0 empty empty empty 0 -9 0 10 -262144
-1 -1 0 1;
#X obj 673 244 vsl 15 20 0 1 0 0 empty empty empty 0 -9 0 10 -262144
-1 -1 0 1;
#X obj 693 244 vsl 15 20 0 1 0 0 empty empty empty 0 -9 0 10 -262144
-1 -1 0 1;
#X obj 630 282;
#X obj 675 283;
#X obj 657 307;
#N canvas 0 23 450 300 knobs4 0;
#X floatatom 116 75 0 0 0 0 - - -;
#X floatatom 53 74 0 0 0 0 - - -;
#X text 61 57 value | nr | channel;
#X obj 59 220 outlet;
#X obj 109 220 outlet;
#X obj 159 220 outlet;
#X obj 58 181 spigot;
#X obj 114 176 spigot;
#X obj 170 175 spigot;
#X obj 69 40 inlet;
#X obj 119 40 inlet;
#X obj 209 220 outlet;
#X obj 220 175 spigot;
#X obj 73 155 == 21;
#X obj 129 150 == 17;
#X obj 185 149 == 13;
#X obj 235 149 == 9;
#X connect 0 0 13 0;
#X connect 0 0 14 0;
#X connect 0 0 15 0;
#X connect 0 0 16 0;
#X connect 1 0 6 0;
#X connect 1 0 7 0;
#X connect 1 0 8 0;
#X connect 1 0 12 0;
#X connect 6 0 3 0;
#X connect 7 0 4 0;
#X connect 8 0 5 0;
#X connect 9 0 1 0;
#X connect 10 0 0 0;
#X connect 12 0 11 0;
#X connect 13 0 6 1;
#X connect 14 0 7 1;
#X connect 15 0 8 1;
#X connect 16 0 12 1;
#X restore 635 216 pd knobs4;
#X obj 168 411 vsl 15 20 0 1 0 0 empty empty empty 0 -9 0 10 -262144
-1 -1 0 1;
#X obj 188 411 vsl 15 20 0 1 0 0 empty empty empty 0 -9 0 10 -262144
-1 -1 0 1;
#X obj 208 411 vsl 15 20 0 1 0 0 empty empty empty 0 -9 0 10 -262144
-1 -1 0 1;
#X obj 228 411 vsl 15 20 0 1 0 0 empty empty empty 0 -9 0 10 -262144
-1 -1 0 1;
#X obj 266 417 hsl 50 15 0 1 0 0 empty empty empty -2 -8 0 10 -262144
-1 -1 0 1;
#X floatatom 219 241 5 0 0 0 - - -, f 5;
#X floatatom 221 263 5 0 0 0 - - -, f 5;
#X obj 136 499 s eq-drive;
#X obj 165 449 s fx-wet;
#X obj 192 474 s dly-feedback;
#X obj 230 451 s rvb-amt;
#X obj 304 442 s sampler-pos;
#X obj 701 417 vsl 15 20 0 1 0 0 empty empty empty 0 -9 0 10 -262144
-1 -1 0 1;
#X obj 721 417 vsl 15 20 0 1 0 0 empty empty empty 0 -9 0 10 -262144
-1 -1 0 1;
#X obj 741 417 vsl 15 20 0 1 0 0 empty empty empty 0 -9 0 10 -262144
-1 -1 0 1;
#X obj 761 417 vsl 15 20 0 1 0 0 empty empty empty 0 -9 0 10 -262144
-1 -1 0 1;
#X obj 680 480;
#X obj 698 455;
#X obj 725 480;
#N canvas 0 23 450 300 knobs-top-row 0;
#X floatatom 116 75 0 0 0 0 - - -;
#X floatatom 53 74 0 0 0 0 - - -;
#X text 61 57 value | nr | channel;
#X obj 59 220 outlet;
#X obj 109 220 outlet;
#X obj 159 220 outlet;
#X obj 58 181 spigot;
#X obj 74 200 bng 15 250 50 0 empty empty empty 17 7 0 10 -262144 -1
-1;
#X obj 114 176 spigot;
#X obj 130 195 bng 15 250 50 0 empty empty empty 17 7 0 10 -262144
-1 -1;
#X obj 170 175 spigot;
#X obj 186 194 bng 15 250 50 0 empty empty empty 17 7 0 10 -262144
-1 -1;
#X obj 69 40 inlet;
#X obj 119 40 inlet;
#X obj 209 220 outlet;
#X obj 220 175 spigot;
#X obj 236 194 bng 15 250 50 0 empty empty empty 17 7 0 10 -262144
-1 -1;
#X obj 73 155 == 1;
#X obj 129 151 == 2;
#X obj 185 149 == 4;
#X obj 236 149 == 5;
#X connect 0 0 17 0;
#X connect 0 0 18 0;
#X connect 0 0 19 0;
#X connect 0 0 20 0;
#X connect 1 0 6 0;
#X connect 1 0 8 0;
#X connect 1 0 10 0;
#X connect 1 0 15 0;
#X connect 6 0 7 0;
#X connect 6 0 3 0;
#X connect 8 0 9 0;
#X connect 8 0 4 0;
#X connect 10 0 11 0;
#X connect 10 0 5 0;
#X connect 12 0 1 0;
#X connect 13 0 0 0;
#X connect 15 0 16 0;
#X connect 15 0 14 0;
#X connect 17 0 6 1;
#X connect 18 0 8 1;
#X connect 19 0 10 1;
#X connect 20 0 15 1;
#X restore 703 389 pd knobs-top-row;
#X floatatom 740 195 5 0 0 0 - - -, f 5;
#X floatatom 753 178 5 0 0 0 - - -, f 5;
#X obj 116 165 outlet;
#X obj 31 86 bng 15 250 50 0 empty empty empty 17 7 0 10 -262144 -1
-1;
#X obj 97 87 bng 15 250 50 0 empty empty empty 17 7 0 10 -262144 -1
-1;
#X obj 77 663 s gate-1;
#X obj 256 359 loadbang;
#X msg 256 381 0;
#X text 1370 599 comment;
#X obj 819 148 4midiknobs 48 49 50 51;
#X obj 821 176 bng 15 250 50 0 empty empty empty 17 7 0 10 -262144
-1 -1;
#X text 817 130 cue x4;
#X obj 1049 43 1midiknob 18;
#X obj 1054 71 bng 15 250 50 0 empty empty empty 17 7 0 10 -262144
-1 -1;
#X obj 1125 70 bng 15 250 50 0 empty empty empty 17 7 0 10 -262144
-1 -1;
#X text 998 144 1 \, 1 \, 1 \, 1;
#X text 1168 143 2 \, 2 \, 2 \, 2;
#X obj 844 173 s hit1;
#X obj 847 194 s hit2;
#X obj 893 175 s hit3;
#X obj 900 195 s hit4;
#X obj 1170 161 4midiknobs 20 24 28 32;
#X obj 1174 186 s sampler-loop-1;
#X obj 1211 227 s sampler-loop-3;
#X obj 1223 246 s sampler-loop-4;
#X obj 1186 205 s sampler-loop-2;
#X obj 991 164 4miditoggles 19 23 27 31;
#N canvas 0 23 450 300 to-binary 0;
#X obj 58 61 inlet;
#X obj 108 61 inlet;
#X obj 158 61 inlet;
#X obj 208 61 inlet;
#X obj 75 197 outlet;
#X obj 59 120 moses 127;
#X msg 78 151 1;
#X obj 129 120 moses 127;
#X obj 199 120 moses 127;
#X obj 269 120 moses 127;
#X msg 148 151 2;
#X msg 219 151 3;
#X msg 289 151 4;
#X obj 352 197 outlet;
#X obj 133 95 bng 15 250 50 0 empty empty empty 17 7 0 10 -262144 -1
-1;
#X connect 0 0 5 0;
#X connect 1 0 7 0;
#X connect 1 0 14 0;
#X connect 2 0 8 0;
#X connect 3 0 9 0;
#X connect 5 0 13 0;
#X connect 5 1 6 0;
#X connect 6 0 4 0;
#X connect 7 0 13 0;
#X connect 7 1 10 0;
#X connect 8 0 13 0;
#X connect 8 1 11 0;
#X connect 9 0 13 0;
#X connect 9 1 12 0;
#X connect 10 0 4 0;
#X connect 11 0 4 0;
#X connect 12 0 4 0;
#X restore 1023 187 pd to-binary;
#X obj 1023 209 t b f;
#X obj 1039 238 s select-track;
#X obj 1072 217 s rec-stop;
#X obj 1024 260 s rec-start;
#X connect 0 0 37 0;
#X connect 1 0 42 0;
#X connect 2 0 46 0;
#X connect 3 0 39 0;
#X connect 3 0 31 0;
#X connect 3 0 43 0;
#X connect 11 0 12 0;
#X connect 12 0 23 1;
#X connect 12 0 22 1;
#X connect 12 0 21 1;
#X connect 16 0 22 0;
#X connect 16 0 57 1;
#X connect 17 0 36 0;
#X connect 17 0 57 0;
#X connect 18 0 23 0;
#X connect 19 0 17 0;
#X connect 19 1 16 0;
#X connect 19 2 18 0;
#X connect 21 0 47 0;
#X connect 21 0 64 0;
#X connect 21 0 75 0;
#X connect 21 0 83 0;
#X connect 21 0 89 0;
#X connect 21 0 104 0;
#X connect 22 0 47 1;
#X connect 22 0 64 1;
#X connect 22 0 75 1;
#X connect 22 0 83 1;
#X connect 22 0 90 0;
#X connect 22 0 105 0;
#X connect 24 0 4 0;
#X connect 27 0 106 0;
#X connect 31 0 10 0;
#X connect 31 0 9 0;
#X connect 31 0 8 0;
#X connect 32 0 33 0;
#X connect 32 1 34 0;
#X connect 32 2 35 0;
#X connect 33 0 113 0;
#X connect 33 0 116 0;
#X connect 33 0 125 0;
#X connect 33 0 130 0;
#X connect 34 0 113 1;
#X connect 34 0 116 1;
#X connect 34 0 125 1;
#X connect 34 0 130 1;
#X connect 36 0 27 0;
#X connect 36 0 21 0;
#X connect 39 0 2 0;
#X connect 39 0 1 0;
#X connect 39 0 0 0;
#X connect 43 0 7 0;
#X connect 43 0 6 0;
#X connect 43 0 5 0;
#X connect 47 0 51 0;
#X connect 47 1 52 0;
#X connect 47 2 53 0;
#X connect 47 3 54 0;
#X connect 51 0 28 0;
#X connect 52 0 29 0;
#X connect 53 0 30 0;
#X connect 54 0 55 0;
#X connect 57 0 107 0;
#X connect 57 1 108 0;
#X connect 59 0 65 0;
#X connect 60 0 66 0;
#X connect 61 0 68 0;
#X connect 62 0 67 0;
#X connect 63 0 84 0;
#X connect 63 1 85 0;
#X connect 63 2 86 0;
#X connect 63 3 87 0;
#X connect 63 4 88 0;
#X connect 64 0 59 0;
#X connect 64 1 60 0;
#X connect 64 2 61 0;
#X connect 64 3 62 0;
#X connect 69 0 26 0;
#X connect 70 0 44 0;
#X connect 71 0 74 0;
#X connect 72 0 73 0;
#X connect 75 0 69 0;
#X connect 75 1 70 0;
#X connect 75 2 71 0;
#X connect 75 3 72 0;
#X connect 76 0 45 0;
#X connect 77 0 80 0;
#X connect 78 0 82 0;
#X connect 79 0 81 0;
#X connect 83 0 76 0;
#X connect 83 1 77 0;
#X connect 83 2 78 0;
#X connect 83 3 79 0;
#X connect 84 0 91 0;
#X connect 85 0 92 0;
#X connect 86 0 93 0;
#X connect 87 0 94 0;
#X connect 88 0 95 0;
#X connect 89 0 63 0;
#X connect 90 0 63 1;
#X connect 96 0 100 0;
#X connect 97 0 101 0;
#X connect 98 0 102 0;
#X connect 99 0 13 0;
#X connect 103 0 96 0;
#X connect 103 1 97 0;
#X connect 103 2 98 0;
#X connect 103 3 99 0;
#X connect 104 0 103 0;
#X connect 105 0 103 1;
#X connect 110 0 111 0;
#X connect 111 0 87 0;
#X connect 111 0 86 0;
#X connect 111 0 85 0;
#X connect 111 0 84 0;
#X connect 113 0 114 0;
#X connect 113 0 121 0;
#X connect 113 1 122 0;
#X connect 113 2 123 0;
#X connect 113 3 124 0;
#X connect 116 0 117 0;
#X connect 116 1 118 0;
#X connect 125 0 126 0;
#X connect 125 1 129 0;
#X connect 125 2 127 0;
#X connect 125 3 128 0;
#X connect 130 0 131 0;
#X connect 130 1 131 1;
#X connect 130 2 131 2;
#X connect 130 3 131 3;
#X connect 131 0 132 0;
#X connect 131 1 134 0;
#X connect 132 0 135 0;
#X connect 132 1 133 0;
