#N canvas 256 356 720 549 10;
#X obj 222 376 vsl 15 20 0 1 0 0 empty empty empty 0 -9 0 10 -262144
-1 -1 956 1;
#X obj 242 376 vsl 15 20 0 1 0 0 empty empty empty 0 -9 0 10 -262144
-1 -1 956 1;
#X obj 262 376 vsl 15 20 0 1 0 0 empty empty empty 0 -9 0 10 -262144
-1 -1 956 1;
#X obj 383 294 loadbang;
#X msg 224 185 0;
#X obj 530 377 vsl 15 20 0 1 0 0 empty empty empty 0 -9 0 10 -262144
-1 -1 950 1;
#X obj 550 377 vsl 15 20 0 1 0 0 empty empty empty 0 -9 0 10 -262144
-1 -1 950 1;
#X obj 570 377 vsl 15 20 0 1 0 0 empty empty empty 0 -9 0 10 -262144
-1 -1 950 1;
#X obj 357 378 vsl 15 20 0 1 0 0 empty empty empty 0 -9 0 10 -262144
-1 -1 950 1;
#X obj 377 378 vsl 15 20 0 1 0 0 empty empty empty 0 -9 0 10 -262144
-1 -1 950 1;
#X obj 397 378 vsl 15 20 0 1 0 0 empty empty empty 0 -9 0 10 -262144
-1 -1 950 1;
#X obj 355 29 inlet;
#X obj 372 60 tgl 15 0 empty empty empty 17 7 0 10 -260097 -1 -1 1
1;
#X obj 186 247 s gate1;
#X obj 434 245 s lpf;
#X obj 388 248 s hpf;
#X text 160 22 MIDI I/O objects;
#X floatatom 198 77 0 0 0 0 - - -;
#X floatatom 160 77 0 0 0 0 - - -;
#X floatatom 236 76 0 0 0 0 - - -;
#X obj 160 50 ctlin;
#X text 142 101 value | nr | channel;
#X obj 157 126 spigot;
#X obj 207 126 spigot;
#X obj 257 126 spigot;
#X obj 353 164 loadbang;
#X text 575 496 comment;
#X obj 479 432 s dly-rate;
#X floatatom 10 124 5 0 0 0 - - -, f 5;
#X obj 39 159 outlet;
#X obj 78 274 s lo;
#X obj 96 249 s mid;
#X obj 123 274 s hi;
#X msg 349 323 0.5;
#X obj 457 20 notein;
#X floatatom 457 42 5 0 0 0 - - -, f 5;
#X floatatom 477 62 5 0 0 0 - - -, f 5;
#X floatatom 517 45 5 0 0 0 - - -, f 5;
#X obj 10 102 expr $f1 / 127;
#X obj 143 411 s sampler-pitch;
#X obj 246 247 s sampler-pos;
#X msg 165 350 0.503;
#X obj 448 138 s toggle-hit-stop;
#X obj 445 118 bng 15 250 50 0 empty empty empty 17 7 0 10 -262144
-1 -1;
#X obj 540 116 s sampler-loop;
#X obj 166 433 s sampler-length;
#X obj 194 279 s dly-feedback;
#X msg 489 319 0.5;
#X obj 514 451 s dly-mod;
#X obj 581 422 s rvb-all;
#X obj 266 410 s filter-peak;
#N canvas 0 23 450 300 knobs1 0;
#X floatatom 116 75 0 0 0 0 - - -;
#X floatatom 53 74 0 0 0 0 - - -;
#X text 61 57 value | nr | channel;
#X obj 59 220 outlet;
#X obj 109 220 outlet;
#X obj 159 220 outlet;
#X obj 58 181 spigot;
#X obj 74 200 bng 15 250 50 0 empty empty empty 17 7 0 10 -262144 -1
-1;
#X obj 114 176 spigot;
#X obj 130 195 bng 15 250 50 0 empty empty empty 17 7 0 10 -262144
-1 -1;
#X obj 170 175 spigot;
#X obj 186 194 bng 15 250 50 0 empty empty empty 17 7 0 10 -262144
-1 -1;
#X obj 69 40 inlet;
#X obj 119 40 inlet;
#X obj 209 220 outlet;
#X obj 220 175 spigot;
#X obj 236 194 bng 15 250 50 0 empty empty empty 17 7 0 10 -262144
-1 -1;
#X floatatom 171 77 5 0 0 0 - - -, f 5;
#X obj 73 155 == 18;
#X obj 129 150 == 14;
#X obj 185 149 == 10;
#X obj 235 149 == 6;
#X connect 0 0 18 0;
#X connect 0 0 19 0;
#X connect 0 0 20 0;
#X connect 0 0 21 0;
#X connect 1 0 6 0;
#X connect 1 0 8 0;
#X connect 1 0 10 0;
#X connect 1 0 15 0;
#X connect 6 0 7 0;
#X connect 6 0 3 0;
#X connect 8 0 9 0;
#X connect 8 0 4 0;
#X connect 10 0 11 0;
#X connect 10 0 5 0;
#X connect 12 0 1 0;
#X connect 13 0 0 0;
#X connect 15 0 16 0;
#X connect 15 0 14 0;
#X connect 18 0 6 1;
#X connect 19 0 8 1;
#X connect 20 0 10 1;
#X connect 21 0 15 1;
#X restore 101 183 pd knobs1;
#N canvas 0 23 450 300 knobs2 0;
#X restore 212 345 pd knobs2;
#N canvas 0 23 450 300 knobs3 1;
#X restore 347 347 pd knobs3;
#N canvas 0 23 450 300 knobs4 0;
#X restore 520 346 pd knobs4;
#N canvas 0 23 450 300 middleBtn 0;
#X obj 76 30 inlet;
#X obj 78 73 == 35;
#X obj 78 126 tgl 15 0 empty empty empty 17 7 0 10 -262144 -1 -1 1
1;
#X obj 83 155 outlet;
#X obj 78 95 == 0;
#X obj 163 50 loadbang;
#X msg 163 72 0;
#X connect 0 0 1 0;
#X connect 1 0 4 0;
#X connect 2 0 3 0;
#X connect 4 0 2 0;
#X connect 5 0 6 0;
#X connect 6 0 2 0;
#X restore 528 91 pd middleBtn;
#N canvas 0 23 450 300 4btns 0;
#X obj 76 30 inlet;
#X obj 126 30 inlet;
#X floatatom 76 52 5 0 0 0 - - -, f 5;
#X floatatom 126 52 5 0 0 0 - - -, f 5;
#X obj 54 152 spigot;
#X obj 151 160 spigot;
#X obj 184 135 == 34;
#X obj 100 126 == 33;
#X obj 54 174 moses 127;
#X obj 113 207 bng 15 250 50 0 empty empty empty 17 7 0 10 -262144
-1 -1;
#X obj 64 208 bng 15 250 50 0 empty empty empty 17 7 0 10 -262144 -1
-1;
#X obj 156 190 moses 127;
#X obj 215 223 bng 15 250 50 0 empty empty empty 17 7 0 10 -262144
-1 -1;
#X obj 166 224 bng 15 250 50 0 empty empty empty 17 7 0 10 -262144
-1 -1;
#X obj 57 243 outlet;
#X obj 107 243 outlet;
#X obj 165 243 outlet;
#X obj 215 243 outlet;
#X floatatom 118 150 5 0 0 0 - - -, f 5;
#X obj 126 71 i;
#X obj 76 71 t b f;
#X connect 0 0 2 0;
#X connect 1 0 3 0;
#X connect 2 0 20 0;
#X connect 3 0 19 1;
#X connect 4 0 8 0;
#X connect 5 0 11 0;
#X connect 6 0 5 1;
#X connect 7 0 4 1;
#X connect 7 0 18 0;
#X connect 8 0 10 0;
#X connect 8 0 14 0;
#X connect 8 1 9 0;
#X connect 8 1 15 0;
#X connect 11 0 13 0;
#X connect 11 0 16 0;
#X connect 11 1 12 0;
#X connect 11 1 17 0;
#X connect 19 0 4 0;
#X connect 19 0 5 0;
#X connect 20 0 19 0;
#X connect 20 1 7 0;
#X connect 20 1 6 0;
#X restore 435 94 pd 4btns;
#N canvas 0 23 450 300 8btns 0;
#X obj 76 30 inlet;
#X obj 126 30 inlet;
#X floatatom 76 52 5 0 0 0 - - -, f 5;
#X floatatom 126 52 5 0 0 0 - - -, f 5;
#X obj 54 152 spigot;
#X obj 151 160 spigot;
#X obj 184 135 == 34;
#X obj 100 126 == 33;
#X obj 54 174 moses 127;
#X obj 113 207 bng 15 250 50 0 empty empty empty 17 7 0 10 -262144
-1 -1;
#X obj 64 208 bng 15 250 50 0 empty empty empty 17 7 0 10 -262144 -1
-1;
#X obj 156 190 moses 127;
#X obj 215 223 bng 15 250 50 0 empty empty empty 17 7 0 10 -262144
-1 -1;
#X obj 166 224 bng 15 250 50 0 empty empty empty 17 7 0 10 -262144
-1 -1;
#X obj 57 243 outlet;
#X obj 107 243 outlet;
#X obj 165 243 outlet;
#X obj 215 243 outlet;
#X floatatom 118 150 5 0 0 0 - - -, f 5;
#X obj 126 71 i;
#X obj 76 71 t b f;
#X connect 0 0 2 0;
#X connect 1 0 3 0;
#X connect 2 0 20 0;
#X connect 3 0 19 1;
#X connect 4 0 8 0;
#X connect 5 0 11 0;
#X connect 6 0 5 1;
#X connect 7 0 4 1;
#X connect 7 0 18 0;
#X connect 8 0 10 0;
#X connect 8 0 14 0;
#X connect 8 1 9 0;
#X connect 8 1 15 0;
#X connect 11 0 13 0;
#X connect 11 0 16 0;
#X connect 11 1 12 0;
#X connect 11 1 17 0;
#X connect 19 0 4 0;
#X connect 19 0 5 0;
#X connect 20 0 19 0;
#X connect 20 1 7 0;
#X connect 20 1 6 0;
#X restore 586 151 pd 8btns;
#X obj 99 211 vsl 15 20 0 1 0 0 empty empty empty 0 -9 0 10 -262144
-1 -1 957 1;
#X obj 119 211 vsl 15 20 0 1 0 0 empty empty empty 0 -9 0 10 -262144
-1 -1 957 1;
#X obj 139 211 vsl 15 20 0 1 0 0 empty empty empty 0 -9 0 10 -262144
-1 -1 957 1;
#X obj 159 211 vsl 15 20 0 1 0 0 empty empty empty 0 -9 0 10 -262144
-1 -1 957 1;
#X obj 141 250 s top;
#N canvas 0 23 450 300 fader 0;
#X restore 58 314 pd fader;
#N canvas 0 23 450 300 lr 0;
#X obj 37 37;
#X restore 76 357 pd lr;
#N canvas 0 23 450 300 encoder 0;
#X restore 60 410 pd encoder;
#X obj 102 631 noteout;
#X floatatom 363 537 0 0 0 0 - - -;
#X floatatom 396 537 0 0 0 0 - - -;
#X floatatom 432 539 0 0 0 0 - - -;
#X floatatom 99 578 5 0 127 0 - - -, f 5;
#X text 389 716 comment;
#X obj 184 520 bng 15 250 50 0 empty empty empty 17 7 0 10 -262144
-1 -1;
#X obj 136 469 bng 15 250 50 0 empty empty empty 17 7 0 10 -262144
-1 -1;
#X obj 490 593 midiout;
#X floatatom 483 563 5 0 0 0 - - -, f 5;
#X floatatom 534 565 5 0 0 0 - - -, f 5;
#X obj 363 482 bng 15 250 50 0 empty empty empty 17 7 0 10 -262144
-1 -1;
#X obj 165 489 metro 300;
#X msg 102 539 53;
#X obj 102 605 makenote 1 100;
#X obj 364 560 ctlout;
#X floatatom 270 626 0 0 0 0 - - -;
#X floatatom 303 626 0 0 0 0 - - -;
#X floatatom 339 628 0 0 0 0 - - -;
#X obj 270 571 bng 15 250 50 0 empty empty empty 17 7 0 10 -262144
-1 -1;
#X obj 271 649 ctlout;
#X msg 272 600 53;
#X msg 184 636 15;
#X msg 345 601 15;
#X msg 404 513 5;
#X msg 365 511 53;
#X msg 311 602 5;
#X msg 438 512 0;
#X obj 577 581 notein;
#X obj 577 623 noteout;
#X connect 0 0 39 0;
#X connect 1 0 45 0;
#X connect 2 0 50 0;
#X connect 3 0 41 0;
#X connect 3 0 33 0;
#X connect 3 0 47 0;
#X connect 5 0 27 0;
#X connect 6 0 48 0;
#X connect 7 0 49 0;
#X connect 11 0 12 0;
#X connect 12 0 24 1;
#X connect 12 0 23 1;
#X connect 12 0 22 1;
#X connect 17 0 23 0;
#X connect 18 0 38 0;
#X connect 19 0 24 0;
#X connect 20 0 18 0;
#X connect 20 1 17 0;
#X connect 20 2 19 0;
#X connect 22 0 51 0;
#X connect 23 0 51 1;
#X connect 25 0 4 0;
#X connect 28 0 29 0;
#X connect 33 0 10 0;
#X connect 33 0 9 0;
#X connect 33 0 8 0;
#X connect 34 0 35 0;
#X connect 34 1 36 0;
#X connect 34 2 37 0;
#X connect 35 0 56 0;
#X connect 35 0 55 0;
#X connect 36 0 56 1;
#X connect 38 0 28 0;
#X connect 38 0 22 0;
#X connect 41 0 2 0;
#X connect 41 0 1 0;
#X connect 41 0 0 0;
#X connect 43 0 42 0;
#X connect 47 0 7 0;
#X connect 47 0 6 0;
#X connect 47 0 5 0;
#X connect 51 0 58 0;
#X connect 51 1 59 0;
#X connect 51 2 60 0;
#X connect 51 3 61 0;
#X connect 55 0 44 0;
#X connect 56 1 43 0;
#X connect 58 0 30 0;
#X connect 59 0 31 0;
#X connect 60 0 32 0;
#X connect 61 0 62 0;
#X connect 67 0 81 0;
#X connect 68 0 81 1;
#X connect 69 0 81 2;
#X connect 70 0 80 0;
#X connect 73 0 78 0;
#X connect 75 0 74 0;
#X connect 76 0 74 1;
#X connect 77 0 91 0;
#X connect 77 0 90 0;
#X connect 77 0 93 0;
#X connect 78 0 72 0;
#X connect 79 0 70 0;
#X connect 80 0 66 0;
#X connect 80 1 66 1;
#X connect 80 1 88 0;
#X connect 82 0 86 0;
#X connect 83 0 86 1;
#X connect 84 0 86 2;
#X connect 85 0 87 0;
#X connect 85 0 92 0;
#X connect 85 0 89 0;
#X connect 87 0 82 0;
#X connect 88 0 66 2;
#X connect 89 0 84 0;
#X connect 90 0 68 0;
#X connect 91 0 67 0;
#X connect 92 0 83 0;
#X connect 93 0 69 0;
#X connect 94 0 95 0;
#X connect 94 1 95 1;
#X connect 94 2 95 2;
