#N canvas 483 103 911 833 10;
#X obj 326 614 vsl 15 20 0 1 0 0 empty empty empty 0 -9 0 10 -262144
-1 -1 956 1;
#X obj 346 614 vsl 15 20 0 1 0 0 empty empty empty 0 -9 0 10 -262144
-1 -1 956 1;
#X obj 366 614 vsl 15 20 0 1 0 0 empty empty empty 0 -9 0 10 -262144
-1 -1 956 1;
#X obj 487 532 loadbang;
#X obj 634 615 vsl 15 20 0 1 0 0 empty empty empty 0 -9 0 10 -262144
-1 -1 950 1;
#X obj 654 615 vsl 15 20 0 1 0 0 empty empty empty 0 -9 0 10 -262144
-1 -1 950 1;
#X obj 674 615 vsl 15 20 0 1 0 0 empty empty empty 0 -9 0 10 -262144
-1 -1 950 1;
#X obj 461 616 vsl 15 20 0 1 0 0 empty empty empty 0 -9 0 10 -262144
-1 -1 950 1;
#X obj 481 616 vsl 15 20 0 1 0 0 empty empty empty 0 -9 0 10 -262144
-1 -1 950 1;
#X obj 501 616 vsl 15 20 0 1 0 0 empty empty empty 0 -9 0 10 -262144
-1 -1 950 1;
#X obj 423 34 inlet;
#X obj 440 65 tgl 15 0 empty empty empty 17 7 0 10 -260097 -1 -1 1
1;
#X obj 755 454 s lpf;
#X text 228 27 MIDI I/O objects;
#X floatatom 266 82 0 0 0 0 - - -;
#X floatatom 228 82 0 0 0 0 - - -;
#X floatatom 304 81 0 0 0 0 - - -;
#X obj 228 55 ctlin;
#X text 210 106 value | nr | channel;
#X obj 225 131 spigot;
#X obj 275 131 spigot;
#X obj 325 131 spigot;
#X text 679 734 comment;
#X floatatom 116 146 5 0 0 0 - - -, f 5;
#X msg 453 561 0.5;
#X obj 116 124 expr $f1 / 127;
#X obj 247 649 s sampler-pitch;
#X msg 269 588 0.503;
#X obj 270 671 s sampler-length;
#X msg 593 557 0.5;
#X obj 604 337 s rvb-all;
#X obj 370 648 s filter-peak;
#N canvas 0 23 450 300 knobs1 0;
#X floatatom 116 75 0 0 0 0 - - -;
#X floatatom 53 74 0 0 0 0 - - -;
#X text 61 57 value | nr | channel;
#X obj 59 220 outlet;
#X obj 109 220 outlet;
#X obj 159 220 outlet;
#X obj 58 181 spigot;
#X obj 114 176 spigot;
#X obj 170 175 spigot;
#X obj 69 40 inlet;
#X obj 119 40 inlet;
#X obj 209 220 outlet;
#X obj 220 175 spigot;
#X obj 73 155 == 18;
#X obj 129 150 == 14;
#X obj 185 149 == 10;
#X obj 235 149 == 6;
#X connect 0 0 13 0;
#X connect 0 0 14 0;
#X connect 0 0 15 0;
#X connect 0 0 16 0;
#X connect 1 0 6 0;
#X connect 1 0 7 0;
#X connect 1 0 8 0;
#X connect 1 0 12 0;
#X connect 6 0 3 0;
#X connect 7 0 4 0;
#X connect 8 0 5 0;
#X connect 9 0 1 0;
#X connect 10 0 0 0;
#X connect 12 0 11 0;
#X connect 13 0 6 1;
#X connect 14 0 7 1;
#X connect 15 0 8 1;
#X connect 16 0 12 1;
#X restore 105 215 pd knobs1;
#N canvas 0 23 450 300 knobs2 0;
#X restore 316 583 pd knobs2;
#N canvas 0 23 450 300 knobs3 0;
#X restore 451 585 pd knobs3;
#N canvas 0 23 450 300 knobs4 0;
#X restore 624 584 pd knobs4;
#X obj 103 243 vsl 15 20 0 1 0 0 empty empty empty 0 -9 0 10 -262144
-1 -1 957 1;
#X obj 123 243 vsl 15 20 0 1 0 0 empty empty empty 0 -9 0 10 -262144
-1 -1 0 1;
#X obj 143 243 vsl 15 20 0 1 0 0 empty empty empty 0 -9 0 10 -262144
-1 -1 957 1;
#X obj 163 243 vsl 15 20 0 1 0 0 empty empty empty 0 -9 0 10 -262144
-1 -1 957 1;
#N canvas 0 23 450 300 lr 0;
#X obj 37 37;
#X restore 74 410 pd lr;
#N canvas 0 23 450 300 encoder 0;
#X floatatom 116 75 0 0 0 0 - - -;
#X floatatom 53 74 0 0 0 0 - - -;
#X text 61 57 value | nr | channel;
#X obj 67 243 outlet;
#X obj 75 145 spigot;
#X obj 69 40 inlet;
#X obj 119 40 inlet;
#X obj 94 124 == 3;
#X obj 103 184 moses 64;
#X obj 141 248 outlet;
#X floatatom 103 206 5 0 0 0 - - -, f 5;
#X floatatom 75 167 5 0 0 0 - - -, f 5;
#X connect 0 0 7 0;
#X connect 1 0 4 0;
#X connect 4 0 8 0;
#X connect 4 0 11 0;
#X connect 5 0 1 0;
#X connect 6 0 0 0;
#X connect 7 0 4 1;
#X connect 8 0 3 0;
#X connect 8 0 10 0;
#X connect 8 1 9 0;
#X restore 31 64 pd encoder;
#X text 389 716 comment;
#X obj 293 250 vsl 15 20 0 1 0 0 empty empty empty 0 -9 0 10 -262144
-1 -1 957 1;
#X obj 313 250 vsl 15 20 0 1 0 0 empty empty empty 0 -9 0 10 -262144
-1 -1 0 1;
#X obj 333 250 vsl 15 20 0 1 0 0 empty empty empty 0 -9 0 10 -262144
-1 -1 957 1;
#X obj 353 250 vsl 15 20 0 1 0 0 empty empty empty 0 -9 0 10 -262144
-1 -1 1032 1;
#N canvas 0 23 450 300 faders 0;
#X floatatom 116 75 0 0 0 0 - - -;
#X floatatom 53 74 0 0 0 0 - - -;
#X text 61 57 value | nr | channel;
#X obj 59 220 outlet;
#X obj 109 220 outlet;
#X obj 159 220 outlet;
#X obj 58 181 spigot;
#X obj 114 176 spigot;
#X obj 170 175 spigot;
#X obj 69 40 inlet;
#X obj 119 40 inlet;
#X obj 209 220 outlet;
#X obj 220 175 spigot;
#X obj 73 155 == 48;
#X obj 129 150 == 49;
#X obj 185 149 == 50;
#X obj 235 149 == 51;
#X obj 278 220 outlet;
#X obj 289 175 spigot;
#X obj 304 149 == 64, f 17;
#X connect 0 0 13 0;
#X connect 0 0 14 0;
#X connect 0 0 15 0;
#X connect 0 0 16 0;
#X connect 0 0 19 0;
#X connect 1 0 6 0;
#X connect 1 0 7 0;
#X connect 1 0 8 0;
#X connect 1 0 12 0;
#X connect 1 0 18 0;
#X connect 6 0 3 0;
#X connect 7 0 4 0;
#X connect 8 0 5 0;
#X connect 9 0 1 0;
#X connect 10 0 0 0;
#X connect 12 0 11 0;
#X connect 13 0 6 1;
#X connect 14 0 7 1;
#X connect 15 0 8 1;
#X connect 16 0 12 1;
#X connect 18 0 17 0;
#X connect 19 0 18 1;
#X restore 131 367 pd faders;
#N canvas 0 23 450 300 knobs2 0;
#X floatatom 116 75 0 0 0 0 - - -;
#X floatatom 53 74 0 0 0 0 - - -;
#X text 61 57 value | nr | channel;
#X obj 59 220 outlet;
#X obj 109 220 outlet;
#X obj 159 220 outlet;
#X obj 58 181 spigot;
#X obj 74 200 bng 15 250 50 0 empty empty empty 17 7 0 10 -262144 -1
-1;
#X obj 114 176 spigot;
#X obj 130 195 bng 15 250 50 0 empty empty empty 17 7 0 10 -262144
-1 -1;
#X obj 170 175 spigot;
#X obj 186 194 bng 15 250 50 0 empty empty empty 17 7 0 10 -262144
-1 -1;
#X obj 69 40 inlet;
#X obj 119 40 inlet;
#X obj 209 220 outlet;
#X obj 220 175 spigot;
#X obj 236 194 bng 15 250 50 0 empty empty empty 17 7 0 10 -262144
-1 -1;
#X floatatom 171 77 5 0 0 0 - - -, f 5;
#X obj 73 155 == 19;
#X obj 129 150 == 15;
#X obj 185 149 == 11;
#X obj 235 149 == 7;
#X connect 0 0 18 0;
#X connect 0 0 19 0;
#X connect 0 0 20 0;
#X connect 0 0 21 0;
#X connect 1 0 6 0;
#X connect 1 0 8 0;
#X connect 1 0 10 0;
#X connect 1 0 15 0;
#X connect 6 0 7 0;
#X connect 6 0 3 0;
#X connect 8 0 9 0;
#X connect 8 0 4 0;
#X connect 10 0 11 0;
#X connect 10 0 5 0;
#X connect 12 0 1 0;
#X connect 13 0 0 0;
#X connect 15 0 16 0;
#X connect 15 0 14 0;
#X connect 18 0 6 1;
#X connect 19 0 8 1;
#X connect 20 0 10 1;
#X connect 21 0 15 1;
#X restore 295 222 pd knobs2;
#X obj 465 246 vsl 15 20 0 1 0 0 empty empty empty 0 -9 0 10 -262144
-1 -1 0 1;
#X obj 485 246 vsl 15 20 0 1 0 0 empty empty empty 0 -9 0 10 -262144
-1 -1 0 1;
#X obj 505 246 vsl 15 20 0 1 0 0 empty empty empty 0 -9 0 10 -262144
-1 -1 957 1;
#X obj 525 246 vsl 15 20 0 1 0 0 empty empty empty 0 -9 0 10 -262144
-1 -1 823 1;
#N canvas 0 23 450 300 knobs3 0;
#X floatatom 116 75 0 0 0 0 - - -;
#X floatatom 53 74 0 0 0 0 - - -;
#X text 61 57 value | nr | channel;
#X obj 59 220 outlet;
#X obj 109 220 outlet;
#X obj 159 220 outlet;
#X obj 58 181 spigot;
#X obj 114 176 spigot;
#X obj 170 175 spigot;
#X obj 69 40 inlet;
#X obj 119 40 inlet;
#X obj 209 220 outlet;
#X obj 220 175 spigot;
#X floatatom 171 77 5 0 0 0 - - -, f 5;
#X obj 73 155 == 20;
#X obj 185 149 == 12;
#X obj 129 150 == 16;
#X obj 235 149 == 8;
#X connect 0 0 14 0;
#X connect 0 0 15 0;
#X connect 0 0 16 0;
#X connect 0 0 17 0;
#X connect 1 0 6 0;
#X connect 1 0 7 0;
#X connect 1 0 8 0;
#X connect 1 0 12 0;
#X connect 6 0 3 0;
#X connect 7 0 4 0;
#X connect 8 0 5 0;
#X connect 9 0 1 0;
#X connect 10 0 0 0;
#X connect 12 0 11 0;
#X connect 14 0 6 1;
#X connect 15 0 8 1;
#X connect 16 0 7 1;
#X connect 17 0 12 1;
#X restore 467 218 pd knobs3;
#X obj 633 244 vsl 15 20 0 1 0 0 empty empty empty 0 -9 0 10 -262144
-1 -1 0 1;
#X obj 653 244 vsl 15 20 0 1 0 0 empty empty empty 0 -9 0 10 -262144
-1 -1 0 1;
#X obj 673 244 vsl 15 20 0 1 0 0 empty empty empty 0 -9 0 10 -262144
-1 -1 0 1;
#X obj 693 244 vsl 15 20 0 1 0 0 empty empty empty 0 -9 0 10 -262144
-1 -1 0 1;
#N canvas 0 23 450 300 knobs4 0;
#X floatatom 116 75 0 0 0 0 - - -;
#X floatatom 53 74 0 0 0 0 - - -;
#X text 61 57 value | nr | channel;
#X obj 59 220 outlet;
#X obj 109 220 outlet;
#X obj 159 220 outlet;
#X obj 58 181 spigot;
#X obj 114 176 spigot;
#X obj 170 175 spigot;
#X obj 69 40 inlet;
#X obj 119 40 inlet;
#X obj 209 220 outlet;
#X obj 220 175 spigot;
#X obj 73 155 == 21;
#X obj 129 150 == 17;
#X obj 185 149 == 13;
#X obj 235 149 == 9;
#X connect 0 0 13 0;
#X connect 0 0 14 0;
#X connect 0 0 15 0;
#X connect 0 0 16 0;
#X connect 1 0 6 0;
#X connect 1 0 7 0;
#X connect 1 0 8 0;
#X connect 1 0 12 0;
#X connect 6 0 3 0;
#X connect 7 0 4 0;
#X connect 8 0 5 0;
#X connect 9 0 1 0;
#X connect 10 0 0 0;
#X connect 12 0 11 0;
#X connect 13 0 6 1;
#X connect 14 0 7 1;
#X connect 15 0 8 1;
#X connect 16 0 12 1;
#X restore 635 216 pd knobs4;
#X obj 168 411 vsl 15 20 0 1 0 0 empty empty empty 0 -9 0 10 -262144
-1 -1 1900 1;
#X obj 188 411 vsl 15 20 0 1 0 0 empty empty empty 0 -9 0 10 -262144
-1 -1 658 1;
#X obj 208 411 vsl 15 20 0 1 0 0 empty empty empty 0 -9 0 10 -262144
-1 -1 1002 1;
#X obj 228 411 vsl 15 20 0 1 0 0 empty empty empty 0 -9 0 10 -262144
-1 -1 0 1;
#X floatatom 219 241 5 0 0 0 - - -, f 5;
#X floatatom 221 263 5 0 0 0 - - -, f 5;
#X obj 309 484 s rvb-amt;
#X obj 701 417 vsl 15 20 0 1 0 0 empty empty empty 0 -9 0 10 -262144
-1 -1 0 1;
#X obj 721 417 vsl 15 20 0 1 0 0 empty empty empty 0 -9 0 10 -262144
-1 -1 0 1;
#X obj 741 417 vsl 15 20 0 1 0 0 empty empty empty 0 -9 0 10 -262144
-1 -1 0 1;
#X obj 761 417 vsl 15 20 0 1 0 0 empty empty empty 0 -9 0 10 -262144
-1 -1 0 1;
#N canvas 0 23 450 300 knobs-top-row 0;
#X floatatom 116 75 0 0 0 0 - - -;
#X floatatom 53 74 0 0 0 0 - - -;
#X text 61 57 value | nr | channel;
#X obj 59 220 outlet;
#X obj 109 220 outlet;
#X obj 159 220 outlet;
#X obj 58 181 spigot;
#X obj 74 200 bng 15 250 50 0 empty empty empty 17 7 0 10 -262144 -1
-1;
#X obj 114 176 spigot;
#X obj 130 195 bng 15 250 50 0 empty empty empty 17 7 0 10 -262144
-1 -1;
#X obj 170 175 spigot;
#X obj 186 194 bng 15 250 50 0 empty empty empty 17 7 0 10 -262144
-1 -1;
#X obj 69 40 inlet;
#X obj 119 40 inlet;
#X obj 209 220 outlet;
#X obj 220 175 spigot;
#X obj 236 194 bng 15 250 50 0 empty empty empty 17 7 0 10 -262144
-1 -1;
#X obj 73 155 == 1;
#X obj 129 151 == 2;
#X obj 185 149 == 4;
#X obj 236 149 == 5;
#X connect 0 0 17 0;
#X connect 0 0 18 0;
#X connect 0 0 19 0;
#X connect 0 0 20 0;
#X connect 1 0 6 0;
#X connect 1 0 8 0;
#X connect 1 0 10 0;
#X connect 1 0 15 0;
#X connect 6 0 7 0;
#X connect 6 0 3 0;
#X connect 8 0 9 0;
#X connect 8 0 4 0;
#X connect 10 0 11 0;
#X connect 10 0 5 0;
#X connect 12 0 1 0;
#X connect 13 0 0 0;
#X connect 15 0 16 0;
#X connect 15 0 14 0;
#X connect 17 0 6 1;
#X connect 18 0 8 1;
#X connect 19 0 10 1;
#X connect 20 0 15 1;
#X restore 703 389 pd knobs-top-row;
#X floatatom 740 195 5 0 0 0 - - -, f 5;
#X floatatom 753 178 5 0 0 0 - - -, f 5;
#X obj 116 165 outlet;
#X obj 31 86 bng 15 250 50 0 empty empty empty 17 7 0 10 -262144 -1
-1;
#X obj 97 87 bng 15 250 50 0 empty empty empty 17 7 0 10 -262144 -1
-1;
#X obj 256 359 loadbang;
#X msg 256 381 0;
#X text 938 574 comment;
#X text 948 203 comment;
#X obj 136 499 s mixer-mix1;
#X obj 192 474 s mixer-mix3;
#X obj 165 449 s mixer-mix2;
#X obj 38 318 s mixer-pan1;
#X obj 268 320 s mixer-pan2;
#X obj 17 369 s mixer-lo1;
#X obj 49 287 s mixer-od1;
#X obj 48 344 s mixer-hi1;
#X obj 293 280 s mixer-lo2;
#X obj 303 300 s mixer-hi2;
#X obj 321 357 s mixer-od2;
#X obj 459 346 s mixer-lo3;
#X obj 469 366 s mixer-hi3;
#X obj 456 300 s mixer-od3;
#X text -64 519 comment;
#X obj 266 417 hsl 50 15 0 1 0 0 empty empty empty -2 -8 0 10 -262144
-1 -1 347 1;
#X text 280 441 dly rate?;
#X obj 430 322 s mixer-pan3;
#X connect 0 0 26 0;
#X connect 1 0 28 0;
#X connect 2 0 31 0;
#X connect 3 0 27 0;
#X connect 3 0 24 0;
#X connect 3 0 29 0;
#X connect 10 0 11 0;
#X connect 11 0 21 1;
#X connect 11 0 20 1;
#X connect 11 0 19 1;
#X connect 14 0 20 0;
#X connect 14 0 41 1;
#X connect 15 0 25 0;
#X connect 15 0 41 0;
#X connect 16 0 21 0;
#X connect 17 0 15 0;
#X connect 17 1 14 0;
#X connect 17 2 16 0;
#X connect 19 0 32 0;
#X connect 19 0 48 0;
#X connect 19 0 53 0;
#X connect 19 0 58 0;
#X connect 19 0 63 0;
#X connect 19 0 71 0;
#X connect 20 0 32 1;
#X connect 20 0 48 1;
#X connect 20 0 53 1;
#X connect 20 0 58 1;
#X connect 20 0 64 0;
#X connect 20 0 72 0;
#X connect 23 0 73 0;
#X connect 24 0 9 0;
#X connect 24 0 8 0;
#X connect 24 0 7 0;
#X connect 25 0 23 0;
#X connect 25 0 19 0;
#X connect 27 0 2 0;
#X connect 27 0 1 0;
#X connect 27 0 0 0;
#X connect 29 0 6 0;
#X connect 29 0 5 0;
#X connect 29 0 4 0;
#X connect 32 0 36 0;
#X connect 32 1 37 0;
#X connect 32 2 38 0;
#X connect 32 3 39 0;
#X connect 36 0 83 0;
#X connect 37 0 86 0;
#X connect 38 0 85 0;
#X connect 39 0 87 0;
#X connect 41 0 74 0;
#X connect 41 1 75 0;
#X connect 43 0 84 0;
#X connect 44 0 90 0;
#X connect 45 0 88 0;
#X connect 46 0 89 0;
#X connect 47 0 59 0;
#X connect 47 1 60 0;
#X connect 47 2 61 0;
#X connect 47 3 62 0;
#X connect 47 4 95 0;
#X connect 48 0 43 0;
#X connect 48 1 44 0;
#X connect 48 2 45 0;
#X connect 48 3 46 0;
#X connect 49 0 97 0;
#X connect 50 0 93 0;
#X connect 51 0 91 0;
#X connect 52 0 92 0;
#X connect 53 0 49 0;
#X connect 53 1 50 0;
#X connect 53 2 51 0;
#X connect 53 3 52 0;
#X connect 54 0 30 0;
#X connect 58 0 54 0;
#X connect 58 1 55 0;
#X connect 58 2 56 0;
#X connect 58 3 57 0;
#X connect 59 0 80 0;
#X connect 60 0 82 0;
#X connect 61 0 81 0;
#X connect 62 0 65 0;
#X connect 63 0 47 0;
#X connect 64 0 47 1;
#X connect 69 0 12 0;
#X connect 70 0 66 0;
#X connect 70 1 67 0;
#X connect 70 2 68 0;
#X connect 70 3 69 0;
#X connect 71 0 70 0;
#X connect 72 0 70 1;
#X connect 76 0 77 0;
#X connect 77 0 62 0;
#X connect 77 0 61 0;
#X connect 77 0 60 0;
#X connect 77 0 59 0;
