#N canvas 195 263 720 474 10;
#X obj 70 242 spigot;
#X obj 131 243 spigot;
#X obj 102 348 outlet;
#X obj 152 348 outlet;
#X obj 110 130 == \$1;
#X obj 81 297 f \$2;
#X obj 52 63 inlet;
#X obj 193 56 inlet;
#X floatatom 193 86 5 0 0 0 - - -, f 5;
#X floatatom 52 85 5 0 0 0 - - -, f 5;
#X obj 110 152 t b f;
#X obj 146 198 i 127;
#X connect 0 0 5 0;
#X connect 1 0 3 0;
#X connect 4 0 10 0;
#X connect 5 0 2 0;
#X connect 6 0 4 0;
#X connect 6 0 9 0;
#X connect 7 0 8 0;
#X connect 7 0 11 1;
#X connect 10 0 11 0;
#X connect 10 0 0 0;
#X connect 10 1 0 1;
#X connect 10 1 1 1;
#X connect 11 0 1 0;
