#N canvas 288 299 554 528 10;
#X obj 115 185 bng 15 250 50 0 empty empty empty 17 7 0 10 -261682
-1 -1;
#X text 102 104 1;
#X text 102 124 2;
#X text 102 144 3;
#X text 102 164 4;
#X obj 48 212 looper;
#X obj 115 104 tgl 15 0 empty empty empty 17 7 0 10 -191407 -1 -1 1
1;
#X obj 115 124 tgl 15 0 empty empty empty 17 7 0 10 -191407 -1 -1 0
1;
#X obj 115 144 tgl 15 0 empty empty empty 17 7 0 10 -191407 -1 -1 0
1;
#X obj 115 164 tgl 15 0 empty empty empty 17 7 0 10 -191407 -1 -1 0
1;
#X obj 151 15 expr $i1 == 1 \; $i1 == 2 \; $i1 == 3 \; $i1 == 4;
#X obj 32 141 loadbang;
#X obj 48 234 outlet;
#X text 102 184 +;
#X connect 0 0 5 0;
#X connect 5 0 10 0;
#X connect 5 0 12 0;
#X connect 10 0 6 0;
#X connect 10 1 7 0;
#X connect 10 2 8 0;
#X connect 10 3 9 0;
#X connect 11 0 0 0;
#X coords 0 -1 1 1 40 105 2 100 100;
