#N canvas 648 250 450 300 10;
#X obj 105 107 hsl 30 15 0 1 0 0 empty empty empty -2 -8 0 10 -228856
-1 -1 2900 1;
#X obj 18 192 inlet~;
#X obj 17 242 *~;
#X obj 160 236 line;
#X floatatom 160 258 5 0 0 0 - - -, f 5;
#X msg 160 214 \$1 10;
#X obj 17 264 outlet~;
#X obj 25 26 loadbang;
#X obj 25 70 line;
#X obj 242 43 inlet;
#X obj 158 133 expr 1 - $f1;
#X obj 167 165 pow 0.5;
#X floatatom 167 187 5 0 0 0 - - -, f 5;
#X obj 96 137 pow 0.5;
#X floatatom 96 159 5 0 0 0 - - -, f 5;
#X obj 212 233 line;
#X floatatom 212 255 5 0 0 0 - - -, f 5;
#X msg 212 211 \$1 10;
#X msg 25 48 set 0 \, 0.5 100;
#X obj 75 234 *~;
#X obj 75 256 outlet~;
#X connect 0 0 10 0;
#X connect 0 0 13 0;
#X connect 1 0 2 0;
#X connect 1 0 19 0;
#X connect 2 0 6 0;
#X connect 3 0 4 0;
#X connect 3 0 19 1;
#X connect 5 0 3 0;
#X connect 7 0 18 0;
#X connect 8 0 0 0;
#X connect 9 0 0 0;
#X connect 10 0 11 0;
#X connect 11 0 12 0;
#X connect 11 0 17 0;
#X connect 13 0 14 0;
#X connect 13 0 5 0;
#X connect 15 0 16 0;
#X connect 15 0 2 1;
#X connect 17 0 15 0;
#X connect 18 0 8 0;
#X connect 19 0 20 0;
#X coords 0 -1 1 1 40 30 2 100 100;
