#N canvas 1081 217 450 300 10;
#X obj 30 45 inlet;
#X obj 80 45 inlet;
#X obj 30 117 spigot;
#X obj 83 74 tgl 15 0 empty empty empty 17 7 0 10 -262144 -1 -1 1 1
;
#X text 28 24 hit \, loop;
#X obj 30 189 outlet;
#X obj 80 189 outlet;
#X text 35 212 hit \, stop;
#X obj 116 71 bng 15 250 50 0 empty empty empty 17 7 0 10 -262144 -1
-1;
#X obj 83 94 == 0;
#X obj 146 121 spigot;
#X obj 206 202 tgl 15 0 empty empty empty 17 7 0 10 -262144 -1 -1 0
1;
#X msg 206 180 set 1;
#X msg 229 199 set 0;
#X obj 206 222 moses 1;
#X text 225 96 loop mode \; control start stop \; normal mode \; start
over \;;
#X msg 212 159 hit;
#X msg 269 173 stop;
#X msg 197 255 stop;
#X msg 246 249 hit;
#X connect 0 0 2 0;
#X connect 0 0 10 0;
#X connect 1 0 8 0;
#X connect 1 0 3 0;
#X connect 2 0 5 0;
#X connect 3 0 9 0;
#X connect 3 0 10 1;
#X connect 9 0 2 1;
#X connect 10 0 11 0;
#X connect 11 0 14 0;
#X connect 12 0 11 0;
#X connect 14 0 18 0;
#X connect 14 1 19 0;
#X connect 16 0 12 0;
#X connect 17 0 13 0;
