#N canvas 121 255 433 380 10;
#X obj 137 104 abs;
#X obj 17 77 inlet;
#X obj 91 158 bondo;
#X obj 91 180 pack f f;
#X msg 91 202 \$1 \$2;
#X obj 91 234 line;
#X obj 91 256 outlet;
#X obj 137 82 velocity;
#X floatatom 204 219 5 0 0 0 - - -, f 5;
#X floatatom 162 220 5 0 0 0 - - -, f 5;
#X floatatom 216 100 5 0 0 0 - - -, f 5;
#X obj 121 129 expr 60 - ($f1 * 10 * 60);
#X obj 212 54 bng 15 250 50 0 empty empty empty 17 7 0 10 -262144 -1
-1;
#X obj 87 27 inletoud;
#X msg 17 99 \$1 30;
#X text 164 155 this causes output to always bang;
#X connect 0 0 10 0;
#X connect 0 0 11 0;
#X connect 1 0 14 0;
#X connect 2 0 3 0;
#X connect 2 0 9 0;
#X connect 2 1 3 1;
#X connect 3 0 4 0;
#X connect 5 0 6 0;
#X connect 7 0 0 0;
#X connect 11 0 2 1;
#X connect 11 0 8 0;
#X connect 14 0 5 0;
