#N canvas 0 23 363 380 10;
#X obj 110 99 abs;
#X obj 94 42 inlet;
#X obj 64 153 bondo;
#X obj 64 175 pack f f;
#X msg 64 197 \$1 \$2;
#X obj 64 219 line;
#X obj 64 241 outlet;
#X obj 110 77 velocity;
#X floatatom 177 214 5 0 0 0 - - -, f 5;
#X floatatom 135 215 5 0 0 0 - - -, f 5;
#X floatatom 189 95 5 0 0 0 - - -, f 5;
#X obj 94 124 expr 60 - ($f1 * 10 * 60);
#X connect 0 0 10 0;
#X connect 0 0 11 0;
#X connect 1 0 2 0;
#X connect 1 0 7 0;
#X connect 2 0 3 0;
#X connect 2 0 9 0;
#X connect 2 1 3 1;
#X connect 3 0 4 0;
#X connect 4 0 5 0;
#X connect 5 0 6 0;
#X connect 7 0 0 0;
#X connect 11 0 2 1;
#X connect 11 0 8 0;
