#N canvas 763 175 450 300 10;
#X text 50 16 sample name/nr;
#X obj 68 73 loadbang;
#X floatatom 193 126 5 0 0 0 - - -, f 5;
#X obj 106 251 outlet;
#X obj 156 251 outlet;
#X obj 156 202 change;
#X text 266 164 chng;
#X obj 107 122 hradio 20 1 0 4 empty empty empty 0 -8 0 10 -262130
-1 -1 0;
#X msg 68 95 set 0;
#X obj 174 71 inlet;
#X connect 1 0 8 0;
#X connect 2 0 5 0;
#X connect 5 0 4 0;
#X connect 7 0 2 0;
#X connect 7 0 3 0;
#X connect 8 0 7 0;
#X connect 9 0 7 0;
#X coords 0 -1 1 1 200 80 1 100 100;
