#N canvas 705 321 450 300 10;
#X obj 95 68 inlet~;
#X obj 95 90 +~;
#X obj 155 68 inlet~;
#X obj 155 90 +~;
#X obj 95 112 outlet~;
#X obj 155 112 outlet~;
#X connect 0 0 1 0;
#X connect 1 0 4 0;
#X connect 2 0 3 0;
#X connect 3 0 5 0;
