#N canvas 525 251 604 451 10;
#X obj 110 117 hsl 128 24 30 300 1 0 empty empty Tempo -2 -8 0 10 -261682
-1 -1 6600 1;
#X floatatom 155 146 7 0 0 0 - - -, f 7;
#X floatatom 155 165 8 0 0 0 - - -, f 8;
#X obj 140 238 metro 500;
#X obj 26 61 loadbang;
#X obj 130 154 bng 15 250 50 0 empty empty empty 17 7 0 10 -262144
-1 -1;
#X obj 140 262 outlet;
#X text 214 145 BPM;
#X text 212 163 (ms);
#X obj 4 122 inlet;
#X msg 49 103 125;
#X obj 108 154 tgl 15 0 empty empty empty 17 7 0 10 -262144 -1 -1 1
1;
#X msg 32 218 0;
#X obj 295 126 i;
#X obj 155 206 line;
#X msg 155 184 \$1 100;
#X floatatom 231 233 5 0 0 0 - - -, f 5;
#X text 371 155 bpm to ms;
#X floatatom 337 217 5 0 0 0 - - -, f 5;
#X msg 339 162 120;
#X obj 339 184 expr 20 / $f1 * 1000;
#X connect 0 0 13 0;
#X connect 2 0 15 0;
#X connect 3 0 5 0;
#X connect 3 0 6 0;
#X connect 4 0 3 0;
#X connect 4 0 0 0;
#X connect 4 0 10 0;
#X connect 4 0 12 0;
#X connect 9 0 11 0;
#X connect 10 0 0 0;
#X connect 11 0 3 0;
#X connect 12 0 11 0;
#X connect 13 0 1 0;
#X connect 13 0 20 0;
#X connect 14 0 3 1;
#X connect 14 0 16 0;
#X connect 15 0 14 0;
#X connect 19 0 20 0;
#X connect 20 0 18 0;
#X connect 20 0 2 0;
#X coords 0 -1 1 1 148 85 2 100 100;
