#N canvas 0 23 515 441 10;
#X text 71 10 calc difference with prev number (= velocity: dx/t);
#X obj 48 65 loadbang;
#X msg 48 87 1;
#X obj 63 138 bng 15 250 50 0 empty empty empty 17 7 0 10 -262144 -1
-1;
#X obj 174 98 inlet;
#X obj 167 155 f;
#X floatatom 167 177 5 0 0 0 - - -, f 5;
#X obj 212 155 f;
#X floatatom 212 177 5 0 0 0 - - -, f 5;
#X obj 185 219 -;
#X floatatom 185 241 5 0 0 0 - - -, f 5;
#X obj 126 291 outlet;
#X obj 56 112 metro 100;
#X obj 174 120 change;
#X connect 1 0 2 0;
#X connect 2 0 12 0;
#X connect 3 0 5 0;
#X connect 3 0 7 0;
#X connect 4 0 13 0;
#X connect 5 0 6 0;
#X connect 6 0 9 1;
#X connect 7 0 8 0;
#X connect 8 0 9 0;
#X connect 9 0 10 0;
#X connect 10 0 11 0;
#X connect 12 0 3 0;
#X connect 13 0 5 1;
#X connect 13 0 7 0;
