#N canvas 472 362 463 370 10;
#X text 38 59 MIDI I/O objects;
#X floatatom 76 114 0 0 0 0 - - -;
#X floatatom 38 114 0 0 0 0 - - -;
#X floatatom 114 113 0 0 0 0 - - -;
#X obj 38 87 ctlin;
#X text 23 140 value | nr | channel;
#X obj 45 263 outlet;
#X obj 95 263 outlet;
#X obj 145 263 outlet;
#X obj 44 224 spigot;
#X obj 60 243 bng 15 250 50 0 empty empty empty 17 7 0 10 -262144 -1
-1;
#X obj 59 198 == 65;
#X obj 100 219 spigot;
#X obj 116 238 bng 15 250 50 0 empty empty empty 17 7 0 10 -262144
-1 -1;
#X obj 156 218 spigot;
#X obj 172 237 bng 15 250 50 0 empty empty empty 17 7 0 10 -262144
-1 -1;
#X obj 115 193 == 66;
#X obj 171 192 == 64;
#X connect 1 0 11 0;
#X connect 1 0 16 0;
#X connect 1 0 17 0;
#X connect 2 0 9 0;
#X connect 2 0 12 0;
#X connect 2 0 14 0;
#X connect 4 0 2 0;
#X connect 4 1 1 0;
#X connect 4 2 3 0;
#X connect 9 0 10 0;
#X connect 9 0 6 0;
#X connect 11 0 9 1;
#X connect 12 0 13 0;
#X connect 12 0 7 0;
#X connect 14 0 15 0;
#X connect 14 0 8 0;
#X connect 16 0 12 1;
#X connect 17 0 14 1;
#X coords 0 370 1 369 85 60 0;
