#N canvas 912 418 450 300 10;
#X obj 104 106 bng 30 250 50 0 empty empty empty 35 7 0 10 -191407
-260097 -1;
#X obj 134 106 bng 30 250 50 0 empty empty empty 35 7 0 10 -191407
-260097 -1;
#X obj 164 106 bng 30 250 50 0 empty empty empty 35 7 0 10 -191407
-260097 -1;
#X obj 194 106 bng 30 250 50 0 empty empty empty 35 7 0 10 -191407
-260097 -1;
#X msg 105 168 0;
#X msg 195 168 3;
#X msg 135 168 1;
#X msg 165 168 2;
#X floatatom 185 142 5 0 0 0 - - -, f 5;
#X obj 152 233 outlet;
#X connect 0 0 4 0;
#X connect 1 0 6 0;
#X connect 2 0 7 0;
#X connect 3 0 5 0;
#X connect 4 0 8 0;
#X connect 5 0 8 0;
#X connect 6 0 8 0;
#X connect 7 0 8 0;
#X connect 8 0 9 0;
#X coords 0 -1 1 1 130 60 1 100 100;
