#N canvas 584 321 450 300 10;
#X obj 144 54 bng 15 250 50 0 empty empty empty 17 7 0 10 -262144 -1
-1;
#X obj 144 74 f;
#X obj 174 75 + 1;
#X floatatom 144 96 5 0 0 0 - - -, f 5;
#X obj 33 24 inlet;
#X obj 33 46 f;
#X obj 33 68 outlet;
#X obj 63 46 + 1;
#X connect 0 0 1 0;
#X connect 1 0 2 0;
#X connect 1 0 3 0;
#X connect 2 0 1 1;
#X connect 4 0 5 0;
#X connect 5 0 6 0;
#X connect 5 0 7 0;
#X connect 7 0 5 1;
