#N canvas 384 251 831 558 10;
#X obj 14 489 outlet~;
#X obj 64 489 outlet~;
#X obj 14 461 *~;
#X obj 64 461 *~;
#X obj 229 -2 env~;
#X obj 105 137 vsl 15 100 30 100 1 0 empty empty Threshold 0 -9 0 10
-261234 -1 -1 9900 1;
#X obj 105 104 bng 15 250 50 0 empty empty empty 17 7 0 10 -1 -258113
-1;
#X obj 436 279 expr (($f1 - $f3) / $f2) - $f1 + $f3;
#X obj 542 233 loadbang;
#X msg 542 255 10;
#X floatatom 486 301 5 0 0 0 - - -, f 5;
#X obj 214 319 bng 15 250 50 0 empty empty empty 17 7 0 10 -262144
-1 -1;
#X obj 436 301 + 100;
#X floatatom 486 323 5 0 0 0 - - -, f 5;
#X obj 436 323 dbtorms;
#X floatatom 486 345 5 0 0 0 - - -, f 5;
#X obj 270 -1 env~;
#X obj 124 104 bng 15 250 50 0 empty empty empty 17 7 0 10 -1 -258113
-1;
#X obj 14 -16 inlet~;
#X obj 64 -16 inlet~;
#X obj 203 443 line~;
#X obj 243 42 moses;
#X obj 287 43 moses;
#X obj 96 406 loadbang;
#X msg 96 428 1;
#X text 293 358 attack;
#X text 207 384 release;
#X obj 130 167 hsl 50 12 1 50 0 0 empty empty Attack -2 -8 0 10 -261682
-1 -1 1900 1;
#X obj 128 213 hsl 50 12 5 50 0 0 empty empty Release -2 -8 0 10 -261682
-1 -1 2722 1;
#X floatatom 125 230 5 0 0 0 - - -, f 5;
#X floatatom 127 184 5 0 0 0 - - -, f 5;
#X obj 334 173 loadbang;
#X msg 355 201 20;
#X msg 385 201 30;
#X obj 201 365 pack f f;
#X obj 285 335 pack f f;
#X msg 324 202 100;
#X floatatom 130 137 5 0 0 0 - - -, f 5;
#X obj 185 281 - 100;
#X obj 406 39 max;
#X floatatom 422 61 5 0 0 0 - - -, f 5;
#X obj 379 15 cyclone/bondo;
#X text 542 214 ratio?;
#X msg 201 345 1;
#X floatatom 233 346 5 0 0 0 - - -, f 5;
#X obj 409 97 moses;
#X obj 167 105 bng 15 250 50 0 empty empty empty 17 7 0 10 -262144
-262130 -1;
#X obj 167 125 bng 15 250 50 0 empty empty empty 17 7 0 10 -262144
-262130 -1;
#X obj 167 145 bng 15 250 50 0 empty empty empty 17 7 0 10 -262144
-261682 -1;
#X obj 278 433 spigot;
#X obj 277 479 spigot;
#X obj 278 411 < 0.95;
#X obj 277 456 < 0.75;
#X obj 280 523 spigot;
#X obj 279 500 < 0.5;
#X obj 237 474 line;
#X floatatom 237 496 5 0 0 0 - - -, f 5;
#X obj 374 446 f;
#X connect 2 0 0 0;
#X connect 3 0 1 0;
#X connect 4 0 21 0;
#X connect 4 0 41 0;
#X connect 5 0 7 2;
#X connect 5 0 21 1;
#X connect 5 0 22 1;
#X connect 5 0 38 0;
#X connect 5 0 45 1;
#X connect 7 0 10 0;
#X connect 7 0 12 0;
#X connect 8 0 9 0;
#X connect 9 0 7 1;
#X connect 11 0 43 0;
#X connect 11 0 44 0;
#X connect 12 0 13 0;
#X connect 12 0 14 0;
#X connect 14 0 15 0;
#X connect 14 0 35 0;
#X connect 14 0 46 0;
#X connect 16 0 22 0;
#X connect 16 0 41 1;
#X connect 18 0 2 0;
#X connect 18 0 4 0;
#X connect 19 0 3 0;
#X connect 19 0 16 0;
#X connect 20 0 2 1;
#X connect 20 0 3 1;
#X connect 21 1 6 0;
#X connect 22 0 11 0;
#X connect 22 1 17 0;
#X connect 23 0 24 0;
#X connect 24 0 3 1;
#X connect 24 0 2 1;
#X connect 27 0 30 0;
#X connect 28 0 29 0;
#X connect 29 0 34 1;
#X connect 30 0 35 1;
#X connect 31 0 32 0;
#X connect 31 0 33 0;
#X connect 31 0 36 0;
#X connect 32 0 27 0;
#X connect 33 0 28 0;
#X connect 34 0 20 0;
#X connect 34 0 55 0;
#X connect 35 0 20 0;
#X connect 35 0 55 0;
#X connect 36 0 5 0;
#X connect 38 0 37 0;
#X connect 39 0 40 0;
#X connect 39 0 45 0;
#X connect 41 0 39 0;
#X connect 41 1 39 1;
#X connect 43 0 34 0;
#X connect 45 1 7 0;
#X connect 49 0 46 0;
#X connect 50 0 47 0;
#X connect 51 0 49 0;
#X connect 51 0 49 1;
#X connect 52 0 50 0;
#X connect 52 0 50 1;
#X connect 53 0 48 0;
#X connect 54 0 53 0;
#X connect 54 0 53 1;
#X connect 55 0 56 0;
#X connect 55 0 57 0;
#X connect 57 0 51 0;
#X connect 57 0 52 0;
#X connect 57 0 54 0;
#X coords 0 -1 1 1 90 146 2 100 100;
