#N canvas 361 83 450 300 10;
#X obj 100 102 vsl 25 70 0 127 0 0 empty empty empty 0 -9 0 10 -262144
-262144 -262144 0 1;
#X msg 153 207 20;
#X msg 153 187 21;
#X msg 100 76 color \$1 \$1 0;
#X msg 153 227 0;
#X obj 49 205 pipe 50;
#X obj 49 183 bng 15 250 50 0 empty empty empty 17 7 0 10 -262144 -1
-1;
#X obj 49 159 inlet;
#X obj 49 227 pipe 50;
#X obj 179 32 inlet;
#X obj 179 54 i;
#X obj 25 255 outlet;
#X connect 0 0 6 0;
#X connect 1 0 3 0;
#X connect 2 0 3 0;
#X connect 3 0 0 0;
#X connect 4 0 3 0;
#X connect 5 0 1 0;
#X connect 5 0 8 0;
#X connect 6 0 5 0;
#X connect 6 0 2 0;
#X connect 6 0 11 0;
#X connect 7 0 6 0;
#X connect 8 0 4 0;
#X connect 9 0 10 0;
#X connect 10 0 3 0;
#X coords 0 -1 1 1 25 75 2 100 100;
