#N canvas 249 310 873 593 10;
#X obj 23 70 inlet~;
#X obj 84 70 inlet~;
#X obj 379 255 vsl 15 50 0 1 0 0 empty empty Wet_level 0 -9 0 10 -204786
-1 -1 0 1;
#X obj 492 89 hsl 80 15 0 1 0 0 empty empty Modulation_rate -2 -8 0
10 -262131 -1 -1 5400 1;
#X obj 659 365 vsl 15 60 0 1 0 0 empty empty Feedback 0 -9 0 10 -261682
-1 -1 0 1;
#X obj 48 520 outlet~;
#X obj 179 520 outlet~;
#X obj 610 194 hsl 80 15 0 1 0 0 empty empty Delay_time -2 -8 0 10
-262131 -1 -1 6200 0;
#X obj 681 376 hsl 80 15 0 1 0 0 empty empty Stereo_bleed -2 -8 0 10
-262131 -1 -1 0 1;
#N canvas 748 340 450 300 delay-time 0;
#X obj 112 50 inlet;
#X obj 112 72 pow 2;
#X obj 41 53 loadbang;
#X msg 41 75 0;
#X obj 111 223 outlet~;
#X obj 49 171 +~;
#X obj 45 149 sig~;
#X floatatom 122 116 5 0 0 0 - - -, f 5;
#X obj 112 160 line~;
#X obj 187 225 outlet;
#X msg 112 138 \$1 100;
#X obj 112 94 expr $f1 * 50 + 0.01;
#X connect 0 0 1 0;
#X connect 1 0 11 0;
#X connect 2 0 3 0;
#X connect 3 0 1 0;
#X connect 3 0 6 0;
#X connect 5 0 4 0;
#X connect 6 0 5 0;
#X connect 8 0 5 1;
#X connect 10 0 8 0;
#X connect 11 0 10 0;
#X connect 11 0 7 0;
#X connect 11 0 9 0;
#X restore 607 214 pd delay-time;
#N canvas 0 23 450 300 mod-rate 0;
#X obj 84 51 inlet;
#X obj 84 73 pow 2;
#X obj 84 95 + 0.02;
#X obj 134 95 + 0.03;
#X obj 134 117 osc~ 2;
#X obj 84 117 osc~ 2;
#X obj 85 239 outlet~;
#X obj 145 239 outlet~;
#X obj 84 139 *~ 1;
#X obj 134 139 *~ 1;
#X obj 249 40 inlet;
#X obj 83 183 expr~ 1 - $v1 \; 1 - $v2;
#X obj 249 105 line;
#X msg 249 84 \$1 100;
#X obj 280 137 ../utils/vu_~;
#X obj 249 62 pow 2;
#X connect 0 0 1 0;
#X connect 1 0 2 0;
#X connect 1 0 3 0;
#X connect 2 0 5 0;
#X connect 3 0 4 0;
#X connect 4 0 9 0;
#X connect 5 0 8 0;
#X connect 8 0 11 0;
#X connect 9 0 11 1;
#X connect 9 0 14 0;
#X connect 10 0 15 0;
#X connect 11 0 6 0;
#X connect 11 1 7 0;
#X connect 12 0 8 1;
#X connect 12 0 9 1;
#X connect 13 0 12 0;
#X connect 15 0 13 0;
#X restore 489 109 pd mod-rate;
#N canvas 50 326 450 300 feedback 0;
#X obj 81 52 inlet;
#X obj 81 74 pow 0.5;
#X obj 81 118 outlet;
#X obj 81 96 * 0.8;
#X connect 0 0 1 0;
#X connect 1 0 3 0;
#X connect 3 0 2 0;
#X restore 659 433 pd feedback;
#N canvas 0 23 450 300 stereo-bleed 0;
#X obj 83 63 inlet;
#X obj 83 107 outlet;
#X obj 83 85 pow 2;
#X connect 0 0 2 0;
#X connect 2 0 1 0;
#X restore 678 396 pd stereo-bleed;
#X floatatom 748 422 5 0 0 0 - - -, f 5;
#X obj 486 269 vd~ chorus-\$0;
#X obj 23 284 delwrite~ chorus-\$0 50;
#X obj 355 339 *~ 1;
#X obj 393 340 *~ 1;
#X text 14 363 delwrite cannot be put into abstraction \; when using
crossover feedback;
#X floatatom 707 216 5 0 0 0 - - -, f 5;
#X text 648 248 scale modulation amount;
#X obj 590 244 *~;
#X obj 487 242 *~;
#X obj 592 48 vsl 15 60 0 1 0 0 empty empty Mod_depth 0 -9 0 10 -261682
-1 -1 0 1;
#X floatatom 592 116 5 0 0 0 - - -, f 5;
#X obj 590 269 vd~ chorus1-\$0;
#X obj 25 329 delwrite~ chorus1-\$0 50;
#N canvas 126 288 450 300 feedback-network 0;
#X obj 113 88 inlet~;
#X obj 163 88 inlet~;
#X obj 245 92 inlet;
#X obj 295 92 inlet;
#X obj 113 170 *~ 0;
#X obj 163 170 *~ 0;
#X obj 202 170 *~ 0;
#X obj 252 170 *~ 0;
#X obj 113 232 outlet~;
#X obj 173 232 outlet~;
#X connect 0 0 4 0;
#X connect 0 0 6 0;
#X connect 1 0 5 0;
#X connect 1 0 7 0;
#X connect 2 0 5 1;
#X connect 2 0 4 1;
#X connect 3 0 6 1;
#X connect 3 0 7 1;
#X connect 4 0 8 0;
#X connect 5 0 9 0;
#X connect 6 0 9 0;
#X connect 7 0 8 0;
#X restore 513 382 pd feedback-network;
#X obj 85 210 throw~ pre-r-\$0;
#X obj 23 185 throw~ pre-l-\$0;
#X obj 48 497 catch~ post-l-\$0;
#X obj 179 496 catch~ post-r-\$0;
#X obj 188 167 throw~ post-r-\$0;
#X obj 129 142 throw~ post-l-\$0;
#X obj 247 27 vsl 15 50 0 1 0 0 empty empty Dry 0 -9 0 10 -204786 -1
-1 4900 1;
#X obj 129 114 *~ 1;
#X obj 189 119 *~ 1;
#X floatatom 247 107 5 0 0 0 - - -, f 5;
#X msg 190 64 0;
#X obj 370 394 throw~ post-r-\$0;
#X obj 360 372 throw~ post-l-\$0;
#X obj 23 261 catch~ pre-l-\$0;
#X obj 25 308 catch~ pre-r-\$0;
#X obj 530 431 throw~ pre-r-\$0;
#X obj 520 411 throw~ pre-l-\$0;
#X floatatom 659 455 5 0 0 0 - - -, f 5;
#X obj 412 60 ../utils/vu_~;
#X obj 247 86 f;
#X connect 0 0 35 0;
#X connect 0 0 29 0;
#X connect 1 0 36 0;
#X connect 1 0 28 0;
#X connect 2 0 16 1;
#X connect 2 0 17 1;
#X connect 3 0 10 0;
#X connect 4 0 11 0;
#X connect 7 0 9 0;
#X connect 8 0 12 0;
#X connect 9 0 22 1;
#X connect 9 0 21 1;
#X connect 9 1 19 0;
#X connect 10 0 22 0;
#X connect 10 0 46 0;
#X connect 10 1 21 0;
#X connect 11 0 27 2;
#X connect 11 0 45 0;
#X connect 12 0 13 0;
#X connect 12 0 27 3;
#X connect 14 0 16 0;
#X connect 14 0 27 0;
#X connect 16 0 40 0;
#X connect 17 0 39 0;
#X connect 21 0 25 0;
#X connect 22 0 14 0;
#X connect 23 0 10 1;
#X connect 23 0 24 0;
#X connect 25 0 17 0;
#X connect 25 0 27 1;
#X connect 27 0 44 0;
#X connect 27 1 43 0;
#X connect 30 0 5 0;
#X connect 31 0 6 0;
#X connect 34 0 47 0;
#X connect 35 0 33 0;
#X connect 36 0 32 0;
#X connect 38 0 35 1;
#X connect 38 0 36 1;
#X connect 41 0 15 0;
#X connect 42 0 26 0;
#X connect 47 0 35 1;
#X connect 47 0 36 1;
#X connect 47 0 37 0;
