#N canvas 526 245 875 604 10;
#X obj 322 241 vsl 15 100 0.01 1.1 0 0 empty empty Feedback 0 -9 0
10 -262131 -1 -1 8500 1;
#X obj 304 445 vsl 15 50 0.01 1 0 0 empty empty Dry 0 -9 0 10 -204786
-1 -1 4900 1;
#X obj 253 338 vsl 15 50 0.01 1 0 0 empty empty Wet 0 -9 0 10 -204786
-1 -1 4405 1;
#X obj 153 357 *~ 1;
#X obj 38 432 outlet~;
#X obj 67 212 +~;
#X obj 51 48 inlet~;
#X obj 108 254 *~ 1;
#X obj 175 73 hsl 80 15 1 1000 0 0 empty empty Time -2 -8 0 10 -262131
-1 -1 3946 1;
#X obj 292 144 hsl 60 15 25 20000 0 0 empty empty empty -2 -8 0 10
-203904 -1 -1 2946 1;
#X obj 280 124 hsl 60 15 5 15000 0 0 empty empty empty -2 -8 0 10 -203904
-1 -1 4 1;
#X msg 169 111 \$1 100;
#X obj 169 133 line;
#X obj 509 230 +~;
#X obj 505 88 inlet~;
#X obj 152 226 *~;
#X obj 172 255 *~ 0.9;
#X obj 239 206 filter_stereo~;
#X obj 357 248 *~;
#X obj 372 277 *~ 0.9;
#X obj 336 169 delread~ \$1-R 1000;
#X obj 372 322 delwrite~ \$1-R 1000;
#X obj 172 300 delwrite~ \$1-L 1000;
#X obj 150 162 delread~ \$1-L 1000;
#X obj 636 394 delread4~;
#X obj 487 278 *~ 1;
#X obj 541 279 *~ 1;
#X obj 541 444 outlet~;
#X obj 386 44 loadbang;
#X obj 358 377 *~ 1;
#X obj 38 255 *~ 1;
#X msg 318 67 500;
#X msg 359 77 15;
#X msg 395 79 10000;
#X obj 541 420 +~;
#X obj 38 410 +~;
#X msg 186 440 0.9;
#X msg 187 461 1;
#X obj 144 416 loadbang;
#X msg 186 487 0.8;
#X text 365 355 amp post;
#X text 471 261 amp pre;
#X text 533 259 amp dry;
#X text 82 237 amp pre;
#X text 23 238 amp dry;
#X text 129 339 amp post;
#N canvas 99 195 450 300 dlyLine 1;
#X restore 433 514 pd dlyLine;
#X connect 0 0 16 1;
#X connect 0 0 19 1;
#X connect 1 0 30 1;
#X connect 1 0 26 1;
#X connect 2 0 3 1;
#X connect 2 0 29 1;
#X connect 3 0 35 0;
#X connect 5 0 7 0;
#X connect 5 0 30 0;
#X connect 6 0 5 0;
#X connect 7 0 22 0;
#X connect 8 0 11 0;
#X connect 9 0 17 3;
#X connect 10 0 17 2;
#X connect 11 0 12 0;
#X connect 12 0 23 0;
#X connect 12 0 20 0;
#X connect 13 0 25 0;
#X connect 13 0 26 0;
#X connect 14 0 13 0;
#X connect 15 0 3 0;
#X connect 15 0 16 0;
#X connect 16 0 22 0;
#X connect 17 0 15 0;
#X connect 17 1 18 0;
#X connect 18 0 19 0;
#X connect 18 0 29 0;
#X connect 19 0 21 0;
#X connect 20 0 17 1;
#X connect 23 0 17 0;
#X connect 25 0 21 0;
#X connect 26 0 34 0;
#X connect 28 0 33 0;
#X connect 28 0 32 0;
#X connect 28 0 31 0;
#X connect 29 0 34 0;
#X connect 30 0 35 0;
#X connect 31 0 8 0;
#X connect 32 0 10 0;
#X connect 33 0 9 0;
#X connect 34 0 27 0;
#X connect 35 0 4 0;
#X connect 36 0 2 0;
#X connect 37 0 1 0;
#X connect 38 0 36 0;
#X connect 38 0 37 0;
#X connect 38 0 39 0;
#X connect 39 0 0 0;
