#N canvas 526 245 585 493 10;
#X obj 218 109 vsl 15 50 0 1 0 0 empty empty Dry 0 -9 0 10 -204786
-1 -1 4900 1;
#X obj 247 108 vsl 15 50 0 1 0 0 empty empty Wet 0 -9 0 10 -204786
-1 -1 0 1;
#X obj 135 229 *~ 1;
#X obj 54 289 outlet~;
#X obj 83 160 +~;
#X obj 80 95 inlet~;
#X obj 131 171 *~ 1;
#X obj 411 167 +~;
#X obj 405 80 inlet~;
#X obj 364 165 *~ 1;
#X obj 453 168 *~ 1;
#X obj 445 312 outlet~;
#X obj 327 240 *~ 1;
#X obj 32 168 *~ 1;
#X obj 445 288 +~;
#X obj 54 267 +~;
#X msg 329 88 0.9;
#X msg 294 88 1;
#X obj 294 63 loadbang;
#X text 314 217 amp post;
#X text 348 148 amp pre;
#X text 445 148 amp dry;
#X text 116 147 amp pre;
#X text 12 149 amp dry;
#X text 111 211 amp post;
#X obj 199 206 dly_line~ \$1;
#X obj 111 18 r dly-feedback;
#X obj 112 40 moses 0.3;
#X floatatom 190 64 5 0 0 0 - - -, f 5;
#X floatatom 112 62 5 0 0 0 - - -, f 5;
#X obj 190 42 expr 0.3 + ($f1 - 0.3) * 0.5;
#X connect 0 0 13 1;
#X connect 0 0 10 1;
#X connect 1 0 2 1;
#X connect 1 0 12 1;
#X connect 2 0 15 0;
#X connect 4 0 6 0;
#X connect 4 0 13 0;
#X connect 5 0 4 0;
#X connect 6 0 25 0;
#X connect 7 0 9 0;
#X connect 7 0 10 0;
#X connect 8 0 7 0;
#X connect 9 0 25 1;
#X connect 10 0 14 0;
#X connect 12 0 14 0;
#X connect 13 0 15 0;
#X connect 14 0 11 0;
#X connect 15 0 3 0;
#X connect 16 0 1 0;
#X connect 17 0 0 0;
#X connect 18 0 16 0;
#X connect 18 0 17 0;
#X connect 25 0 2 0;
#X connect 25 1 12 0;
#X connect 26 0 27 0;
#X connect 27 0 1 0;
#X connect 27 0 29 0;
#X connect 27 1 30 0;
#X connect 30 0 1 0;
#X connect 30 0 28 0;
