#N canvas 0 23 965 664 10;
#X obj 477 298 vsl 15 60 0.01 1.1 0 0 empty empty Feedback 0 -9 0 10
-261682 -1 -1 0 1;
#X obj 232 160 hsl 80 15 1 1000 0 0 empty empty Time -2 -8 0 10 -262131
-1 -1 2213 1;
#X obj 396 327 hsl 60 15 25 20000 0 0 empty empty empty -2 -8 0 10
-203904 -1 -1 1469 1;
#X obj 397 305 hsl 60 15 5 15000 0 0 empty empty empty -2 -8 0 10 -203904
-1 -1 4 1;
#X msg 226 198 \$1 100;
#X obj 198 447 *~ 0.9;
#X obj 222 343 filter_stereo~;
#X obj 396 458 *~ 0.9;
#X obj 198 472 delwrite~ \$1-L 1000;
#X obj 407 154 loadbang;
#X msg 380 187 15;
#X obj 282 443 inlet~;
#X obj 471 455 inlet~;
#X obj 183 559 outlet~;
#X obj 380 553 outlet~;
#X text 412 283 HP LP;
#X text 289 425 In L;
#X text 481 435 In R;
#X text 309 35 dly with wet out \; requires creation args;
#X msg 476 192 0.8;
#X floatatom 265 182 5 0 0 0 - - -, f 5;
#X obj 396 503 delwrite~ \$1-R 1000;
#X floatatom 400 360 5 0 0 0 - - -, f 5;
#X msg 339 177 250;
#X obj 178 418 *~ 1;
#X obj 381 429 *~ 1;
#X obj 530 280 r dly-feedback;
#X obj 221 54 r dly-rate;
#X obj 698 296 *~ 1;
#X obj 815 161 vsl 15 128 1 5 0 0 empty empty empty 0 -9 0 10 -262144
-1 -1 0 1;
#X obj 699 318 +~ 2;
#X obj 699 255 osc~ 2;
#X obj 698 118 vsl 15 128 1 5 0 0 empty empty empty 0 -9 0 10 -262144
-1 -1 0 1;
#X floatatom 853 349 5 0 0 0 - - -, f 5;
#X obj 853 327 +;
#X obj 810 301 * 2;
#X floatatom 741 233 5 0 0 0 - - -, f 5;
#X text 890 350 <-- Maximum length of the delay line (= added latency!)
;
#X text 838 234 <-- Depth (change the length of the delay line);
#X floatatom 856 289 5 0 0 0 - - -, f 5;
#X msg 748 194 1;
#X floatatom 807 343 5 0 0 0 - - -, f 5;
#X text 536 573 delread4~ =~ vd~;
#X obj 116 117 vsl 15 60 0.01 50 0 0 empty empty Wobble 0 -9 0 10 -204786
-1 -1 0 1;
#X obj 116 189 lfo~;
#X obj 148 145 hsl 40 15 0 1 0 0 empty empty Depth -2 -8 0 10 -204786
-1 -1 0 1;
#X obj 223 222 line~;
#X obj 165 239 +~;
#X obj 161 217 sig~;
#X msg 160 194 0;
#X obj 161 173 loadbang;
#X text 32 306 sig~ is used to \; transform rate \; to a continious
\; signal;
#X obj 145 265 *~;
#X obj 116 211 +~ 1;
#X obj 44 58 r dly-mod;
#N canvas 789 227 450 580 mod-to-rate-and-depth 0;
#X obj 102 55 inlet;
#X obj 39 364 outlet;
#X obj 286 268 outlet;
#X obj 99 80 moses 0.503;
#X floatatom 95 137 5 0 0 0 - - -, f 5;
#X obj 57 113 expr 1 - ($f1 * 2);
#X floatatom 213 146 5 0 0 0 - - -, f 5;
#X obj 194 114 expr ($f1 - 0.503) * 2 - 0.001;
#X obj 24 190 * 3;
#X msg 36 300 \$1 50;
#X obj 36 322 line;
#X floatatom 229 261 5 0 0 0 - - -, f 5;
#X obj 289 222 * 0.2;
#X obj 237 221 * 0.05;
#X floatatom 142 233 5 0 0 0 - - -, f 5;
#X floatatom 37 218 5 0 0 0 - - -, f 5;
#X floatatom 300 245 5 0 0 0 - - -, f 5;
#X obj 144 205 * 6;
#X obj 89 207 + 0.1;
#X obj 89 229 pow 4;
#X floatatom 89 273 5 0 0 0 - - -, f 5;
#X obj 89 251 * 28;
#X connect 0 0 3 0;
#X connect 3 0 5 0;
#X connect 3 1 7 0;
#X connect 5 0 4 0;
#X connect 5 0 8 0;
#X connect 5 0 13 0;
#X connect 7 0 6 0;
#X connect 7 0 12 0;
#X connect 7 0 17 0;
#X connect 7 0 18 0;
#X connect 8 0 9 0;
#X connect 8 0 15 0;
#X connect 9 0 10 0;
#X connect 10 0 1 0;
#X connect 12 0 2 0;
#X connect 12 0 16 0;
#X connect 13 0 2 0;
#X connect 13 0 11 0;
#X connect 17 0 14 0;
#X connect 18 0 19 0;
#X connect 19 0 21 0;
#X connect 21 0 20 0;
#X connect 21 0 9 0;
#X restore 44 80 pd mod-to-rate-and-depth;
#X floatatom 64 183 5 0 0 0 - - -, f 5;
#X obj 228 98 pow 2;
#X obj 223 121 expr $f1 * 1000;
#X obj 228 76 + 0.03;
#X obj 501 327 * 1.1;
#X obj 176 528 clip~ -0.8 0.8;
#X obj 363 530 clip~ -0.8 0.8;
#X msg 416 189 5000;
#X floatatom 501 349 5 0 0 0 - - -, f 5;
#X floatatom 548 334 5 0 0 0 - - -, f 5;
#X obj 601 315 pow 0.5;
#X obj 669 378 vsl 15 60 0.01 1.1 0 0 empty empty Feedback 0 -9 0 10
-261682 -1 -1 0 1;
#X floatatom 601 359 5 0 0 0 - - -, f 5;
#X obj 601 337 * 1.1;
#X obj 501 305 pow 0.5;
#X obj 253 293 vd~ \$1-R;
#X obj 177 316 vd~ \$1-L;
#X connect 0 0 5 1;
#X connect 0 0 7 1;
#X connect 1 0 4 0;
#X connect 1 0 20 0;
#X connect 2 0 6 3;
#X connect 2 0 22 0;
#X connect 3 0 6 2;
#X connect 4 0 46 0;
#X connect 5 0 8 0;
#X connect 6 0 24 0;
#X connect 6 1 25 0;
#X connect 7 0 21 0;
#X connect 9 0 63 0;
#X connect 9 0 10 0;
#X connect 9 0 23 0;
#X connect 9 0 19 0;
#X connect 10 0 3 0;
#X connect 11 0 8 0;
#X connect 12 0 21 0;
#X connect 19 0 0 0;
#X connect 23 0 1 0;
#X connect 24 0 5 0;
#X connect 24 0 61 0;
#X connect 25 0 7 0;
#X connect 25 0 62 0;
#X connect 26 0 65 0;
#X connect 26 0 66 0;
#X connect 26 0 70 0;
#X connect 27 0 59 0;
#X connect 28 0 30 0;
#X connect 29 0 34 1;
#X connect 29 0 35 0;
#X connect 29 0 39 0;
#X connect 31 0 28 0;
#X connect 32 0 31 0;
#X connect 32 0 36 0;
#X connect 34 0 33 0;
#X connect 35 0 34 0;
#X connect 35 0 30 1;
#X connect 35 0 41 0;
#X connect 40 0 29 0;
#X connect 40 0 32 0;
#X connect 43 0 44 0;
#X connect 43 0 56 0;
#X connect 44 0 53 0;
#X connect 45 0 44 1;
#X connect 46 0 47 1;
#X connect 47 0 52 1;
#X connect 48 0 47 0;
#X connect 49 0 48 0;
#X connect 50 0 49 0;
#X connect 52 0 71 0;
#X connect 52 0 72 0;
#X connect 53 0 52 0;
#X connect 54 0 55 0;
#X connect 55 0 43 0;
#X connect 55 1 45 0;
#X connect 57 0 58 0;
#X connect 58 0 1 0;
#X connect 59 0 57 0;
#X connect 60 0 0 0;
#X connect 60 0 64 0;
#X connect 61 0 13 0;
#X connect 62 0 14 0;
#X connect 63 0 2 0;
#X connect 66 0 69 0;
#X connect 69 0 67 0;
#X connect 69 0 68 0;
#X connect 70 0 60 0;
#X connect 71 0 6 1;
#X connect 72 0 6 0;
