#N canvas 0 23 965 664 10;
#X obj 333 254 vsl 15 100 0.01 1.1 0 0 empty empty Feedback 0 -9 0
10 -262131 -1 -1 6989 1;
#X obj 42 147 hsl 80 15 1 1000 0 0 empty empty Time -2 -8 0 10 -262131
-1 -1 2262 1;
#X obj 252 283 hsl 60 15 25 20000 0 0 empty empty empty -2 -8 0 10
-203904 -1 -1 2946 1;
#X obj 253 261 hsl 60 15 5 15000 0 0 empty empty empty -2 -8 0 10 -203904
-1 -1 4 1;
#X msg 36 185 \$1 100;
#X obj 43 426 *~ 0.9;
#X obj 78 299 filter_stereo~;
#X obj 241 437 *~ 0.9;
#X obj 43 451 delwrite~ \$1-L 1000;
#X obj 263 110 loadbang;
#X msg 236 143 15;
#X msg 272 145 10000;
#X obj 127 422 inlet~;
#X obj 316 434 inlet~;
#X obj 28 538 outlet~;
#X obj 225 532 outlet~;
#X text 268 239 HP LP;
#X text 134 404 In L;
#X text 326 414 In R;
#X text 32 26 dly with wet out \; requires creation args;
#X msg 332 148 0.8;
#X floatatom 75 169 5 0 0 0 - - -, f 5;
#X obj 241 482 delwrite~ \$1-R 1000;
#X floatatom 256 316 5 0 0 0 - - -, f 5;
#X msg 195 133 250;
#X obj 23 397 *~ 1;
#X obj 226 408 *~ 1;
#X obj 364 193 r dly-feedback;
#X obj 74 80 r dly-rate;
#X obj 364 215 * 1.1;
#X obj 74 102 expr $f1 * 995 + 5;
#X obj 597 270 *~ 1;
#X obj 714 135 vsl 15 128 1 5 0 0 empty empty empty 0 -9 0 10 -262144
-1 -1 3700 1;
#X obj 598 292 +~ 2;
#X obj 598 229 osc~ 2;
#X obj 597 92 vsl 15 128 1 5 0 0 empty empty empty 0 -9 0 10 -262144
-1 -1 7400 1;
#X floatatom 752 323 5 0 0 0 - - -, f 5;
#X obj 752 301 +;
#X obj 709 275 * 2;
#X floatatom 640 207 5 0 0 0 - - -, f 5;
#X text 789 324 <-- Maximum length of the delay line (= added latency!)
;
#X text 737 208 <-- Depth (change the length of the delay line);
#X floatatom 755 263 5 0 0 0 - - -, f 5;
#X msg 647 168 1;
#X floatatom 706 317 5 0 0 0 - - -, f 5;
#X obj 36 207 line~;
#X obj 40 266 delread4~ \$1-L;
#X obj 85 232 delread4~ \$1-R;
#X text 381 552 delread4~ =~ vd~;
#X connect 0 0 5 1;
#X connect 0 0 7 1;
#X connect 1 0 4 0;
#X connect 1 0 21 0;
#X connect 2 0 6 3;
#X connect 2 0 23 0;
#X connect 3 0 6 2;
#X connect 4 0 45 0;
#X connect 5 0 8 0;
#X connect 6 0 25 0;
#X connect 6 1 26 0;
#X connect 7 0 22 0;
#X connect 9 0 11 0;
#X connect 9 0 10 0;
#X connect 9 0 24 0;
#X connect 9 0 20 0;
#X connect 10 0 3 0;
#X connect 11 0 2 0;
#X connect 12 0 8 0;
#X connect 13 0 22 0;
#X connect 20 0 0 0;
#X connect 24 0 1 0;
#X connect 25 0 5 0;
#X connect 25 0 14 0;
#X connect 26 0 7 0;
#X connect 26 0 15 0;
#X connect 27 0 29 0;
#X connect 28 0 30 0;
#X connect 29 0 0 0;
#X connect 30 0 1 0;
#X connect 31 0 33 0;
#X connect 32 0 37 1;
#X connect 32 0 38 0;
#X connect 32 0 42 0;
#X connect 34 0 31 0;
#X connect 35 0 34 0;
#X connect 35 0 39 0;
#X connect 37 0 36 0;
#X connect 38 0 37 0;
#X connect 38 0 33 1;
#X connect 38 0 44 0;
#X connect 43 0 32 0;
#X connect 43 0 35 0;
#X connect 45 0 46 0;
#X connect 45 0 47 0;
#X connect 46 0 6 0;
#X connect 47 0 6 1;
