#N canvas 0 23 496 664 10;
#X obj 333 254 vsl 15 100 0.01 1.1 0 0 empty empty Feedback 0 -9 0
10 -262131 -1 -1 6203 1;
#X obj 42 147 hsl 80 15 1 1000 0 0 empty empty Time -2 -8 0 10 -262131
-1 -1 3977 1;
#X obj 252 283 hsl 60 15 25 20000 0 0 empty empty empty -2 -8 0 10
-203904 -1 -1 2946 1;
#X obj 253 261 hsl 60 15 5 15000 0 0 empty empty empty -2 -8 0 10 -203904
-1 -1 4 1;
#X msg 36 185 \$1 100;
#X obj 36 207 line;
#X obj 43 426 *~ 0.9;
#X obj 78 299 filter_stereo~;
#X obj 241 437 *~ 0.9;
#X obj 85 232 delread~ \$1-R 1000;
#X obj 43 451 delwrite~ \$1-L 1000;
#X obj 40 266 delread~ \$1-L 1000;
#X obj 263 110 loadbang;
#X msg 236 143 15;
#X msg 272 145 10000;
#X obj 127 422 inlet~;
#X obj 316 434 inlet~;
#X obj 28 538 outlet~;
#X obj 225 532 outlet~;
#X text 268 239 HP LP;
#X text 134 404 In L;
#X text 326 414 In R;
#X text 32 26 dly with wet out \; requires creation args;
#X msg 332 148 0.8;
#X floatatom 75 169 5 0 0 0 - - -, f 5;
#X obj 241 482 delwrite~ \$1-R 1000;
#X floatatom 256 316 5 0 0 0 - - -, f 5;
#X msg 195 133 250;
#X obj 23 397 *~ 1;
#X obj 226 408 *~ 1;
#X obj 364 193 r dly-feedback;
#X obj 74 80 r dly-rate;
#X obj 74 102 * 1000;
#X obj 364 215 * 1.1;
#X connect 0 0 6 1;
#X connect 0 0 8 1;
#X connect 1 0 4 0;
#X connect 1 0 24 0;
#X connect 2 0 7 3;
#X connect 2 0 26 0;
#X connect 3 0 7 2;
#X connect 4 0 5 0;
#X connect 5 0 11 0;
#X connect 5 0 9 0;
#X connect 6 0 10 0;
#X connect 7 0 28 0;
#X connect 7 1 29 0;
#X connect 8 0 25 0;
#X connect 9 0 7 1;
#X connect 11 0 7 0;
#X connect 12 0 14 0;
#X connect 12 0 13 0;
#X connect 12 0 27 0;
#X connect 12 0 23 0;
#X connect 13 0 3 0;
#X connect 14 0 2 0;
#X connect 15 0 10 0;
#X connect 16 0 25 0;
#X connect 23 0 0 0;
#X connect 27 0 1 0;
#X connect 28 0 6 0;
#X connect 28 0 17 0;
#X connect 29 0 8 0;
#X connect 29 0 18 0;
#X connect 30 0 33 0;
#X connect 31 0 32 0;
#X connect 32 0 1 0;
#X connect 33 0 0 0;
