#N canvas 938 260 585 454 10;
#X obj 113 83 inlet~;
#X obj 163 83 inlet~;
#X obj 213 83 inlet;
#X obj 110 353 outlet~;
#X obj 170 353 outlet~;
#X obj 228 110 moses 0.5;
#X text 279 46 0: cut all;
#X text 279 69 1: boost +6 \; (with limiting);
#X obj 228 132 expr $f1 * 2;
#X floatatom 224 157 5 0 0 0 - - -, f 5;
#X obj 113 175 *~;
#X obj 163 175 *~;
#X obj 129 234 saturator~;
#X obj 297 230 tgl 15 0 empty empty empty 17 7 0 10 -261682 -1 -1 0
1;
#X obj 104 320 *~;
#X obj 135 320 *~;
#X obj 296 254 == 0;
#X obj 214 232 saturator~;
#X obj 173 319 *~;
#X obj 204 319 *~;
#X text 318 237 limiter on/off;
#X obj 412 79 inlet;
#X text 294 315 this affects the saturator pre? \; why;
#X obj 253 351 env~;
#X obj 258 399 moses 1;
#X obj 258 377 >= 100;
#X obj 313 352 env~;
#X obj 318 400 moses 1;
#X obj 318 378 >= 100;
#X obj 402 417 bng 15 250 50 0 empty empty empty 17 7 0 10 -262144
-1 -1;
#X obj 426 422 outlet;
#X obj 288 152 expr 1 + 6 * ($f1 - 0.5);
#X connect 0 0 10 0;
#X connect 1 0 11 0;
#X connect 2 0 5 0;
#X connect 5 0 8 0;
#X connect 5 1 31 0;
#X connect 8 0 9 0;
#X connect 9 0 10 1;
#X connect 9 0 11 1;
#X connect 10 0 12 0;
#X connect 10 0 14 0;
#X connect 10 0 23 0;
#X connect 11 0 17 0;
#X connect 11 0 18 0;
#X connect 11 0 26 0;
#X connect 12 0 15 0;
#X connect 13 0 16 0;
#X connect 13 0 15 1;
#X connect 13 0 19 1;
#X connect 14 0 3 0;
#X connect 15 0 3 0;
#X connect 16 0 14 1;
#X connect 16 0 18 1;
#X connect 17 0 19 0;
#X connect 18 0 4 0;
#X connect 19 0 4 0;
#X connect 21 0 13 0;
#X connect 23 0 25 0;
#X connect 24 1 29 0;
#X connect 25 0 24 0;
#X connect 26 0 28 0;
#X connect 27 1 29 0;
#X connect 28 0 27 0;
#X connect 29 0 30 0;
#X connect 31 0 9 0;
