#N canvas 636 249 766 618 10;
#X obj 86 78 inlet~;
#X obj 163 83 inlet~;
#X obj 229 6 inlet;
#X obj 104 394 outlet~;
#X obj 170 393 outlet~;
#X obj 229 48 moses 0.5;
#X text 86 8 0: cut all;
#X text 86 31 1: boost +6 \; (with limiting);
#X floatatom 242 222 5 0 0 0 - - -, f 5;
#X obj 86 170 *~;
#X obj 163 175 *~;
#X text 303 339 this affects the saturator pre? \; why;
#X obj 253 391 env~;
#X obj 258 439 moses 1;
#X obj 258 417 >= 100;
#X obj 313 392 env~;
#X obj 318 440 moses 1;
#X obj 318 418 >= 100;
#X obj 402 457 bng 15 250 50 0 empty empty empty 17 7 0 10 -262144
-1 -1;
#X obj 426 462 outlet;
#X obj 224 137 pow 0.5;
#X obj 346 214 clip 0 10;
#X floatatom 183 241 5 0 0 0 - - -, f 5;
#X text 347 176 distortion channel volume;
#X text 385 123 'clean' boost;
#X obj 109 262 od~, f 6;
#X floatatom 189 261 5 0 0 0 - - -, f 5;
#X obj 347 235 pow 4;
#X obj 397 258 expr $f1 * 0.4 + 0.1;
#X obj 347 257 * 0.4;
#X obj 380 -20 inlet;
#X text 562 325 0-0.5 \; scale eq values 0.5-1 \; add drive;
#X obj 463 62 s mix-\$0;
#X obj 253 290 r mix-\$0;
#X obj 108 361 mixer~;
#X obj 229 28 f;
#X obj 272 91 * 1;
#X obj 231 91 !- 1;
#X obj 339 121 * 1;
#X obj 303 93 expr $f1 - 0.506;
#X obj 344 193 * 2;
#X obj 173 359 mixer~, f 7;
#X obj 339 143 expr 1 + 4 * $f1;
#X obj 231 113 clip 0 1;
#X obj 229 70 expr 1 - ($f1 * 2);
#X text 656 -42 comment;
#X obj 362 20 * 2;
#X obj 362 42 clip 0 1;
#X floatatom 530 63 5 0 0 0 - - -, f 5;
#X obj 463 40 clip 0 10;
#X obj 536 41 + 1;
#X floatatom 578 64 5 0 0 0 - - -, f 5;
#X obj 463 18 expr ($f1 - 0.5) * 2;
#X obj 283 3 bang;
#X obj 283 25 delay 10;
#X floatatom 484 147 5 0 0 0 - - -, f 5;
#X floatatom 443 211 5 0 0 0 - - -, f 5;
#X floatatom 362 64 5 0 0 0 - - -, f 5;
#X msg 559 97 0;
#X floatatom 347 279 5 0 0 0 - - -, f 5;
#X obj 437 294 hsl 128 15 0 1 0 0 empty empty empty -2 -8 0 10 -262144
-1 -1 1500 1;
#X obj 418 314 hsl 128 15 0 1 0 0 empty empty empty -2 -8 0 10 -262144
-1 -1 0 1;
#X floatatom 397 280 5 0 0 0 - - -, f 5;
#X connect 0 0 9 0;
#X connect 1 0 10 0;
#X connect 2 0 35 0;
#X connect 5 0 44 0;
#X connect 5 1 39 0;
#X connect 8 0 9 1;
#X connect 8 0 10 1;
#X connect 9 0 12 0;
#X connect 9 0 25 0;
#X connect 9 0 34 0;
#X connect 10 0 15 0;
#X connect 10 0 25 1;
#X connect 10 0 41 0;
#X connect 12 0 14 0;
#X connect 13 1 18 0;
#X connect 14 0 13 0;
#X connect 15 0 17 0;
#X connect 16 1 18 0;
#X connect 17 0 16 0;
#X connect 18 0 19 0;
#X connect 20 0 8 0;
#X connect 21 0 27 0;
#X connect 22 0 25 2;
#X connect 25 0 34 1;
#X connect 25 1 41 1;
#X connect 26 0 25 3;
#X connect 27 0 28 0;
#X connect 27 0 29 0;
#X connect 28 0 62 0;
#X connect 29 0 59 0;
#X connect 30 0 46 0;
#X connect 30 0 53 0;
#X connect 33 0 34 2;
#X connect 33 0 41 2;
#X connect 34 0 3 0;
#X connect 35 0 5 0;
#X connect 36 0 37 0;
#X connect 37 0 43 0;
#X connect 38 0 42 0;
#X connect 38 0 40 0;
#X connect 38 0 55 0;
#X connect 39 0 38 0;
#X connect 40 0 21 0;
#X connect 40 0 56 0;
#X connect 41 0 4 0;
#X connect 42 0 8 0;
#X connect 43 0 20 0;
#X connect 44 0 36 0;
#X connect 46 0 47 0;
#X connect 47 0 36 1;
#X connect 47 0 38 1;
#X connect 47 0 57 0;
#X connect 49 0 32 0;
#X connect 49 0 48 0;
#X connect 49 0 50 0;
#X connect 50 0 51 0;
#X connect 52 0 49 0;
#X connect 53 0 35 0;
#X connect 53 0 54 0;
#X connect 54 0 35 0;
#X connect 58 0 32 0;
#X connect 60 0 22 0;
#X connect 61 0 26 0;
