#N canvas 636 249 766 618 10;
#X obj 79 159 inlet~;
#X obj 156 164 inlet~;
#X obj 222 87 inlet;
#X obj 97 475 outlet~;
#X obj 163 474 outlet~;
#X obj 222 129 moses 0.5;
#X text 79 89 0: cut all;
#X text 79 112 1: boost +6 \; (with limiting);
#X floatatom 235 303 5 0 0 0 - - -, f 5;
#X text 244 439 this affects the saturator pre? \; why;
#X obj 246 472 env~;
#X obj 251 520 moses 1;
#X obj 251 498 >= 100;
#X obj 306 473 env~;
#X obj 311 521 moses 1;
#X obj 311 499 >= 100;
#X obj 395 538 bng 15 250 50 0 empty empty empty 17 7 0 10 -262144
-1 -1;
#X obj 419 543 outlet;
#X obj 217 218 pow 0.5;
#X text 329 227 'clean' boost;
#X obj 485 273 pow 4;
#X obj 350 68 inlet;
#X obj 222 109 f;
#X obj 265 172 * 1;
#X obj 224 172 !- 1;
#X obj 342 200 * 1;
#X obj 296 174 expr $f1 - 0.506;
#X obj 482 231 * 2;
#X obj 224 194 clip 0 1;
#X obj 222 151 expr 1 - ($f1 * 2);
#X text 649 39 comment;
#X obj 355 101 * 2;
#X obj 355 123 clip 0 1;
#X obj 482 85 expr ($f1 - 0.5) * 2;
#X obj 276 85 bang;
#X obj 276 106 delay 10;
#X floatatom 355 145 5 0 0 0 - - -, f 5;
#X obj 309 243 expr 1 + 6 * $f1;
#X obj 482 107 clip 0 1;
#X text 484 61 od amount;
#X obj 18 331 pow 2;
#X obj 484 252 clip 0 1;
#X obj 485 295 * 0.5;
#X obj 482 129 s od-\$0;
#X obj 18 308 r od-\$0;
#X text 76 26 knob1 affects channel level + od type \; knob2 affects
gain + scalar for knob 1;
#X obj 92 378 od2~, f 10;
#X obj 79 251 *~ 1;
#X obj 156 256 *~ 1;
#X floatatom 238 341 5 0 0 0 - - -, f 5;
#X text 479 215 distortion type;
#X connect 0 0 47 0;
#X connect 1 0 48 0;
#X connect 2 0 22 0;
#X connect 5 0 29 0;
#X connect 5 1 26 0;
#X connect 8 0 47 1;
#X connect 8 0 48 1;
#X connect 10 0 12 0;
#X connect 11 1 16 0;
#X connect 12 0 11 0;
#X connect 13 0 15 0;
#X connect 14 1 16 0;
#X connect 15 0 14 0;
#X connect 16 0 17 0;
#X connect 18 0 8 0;
#X connect 20 0 42 0;
#X connect 21 0 31 0;
#X connect 21 0 34 0;
#X connect 21 0 33 0;
#X connect 22 0 5 0;
#X connect 23 0 24 0;
#X connect 24 0 28 0;
#X connect 25 0 27 0;
#X connect 25 0 37 0;
#X connect 26 0 25 0;
#X connect 27 0 41 0;
#X connect 28 0 18 0;
#X connect 29 0 23 0;
#X connect 31 0 32 0;
#X connect 32 0 23 1;
#X connect 32 0 25 1;
#X connect 32 0 36 0;
#X connect 33 0 38 0;
#X connect 34 0 22 0;
#X connect 34 0 35 0;
#X connect 35 0 22 0;
#X connect 37 0 8 0;
#X connect 38 0 43 0;
#X connect 40 0 46 2;
#X connect 41 0 20 0;
#X connect 42 0 49 0;
#X connect 44 0 40 0;
#X connect 46 0 3 0;
#X connect 46 1 4 0;
#X connect 47 0 46 0;
#X connect 47 0 10 0;
#X connect 48 0 13 0;
#X connect 48 0 46 1;
#X connect 49 0 46 3;
