#N canvas 938 260 669 454 10;
#X obj 86 78 inlet~;
#X obj 163 83 inlet~;
#X obj 213 83 inlet;
#X obj 81 397 outlet~;
#X obj 170 393 outlet~;
#X obj 228 110 moses 0.5;
#X text 279 46 0: cut all;
#X text 279 69 1: boost +6 \; (with limiting);
#X floatatom 228 205 5 0 0 0 - - -, f 5;
#X obj 86 170 *~;
#X obj 163 175 *~;
#X obj 268 257 tgl 15 0 empty empty empty 17 7 0 10 -261682 -1 -1 1
1;
#X obj 75 364 *~;
#X obj 106 364 *~;
#X obj 267 281 == 0;
#X obj 173 359 *~;
#X obj 204 359 *~;
#X text 289 264 limiter on/off;
#X obj 412 79 inlet;
#X text 294 355 this affects the saturator pre? \; why;
#X obj 253 391 env~;
#X obj 258 439 moses 1;
#X obj 258 417 >= 100;
#X obj 313 392 env~;
#X obj 318 440 moses 1;
#X obj 318 418 >= 100;
#X obj 402 457 bng 15 250 50 0 empty empty empty 17 7 0 10 -262144
-1 -1;
#X obj 426 462 outlet;
#X obj 228 132 expr $f1 * 2;
#X obj 219 158 pow 0.5;
#X floatatom 116 114 5 0 0 0 - - -, f 5;
#X obj 288 152 expr 1 + 6 * ($f1 - 0.5);
#X obj 352 210 clip 0 10;
#X floatatom 180 225 5 0 0 0 - - -, f 5;
#X text 353 172 distortion channel volume;
#X text 382 131 'clean' boost;
#X obj 109 262 od~, f 6;
#X floatatom 189 261 5 0 0 0 - - -, f 5;
#X obj 350 189 expr ($f1 - 0.506) * 2;
#X obj 443 227 pow 4;
#X floatatom 443 271 5 0 0 0 - - -, f 5;
#X floatatom 492 272 5 0 0 0 - - -, f 5;
#X obj 493 250 expr $f1 * 0.4 + 0.1;
#X obj 443 249 * 0.4;
#X connect 0 0 9 0;
#X connect 1 0 10 0;
#X connect 2 0 5 0;
#X connect 2 0 30 0;
#X connect 5 0 28 0;
#X connect 5 1 31 0;
#X connect 5 1 38 0;
#X connect 8 0 9 1;
#X connect 8 0 10 1;
#X connect 9 0 12 0;
#X connect 9 0 20 0;
#X connect 9 0 36 0;
#X connect 10 0 15 0;
#X connect 10 0 23 0;
#X connect 10 0 36 1;
#X connect 11 0 14 0;
#X connect 11 0 13 1;
#X connect 11 0 16 1;
#X connect 12 0 3 0;
#X connect 13 0 3 0;
#X connect 14 0 12 1;
#X connect 14 0 15 1;
#X connect 15 0 4 0;
#X connect 16 0 4 0;
#X connect 18 0 11 0;
#X connect 20 0 22 0;
#X connect 21 1 26 0;
#X connect 22 0 21 0;
#X connect 23 0 25 0;
#X connect 24 1 26 0;
#X connect 25 0 24 0;
#X connect 26 0 27 0;
#X connect 28 0 29 0;
#X connect 29 0 8 0;
#X connect 31 0 8 0;
#X connect 32 0 39 0;
#X connect 33 0 36 2;
#X connect 36 0 13 0;
#X connect 36 1 16 0;
#X connect 37 0 36 3;
#X connect 38 0 32 0;
#X connect 39 0 42 0;
#X connect 39 0 43 0;
#X connect 42 0 41 0;
#X connect 42 0 37 0;
#X connect 43 0 33 0;
#X connect 43 0 40 0;
