#N canvas 884 229 594 658 10;
#X obj 7 51 inlet~;
#X obj 57 51 inlet~;
#X obj 127 29 inlet;
#X text 22 270 HP;
#X obj 57 303 hip~, f 6;
#X obj 7 323 hip~, f 6;
#X obj 7 303 hip~, f 6;
#X obj 57 323 hip~, f 6;
#X obj 145 408 outlet~;
#X obj 195 408 outlet~;
#X text 149 318 LP;
#X obj 145 346 lop~, f 6;
#X obj 195 346 lop~, f 6;
#X obj 145 366 lop~, f 6;
#X obj 195 366 lop~, f 6;
#X text 5 25 L \, R \, hp f \, lp f;
#X obj 378 9 loadbang;
#X msg 378 31 0;
#X obj 127 51 expr $f1 * 22050;
#X obj 107 137 hsl 30 15 1 22050 0 0 empty empty HP -2 -8 0 10 -232576
-1 -1 0 1;
#X obj 147 137 hsl 30 15 1 22050 0 0 empty empty LP -2 -8 0 10 -232576
-1 -1 2900 1;
#X obj 186 124 vsl 15 25 0 127 0 0 empty empty Resonance 0 -9 0 10
-262130 -1 -1 0 1;
#X floatatom 127 268 9 0 0 0 - - -, f 9;
#X floatatom 139 250 9 0 0 0 - - -, f 9;
#X obj 257 29 inlet;
#X obj 257 51 expr $f1 * 22050;
#X msg 418 31 1;
#X obj 127 73 ../utils/line_ 10;
#X obj 257 73 ../utils/line_ 10;
#X connect 0 0 6 0;
#X connect 1 0 4 0;
#X connect 2 0 18 0;
#X connect 4 0 7 0;
#X connect 5 0 11 0;
#X connect 6 0 5 0;
#X connect 7 0 12 0;
#X connect 11 0 13 0;
#X connect 12 0 14 0;
#X connect 13 0 8 0;
#X connect 14 0 9 0;
#X connect 16 0 17 0;
#X connect 16 0 26 0;
#X connect 17 0 18 0;
#X connect 18 0 27 0;
#X connect 19 0 6 1;
#X connect 19 0 4 1;
#X connect 19 0 5 1;
#X connect 19 0 7 1;
#X connect 19 0 22 0;
#X connect 20 0 11 1;
#X connect 20 0 13 1;
#X connect 20 0 12 1;
#X connect 20 0 14 1;
#X connect 20 0 23 0;
#X connect 24 0 25 0;
#X connect 25 0 28 0;
#X connect 26 0 25 0;
#X connect 27 0 19 0;
#X connect 28 0 20 0;
#X coords 0 -1 1 1 145 55 1 100 100;
