#N canvas 514 278 866 532 10;
#X obj 17 51 inlet~;
#X obj 67 51 inlet~;
#X obj -141 387 outlet~;
#X obj -81 387 outlet~;
#X obj 481 10 loadbang;
#X obj 145 105 hsl 25 15 0 1 0 0 empty empty empty -2 -8 0 10 -261682
-1 -1 1209 1;
#X obj 108 105 hsl 25 15 0 1 0 0 empty empty empty -2 -8 0 10 -262130
-1 -1 1209 1;
#X obj 387 9 inlet;
#X msg 481 32 0.5;
#X text 15 24 L \, R \, 1 \, 2 \, 3;
#X obj -291 92 loadbang;
#X text -266 39 cutoff frequencies;
#X floatatom 141 183 5 0 0 0 - - -, f 5;
#X floatatom 110 222 5 0 0 0 - - -, f 5;
#X obj -267 186 lop~;
#X obj -26 153 hip~;
#X obj -227 186 lop~;
#X obj 14 153 hip~;
#X obj -10 338 loadbang;
#X obj -135 357 *~;
#X obj -105 357 *~;
#X msg -45 339 1;
#X obj 387 73 ../utils/line_;
#X obj 127 73 ../utils/line_;
#X text -409 513 comment;
#N canvas 814 348 450 300 eqband 0;
#X obj 28 55 inlet~;
#X obj 78 55 inlet~;
#X obj 138 68 inlet;
#X obj 197 86 inlet;
#X obj 28 77 hip~;
#X obj 78 77 hip~;
#X obj 28 99 lop~;
#X obj 78 99 lop~;
#X obj 28 121 outlet~;
#X obj 88 121 outlet~;
#X connect 0 0 4 0;
#X connect 1 0 5 0;
#X connect 2 0 4 1;
#X connect 2 0 5 1;
#X connect 3 0 6 1;
#X connect 3 0 7 1;
#X connect 4 0 6 0;
#X connect 5 0 7 0;
#X connect 6 0 8 0;
#X connect 7 0 9 0;
#X restore -146 208 pd eqband;
#X obj 550 17 inlet;
#X obj 549 65 ../utils/line_;
#X obj 387 51 f;
#X obj 127 51 f;
#X obj 127 9 inlet;
#X obj 179 105 hsl 25 15 0 1 0 0 empty empty empty -2 -8 0 10 -261234
-1 -1 0 1;
#X text 563 94 drive;
#X msg -302 117 500;
#X floatatom 178 147 5 0 0 0 - - -, f 5;
#X obj -69 280 vca~, f 10;
#X msg -236 118 2500;
#X obj -259 281 vca~, f 10;
#X msg 498 52 0;
#X connect 0 0 14 0;
#X connect 0 0 15 0;
#X connect 0 0 25 0;
#X connect 1 0 16 0;
#X connect 1 0 17 0;
#X connect 1 0 25 1;
#X connect 4 0 8 0;
#X connect 4 0 38 0;
#X connect 5 0 12 0;
#X connect 6 0 13 0;
#X connect 7 0 28 0;
#X connect 8 0 28 0;
#X connect 8 0 29 0;
#X connect 10 0 33 0;
#X connect 10 0 36 0;
#X connect 12 0 37 2;
#X connect 13 0 35 2;
#X connect 14 0 37 0;
#X connect 15 0 35 0;
#X connect 16 0 37 1;
#X connect 17 0 35 1;
#X connect 18 0 21 0;
#X connect 19 0 2 0;
#X connect 20 0 3 0;
#X connect 21 0 20 1;
#X connect 21 0 19 1;
#X connect 22 0 6 0;
#X connect 23 0 5 0;
#X connect 25 0 19 0;
#X connect 25 1 20 0;
#X connect 26 0 27 0;
#X connect 27 0 31 0;
#X connect 28 0 22 0;
#X connect 29 0 23 0;
#X connect 30 0 29 0;
#X connect 31 0 34 0;
#X connect 33 0 14 1;
#X connect 33 0 16 1;
#X connect 33 0 25 2;
#X connect 34 0 35 3;
#X connect 34 0 37 3;
#X connect 35 0 19 0;
#X connect 35 1 20 0;
#X connect 36 0 15 1;
#X connect 36 0 17 1;
#X connect 36 0 25 3;
#X connect 37 0 19 0;
#X connect 37 1 20 0;
#X connect 38 0 27 0;
#X coords 0 -1 1 1 110 25 2 100 100;
