#N canvas 456 316 866 532 10;
#X obj 7 51 inlet~;
#X obj 57 51 inlet~;
#X obj 127 29 inlet;
#X obj -51 387 outlet~;
#X obj 9 387 outlet~;
#X obj 513 12 loadbang;
#X obj 106 130 hsl 25 15 0 1 0 0 empty empty Low -2 -8 0 10 -261682
-1 -1 2400 1;
#X obj 146 130 hsl 25 15 0 1 0 0 empty empty Mid -2 -8 0 10 -261682
-1 -1 2400 1;
#X obj 186 130 hsl 25 15 0 1 0 0 empty empty High -2 -8 0 10 -261682
-1 -1 2400 1;
#X obj 257 29 inlet;
#X obj 387 29 inlet;
#X msg 513 34 0.5;
#X obj 387 73 ../utils/line_;
#X obj 257 73 ../utils/line_;
#X obj 127 73 ../utils/line_;
#X obj 127 51 expr $f1;
#X obj 256 51 expr $f1;
#X obj 387 51 expr $f1;
#X text 5 24 L \, R \, 1 \, 2 \, 3;
#X obj 106 149 hsl 25 8 0 1 0 0 empty empty empty -2 -8 0 10 -261682
-1 -1 1200 1;
#X obj 146 149 hsl 25 8 0 1 0 0 empty empty empty -2 -8 0 10 -261682
-1 -1 1200 1;
#X obj 186 149 hsl 25 8 0 1 0 0 empty empty empty -2 -8 0 10 -261682
-1 -1 1200 1;
#X obj 272 134 loadbang;
#X msg 279 159 set 0.5;
#N canvas 814 348 450 300 eqband 0;
#X obj 28 55 inlet~;
#X obj 78 55 inlet~;
#X obj 138 68 inlet;
#X obj 197 86 inlet;
#X obj 28 77 hip~;
#X obj 78 77 hip~;
#X obj 28 99 lop~;
#X obj 78 99 lop~;
#X obj 28 121 outlet~;
#X obj 88 121 outlet~;
#X connect 0 0 4 0;
#X connect 1 0 5 0;
#X connect 2 0 4 1;
#X connect 2 0 5 1;
#X connect 3 0 6 1;
#X connect 3 0 7 1;
#X connect 4 0 6 0;
#X connect 5 0 7 0;
#X connect 6 0 8 0;
#X connect 7 0 9 0;
#X restore -91 198 pd eqband;
#X obj -131 72 loadbang;
#X text -176 39 cutoff frequencies;
#X msg -142 97 250;
#X floatatom 111 207 5 0 0 0 - - -, f 5;
#X floatatom 151 207 5 0 0 0 - - -, f 5;
#X floatatom 191 207 5 0 0 0 - - -, f 5;
#X obj -177 186 lop~;
#X obj -16 153 hip~;
#X obj -137 186 lop~;
#X obj 24 153 hip~;
#X obj 51 324 loadbang;
#X obj -45 357 *~;
#X obj -15 357 *~;
#X obj 125 115 bng 10 250 50 0 empty empty empty 17 7 0 10 -33289 -258113
-1;
#X obj 166 115 bng 10 250 50 0 empty empty empty 17 7 0 10 -33289 -258113
-1;
#X obj 212 115 bng 10 250 50 0 empty empty empty 17 7 0 10 -33289 -258113
-1;
#X obj 103 164 tgl 15 0 empty empty Saturation 17 7 0 10 -261234 -1
-1 1 1;
#X msg 16 325 1;
#X obj 320 301 bng 8 250 50 0 empty empty empty 17 7 0 10 -262144 -1
-1;
#X obj 340 301 bng 8 250 50 0 empty empty empty 17 7 0 10 -262144 -1
-1;
#X obj 360 301 bng 8 250 50 0 empty empty empty 17 7 0 10 -262144 -1
-1;
#X obj 360 107 bng 8 250 50 0 empty empty empty 17 7 0 10 -262144 -1
-1;
#X obj 380 107 bng 8 250 50 0 empty empty empty 17 7 0 10 -262144 -1
-1;
#X obj 400 107 bng 8 250 50 0 empty empty empty 17 7 0 10 -262144 -1
-1;
#X msg -103 97 2500;
#X msg 244 139 1;
#X obj -148 284 eqgain~;
#X obj -28 284 eqgain~;
#X obj -88 284 eqgain~;
#X connect 0 0 31 0;
#X connect 0 0 24 0;
#X connect 0 0 32 0;
#X connect 1 0 33 0;
#X connect 1 0 34 0;
#X connect 1 0 24 1;
#X connect 2 0 15 0;
#X connect 5 0 11 0;
#X connect 6 0 28 0;
#X connect 7 0 29 0;
#X connect 8 0 30 0;
#X connect 9 0 16 0;
#X connect 10 0 17 0;
#X connect 11 0 15 0;
#X connect 11 0 16 0;
#X connect 11 0 17 0;
#X connect 12 0 8 0;
#X connect 13 0 7 0;
#X connect 14 0 6 0;
#X connect 15 0 14 0;
#X connect 16 0 13 0;
#X connect 17 0 12 0;
#X connect 22 0 23 0;
#X connect 22 0 50 0;
#X connect 23 0 19 0;
#X connect 23 0 20 0;
#X connect 23 0 21 0;
#X connect 24 0 53 0;
#X connect 24 1 53 1;
#X connect 25 0 27 0;
#X connect 25 0 49 0;
#X connect 27 0 24 2;
#X connect 27 0 31 1;
#X connect 27 0 33 1;
#X connect 28 0 51 2;
#X connect 29 0 53 2;
#X connect 30 0 52 2;
#X connect 31 0 51 0;
#X connect 32 0 52 0;
#X connect 33 0 51 1;
#X connect 34 0 52 1;
#X connect 35 0 42 0;
#X connect 36 0 3 0;
#X connect 37 0 4 0;
#X connect 41 0 51 3;
#X connect 41 0 52 3;
#X connect 41 0 53 3;
#X connect 42 0 36 1;
#X connect 42 0 37 1;
#X connect 43 0 46 0;
#X connect 44 0 47 0;
#X connect 45 0 48 0;
#X connect 46 0 38 0;
#X connect 47 0 39 0;
#X connect 48 0 40 0;
#X connect 49 0 24 3;
#X connect 49 0 32 1;
#X connect 49 0 34 1;
#X connect 50 0 41 0;
#X connect 51 0 36 0;
#X connect 51 1 37 0;
#X connect 51 2 43 0;
#X connect 52 0 36 0;
#X connect 52 1 37 0;
#X connect 52 2 45 0;
#X connect 53 0 36 0;
#X connect 53 1 37 0;
#X connect 53 2 44 0;
#X coords 0 -1 1 1 130 85 1 100 100;
