#N canvas 211 290 450 300 10;
#X obj 42 41 inlet~;
#X obj 92 41 inlet~;
#X obj 42 85 lop~;
#X obj 42 63 hip~;
#X obj 92 63 hip~;
#X obj 92 85 lop~;
#X obj 147 41 inlet;
#X obj 192 41 inlet;
#X obj 42 107 outlet~;
#X obj 102 107 outlet~;
#X connect 0 0 3 0;
#X connect 1 0 4 0;
#X connect 2 0 8 0;
#X connect 3 0 2 0;
#X connect 4 0 5 0;
#X connect 5 0 9 0;
#X connect 6 0 3 1;
#X connect 6 0 4 1;
#X connect 7 0 5 1;
#X connect 7 0 2 1;
