#N canvas 1006 419 450 300 10;
#X obj 46 86 vsl 15 60 0.01 100 1 0 empty empty Rate 0 -9 0 10 -204786
-1 -1 0 1;
#X obj 39 178 osc~ 5;
#X obj 87 90 vsl 15 60 0 1 0 0 empty empty Depth 0 -9 0 10 -204786
-1 -1 0 1;
#X obj 39 200 *~;
#X msg 129 123 0;
#X obj 129 101 loadbang;
#X floatatom 93 158 5 0 0 0 - - -, f 5;
#X obj 35 29 inlet;
#X obj 85 29 inlet;
#X obj 39 222 outlet~;
#X connect 0 0 1 0;
#X connect 1 0 3 0;
#X connect 2 0 3 1;
#X connect 2 0 6 0;
#X connect 3 0 9 0;
#X connect 4 0 2 0;
#X connect 4 0 0 0;
#X connect 5 0 4 0;
#X connect 7 0 0 0;
#X connect 8 0 2 0;
