#N canvas 301 200 556 321 10;
#X obj 58 83 inlet~;
#X obj 58 225 outlet~;
#X obj 168 83 inlet~;
#X obj 58 137 *~ 1;
#X obj 371 45 loadbang;
#X obj 371 67 f \$1;
#X text 372 89 creation arg \; mixer gain;
#X obj 288 53 inlet;
#X obj 58 169 clip~ -1 1;
#X obj 255 106 !- 1;
#X obj 168 137 *~ 0;
#X obj 305 122 f;
#X connect 0 0 3 0;
#X connect 2 0 10 0;
#X connect 3 0 8 0;
#X connect 4 0 5 0;
#X connect 5 0 11 0;
#X connect 5 0 9 0;
#X connect 7 0 11 0;
#X connect 7 0 9 0;
#X connect 8 0 1 0;
#X connect 9 0 3 1;
#X connect 10 0 8 0;
#X connect 11 0 10 1;
