#N canvas 122 293 580 388 10;
#X obj 62 59 inlet~;
#X obj 112 59 inlet~;
#X obj 71 304 outlet~;
#X obj 131 304 outlet~;
#X obj 352 193 vsl 20 50 0 1 0 0 empty empty empty 0 -9 0 10 -261682
-1 -1 1284 1;
#X obj 384 61 loadbang;
#X floatatom 352 251 5 0 0 0 - - -, f 5;
#X obj 402 193 vsl 20 50 0 1 0 0 empty empty empty 0 -9 0 10 -261682
-1 -1 4900 1;
#X floatatom 402 251 5 0 0 0 - - -, f 5;
#X obj 442 193 vsl 20 50 0 1 0 0 empty empty empty 0 -9 0 10 -261682
-1 -1 4900 1;
#X floatatom 442 251 5 0 0 0 - - -, f 5;
#X obj 330 42 inlet;
#X obj 483 58 hsl 40 15 0 1 0 0 empty empty Mix -2 -8 0 10 -261682
-1 -1 1858 1;
#X obj 513 116 !- 1;
#X obj 402 158 *;
#X obj 442 159 *;
#X text 310 21 dist amount;
#X obj 432 35 inlet;
#X msg 390 82 0;
#X text 430 14 dist type;
#X obj 210 117 expr 1 - $f1 * 0.9;
#X obj 480 80 t b f;
#X obj 91 243 fx_utils/threshold~;
#X obj 70 271 fx_utils/threshold~;
#X obj 349 107 * 10;
#X connect 0 0 23 0;
#X connect 1 0 22 0;
#X connect 4 0 6 0;
#X connect 4 0 22 1;
#X connect 4 0 23 1;
#X connect 5 0 18 0;
#X connect 7 0 8 0;
#X connect 7 0 22 2;
#X connect 7 0 23 2;
#X connect 9 0 10 0;
#X connect 9 0 22 3;
#X connect 9 0 23 3;
#X connect 11 0 24 0;
#X connect 11 0 20 0;
#X connect 12 0 21 0;
#X connect 13 0 14 1;
#X connect 14 0 7 0;
#X connect 15 0 9 0;
#X connect 17 0 12 0;
#X connect 18 0 12 0;
#X connect 18 0 24 0;
#X connect 18 0 20 0;
#X connect 20 0 4 0;
#X connect 21 0 14 0;
#X connect 21 0 15 0;
#X connect 21 1 15 1;
#X connect 21 1 13 0;
#X connect 22 0 3 0;
#X connect 23 0 2 0;
#X connect 24 0 14 0;
#X connect 24 0 15 0;
