#N canvas 88 260 547 552 10;
#X obj 36 71 inlet~;
#X obj 86 71 inlet~;
#X obj 28 363 outlet~;
#X obj 88 363 outlet~;
#X obj 263 203 vsl 20 50 0 1 0 0 empty empty empty 0 -9 0 10 -261682
-1 -1 4900 1;
#X obj 40 171 fx_utils/gain_and_clip~ 1;
#X obj 295 71 loadbang;
#X floatatom 263 261 5 0 0 0 - - -, f 5;
#X obj 313 203 vsl 20 50 0 1 0 0 empty empty empty 0 -9 0 10 -261682
-1 -1 0 1;
#X floatatom 313 261 5 0 0 0 - - -, f 5;
#X obj 353 203 vsl 20 50 0 1 0 0 empty empty empty 0 -9 0 10 -261682
-1 -1 0 1;
#X floatatom 353 261 5 0 0 0 - - -, f 5;
#X obj 50 201 fx_utils/gain_and_clip~ 10;
#X obj 241 52 inlet;
#X obj 60 231 fx_utils/gain_and_clip~ 40;
#X obj 394 68 hsl 40 15 0 1 0 0 empty empty Mix -2 -8 0 10 -261682
-1 -1 0 1;
#X obj 424 126 !- 1;
#X obj 313 168 *;
#X obj 353 169 *;
#X text 221 31 dist amount;
#X obj 28 311 mixer2~ 1;
#X obj 343 45 inlet;
#X obj 173 383 ../utils/vu_~;
#X msg 301 92 0;
#X text 341 24 dist type;
#X obj 184 126 expr 1 - $f1 * 0.9;
#X obj 391 90 t b f;
#X obj 241 74 f;
#X connect 0 0 5 0;
#X connect 0 0 12 0;
#X connect 0 0 14 0;
#X connect 1 0 5 1;
#X connect 1 0 12 1;
#X connect 1 0 14 1;
#X connect 4 0 5 2;
#X connect 4 0 7 0;
#X connect 5 0 20 0;
#X connect 5 1 20 1;
#X connect 6 0 23 0;
#X connect 8 0 9 0;
#X connect 8 0 12 2;
#X connect 10 0 11 0;
#X connect 10 0 14 2;
#X connect 12 0 20 0;
#X connect 12 1 20 1;
#X connect 13 0 25 0;
#X connect 13 0 27 0;
#X connect 14 0 20 0;
#X connect 14 0 22 0;
#X connect 14 1 20 1;
#X connect 15 0 26 0;
#X connect 16 0 17 1;
#X connect 17 0 8 0;
#X connect 18 0 10 0;
#X connect 20 0 2 0;
#X connect 20 1 3 0;
#X connect 21 0 15 0;
#X connect 23 0 27 0;
#X connect 23 0 15 0;
#X connect 25 0 4 0;
#X connect 26 0 17 0;
#X connect 26 0 18 0;
#X connect 26 1 18 1;
#X connect 26 1 16 0;
#X connect 27 0 17 0;
#X connect 27 0 18 0;
#X connect 27 0 25 0;
