#N canvas 218 277 537 389 10;
#X obj 36 71 inlet~;
#X obj 86 71 inlet~;
#X obj 28 363 outlet~;
#X obj 88 363 outlet~;
#X obj 263 203 vsl 20 50 0 1 0 0 empty empty empty 0 -9 0 10 -261682
-1 -1 4900 1;
#X obj 40 171 fx_utils/gain_and_clip~ 1;
#X obj 199 94 loadbang;
#X floatatom 263 261 5 0 0 0 - - -, f 5;
#X obj 303 203 vsl 20 50 0 1 0 0 empty empty empty 0 -9 0 10 -261682
-1 -1 727 1;
#X floatatom 303 261 5 0 0 0 - - -, f 5;
#X obj 343 203 vsl 20 50 0 1 0 0 empty empty empty 0 -9 0 10 -261682
-1 -1 662 1;
#X floatatom 343 261 5 0 0 0 - - -, f 5;
#X obj 50 201 fx_utils/gain_and_clip~ 10;
#X obj 241 52 inlet;
#X obj 60 231 fx_utils/gain_and_clip~ 40;
#X obj 385 93 hsl 40 15 0 1 0 0 empty empty Mix -2 -8 0 10 -261682
-1 -1 1876 1;
#X obj 330 95 !- 1;
#X obj 393 152 t b;
#X obj 303 168 *;
#X obj 341 169 *;
#X msg 199 116 1;
#X text 215 36 dist amount;
#X floatatom 304 72 5 0 0 0 - - -, f 5;
#X obj 404 45 loadbang;
#X msg 404 67 0;
#X obj 28 311 mixer2~ 1;
#X floatatom 143 314 5 0 0 0 - - -, f 5;
#X obj 143 293 expr 1 - $f1 * 0.7;
#X text 136 331 compensate for boost \; (not 100% accurate -> additional
clipping at mixer;
#X obj 333 45 inlet;
#X text 331 24 dist mix;
#X connect 0 0 5 0;
#X connect 0 0 12 0;
#X connect 0 0 14 0;
#X connect 1 0 5 1;
#X connect 1 0 12 1;
#X connect 1 0 14 1;
#X connect 4 0 5 2;
#X connect 4 0 7 0;
#X connect 5 0 25 0;
#X connect 5 1 25 1;
#X connect 6 0 20 0;
#X connect 8 0 9 0;
#X connect 8 0 12 2;
#X connect 10 0 11 0;
#X connect 10 0 14 2;
#X connect 12 0 25 0;
#X connect 12 1 25 1;
#X connect 13 0 18 0;
#X connect 13 0 19 0;
#X connect 13 0 22 0;
#X connect 13 0 27 0;
#X connect 14 0 25 0;
#X connect 14 1 25 1;
#X connect 15 0 16 0;
#X connect 15 0 17 0;
#X connect 15 0 19 1;
#X connect 16 0 18 1;
#X connect 17 0 18 0;
#X connect 17 0 19 0;
#X connect 18 0 8 0;
#X connect 19 0 10 0;
#X connect 20 0 4 0;
#X connect 20 0 18 0;
#X connect 20 0 19 0;
#X connect 23 0 24 0;
#X connect 24 0 15 0;
#X connect 25 0 2 0;
#X connect 25 1 3 0;
#X connect 27 0 26 0;
#X connect 27 0 25 2;
#X connect 29 0 15 0;
