#N canvas 164 261 872 495 10;
#X obj 169 62 inlet~;
#X msg 311 173 roomsize \$1;
#X msg 396 218 damping \$1;
#X msg 503 243 width \$1;
#X msg 41 118 wet \$1;
#X msg 574 319 dry \$1;
#X msg 383 291 print;
#X msg 405 343 freeze \$1;
#X msg 410 381 bypass \$1;
#X obj 410 362 tgl 15 0 empty empty empty 0 -6 0 8 -262144 -1 -1 0
1;
#X obj 405 324 tgl 15 0 empty empty empty 0 -6 0 8 -262144 -1 -1 0
1;
#X obj 50 148 hsl 60 18 0 1 0 1 empty empty dry 2 9 1 12 -225271 -1
-1 4653 0;
#X obj 53 95 hsl 60 18 0 1 0 1 empty empty wet 2 9 1 12 -225271 -1
-1 843 0;
#X obj 515 220 hsl 60 18 0 1 0 1 empty empty width 2 9 1 12 -262131
-1 -1 4720 0;
#X obj 408 195 hsl 60 18 0 2 0 1 empty empty damping 2 9 1 12 -261689
-1 -1 2476 0;
#X obj 323 150 hsl 60 18 0.11 1.1 0 1 empty empty roomsize 2 9 1 12
-261689 -1 -1 2716 0;
#X floatatom 378 199 3 0 0 0 - - -, f 3;
#X floatatom 485 225 3 0 0 0 - - -, f 3;
#X floatatom 52 177 6 0 0 0 - - -, f 6;
#X obj 412 401 tgl 15 0 empty empty empty 17 7 0 10 -262144 -1 -1 0
1;
#X msg 412 419 firstpassfilter \$1;
#X obj 220 210 freeverb~;
#X obj 98 369 outlet~;
#X obj 158 369 outlet~;
#X obj 219 62 inlet~;
#X floatatom 476 82 5 0 0 0 - - -, f 5;
#N canvas 1124 187 450 445 knob-split-rl 0;
#X obj 105 19 inlet;
#X obj 58 258 outlet;
#X obj 102 44 moses 0.503;
#X floatatom 98 101 5 0 0 0 - - -, f 5;
#X floatatom 273 138 5 0 0 0 - - -, f 5;
#X obj 177 98 expr ($f1 - 0.503) * 2 - 0.001;
#X obj 58 230 line;
#X obj 130 261 outlet;
#X obj 130 233 line;
#X obj 60 77 expr 1 - ($f1 * 2) - 0.007;
#X msg 58 208 \$1 25;
#X msg 130 211 \$1 25;
#X connect 0 0 2 0;
#X connect 2 0 9 0;
#X connect 2 1 5 0;
#X connect 5 0 4 0;
#X connect 5 0 11 0;
#X connect 6 0 1 0;
#X connect 8 0 7 0;
#X connect 9 0 3 0;
#X connect 9 0 10 0;
#X connect 10 0 6 0;
#X connect 11 0 8 0;
#X restore 484 106 pd knob-split-rl;
#X floatatom 484 128 5 0 0 0 - - -, f 5;
#X floatatom 590 133 5 0 0 0 - - -, f 5;
#X floatatom 623 75 5 0 0 0 - - -, f 5;
#X text 204 33 requires unique name as creation arg;
#X obj 590 152 s rvb-\$1-r;
#X obj 484 147 s rvb-\$1-l;
#X obj 704 53 r rvb-\$1-r;
#X floatatom 704 75 5 0 0 0 - - -, f 5;
#X obj 623 53 r rvb-\$1-l;
#N canvas 1046 188 480 300 wet-dry 0;
#X floatatom 39 55 5 0 0 0 - - -, f 5;
#X obj 61 160 outlet;
#X obj 39 74 pow 2;
#X floatatom 112 50 5 0 0 0 - - -, f 5;
#X obj 134 156 outlet;
#X obj 112 69 expr 1 - $f1;
#X obj 112 91 pow 0.5;
#X obj 112 113 clip 0 1;
#X obj 39 33 inlet;
#X connect 0 0 2 0;
#X connect 2 0 1 0;
#X connect 3 0 5 0;
#X connect 5 0 6 0;
#X connect 6 0 7 0;
#X connect 7 0 4 0;
#X connect 8 0 0 0;
#X connect 8 0 3 0;
#X restore 47 70 pd wet-dry;
#N canvas 1092 188 450 300 rs 0;
#X obj 180 33 r rvb-\$1-r;
#X obj 39 33 r rvb-\$1-l;
#X floatatom 217 206 5 0 0 0 - - -, f 5;
#X floatatom 254 97 5 0 0 0 - - -, f 5;
#X obj 60 172 outlet;
#X obj 254 160 clip 0 1;
#X obj 217 269 clip 0 1;
#X floatatom 286 273 5 0 0 0 - - -, f 5;
#X obj 216 247 expr (0.3 - $f1 * 0.25);
#X obj 254 116 pow 2;
#X obj 254 138 expr $f1 * 0.75 + 0.35;
#X obj 217 225 pow 4;
#X floatatom 40 70 5 0 0 0 - - -, f 5;
#X obj 40 133 clip 0 1;
#X obj 40 89 + 0;
#X obj 40 111 expr (0.75 - $f1 * 0.4);
#X connect 0 0 3 0;
#X connect 1 0 12 0;
#X connect 2 0 11 0;
#X connect 3 0 9 0;
#X connect 8 0 6 0;
#X connect 8 0 7 0;
#X connect 9 0 10 0;
#X connect 10 0 5 0;
#X connect 10 0 4 0;
#X connect 11 0 8 0;
#X connect 12 0 14 0;
#X connect 13 0 4 0;
#X connect 14 0 15 0;
#X connect 15 0 13 0;
#X restore 324 120 pd rs;
#N canvas 1087 547 450 300 damp 0;
#X obj 215 48 r rvb-\$1-r;
#X obj 74 48 r rvb-\$1-l;
#X floatatom 100 70 5 0 0 0 - - -, f 5;
#X floatatom 171 74 5 0 0 0 - - -, f 5;
#X obj 131 206 outlet;
#X floatatom 100 161 5 0 0 0 - - -, f 5;
#X obj 228 155 clip 0 2;
#X obj 20 157 clip 0 2;
#X obj 20 113 pow 4;
#X obj 19 135 expr (0.6 - $f1 * 0.6);
#X floatatom 228 177 5 0 0 0 - - -, f 5;
#X obj 228 111 pow 0.5;
#X obj 228 133 expr $f1 * 0.6 + 0.4;
#X obj 297 158 expr 1 - $f1 * 0.5;
#X obj 215 70 moses 0.993;
#X obj 39 87 moses 0.993;
#X msg 135 107 1;
#X connect 0 0 3 0;
#X connect 0 0 14 0;
#X connect 1 0 2 0;
#X connect 1 0 15 0;
#X connect 6 0 4 0;
#X connect 6 0 10 0;
#X connect 7 0 4 0;
#X connect 8 0 9 0;
#X connect 9 0 5 0;
#X connect 9 0 7 0;
#X connect 11 0 12 0;
#X connect 12 0 6 0;
#X connect 13 0 6 0;
#X connect 14 0 11 0;
#X connect 14 1 13 0;
#X connect 15 0 8 0;
#X connect 15 1 16 0;
#X connect 16 0 4 0;
#X restore 414 166 pd damp;
#X obj 575 274 loadbang;
#X msg 575 296 0;
#X obj 166 188 *~;
#X obj 196 188 *~;
#X floatatom 274 147 5 0 0 0 - - -, f 5;
#X obj 162 295 clip~ -0.8 0.8;
#X obj 182 315 clip~ -0.8 0.8;
#N canvas 1092 188 450 300 freeze 0;
#X obj 180 33 r rvb-\$1-r;
#X obj 39 33 r rvb-\$1-l;
#X obj 190 220 outlet;
#X msg 180 55 0;
#X floatatom 73 106 5 0 0 0 - - -, f 5;
#X obj 39 55 moses 0.993;
#X msg 39 77 0;
#X msg 101 82 1;
#X connect 0 0 3 0;
#X connect 1 0 4 0;
#X connect 1 0 5 0;
#X connect 3 0 2 0;
#X connect 5 0 6 0;
#X connect 5 1 7 0;
#X connect 6 0 2 0;
#X connect 7 0 2 0;
#X restore 432 309 pd freeze;
#N canvas 974 251 450 300 on-off 0;
#X obj 180 33 r rvb-\$1-r;
#X obj 39 33 r rvb-\$1-l;
#X obj 180 55 moses 0.01;
#X obj 51 73 moses 0.01;
#X obj 98 146 outlet;
#X msg 145 124 0;
#X msg 97 123 1;
#X connect 0 0 2 0;
#X connect 1 0 3 0;
#X connect 2 0 6 0;
#X connect 2 1 5 0;
#X connect 3 0 6 0;
#X connect 3 1 5 0;
#X connect 5 0 4 0;
#X connect 6 0 4 0;
#X restore 491 373 pd on-off;
#X obj 590 200 loadbang;
#X msg 590 222 0.8;
#X obj 510 46 r rvb-all;
#X obj 27 42 r rvb-amt;
#X connect 0 0 21 0;
#X connect 0 0 41 0;
#X connect 1 0 21 0;
#X connect 2 0 21 0;
#X connect 3 0 21 0;
#X connect 4 0 21 0;
#X connect 5 0 21 0;
#X connect 6 0 21 0;
#X connect 7 0 21 0;
#X connect 8 0 21 0;
#X connect 9 0 8 0;
#X connect 10 0 7 0;
#X connect 11 0 18 0;
#X connect 11 0 41 1;
#X connect 11 0 42 1;
#X connect 12 0 4 0;
#X connect 13 0 3 0;
#X connect 13 0 17 0;
#X connect 14 0 2 0;
#X connect 14 0 16 0;
#X connect 15 0 1 0;
#X connect 15 0 43 0;
#X connect 19 0 20 0;
#X connect 20 0 21 0;
#X connect 21 0 44 0;
#X connect 21 1 45 0;
#X connect 24 0 21 1;
#X connect 24 0 42 0;
#X connect 26 0 27 0;
#X connect 26 1 28 0;
#X connect 27 0 32 0;
#X connect 28 0 31 0;
#X connect 33 0 34 0;
#X connect 35 0 29 0;
#X connect 36 0 12 0;
#X connect 36 1 11 0;
#X connect 37 0 15 0;
#X connect 38 0 14 0;
#X connect 39 0 40 0;
#X connect 40 0 5 0;
#X connect 41 0 22 0;
#X connect 42 0 23 0;
#X connect 44 0 22 0;
#X connect 45 0 23 0;
#X connect 46 0 10 0;
#X connect 47 0 9 0;
#X connect 48 0 49 0;
#X connect 49 0 13 0;
#X connect 50 0 25 0;
#X connect 50 0 26 0;
#X connect 51 0 36 0;
