#N canvas 577 249 825 618 10;
#X obj 201 166 inlet~;
#X obj 278 171 inlet~;
#X obj 344 94 inlet;
#X obj 219 482 outlet~;
#X obj 285 481 outlet~;
#X obj 344 136 moses 0.5;
#X text 201 96 0: cut all;
#X text 201 119 1: boost +6 \; (with limiting);
#X floatatom 371 271 5 0 0 0 - - -, f 5;
#X text 366 446 this affects the saturator pre? \; why;
#X obj 368 479 env~;
#X obj 373 527 moses 1;
#X obj 373 505 >= 100;
#X obj 428 480 env~;
#X obj 433 528 moses 1;
#X obj 433 506 >= 100;
#X obj 517 545 bng 15 250 50 0 empty empty empty 17 7 0 10 -262144
-1 -1;
#X obj 541 550 outlet;
#X obj 339 225 pow 0.5;
#X text 451 234 'clean' boost;
#X obj 344 116 f;
#X obj 387 179 * 1;
#X obj 346 179 !- 1;
#X obj 464 207 * 1;
#X obj 418 181 expr $f1 - 0.506;
#X obj 346 201 clip 0 1;
#X obj 344 158 expr 1 - ($f1 * 2);
#X text 771 46 comment;
#X obj 431 250 expr 1 + 6 * $f1;
#X text 623 54 od amount;
#X obj 604 136 s od-\$0;
#X text 198 33 knob1 affects channel level + od type \; knob2 affects
gain + scalar for knob 1;
#X obj 207 399 od2~, f 10;
#X obj 201 258 *~ 1;
#X obj 278 263 *~ 1;
#X obj 265 345 r od-\$0;
#X obj 592 214 vsl 15 128 0 1 0 0 empty empty empty 0 -9 0 10 -262144
-1 -1 0 1;
#X obj 714 239 vsl 15 128 0 1 0 0 empty empty empty 0 -9 0 10 -262144
-1 -1 0 1;
#X obj 661 203 vsl 15 128 0 1 0 0 empty empty empty 0 -9 0 10 -262144
-1 -1 0 1;
#X floatatom 339 247 5 0 0 0 - - -, f 5;
#X floatatom 475 281 5 0 0 0 - - -, f 5;
#X text 634 182 min = 0.5;
#X obj 571 60 inlet;
#X text 654 374 distortion type;
#X obj 571 82 expr $f1 * 0.6;
#X connect 0 0 33 0;
#X connect 1 0 34 0;
#X connect 2 0 20 0;
#X connect 5 0 26 0;
#X connect 5 1 24 0;
#X connect 8 0 34 1;
#X connect 8 0 33 1;
#X connect 10 0 12 0;
#X connect 11 1 16 0;
#X connect 12 0 11 0;
#X connect 13 0 15 0;
#X connect 14 1 16 0;
#X connect 15 0 14 0;
#X connect 16 0 17 0;
#X connect 18 0 8 0;
#X connect 18 0 39 0;
#X connect 20 0 5 0;
#X connect 21 0 22 0;
#X connect 22 0 25 0;
#X connect 23 0 28 0;
#X connect 24 0 23 0;
#X connect 25 0 18 0;
#X connect 26 0 21 0;
#X connect 28 0 8 0;
#X connect 28 0 40 0;
#X connect 32 0 3 0;
#X connect 32 1 4 0;
#X connect 33 0 32 0;
#X connect 33 0 10 0;
#X connect 34 0 13 0;
#X connect 34 0 32 1;
#X connect 35 0 32 2;
#X connect 36 0 8 0;
#X connect 37 0 32 3;
#X connect 38 0 30 0;
#X connect 42 0 44 0;
#X connect 44 0 30 0;
