#N canvas 598 165 671 530 10;
#X obj 14 28 inlet~;
#X obj 445 11 dly1~;
#X obj 14 60 +~;
#X text 121 93 feedback;
#X obj 15 238 *~;
#X obj 15 260 +~;
#X obj 45 238 *~;
#X obj 15 282 outlet~;
#X obj 81 264 env~;
#X obj 81 286 - 100;
#X obj 131 276 vu 15 120 empty empty -1 -8 0 10 -66577 -1 1 0;
#X obj 45 61 delread~ verb1_1 500;
#X obj 64 162 delwrite~ verb1_1 1000;
#X text 196 189 max t;
#X text 181 43 dly t;
#X obj 73 209 expr 1 - $f1;
#X text 113 187 mix;
#X text 322 70 feedback;
#X text 391 160 max t;
#X obj 265 139 delwrite~ verb1_2 500;
#X obj 255 41 delread~ verb1_2 20;
#X obj 254 217 *~ 0.5;
#X obj 265 94 hip~ 20;
#X obj 265 116 lop~ 14000;
#X msg 73 187 0.95;
#X obj 63 117 hip~ 100;
#X obj 63 139 lop~ 18000;
#X msg 268 13 80;
#X msg 77 37 15;
#X obj 63 95 *~ 0.1;
#X obj 264 72 *~ 0.1;
#X connect 0 0 2 0;
#X connect 2 0 4 0;
#X connect 2 0 22 0;
#X connect 2 0 25 0;
#X connect 4 0 5 0;
#X connect 5 0 7 0;
#X connect 6 0 5 1;
#X connect 6 0 8 0;
#X connect 8 0 9 0;
#X connect 9 0 10 0;
#X connect 11 0 6 0;
#X connect 11 0 29 0;
#X connect 15 0 4 1;
#X connect 20 0 21 0;
#X connect 20 0 30 0;
#X connect 21 0 6 0;
#X connect 22 0 23 0;
#X connect 23 0 19 0;
#X connect 24 0 6 1;
#X connect 24 0 15 0;
#X connect 25 0 26 0;
#X connect 26 0 12 0;
#X connect 27 0 20 0;
#X connect 28 0 11 0;
#X connect 29 0 25 0;
#X connect 30 0 22 0;
