#N canvas 797 74 718 898 12;
#X obj 47 405 phasor~;
#X obj 48 585 *~ -1;
#X obj 48 610 +~ 1;
#X obj 148 699 sig~ 1;
#X obj 213 707 cos~;
#X obj 149 732 -~;
#X obj 150 757 *~ 0.5;
#X obj 61 786 *~;
#X obj 79 672 samphold~;
#X obj 48 699 *~;
#X obj 80 644 sig~;
#X floatatom 157 384 5 0 0 0 - - -, f 5;
#X floatatom 110 307 10 0 0 0 - - -, f 10;
#X floatatom 79 367 5 0 0 0 - - -, f 5;
#X floatatom 241 233 5 0 0 0 - - -, f 5;
#X obj 241 254 t b f;
#X obj 157 358 / 44.1;
#X obj 434 554 *~ -1;
#X obj 435 587 +~ 1;
#X obj 528 683 sig~ 1;
#X obj 592 690 cos~;
#X obj 529 714 -~;
#X obj 530 739 *~ 0.5;
#X obj 447 771 *~;
#X obj 469 652 samphold~;
#X obj 435 679 *~;
#X obj 470 624 sig~;
#X obj 455 467 +~ 0.5;
#X obj 455 489 wrap~;
#X obj 108 35 vsl 15 128 100 30000 0 0 empty empty empty 0 -8 0 8 -262144
-1 -1 9100 1;
#X obj 108 171 t b f;
#X obj 241 153 vsl 15 73 -36 36 0 0 empty empty empty 0 -8 0 8 -262144
-1 -1 3600 1;
#X obj 110 328 expr (pow(2 \, ($f2/12)) - 1) * (44100/$f1);
#X text 258 217 -36;
#X text 264 145 36;
#X text 127 28 30000;
#X text 125 152 100;
#X text 357 33 3.7.2.1. Granular live;
#X text 73 7 window width;
#X text 183 121 Transposition (half-steps);
#X text 252 732 another way to;
#X text 226 758 make a Hanning window;
#X text 405 951 www.pd-tutorial.com;
#X text 422 924 Johannes Kreidler;
#X obj 451 139 inlet~;
#X obj 193 936 outlet~;
#X msg 283 169 1;
#X obj 448 722 vd~ b1-\$0;
#X obj 61 742 vd~ b1-\$0;
#X obj 450 170 delwrite~ b1-\$0 5000;
#X obj 236 864 vd~ b1-\$0;
#X msg 160 88 100;
#X obj 283 72 loadbang;
#X obj 33 898 utils/vu_~;
#X text 103 1090 comment;
#X obj 290 903 utils/vu_~;
#X obj 195 509 utils/vu_~;
#X obj 272 531 utils/vu_~;
#X obj 519 789 utils/vu_~;
#X obj 149 856 *~ 1;
#X msg 305 206 0;
#X connect 0 0 1 0;
#X connect 0 0 4 0;
#X connect 0 0 8 1;
#X connect 0 0 27 0;
#X connect 0 0 56 0;
#X connect 1 0 2 0;
#X connect 2 0 9 0;
#X connect 3 0 5 0;
#X connect 4 0 5 1;
#X connect 5 0 6 0;
#X connect 6 0 7 1;
#X connect 7 0 59 0;
#X connect 8 0 9 1;
#X connect 9 0 48 0;
#X connect 10 0 8 0;
#X connect 11 0 26 0;
#X connect 11 0 10 0;
#X connect 12 0 16 0;
#X connect 12 0 32 0;
#X connect 13 0 0 0;
#X connect 14 0 15 0;
#X connect 15 0 12 0;
#X connect 15 1 32 1;
#X connect 16 0 11 0;
#X connect 17 0 18 0;
#X connect 18 0 25 0;
#X connect 19 0 21 0;
#X connect 20 0 21 1;
#X connect 21 0 22 0;
#X connect 22 0 23 1;
#X connect 23 0 59 0;
#X connect 24 0 25 1;
#X connect 25 0 47 0;
#X connect 26 0 24 0;
#X connect 27 0 28 0;
#X connect 28 0 17 0;
#X connect 28 0 24 1;
#X connect 28 0 20 0;
#X connect 28 0 57 0;
#X connect 29 0 30 0;
#X connect 30 0 14 0;
#X connect 30 1 12 0;
#X connect 31 0 14 0;
#X connect 32 0 13 0;
#X connect 44 0 49 0;
#X connect 46 0 31 0;
#X connect 47 0 23 0;
#X connect 47 0 58 0;
#X connect 48 0 7 0;
#X connect 48 0 53 0;
#X connect 50 0 55 0;
#X connect 51 0 29 0;
#X connect 52 0 51 0;
#X connect 52 0 46 0;
#X connect 59 0 45 0;
#X connect 60 0 31 0;
