#N canvas 314 126 758 439 10;
#X declare -lib saturator;
#X declare -stdlib zexy;
#X declare -stdpath zexy;
#X obj 39 370 saturator~;
#N canvas 0 50 309 185 volume 0;
#X obj 51 17 inlet~;
#X obj 53 62 *~;
#X floatatom 97 82 5 0 100 0 - - -, f 5;
#X obj 94 106 dbtorms;
#X obj 135 57 tabwrite~ hp-sat.form;
#X obj 136 23 r hp-sat.form.rec;
#X obj 154 94 b;
#X obj 45 108 dac~;
#X connect 0 0 1 0;
#X connect 1 0 4 0;
#X connect 1 0 7 0;
#X connect 1 0 7 1;
#X connect 2 0 3 0;
#X connect 3 0 1 1;
#X connect 3 0 6 0;
#X connect 5 0 4 0;
#X connect 6 0 4 0;
#X coords 0 0 1 1 88 40 1;
#X restore 33 393 pd volume;
#N canvas 206 82 823 300 controls 0;
#X obj 225 269 outlet;
#N canvas 72 235 580 344 display 0;
#X obj 219 53 inlet;
#X obj 128 321 outlet;
#X obj 408 135 sig~;
#X obj 410 157 phasor~;
#X obj 462 39 samplerate~;
#X obj 467 78 / 100;
#X obj 282 13 b;
#X obj 289 47 del 22;
#X obj 296 144 bng 15 250 50 0 empty empty empty 0 -6 0 8 -262144 -1
-1;
#X msg 372 121 0;
#X obj 491 16 loadbang;
#X obj 354 28 bng 15 250 50 0 empty empty empty 0 -6 0 8 -262144 -1
-1;
#X obj 459 19 bng 15 250 50 0 empty empty empty 0 -6 0 8 -262144 -1
-1;
#X floatatom 482 119 5 0 0 0 - - -, f 5;
#X obj 215 174 tabwrite~ hp-sat.curve;
#X obj 416 179 *~ 2;
#X obj 421 199 -~ 1;
#X obj 138 23 s hp-sat.form.rec;
#X obj 99 155 r hp-sat.refresh;
#X obj 309 5 del 11;
#X obj 131 276 env~;
#X obj 145 297 dbtorms;
#X obj 117 83 inlet~;
#X obj 306 89 saturator~;
#X obj 456 313 b;
#X obj 464 270 b;
#X obj 467 292 del 6;
#X obj 109 220 saturator_thresh~;
#X obj 92 251 saturator_vu~;
#X obj 261 250 dbtorms;
#X obj 345 293 t f f;
#X msg 389 36 thresh \$1;
#X msg 384 13 attack 0;
#X msg 395 64 release 0;
#X obj 67 76 * -1;
#X obj 65 99 + 1;
#X obj 287 286 spigot;
#X obj 382 315 sel 1;
#X floatatom 365 264 5 0 0 0 - - -, f 5;
#X obj 243 229 env~;
#X obj 501 258 bng 15 250 50 0 empty empty empty 0 -6 0 8 -262144 -1
-1;
#X obj 437 237 f;
#N canvas 0 50 450 300 cheap 0;
#X obj 183 27 inlet;
#X obj 185 132 unpack s f;
#X obj 219 187 f;
#X obj 189 165 sel cheap;
#X obj 219 223 outlet;
#X obj 179 60 drip flush;
#X obj 222 89 repack 2;
#X obj 280 112 spigot 1;
#X obj 325 60 del 25;
#X obj 327 38 b;
#X obj 346 84 t b b b;
#X msg 366 116 1;
#X msg 394 112 0;
#X connect 0 0 5 0;
#X connect 1 0 3 0;
#X connect 1 1 2 1;
#X connect 2 0 4 0;
#X connect 3 0 2 0;
#X connect 5 0 6 0;
#X connect 6 0 7 0;
#X connect 7 0 9 0;
#X connect 7 0 1 0;
#X connect 8 0 10 0;
#X connect 9 0 8 0;
#X connect 10 0 11 0;
#X connect 10 1 6 0;
#X connect 10 2 12 0;
#X connect 11 0 7 1;
#X restore 26 15 pd cheap 1;
#X obj 496 234 f;
#X msg 528 241 autogain \$1;
#X msg 536 275 0;
#X obj 197 115 sel 1 0;
#N canvas 0 50 450 300 thresh 0;
#X obj 183 27 inlet;
#X obj 185 132 unpack s f;
#X obj 219 187 f;
#X obj 219 223 outlet;
#X obj 179 60 drip flush;
#X obj 222 89 repack 2;
#X obj 280 112 spigot 1;
#X obj 325 60 del 25;
#X obj 327 38 b;
#X obj 346 84 t b b b;
#X msg 366 116 1;
#X msg 394 112 0;
#X obj 189 165 sel thresh;
#X connect 0 0 4 0;
#X connect 1 0 12 0;
#X connect 1 1 2 1;
#X connect 2 0 3 0;
#X connect 4 0 5 0;
#X connect 5 0 6 0;
#X connect 6 0 8 0;
#X connect 6 0 1 0;
#X connect 7 0 9 0;
#X connect 8 0 7 0;
#X connect 9 0 10 0;
#X connect 9 1 5 0;
#X connect 9 2 11 0;
#X connect 10 0 6 1;
#X connect 12 0 2 0;
#X restore 499 155 pd thresh 1;
#N canvas 244 339 450 300 autogain 0;
#X obj 183 27 inlet;
#X obj 185 132 unpack s f;
#X obj 219 187 f;
#X obj 219 223 outlet;
#X obj 179 60 drip flush;
#X obj 222 89 repack 2;
#X obj 280 112 spigot 1;
#X obj 325 60 del 25;
#X obj 327 38 b;
#X obj 346 84 t b b b;
#X msg 366 116 1;
#X msg 394 112 0;
#X obj 189 165 sel autogain;
#X connect 0 0 4 0;
#X connect 1 0 12 0;
#X connect 1 1 2 1;
#X connect 2 0 3 0;
#X connect 4 0 5 0;
#X connect 5 0 6 0;
#X connect 6 0 8 0;
#X connect 6 0 1 0;
#X connect 7 0 9 0;
#X connect 8 0 7 0;
#X connect 9 0 10 0;
#X connect 9 1 5 0;
#X connect 9 2 11 0;
#X connect 10 0 6 1;
#X connect 12 0 2 0;
#X restore 505 178 pd autogain 1;
#X connect 0 0 6 0;
#X connect 0 0 23 0;
#X connect 0 0 27 0;
#X connect 0 0 28 0;
#X connect 0 0 42 0;
#X connect 0 0 47 0;
#X connect 0 0 48 0;
#X connect 2 0 3 0;
#X connect 3 0 15 0;
#X connect 4 0 5 0;
#X connect 5 0 2 0;
#X connect 5 0 13 0;
#X connect 6 0 7 0;
#X connect 6 0 19 0;
#X connect 7 0 9 0;
#X connect 7 0 11 0;
#X connect 7 0 14 0;
#X connect 7 0 17 0;
#X connect 8 0 7 0;
#X connect 9 0 3 1;
#X connect 10 0 4 0;
#X connect 12 0 4 0;
#X connect 15 0 16 0;
#X connect 16 0 23 0;
#X connect 18 0 8 0;
#X connect 19 0 32 0;
#X connect 19 0 33 0;
#X connect 20 0 21 0;
#X connect 21 0 1 0;
#X connect 22 0 27 0;
#X connect 22 0 28 0;
#X connect 23 0 14 0;
#X connect 24 0 9 0;
#X connect 24 0 14 0;
#X connect 25 0 26 0;
#X connect 26 0 24 0;
#X connect 27 1 39 0;
#X connect 28 1 20 0;
#X connect 29 0 36 0;
#X connect 30 0 37 0;
#X connect 30 1 31 0;
#X connect 30 1 38 0;
#X connect 31 0 23 0;
#X connect 32 0 23 0;
#X connect 33 0 23 0;
#X connect 34 0 35 0;
#X connect 35 0 36 1;
#X connect 36 0 30 0;
#X connect 37 1 24 0;
#X connect 37 1 25 0;
#X connect 39 0 29 0;
#X connect 40 0 25 0;
#X connect 41 0 31 0;
#X connect 42 0 34 0;
#X connect 42 0 46 0;
#X connect 43 0 44 0;
#X connect 44 0 23 0;
#X connect 45 0 44 0;
#X connect 46 0 41 0;
#X connect 46 0 43 0;
#X connect 46 1 45 0;
#X connect 47 0 41 1;
#X connect 47 0 37 1;
#X connect 48 0 43 1;
#X restore 208 244 pd display;
#X obj 286 59 r hp-sat.ctrl;
#X obj 199 189 inlet~;
#X obj 159 269 outlet;
#X connect 1 0 0 0;
#X connect 2 0 1 1;
#X connect 2 0 4 0;
#X connect 3 0 1 0;
#X restore 68 341 pd controls;
#N canvas 0 50 450 300 signals 0;
#X obj 208 204 outlet~;
#X obj 289 105 osc~ 3;
#X obj 257 136 *~;
#X obj 89 68 noise~;
#X obj 86 99 hip~ 444;
#X obj 86 125 lop~ 4000;
#X obj 51 159 lop~ 1200;
#X obj 99 204 *~ 0.5;
#X obj 129 161 lop~ 20000;
#X obj 42 214 tgl 15 0 empty empty empty 0 -6 0 8 -262144 -1 -1 0 1
;
#X obj 121 256 *~;
#X obj 152 258 line~;
#X msg 160 231 1 4;
#X obj 222 264 del 33;
#X msg 202 230 0 22;
#X obj 34 241 metro 500;
#X obj 278 15 r hp-sat.snare;
#X obj 252 170 *~;
#X obj 291 150 r hp-sat.sine;
#X obj 245 93 osc~ 440;
#X obj 321 210 s hp-sat.refresh;
#X obj 307 181 bng 15 250 50 0 empty empty empty 0 -6 0 8 -262144 -1
-1;
#X connect 1 0 2 1;
#X connect 2 0 17 0;
#X connect 3 0 4 0;
#X connect 4 0 5 0;
#X connect 5 0 6 0;
#X connect 5 0 8 0;
#X connect 6 0 7 0;
#X connect 7 0 10 0;
#X connect 8 0 7 0;
#X connect 9 0 15 0;
#X connect 10 0 0 0;
#X connect 11 0 10 1;
#X connect 12 0 11 0;
#X connect 13 0 14 0;
#X connect 14 0 11 0;
#X connect 15 0 12 0;
#X connect 15 0 13 0;
#X connect 16 0 9 0;
#X connect 16 0 21 0;
#X connect 17 0 0 0;
#X connect 18 0 17 1;
#X connect 18 0 21 0;
#X connect 19 0 2 0;
#X connect 21 0 20 0;
#X restore 47 319 pd signals;
#N canvas 360 184 450 300 init 1;
#X obj 164 80 s _hp-sat.thresh;
#X msg 165 51 94;
#X obj 182 28 del 22;
#X obj 192 5 loadbang;
#X obj 199 149 s _hp-sat.order;
#X msg 202 120 2;
#X msg 330 85 1;
#X obj 310 119 s _hp-sat.autogain;
#X obj 320 140 s _hp-sat.sine;
#X obj 327 163 s _hp-sat.cheap;
#X obj 26 191 declare -lib saturator;
#X obj 40 158 declare -stdlib zexy;
#X obj 28 137 declare -stdpath zexy;
#X obj 254 31 print help-saturator~ depends on;
#X msg 255 9 zexy;
#X connect 1 0 0 0;
#X connect 2 0 1 0;
#X connect 2 0 5 0;
#X connect 2 0 6 0;
#X connect 3 0 2 0;
#X connect 3 0 14 0;
#X connect 5 0 4 0;
#X connect 6 0 7 0;
#X connect 6 0 8 0;
#X connect 6 0 9 0;
#X connect 14 0 13 0;
#X restore 191 401 pd init;
#N canvas 0 50 450 300 (subpatch) 0;
#X array hp-sat.curve 100 float 0;
#X coords 0 1 99 -1 200 140 1;
#X restore 256 289 graph;
#N canvas 0 50 450 300 (subpatch) 0;
#X array hp-sat.form 20000 float 2;
#X coords 0 1 19999 -1 200 140 1;
#X restore 534 292 graph;
#X obj 252 223 cnv 15 133 22 empty empty empty 20 12 0 14 -260818 -66577
0;
#X floatatom 258 205 5 2 736 0 - _hp-sat.order -, f 5;
#X obj 258 261 s hp-sat.ctrl;
#X msg 258 226 order \$1;
#X obj 122 188 cnv 15 100 22 empty empty empty 20 12 0 14 -260818 -66577
0;
#X floatatom 124 149 5 0 100 0 - _hp-sat.thresh -, f 5;
#X obj 125 216 s hp-sat.ctrl;
#X msg 125 192 thresh \$1;
#X obj 125 169 dbtorms;
#X obj 146 57 cnv 15 160 22 empty empty empty 20 12 0 14 -260818 -66577
0;
#X msg 153 59 push;
#X msg 196 59 pull;
#X msg 234 60 pushpull;
#X obj 168 85 s hp-sat.ctrl;
#X obj 512 228 cnv 15 100 22 empty empty empty 20 12 0 14 -260818 -66577
0;
#X floatatom 518 210 5 0 200 0 - - -, f 5;
#X obj 518 257 s hp-sat.ctrl;
#X msg 518 231 attack \$1;
#X text 592 232 ms;
#X text 195 193 rms;
#X obj 628 228 cnv 15 100 22 empty empty empty 20 12 0 14 -260818 -66577
0;
#X floatatom 634 210 5 0 200 0 - - -, f 5;
#X obj 634 257 s hp-sat.ctrl;
#X text 710 231 ms;
#X msg 634 231 release \$1;
#X obj 452 142 cnv 15 100 22 empty empty empty 20 12 0 14 -260818 -66577
0;
#X obj 458 171 s hp-sat.ctrl;
#X obj 571 139 cnv 15 100 22 empty empty empty 20 12 0 14 -260818 -66577
0;
#X obj 577 168 s hp-sat.ctrl;
#X obj 477 291 bng 15 250 50 0 hp-sat.refresh empty refresh 0 -6 0
8 -262144 -1 -1;
#X obj 29 44 tgl 15 0 hp-sat.snare empty snare 20 8 0 8 -262144 -1
-1 0 1;
#X obj 29 65 tgl 15 1 hp-sat.sine _hp-sat.sine sine 20 8 0 8 -262144
-1 -1 1 1;
#X text 251 163 sets the polynomial order of;
#X text 250 175 the non-linear function;
#X text 512 191 sets the attack and release in ms;
#X text 48 108 sets the threshold in rms and adjusts the autogain.
;
#X text 499 97 default;
#X text 658 94 default;
#X text 558 210 default;
#X text 671 208 default;
#X text 300 205 default;
#X text 161 149 default is 100;
#X text 20 1 Saturator: applies a non-linear compression transfer function
to a signal \, with autogain.;
#X text 122 30 sets the function to act on;
#X text 123 42 the ends of the signal.;
#X text 47 131 and attack/release settings.;
#X text 50 119 the signal can go beyond -1 \, 1 depending on push/pull
;
#X text 345 24 sets the type of attack and release. they work by pumping
;
#X text 345 37 the signal into the threshold for compression \, based
on;
#X text 337 49 the amount of time that has passed since actually reaching
;
#X text 344 63 the thresh \; either in t \, t^N \, or 0.5+cos(t*pi-pi)/2.
;
#X obj 20 171 tgl 15 0 empty _hp-sat.autogain empty 0 -6 0 8 -262144
-1 -1 1 1;
#X obj 13 193 cnv 15 100 22 empty empty empty 20 12 0 14 -260818 -66577
0;
#X obj 16 221 s hp-sat.ctrl;
#X msg 16 197 autogain \$1;
#X text 4 153 enables autogain;
#X text 41 172 default;
#X text 251 188 x^n;
#X text 322 226 [2 \, 736];
#X msg 458 145 attack \$1 \$2;
#X msg 423 95 s linear 0;
#X msg 521 118 s cos 0;
#X msg 579 93 s linear 0;
#X msg 674 115 s cos 0;
#X msg 593 114 s pow 0.25;
#X msg 577 142 release \$1 \$2;
#N canvas 0 50 580 547 vu 0;
#X obj 109 138 vsl 15 48 1 0 0 0 empty empty empty 0 -8 0 8 -258699
-1 -1 0 1;
#X obj 109 9 inlet;
#X connect 1 0 0 0;
#X coords 0 0 1 1 40 70 1;
#X restore 127 364 pd vu;
#X text 172 365 atten;
#X text 287 247 sent to inlet of saturator~;
#X msg 444 117 s pow 0.25;
#X obj 137 271 tgl 15 0 empty _hp-sat.cheap empty 0 -6 0 8 -262144
-1 -1 1 1;
#X obj 130 293 cnv 15 100 22 empty empty empty 20 12 0 14 -260818 -66577
0;
#X obj 133 321 s hp-sat.ctrl;
#X text 158 272 default;
#X text 114 242 enables cheap;
#X text 112 256 time-dependent alg.;
#X msg 133 297 cheap \$1;
#X connect 0 0 1 0;
#X connect 2 0 0 0;
#X connect 2 1 73 0;
#X connect 3 0 0 0;
#X connect 3 0 2 0;
#X connect 8 0 10 0;
#X connect 10 0 9 0;
#X connect 12 0 15 0;
#X connect 14 0 13 0;
#X connect 15 0 14 0;
#X connect 17 0 20 0;
#X connect 18 0 20 0;
#X connect 19 0 20 0;
#X connect 22 0 24 0;
#X connect 24 0 23 0;
#X connect 28 0 31 0;
#X connect 31 0 29 0;
#X connect 58 0 61 0;
#X connect 61 0 60 0;
#X connect 66 0 33 0;
#X connect 67 0 66 0;
#X connect 68 0 66 0;
#X connect 69 0 72 0;
#X connect 70 0 72 0;
#X connect 71 0 72 0;
#X connect 72 0 35 0;
#X connect 76 0 66 0;
#X connect 77 0 83 0;
#X connect 83 0 79 0;
