#N canvas 0 23 1045 808 10;
#X obj 20 52 tgl 15 0 empty empty empty 17 7 0 10 -204786 -1 -1 1 1
;
#X msg 20 72 \; pd dsp \$1;
#X obj 439 277 writesf~ 2;
#X text 285 26 MIDI I/O objects;
#X floatatom 323 81 0 0 0 0 - - -;
#X floatatom 285 81 0 0 0 0 - - -;
#X floatatom 361 80 0 0 0 0 - - -;
#X obj 285 54 ctlin;
#X obj 22 26 loadbang;
#X obj 338 412 bng 30 250 50 0 empty empty Browse 35 7 0 10 -260097
-1 -1;
#X obj 441 410 bng 30 250 50 0 empty empty Hit 35 7 0 10 -204786 -1
-1;
#X obj 338 447 openpanel;
#X obj 71 426 symbol;
#X obj 515 411 bng 30 250 50 0 empty empty Stop 35 7 0 10 -261682 -1
-1;
#X text 161 1105 comment;
#X obj 64 558 utils/dac_;
#X obj 591 284 s~ outR;
#X obj 535 284 s~ outL;
#X obj 211 646 r~ outL;
#X obj 278 646 r~ outR;
#X msg 441 444 0;
#X floatatom 159 29 0 0 0 0 - - -;
#X obj 129 29 key;
#X obj 189 29 keyname;
#X symbolatom 188 50 10 0 0 0 - - -, f 10;
#N canvas 376 134 889 682 start_stop 0;
#X obj 63 114 spigot;
#X obj 42 151 bng 15 250 50 0 empty empty empty 17 7 0 10 -262144 -1
-1;
#X obj 131 66 bng 15 250 50 0 empty empty empty 17 7 0 10 -262144 -1
-1;
#X obj 122 116 tgl 15 0 empty empty empty 17 7 0 10 -262144 -1 -1 0
1;
#X obj 122 168 bng 15 250 50 0 empty empty empty 17 7 0 10 -262144
-1 -1;
#X obj 122 137 moses 1;
#X obj 187 127 change;
#X obj 162 288 bng 15 250 50 0 empty empty empty 17 7 0 10 -261234
-1 -1;
#X obj 215 225 bng 15 250 50 0 empty empty empty 17 7 0 10 -204786
-1 -1;
#X obj 166 179 moses 2;
#X msg 192 150 1;
#X msg 232 150 2;
#X obj 52 43 inlet;
#X text 45 17 gate start/stop;
#X obj 595 87 inlet;
#X text 478 56 sample name/nr;
#X obj 577 240 i;
#X obj 433 479 outlet;
#X msg 433 441 start;
#X obj 290 481 outlet;
#X msg 396 453 stop;
#X text 289 117 on start \; stop possible current recording \; open
file \; start rec;
#X text 237 503 finished recording;
#X obj 396 189 bng 15 250 50 0 empty empty empty 17 7 0 10 -261682
-1 -1;
#X obj 215 203 delay 1 1 samp;
#X text 432 501 msg out;
#X obj 552 464 bng 15 250 50 0 empty empty empty 17 7 0 10 -262144
-1 -1;
#X obj 552 486 outlet;
#X obj 81 73 > 0.1;
#X msg 577 309 open -bytes 3 ../samples/\$1.wav;
#X msg 587 264 opening file \$1;
#X obj 587 286 print;
#X obj 415 213 print;
#X msg 415 191 arm: drop everything ~;
#X obj 31 337 print;
#N canvas 0 23 450 300 count-max-rec-t 0;
#X obj 53 209 print;
#X msg 53 187 max-t reached;
#X text 229 38 max rec time: 10 s;
#X obj 78 67 inlet;
#X obj 196 58 inlet;
#X text 79 42 start \, cancel;
#X floatatom 186 147 5 0 0 0 - - -, f 5;
#X msg 184 84 1;
#X obj 78 89 delay 10000;
#X msg 221 85 0;
#X obj 78 141 spigot;
#X obj 78 163 outlet;
#X connect 1 0 0 0;
#X connect 3 0 7 0;
#X connect 3 0 8 0;
#X connect 4 0 9 0;
#X connect 6 0 10 1;
#X connect 7 0 6 0;
#X connect 8 0 10 0;
#X connect 9 0 6 0;
#X connect 10 0 11 0;
#X connect 10 0 1 0;
#X restore 20 260 pd count-max-rec-t;
#X obj 290 438 bng 15 250 50 0 empty empty empty 17 7 0 10 -262144
-1 -1;
#X obj 194 545 print;
#X msg 194 523 Done. finished recording;
#N canvas 0 23 450 300 wait 0;
#X obj 53 219 print;
#X obj 78 67 inlet;
#X obj 256 58 inlet;
#X floatatom 246 137 5 0 0 0 - - -, f 5;
#X msg 194 94 1;
#X msg 281 85 0;
#X obj 78 151 spigot;
#X obj 96 176 outlet;
#X obj 78 89 delay 1000;
#X msg 53 197 min-t reached;
#X obj 188 61 inlet;
#X text 74 38 arm/reset \, activate \, cancel;
#X msg 41 129 min-t --;
#X obj 131 123 r min-rec-t;
#X connect 1 0 8 0;
#X connect 1 0 5 0;
#X connect 2 0 5 0;
#X connect 3 0 6 1;
#X connect 4 0 3 0;
#X connect 5 0 3 0;
#X connect 6 0 9 0;
#X connect 6 0 7 0;
#X connect 8 0 6 0;
#X connect 8 0 12 0;
#X connect 9 0 0 0;
#X connect 10 0 4 0;
#X connect 12 0 0 0;
#X connect 13 0 8 1;
#X restore 137 396 pd wait for min rec-t;
#N canvas 0 23 556 328 stop-time-if-over-min-t 0;
#X obj 157 126 moses;
#X obj 189 147 bng 15 250 50 0 empty empty empty 17 7 0 10 -262144
-1 -1;
#X obj 159 146 bng 15 250 50 0 empty empty empty 17 7 0 10 -262144
-1 -1;
#X floatatom 94 111 6 0 0 0 - - -, f 6;
#X obj 127 56 inlet;
#X obj 173 56 inlet;
#X obj 18 197 print;
#X msg 198 175 stop (2);
#X msg 18 175 wait for min-t;
#X obj 177 213 outlet;
#X text 263 177 + cancel min rec time counter;
#X text 131 29 stop \, reset;
#X msg 19 152 time: \$1;
#X obj 102 211 outlet;
#X obj 230 100 r min-rec-t;
#X obj 127 83 realtime;
#X obj 152 106 f;
#X connect 0 0 2 0;
#X connect 0 1 1 0;
#X connect 1 0 7 0;
#X connect 1 0 9 0;
#X connect 2 0 8 0;
#X connect 2 0 13 0;
#X connect 4 0 15 1;
#X connect 5 0 15 0;
#X connect 7 0 6 0;
#X connect 8 0 6 0;
#X connect 12 0 6 0;
#X connect 14 0 0 1;
#X connect 15 0 16 0;
#X connect 16 0 0 0;
#X connect 16 0 3 0;
#X connect 16 0 12 0;
#X restore 209 356 pd stop-time-if-over-min-t;
#X text 215 377 else: wait for min-t;
#X msg 31 315 stopping..(1);
#X text 556 506 stop current playback;
#X obj 488 458 print;
#X obj 38 413 loadbang;
#X msg 38 435 1000;
#X obj 38 457 s min-rec-t;
#X obj 192 36 r start-rec;
#X obj 223 65 r stop-rec;
#X msg 223 87 0;
#X msg 192 58 1;
#X obj 129 497 delay 10 1 msec;
#X connect 0 0 1 0;
#X connect 3 0 5 0;
#X connect 3 0 6 0;
#X connect 5 0 4 0;
#X connect 6 0 10 0;
#X connect 6 0 9 0;
#X connect 7 0 35 1;
#X connect 7 0 42 0;
#X connect 7 0 40 0;
#X connect 8 0 16 0;
#X connect 8 0 35 0;
#X connect 8 0 40 1;
#X connect 8 0 39 0;
#X connect 9 0 7 0;
#X connect 9 0 10 0;
#X connect 9 1 11 0;
#X connect 9 1 23 0;
#X connect 9 1 24 0;
#X connect 10 0 9 1;
#X connect 11 0 9 1;
#X connect 12 0 0 0;
#X connect 12 0 2 0;
#X connect 12 0 28 0;
#X connect 14 0 16 1;
#X connect 16 0 29 0;
#X connect 16 0 18 0;
#X connect 16 0 30 0;
#X connect 18 0 17 0;
#X connect 18 0 44 0;
#X connect 20 0 17 0;
#X connect 23 0 20 0;
#X connect 23 0 33 0;
#X connect 23 0 26 0;
#X connect 24 0 8 0;
#X connect 26 0 27 0;
#X connect 28 0 0 1;
#X connect 28 0 3 0;
#X connect 29 0 17 0;
#X connect 30 0 31 0;
#X connect 33 0 32 0;
#X connect 35 0 7 0;
#X connect 36 0 20 0;
#X connect 36 0 19 0;
#X connect 36 0 52 0;
#X connect 38 0 37 0;
#X connect 39 0 36 0;
#X connect 40 0 39 1;
#X connect 40 1 36 0;
#X connect 40 1 39 2;
#X connect 42 0 34 0;
#X connect 45 0 46 0;
#X connect 46 0 47 0;
#X connect 48 0 51 0;
#X connect 49 0 50 0;
#X connect 50 0 3 0;
#X connect 51 0 3 0;
#X connect 52 0 38 0;
#X coords 0 682 1 681 150 90 0;
#X restore 427 254 pd start_stop;
#X obj 427 232 r gate1;
#X obj 263 92 bng 10 250 50 0 empty empty empty 17 7 0 10 -33289 -4034
-1;
#X text 207 110 midi ctl activity;
#X obj 70 174 utils/sample_selector;
#X obj 70 290 i;
#X obj 99 294 utils/drumpads;
#X obj 535 152 utils/adc_;
#X obj 211 671 utils/sum~;
#X obj 413 68 tgl 15 0 empty empty empty 17 7 0 10 -1 -4034 -1 0 1
;
#X obj 448 13 loadbang;
#X obj 439 848 r lpf;
#X obj 351 882 fx/filter~;
#X obj 449 942 fx/filter3~;
#X obj 502 913 r lo;
#X obj 542 913 r mid;
#X obj 592 913 r hi;
#X obj 469 1077 fx/limiter~;
#X text 1090 853 comment;
#X obj 471 1045 s~ fxL;
#X obj 521 1045 s~ fxR;
#X obj 111 487 r~ fxR;
#X obj 61 487 r~ fxL;
#X msg 579 31 0;
#X obj 539 53 s gate1;
#X text 526 10 manual rec start/stop;
#X msg 539 31 1;
#X msg 70 364 symbol ../samples/\$1.wav;
#X msg 71 405 symbol ../samples/Comfast_kick.wav;
#X obj 81 271 bng 15 250 50 0 empty empty empty 17 7 0 10 -262144 -1
-1;
#X obj 643 35 bng 15 250 50 0 empty empty empty 17 7 0 10 -262144 -1
-1;
#X obj 636 55 print ~;
#X msg 71 385 symbol Foals-Miami.wav;
#X obj 336 361 delay 1 1 samp;
#X obj 336 339 bng 15 250 50 0 empty empty empty 17 7 0 10 -262144
-1 -1;
#X text 643 164 bug: looped sample when too short;
#X text 626 187 this is caused by too few samples for sampler;
#X text 613 219 sampler stops only when 99% of sample has been reached
;
#X obj 62 533 utils/sum~;
#X text 697 71 todo: overdub;
#X obj 616 319 r toggle-hit-stop;
#X obj 558 348 tgl 15 0 empty empty empty 17 7 0 10 -262144 -1 -1 1
1;
#X msg 558 326 set 1;
#X msg 581 345 set 0;
#X obj 558 368 moses 1;
#X obj 211 694 fx/dly2~ dly01;
#X obj 154 517 fx/vibrato~;
#X obj 370 337 delay 10 1 msec;
#X obj 340 697 r rvb-all;
#X obj 16 328 loadbang;
#X msg 16 350 0;
#X obj 273 718 fx/rvb~ r1;
#X obj 273 775 utils/sum~;
#X obj 273 865 utils/sum~;
#X msg 448 35 0;
#X obj 469 69 tgl 15 0 empty empty empty 17 7 0 10 -1 -258113 -1 1
1;
#X floatatom 471 110 5 0 0 0 - - -, f 5;
#X obj 397 88 utils/djm;
#X obj 471 88 utils/mm1;
#X floatatom 397 110 5 0 0 0 - - -, f 5;
#X obj 341 471 sampler 1;
#X connect 0 0 1 0;
#X connect 5 0 27 0;
#X connect 7 0 5 0;
#X connect 7 1 4 0;
#X connect 7 2 6 0;
#X connect 8 0 0 0;
#X connect 9 0 11 0;
#X connect 10 0 20 0;
#X connect 10 0 67 0;
#X connect 11 0 85 0;
#X connect 12 0 85 0;
#X connect 13 0 68 0;
#X connect 13 0 85 2;
#X connect 18 0 33 0;
#X connect 19 0 33 1;
#X connect 20 0 85 1;
#X connect 22 0 21 0;
#X connect 23 1 24 0;
#X connect 25 0 54 0;
#X connect 25 1 2 0;
#X connect 25 2 13 0;
#X connect 26 0 25 0;
#X connect 29 0 30 0;
#X connect 29 1 25 1;
#X connect 30 0 52 0;
#X connect 31 0 52 0;
#X connect 31 0 59 0;
#X connect 32 0 17 0;
#X connect 32 0 2 0;
#X connect 32 1 16 0;
#X connect 32 1 2 1;
#X connect 33 0 70 0;
#X connect 33 1 70 1;
#X connect 34 0 82 0;
#X connect 35 0 79 0;
#X connect 35 0 80 0;
#X connect 36 0 37 3;
#X connect 37 0 38 0;
#X connect 37 1 38 1;
#X connect 38 0 44 0;
#X connect 38 1 45 0;
#X connect 39 0 38 2;
#X connect 40 0 38 3;
#X connect 41 0 38 4;
#X connect 46 0 63 1;
#X connect 47 0 63 0;
#X connect 48 0 49 0;
#X connect 51 0 49 0;
#X connect 52 0 12 0;
#X connect 53 0 12 0;
#X connect 54 0 30 0;
#X connect 54 0 59 0;
#X connect 55 0 56 0;
#X connect 57 0 12 0;
#X connect 59 0 58 0;
#X connect 59 0 72 0;
#X connect 63 0 15 0;
#X connect 63 1 15 1;
#X connect 65 0 66 0;
#X connect 66 0 69 0;
#X connect 67 0 66 0;
#X connect 69 0 13 0;
#X connect 69 1 10 0;
#X connect 70 0 76 0;
#X connect 70 1 76 1;
#X connect 72 0 10 0;
#X connect 73 0 76 2;
#X connect 74 0 75 0;
#X connect 75 0 52 0;
#X connect 76 0 77 0;
#X connect 76 1 77 1;
#X connect 77 0 78 0;
#X connect 77 1 78 1;
#X connect 78 0 37 0;
#X connect 78 1 37 1;
#X connect 79 0 34 0;
#X connect 80 0 83 0;
#X connect 82 0 84 0;
#X connect 83 0 81 0;
#X connect 85 0 33 0;
#X connect 85 1 33 1;
