#N canvas 0 23 1045 808 10;
#X obj 20 52 tgl 15 0 empty empty empty 17 7 0 10 -204786 -1 -1 1 1
;
#X msg 20 72 \; pd dsp \$1;
#X obj 439 277 writesf~ 2;
#X text 285 26 MIDI I/O objects;
#X floatatom 323 81 0 0 0 0 - - -;
#X floatatom 285 81 0 0 0 0 - - -;
#X floatatom 361 80 0 0 0 0 - - -;
#X obj 285 54 ctlin;
#X obj 22 26 loadbang;
#X obj 338 412 bng 30 250 50 0 empty empty Browse 35 7 0 10 -260097
-1 -1;
#X obj 441 410 bng 30 250 50 0 empty empty Hit 35 7 0 10 -204786 -1
-1;
#X obj 338 447 openpanel;
#X obj 71 426 symbol;
#X obj 515 411 bng 30 250 50 0 empty empty Stop 35 7 0 10 -261682 -1
-1;
#X obj 166 504 fx/dly1~;
#X text 161 1105 comment;
#X obj 61 674 utils/dac_;
#X obj 591 284 s~ outR;
#X obj 535 284 s~ outL;
#X obj 558 648 r~ outL;
#X obj 618 648 r~ outR;
#X msg 441 444 0;
#X obj 341 471 sampler;
#X floatatom 159 29 0 0 0 0 - - -;
#X obj 129 29 key;
#X obj 189 29 keyname;
#X symbolatom 188 50 10 0 0 0 - - -, f 10;
#N canvas 376 134 889 682 start_stop 0;
#X obj 63 114 spigot;
#X obj 42 151 bng 15 250 50 0 empty empty empty 17 7 0 10 -262144 -1
-1;
#X obj 131 66 bng 15 250 50 0 empty empty empty 17 7 0 10 -262144 -1
-1;
#X obj 122 116 tgl 15 0 empty empty empty 17 7 0 10 -262144 -1 -1 0
1;
#X obj 122 168 bng 15 250 50 0 empty empty empty 17 7 0 10 -262144
-1 -1;
#X obj 122 137 moses 1;
#X obj 187 127 change;
#X obj 162 288 bng 15 250 50 0 empty empty empty 17 7 0 10 -261234
-1 -1;
#X obj 215 225 bng 15 250 50 0 empty empty empty 17 7 0 10 -204786
-1 -1;
#X obj 166 179 moses 2;
#X msg 192 150 1;
#X msg 232 150 2;
#X obj 52 43 inlet;
#X text 45 17 gate start/stop;
#X obj 595 87 inlet;
#X text 478 56 sample name/nr;
#X obj 577 240 i;
#X obj 433 479 outlet;
#X msg 433 441 start;
#X obj 290 481 outlet;
#X msg 396 453 stop;
#X text 289 117 on start \; stop possible current recording \; open
file \; start rec;
#X text 237 503 finished recording;
#X obj 396 189 bng 15 250 50 0 empty empty empty 17 7 0 10 -261682
-1 -1;
#X obj 215 203 delay 1 1 samp;
#X text 432 501 msg out;
#X obj 552 464 bng 15 250 50 0 empty empty empty 17 7 0 10 -262144
-1 -1;
#X obj 552 486 outlet;
#X obj 81 73 > 0.1;
#X msg 577 309 open -bytes 3 ../samples/\$1.wav;
#X msg 587 264 opening file \$1;
#X obj 587 286 print;
#X obj 415 213 print;
#X msg 415 191 arm: drop everything ~;
#X obj 31 337 print;
#N canvas 0 23 450 300 count-max-rec-t 0;
#X obj 53 209 print;
#X msg 53 187 max-t reached;
#X text 229 38 max rec time: 10 s;
#X obj 78 67 inlet;
#X obj 196 58 inlet;
#X text 79 42 start \, cancel;
#X floatatom 186 147 5 0 0 0 - - -, f 5;
#X msg 184 84 1;
#X obj 78 89 delay 10000;
#X msg 221 85 0;
#X obj 78 141 spigot;
#X obj 78 163 outlet;
#X connect 1 0 0 0;
#X connect 3 0 7 0;
#X connect 3 0 8 0;
#X connect 4 0 9 0;
#X connect 6 0 10 1;
#X connect 7 0 6 0;
#X connect 8 0 10 0;
#X connect 9 0 6 0;
#X connect 10 0 11 0;
#X connect 10 0 1 0;
#X restore 20 260 pd count-max-rec-t;
#X obj 290 438 bng 15 250 50 0 empty empty empty 17 7 0 10 -262144
-1 -1;
#X obj 194 545 print;
#X msg 194 523 Done. finished recording;
#N canvas 0 23 450 300 wait 0;
#X obj 53 219 print;
#X obj 78 67 inlet;
#X obj 256 58 inlet;
#X floatatom 246 137 5 0 0 0 - - -, f 5;
#X msg 194 94 1;
#X msg 281 85 0;
#X obj 78 151 spigot;
#X obj 96 176 outlet;
#X obj 78 89 delay 1000;
#X msg 53 197 min-t reached;
#X obj 188 61 inlet;
#X text 74 38 arm/reset \, activate \, cancel;
#X msg 41 129 min-t --;
#X obj 131 123 r min-rec-t;
#X connect 1 0 8 0;
#X connect 1 0 5 0;
#X connect 2 0 5 0;
#X connect 3 0 6 1;
#X connect 4 0 3 0;
#X connect 5 0 3 0;
#X connect 6 0 9 0;
#X connect 6 0 7 0;
#X connect 8 0 6 0;
#X connect 8 0 12 0;
#X connect 9 0 0 0;
#X connect 10 0 4 0;
#X connect 12 0 0 0;
#X connect 13 0 8 1;
#X restore 137 396 pd wait for min rec-t;
#N canvas 0 23 556 328 stop-time-if-over-min-t 0;
#X obj 157 126 moses;
#X obj 189 147 bng 15 250 50 0 empty empty empty 17 7 0 10 -262144
-1 -1;
#X obj 159 146 bng 15 250 50 0 empty empty empty 17 7 0 10 -262144
-1 -1;
#X floatatom 94 111 6 0 0 0 - - -, f 6;
#X obj 127 56 inlet;
#X obj 173 56 inlet;
#X obj 18 197 print;
#X msg 198 175 stop (2);
#X msg 18 175 wait for min-t;
#X obj 177 213 outlet;
#X text 263 177 + cancel min rec time counter;
#X text 131 29 stop \, reset;
#X msg 19 152 time: \$1;
#X obj 102 211 outlet;
#X obj 230 100 r min-rec-t;
#X obj 127 83 realtime;
#X obj 152 106 f;
#X connect 0 0 2 0;
#X connect 0 1 1 0;
#X connect 1 0 7 0;
#X connect 1 0 9 0;
#X connect 2 0 8 0;
#X connect 2 0 13 0;
#X connect 4 0 15 1;
#X connect 5 0 15 0;
#X connect 7 0 6 0;
#X connect 8 0 6 0;
#X connect 12 0 6 0;
#X connect 14 0 0 1;
#X connect 15 0 16 0;
#X connect 16 0 0 0;
#X connect 16 0 3 0;
#X connect 16 0 12 0;
#X restore 209 356 pd stop-time-if-over-min-t;
#X text 215 377 else: wait for min-t;
#X msg 31 315 stopping..(1);
#X text 556 506 stop current playback;
#X obj 488 458 print;
#X obj 38 413 loadbang;
#X msg 38 435 1000;
#X obj 38 457 s min-rec-t;
#X obj 192 36 r start-rec;
#X obj 223 65 r stop-rec;
#X msg 223 87 0;
#X msg 192 58 1;
#X obj 129 497 delay 1 1 msec;
#X connect 0 0 1 0;
#X connect 3 0 5 0;
#X connect 3 0 6 0;
#X connect 5 0 4 0;
#X connect 6 0 10 0;
#X connect 6 0 9 0;
#X connect 7 0 35 1;
#X connect 7 0 42 0;
#X connect 7 0 40 0;
#X connect 8 0 16 0;
#X connect 8 0 35 0;
#X connect 8 0 40 1;
#X connect 8 0 39 0;
#X connect 9 0 7 0;
#X connect 9 0 10 0;
#X connect 9 1 11 0;
#X connect 9 1 23 0;
#X connect 9 1 24 0;
#X connect 10 0 9 1;
#X connect 11 0 9 1;
#X connect 12 0 0 0;
#X connect 12 0 2 0;
#X connect 12 0 28 0;
#X connect 14 0 16 1;
#X connect 16 0 29 0;
#X connect 16 0 18 0;
#X connect 16 0 30 0;
#X connect 18 0 17 0;
#X connect 18 0 44 0;
#X connect 20 0 17 0;
#X connect 23 0 20 0;
#X connect 23 0 33 0;
#X connect 23 0 26 0;
#X connect 24 0 8 0;
#X connect 26 0 27 0;
#X connect 28 0 0 1;
#X connect 28 0 3 0;
#X connect 29 0 17 0;
#X connect 30 0 31 0;
#X connect 33 0 32 0;
#X connect 35 0 7 0;
#X connect 36 0 20 0;
#X connect 36 0 19 0;
#X connect 36 0 52 0;
#X connect 38 0 37 0;
#X connect 39 0 36 0;
#X connect 40 0 39 1;
#X connect 40 1 36 0;
#X connect 40 1 39 2;
#X connect 42 0 34 0;
#X connect 45 0 46 0;
#X connect 46 0 47 0;
#X connect 48 0 51 0;
#X connect 49 0 50 0;
#X connect 50 0 3 0;
#X connect 51 0 3 0;
#X connect 52 0 38 0;
#X coords 0 682 1 681 150 90 0;
#X restore 427 254 pd start_stop;
#X obj 427 232 r gate1;
#X obj 263 92 bng 10 250 50 0 empty empty empty 17 7 0 10 -33289 -4034
-1;
#X text 207 110 midi ctl activity;
#X obj 70 174 utils/sample_selector;
#X obj 70 290 i;
#X obj 99 294 utils/drumpads;
#X obj 535 152 utils/adc_;
#X obj 558 671 utils/sum~;
#N canvas 518 158 719 507 djm 0;
#X obj 222 376 vsl 15 20 0 1 0 0 empty empty empty 0 -9 0 10 -262144
-1 -1 956 1;
#X obj 242 376 vsl 15 20 0 1 0 0 empty empty empty 0 -9 0 10 -262144
-1 -1 956 1;
#X obj 262 376 vsl 15 20 0 1 0 0 empty empty empty 0 -9 0 10 -262144
-1 -1 956 1;
#X obj 106 208 vsl 15 20 0 1 0 0 empty empty empty 0 -9 0 10 -262144
-1 -1 0 1;
#X obj 126 208 vsl 15 20 0 1 0 0 empty empty empty 0 -9 0 10 -262144
-1 -1 0 1;
#X obj 383 294 loadbang;
#X msg 224 185 0;
#X obj 152 214 hsl 20 15 0 1 0 0 empty empty empty -2 -8 0 10 -262144
-1 -1 1900 1;
#X obj 101 183 utils/djm/faders;
#X obj 212 345 utils/djm/knobsA;
#X obj 530 377 vsl 15 20 0 1 0 0 empty empty empty 0 -9 0 10 -262144
-1 -1 1900 1;
#X obj 550 377 vsl 15 20 0 1 0 0 empty empty empty 0 -9 0 10 -262144
-1 -1 1900 1;
#X obj 570 377 vsl 15 20 0 1 0 0 empty empty empty 0 -9 0 10 -262144
-1 -1 1900 1;
#X msg 489 319 64;
#X obj 520 346 utils/djm/knobsB;
#X obj 357 378 vsl 15 20 0 1 0 0 empty empty empty 0 -9 0 10 -262144
-1 -1 950 1;
#X obj 377 378 vsl 15 20 0 1 0 0 empty empty empty 0 -9 0 10 -262144
-1 -1 950 1;
#X obj 397 378 vsl 15 20 0 1 0 0 empty empty empty 0 -9 0 10 -262144
-1 -1 950 1;
#X obj 347 347 utils/djm/knobsMiddle;
#X obj 400 189 utils/djm/knobsTop;
#X msg 362 198 0;
#X obj 422 216 hsl 30 15 0 1 0 0 empty empty empty -2 -8 0 10 -262144
-1 -1 0 1;
#X obj 461 218 hsl 30 15 0 1 0 0 empty empty empty -2 -8 0 10 -262144
-1 -1 2900 1;
#X obj 355 29 inlet;
#X obj 372 60 tgl 15 0 empty empty empty 17 7 0 10 -262144 -1 -1 1
1;
#X obj 100 254 s gate1;
#X obj 464 242 s lpf;
#X obj 418 245 s hpf;
#X text 160 22 MIDI I/O objects;
#X floatatom 198 77 0 0 0 0 - - -;
#X floatatom 160 77 0 0 0 0 - - -;
#X floatatom 236 76 0 0 0 0 - - -;
#X obj 160 50 ctlin;
#X text 142 101 value | nr | channel;
#X obj 157 126 spigot;
#X obj 207 126 spigot;
#X obj 257 126 spigot;
#X floatatom 276 172 5 0 0 0 - - -, f 5;
#X floatatom 302 170 5 0 0 0 - - -, f 5;
#X floatatom 276 301 5 0 0 0 - - -, f 5;
#X floatatom 306 280 5 0 0 0 - - -, f 5;
#X obj 353 164 loadbang;
#X text 575 496 comment;
#X obj 479 432 s dly-rate;
#X floatatom 10 124 5 0 0 0 - - -, f 5;
#X obj 39 159 outlet;
#X obj 342 429 s lo;
#X obj 382 429 s mid;
#X obj 432 429 s hi;
#X msg 539 188 1;
#X msg 349 323 0.5;
#X obj 457 20 notein;
#X floatatom 457 42 5 0 0 0 - - -, f 5;
#X floatatom 477 62 5 0 0 0 - - -, f 5;
#X floatatom 517 45 5 0 0 0 - - -, f 5;
#X obj 10 102 expr $f1 / 127;
#X obj 184 420 s sampler-pitch;
#X obj 160 254 s sampler-pos;
#X msg 165 350 0.503;
#X obj 448 138 s toggle-hit-stop;
#X obj 445 118 bng 15 250 50 0 empty empty empty 17 7 0 10 -262144
-1 -1;
#N canvas 0 23 450 300 2btns 0;
#X obj 76 30 inlet;
#X obj 126 30 inlet;
#X floatatom 76 52 5 0 0 0 - - -, f 5;
#X floatatom 126 52 5 0 0 0 - - -, f 5;
#X obj 51 130 spigot;
#X obj 148 138 spigot;
#X obj 181 113 == 34;
#X obj 97 104 == 33;
#X obj 51 152 moses 127;
#X obj 110 185 bng 15 250 50 0 empty empty empty 17 7 0 10 -262144
-1 -1;
#X obj 61 186 bng 15 250 50 0 empty empty empty 17 7 0 10 -262144 -1
-1;
#X obj 153 168 moses 127;
#X obj 212 201 bng 15 250 50 0 empty empty empty 17 7 0 10 -262144
-1 -1;
#X obj 163 202 bng 15 250 50 0 empty empty empty 17 7 0 10 -262144
-1 -1;
#X obj 54 221 outlet;
#X obj 104 221 outlet;
#X obj 162 221 outlet;
#X obj 212 221 outlet;
#X connect 0 0 2 0;
#X connect 1 0 3 0;
#X connect 2 0 7 0;
#X connect 2 0 6 0;
#X connect 3 0 5 0;
#X connect 3 0 4 0;
#X connect 4 0 8 0;
#X connect 5 0 11 0;
#X connect 6 0 5 1;
#X connect 7 0 4 1;
#X connect 8 0 10 0;
#X connect 8 0 14 0;
#X connect 8 1 9 0;
#X connect 8 1 15 0;
#X connect 11 0 13 0;
#X connect 11 0 16 0;
#X connect 11 1 12 0;
#X connect 11 1 17 0;
#X restore 435 94 pd 2btns;
#N canvas 0 23 450 300 switch 0;
#X obj 76 30 inlet;
#X obj 78 73 == 35;
#X obj 78 126 tgl 15 0 empty empty empty 17 7 0 10 -262144 -1 -1 0
1;
#X obj 83 155 outlet;
#X obj 78 95 == 0;
#X obj 163 50 loadbang;
#X msg 163 72 0;
#X connect 0 0 1 0;
#X connect 1 0 4 0;
#X connect 2 0 3 0;
#X connect 4 0 2 0;
#X connect 5 0 6 0;
#X connect 6 0 2 0;
#X restore 528 91 pd switch;
#X obj 540 116 s sampler-loop;
#X obj 200 454 s sampler-length;
#X connect 0 0 56 0;
#X connect 1 0 64 0;
#X connect 3 0 25 0;
#X connect 5 0 58 0;
#X connect 5 0 50 0;
#X connect 5 0 13 0;
#X connect 6 0 3 0;
#X connect 6 0 4 0;
#X connect 6 0 7 0;
#X connect 7 0 57 0;
#X connect 8 0 3 0;
#X connect 8 1 4 0;
#X connect 8 2 7 0;
#X connect 9 0 0 0;
#X connect 9 1 1 0;
#X connect 9 2 2 0;
#X connect 10 0 43 0;
#X connect 13 0 12 0;
#X connect 13 0 11 0;
#X connect 13 0 10 0;
#X connect 14 0 10 0;
#X connect 14 1 11 0;
#X connect 14 2 12 0;
#X connect 15 0 46 0;
#X connect 16 0 47 0;
#X connect 17 0 48 0;
#X connect 18 0 15 0;
#X connect 18 1 16 0;
#X connect 18 2 17 0;
#X connect 19 0 21 0;
#X connect 19 1 22 0;
#X connect 20 0 21 0;
#X connect 21 0 27 0;
#X connect 22 0 26 0;
#X connect 23 0 24 0;
#X connect 24 0 36 1;
#X connect 24 0 35 1;
#X connect 24 0 34 1;
#X connect 29 0 35 0;
#X connect 30 0 55 0;
#X connect 31 0 36 0;
#X connect 32 0 30 0;
#X connect 32 1 29 0;
#X connect 32 2 31 0;
#X connect 34 0 8 0;
#X connect 34 0 37 0;
#X connect 35 0 8 1;
#X connect 35 0 38 0;
#X connect 37 0 39 0;
#X connect 37 0 19 0;
#X connect 38 0 40 0;
#X connect 38 0 19 1;
#X connect 39 0 9 0;
#X connect 39 0 18 0;
#X connect 39 0 14 0;
#X connect 40 0 9 1;
#X connect 40 0 18 1;
#X connect 40 0 14 1;
#X connect 41 0 6 0;
#X connect 41 0 20 0;
#X connect 41 0 49 0;
#X connect 44 0 45 0;
#X connect 49 0 22 0;
#X connect 50 0 17 0;
#X connect 50 0 16 0;
#X connect 50 0 15 0;
#X connect 51 0 52 0;
#X connect 51 1 53 0;
#X connect 51 2 54 0;
#X connect 52 0 61 0;
#X connect 52 0 62 0;
#X connect 53 0 61 1;
#X connect 55 0 44 0;
#X connect 55 0 34 0;
#X connect 58 0 2 0;
#X connect 58 0 1 0;
#X connect 58 0 0 0;
#X connect 60 0 59 0;
#X connect 61 1 60 0;
#X connect 62 0 63 0;
#X restore 433 43 pd djm;
#X obj 426 22 tgl 15 0 empty empty empty 17 7 0 10 -1 -4034 -1 1 1
;
#X obj 448 13 loadbang;
#X floatatom 433 65 5 0 0 0 - - -, f 5;
#X obj 600 436 r hpf;
#X obj 644 434 r lpf;
#X obj 556 468 fx/filter~;
#X obj 654 528 fx/filter3~;
#X obj 707 499 r lo;
#X obj 747 499 r mid;
#X obj 797 499 r hi;
#X obj 63 791 fx/limiter~;
#X text 1090 853 comment;
#X obj 676 631 s~ fxL;
#X obj 726 631 s~ fxR;
#X obj 111 487 r~ fxR;
#X obj 61 487 r~ fxL;
#X msg 579 31 0;
#X obj 539 53 s gate1;
#X text 526 10 manual rec start/stop;
#X msg 539 31 1;
#X msg 70 364 symbol ../samples/\$1.wav;
#X msg 71 405 symbol ../samples/Comfast_kick.wav;
#X obj 81 271 bng 15 250 50 0 empty empty empty 17 7 0 10 -262144 -1
-1;
#X obj 643 35 bng 15 250 50 0 empty empty empty 17 7 0 10 -262144 -1
-1;
#X obj 636 55 print ~;
#X msg 71 385 symbol Foals-Miami.wav;
#X obj 336 361 delay 1 1 samp;
#X obj 336 339 bng 15 250 50 0 empty empty empty 17 7 0 10 -262144
-1 -1;
#X text 643 164 bug: looped sample when too short;
#X text 626 187 this is caused by too few samples for sampler;
#X text 613 219 sampler stops only when 99% of sample has been reached
;
#X obj 59 649 utils/sum~;
#X text 697 71 todo: overdub;
#X obj 616 319 r toggle-hit-stop;
#X obj 558 348 tgl 15 0 empty empty empty 17 7 0 10 -262144 -1 -1 0
1;
#X msg 558 326 set 1;
#X msg 581 345 set 0;
#X obj 558 368 moses 1;
#X obj 165 694 fx/dly2~ dly01;
#X connect 0 0 1 0;
#X connect 5 0 29 0;
#X connect 7 0 5 0;
#X connect 7 1 4 0;
#X connect 7 2 6 0;
#X connect 8 0 0 0;
#X connect 9 0 11 0;
#X connect 10 0 21 0;
#X connect 10 0 72 0;
#X connect 11 0 22 0;
#X connect 12 0 22 0;
#X connect 12 0 64 0;
#X connect 13 0 22 2;
#X connect 13 0 73 0;
#X connect 19 0 35 0;
#X connect 20 0 35 1;
#X connect 21 0 22 1;
#X connect 22 0 35 0;
#X connect 22 1 35 1;
#X connect 24 0 23 0;
#X connect 25 1 26 0;
#X connect 27 0 59 0;
#X connect 27 1 2 0;
#X connect 27 2 13 0;
#X connect 28 0 27 0;
#X connect 31 0 32 0;
#X connect 31 1 27 1;
#X connect 32 0 57 0;
#X connect 33 0 57 0;
#X connect 34 0 18 0;
#X connect 34 0 2 0;
#X connect 34 1 17 0;
#X connect 34 1 2 1;
#X connect 35 0 42 0;
#X connect 35 1 42 1;
#X connect 36 0 39 0;
#X connect 37 0 36 0;
#X connect 38 0 37 0;
#X connect 40 0 42 2;
#X connect 41 0 42 3;
#X connect 42 0 43 0;
#X connect 42 1 43 1;
#X connect 43 0 49 0;
#X connect 43 1 50 0;
#X connect 44 0 43 2;
#X connect 45 0 43 3;
#X connect 46 0 43 4;
#X connect 51 0 14 0;
#X connect 51 0 75 1;
#X connect 52 0 14 0;
#X connect 52 0 75 0;
#X connect 53 0 54 0;
#X connect 56 0 54 0;
#X connect 57 0 12 0;
#X connect 58 0 12 0;
#X connect 59 0 32 0;
#X connect 60 0 61 0;
#X connect 62 0 12 0;
#X connect 63 0 10 0;
#X connect 64 0 63 0;
#X connect 68 0 16 0;
#X connect 68 1 16 1;
#X connect 70 0 71 0;
#X connect 71 0 74 0;
#X connect 72 0 71 0;
#X connect 74 0 13 0;
#X connect 74 1 10 0;
#X connect 75 0 68 0;
#X connect 75 1 68 1;
