#N canvas 398 89 1045 808 10;
#X obj 20 52 tgl 15 0 empty empty empty 17 7 0 10 -204786 -1 -1 1 1
;
#X msg 20 72 \; pd dsp \$1;
#X text 285 26 MIDI I/O objects;
#X floatatom 323 81 0 0 0 0 - - -;
#X floatatom 285 81 0 0 0 0 - - -;
#X floatatom 361 80 0 0 0 0 - - -;
#X obj 285 54 ctlin;
#X obj 22 26 loadbang;
#X text 161 1105 comment;
#X obj 43 630 utils/dac_;
#X floatatom 159 29 0 0 0 0 - - -;
#X obj 129 29 key;
#X obj 189 29 keyname;
#X symbolatom 188 50 10 0 0 0 - - -, f 10;
#X obj 263 92 bng 10 250 50 0 empty empty empty 17 7 0 10 -33289 -4034
-1;
#X text 207 110 midi ctl activity;
#X obj 20 121 utils/adc_;
#X obj 211 721 utils/sum~;
#X obj 410 70 tgl 15 0 empty empty empty 17 7 0 10 -1 -4034 -1 0 1
;
#X obj 448 13 loadbang;
#X obj 489 814 r lpf;
#X obj 351 837 fx/filter~;
#X obj 502 913 r lo;
#X obj 542 913 r mid;
#X obj 592 913 r hi;
#X obj 588 1063 s~ fxL;
#X obj 638 1063 s~ fxR;
#X obj 90 559 r~ fxR;
#X obj 40 559 r~ fxL;
#X msg 579 31 0;
#X obj 539 53 s gate1;
#X text 526 10 manual rec start/stop;
#X msg 539 31 1;
#X obj 643 35 bng 15 250 50 0 empty empty empty 17 7 0 10 -262144 -1
-1;
#X obj 636 55 print ~;
#X obj 41 605 utils/sum~;
#X text 697 71 todo: overdub;
#X obj 211 744 fx/dly2~ dly01;
#X obj 273 768 fx/rvb~ r1;
#X obj 273 820 utils/sum~;
#X msg 448 35 0;
#X obj 494 70 tgl 15 0 empty empty empty 17 7 0 10 -1 -258113 -1 1
1;
#X floatatom 496 111 5 0 0 0 - - -, f 5;
#X obj 496 89 utils/mm1;
#X floatatom 394 112 5 0 0 0 - - -, f 5;
#X obj 273 795 utils/sum~;
#X obj 347 723 throw~ fx-pre-L;
#X obj 473 724 throw~ fx-pre-R;
#X obj 563 751 throw~ fx-pre-L;
#X obj 655 723 throw~ fx-pre-R;
#X obj 199 691 catch~ fx-pre-L;
#X obj 219 669 catch~ fx-pre-R;
#X obj 13 325 throw~ fx-pre-L;
#X obj 126 323 throw~ fx-pre-R;
#X text 502 872 TODO resonance filter + od;
#X obj 394 90 utils/djm...;
#X obj 700 775 utils/vu_~;
#X obj 779 725 utils/vu_~;
#X obj 449 942 fx/filter4~;
#X obj 632 913 r top;
#X obj 641 945 r eq-drive;
#N canvas 223 279 450 300 drive 0;
#X obj 199 19 inlet;
#X obj 67 58 inlet~;
#X obj 117 58 inlet~;
#X obj 67 122 outlet~;
#X obj 127 122 outlet~;
#X floatatom 194 90 5 0 0 0 - - -, f 5;
#X floatatom 258 93 5 0 0 0 - - -, f 5;
#X obj 258 71 * 0.5;
#X obj 194 68 * 0.5;
#X obj 201 42 pow 2;
#X obj 67 100 fx/od~, f 7;
#X connect 0 0 9 0;
#X connect 1 0 10 0;
#X connect 2 0 10 1;
#X connect 7 0 6 0;
#X connect 7 0 10 3;
#X connect 8 0 5 0;
#X connect 8 0 10 2;
#X connect 9 0 8 0;
#X connect 9 0 7 0;
#X connect 10 0 3 0;
#X connect 10 1 4 0;
#X restore 588 1039 pd drive;
#X obj 355 918 fx/chorus~;
#X obj 802 542 r hit1;
#X obj 802 564 utils/play-stop;
#X obj 802 586 bng 15 250 50 0 empty empty empty 17 7 0 10 -262144
-1 -1;
#X obj 133 589 vibrato~;
#X text 1578 499 comment;
#X text 1569 1013 comment;
#X obj 249 159 utils/adc4;
#X obj 250 308 utils/mixer;
#X connect 0 0 1 0;
#X connect 4 0 14 0;
#X connect 6 0 4 0;
#X connect 6 1 3 0;
#X connect 6 2 5 0;
#X connect 7 0 0 0;
#X connect 11 0 10 0;
#X connect 12 1 13 0;
#X connect 17 0 37 0;
#X connect 17 1 37 1;
#X connect 18 0 55 0;
#X connect 19 0 40 0;
#X connect 19 0 41 0;
#X connect 20 0 21 3;
#X connect 21 0 62 0;
#X connect 21 1 62 1;
#X connect 22 0 58 2;
#X connect 23 0 58 3;
#X connect 24 0 58 4;
#X connect 27 0 35 1;
#X connect 28 0 35 0;
#X connect 29 0 30 0;
#X connect 32 0 30 0;
#X connect 33 0 34 0;
#X connect 35 0 9 0;
#X connect 35 1 9 1;
#X connect 37 0 38 0;
#X connect 37 1 38 1;
#X connect 38 0 45 0;
#X connect 38 1 45 1;
#X connect 39 0 21 0;
#X connect 39 1 21 1;
#X connect 40 0 18 0;
#X connect 41 0 43 0;
#X connect 43 0 42 0;
#X connect 45 0 39 0;
#X connect 45 1 39 1;
#X connect 50 0 17 0;
#X connect 51 0 17 1;
#X connect 55 0 44 0;
#X connect 58 0 61 0;
#X connect 58 1 61 1;
#X connect 59 0 58 5;
#X connect 60 0 58 6;
#X connect 61 0 25 0;
#X connect 61 1 26 0;
#X connect 62 0 58 0;
#X connect 62 1 58 1;
#X connect 63 0 64 0;
#X connect 64 0 65 0;
#X connect 69 0 70 0;
#X connect 69 1 70 1;
#X connect 69 2 70 2;
#X connect 69 3 70 3;
#X connect 70 0 35 0;
#X connect 70 1 35 1;
