#N canvas 248 124 1033 848 10;
#X obj -130 637 bng 30 250 50 0 empty empty Browse 35 7 0 10 -260097
-1 -1;
#N canvas 0 50 450 278 (subpatch) 0;
#X array arStart-\$0 1 float 2;
#X coords 0 1 1 -1 80 60 1 0 0;
#X restore 1079 -74 graph;
#N canvas 0 50 450 278 (subpatch) 0;
#X array arEnd-\$0 1 float 2;
#X coords 0 1 1 -1 80 60 1 0 0;
#X restore 1169 -74 graph;
#X msg 950 -8 0;
#X obj 950 -43 bng 30 250 50 0 empty empty Pause 35 7 0 10 -262130
-1 -1;
#X text 343 1300 comment;
#X text -63 1321 comment;
#X text 754 1301 comment;
#X text 49 1078 prevent clicks ?...;
#X obj -99 1265 outlet~;
#X obj -41 1265 outlet~;
#X obj -40 1129 vsl 30 79 0.01 1 1 0 empty empty empty 0 -9 0 10 -66577
-1 -1 7196 1;
#X obj -130 673 openpanel;
#N canvas 0 23 450 278 (subpatch) 0;
#X array arRL-\$0 112697 float 2;
#X coords 0 1 112697 -1 200 50 1 0 0;
#X restore 6 119 graph;
#X msg -109 494 symbol samples/Comfast_kick.wav;
#X msg -109 474 symbol samples/Foals-Miami.wav;
#X obj 952 591 / 44100;
#X text 995 704 in s;
#X obj 950 38 tgl 30 0 empty empty Pause 35 7 0 10 -262130 -1 -1 0
1;
#N canvas 96 257 450 300 pause_curRate 0;
#X obj 65 66 change;
#X obj 65 89 sel 1;
#X obj 65 112 bng 15 250 50 0 empty empty empty 17 7 0 10 -262144 -1
-1;
#X obj 92 112 bng 15 250 50 0 empty empty empty 17 7 0 10 -262144 -1
-1;
#X msg 65 132 0;
#X obj 96 132 f;
#X obj 49 22 inlet;
#X obj 137 26 inlet;
#X obj 65 163 outlet;
#X connect 0 0 1 0;
#X connect 1 0 2 0;
#X connect 1 1 3 0;
#X connect 2 0 4 0;
#X connect 3 0 5 0;
#X connect 4 0 8 0;
#X connect 5 0 8 0;
#X connect 6 0 0 0;
#X connect 7 0 5 1;
#X restore 950 76 pd pause_curRate;
#N canvas 21 334 709 541 trans_detune_defRate_phaPlay 0;
#X obj 51 60 cyclone/bondo 3;
#X obj 51 87 expr pow(2 \, ($f1 / 12)) * (1 + ($f2 / 1200)) * $f3;
#X text 121 153 Transpose \; +1 oct = +12 = 2*f \; (2 * x / 12) * f
\; \; +24 -> f * 4 \; +12 -> f x 2 \; +0 -> f x 1;
#X obj 355 137 spigot;
#X obj 355 159 change;
#X obj 355 203 line;
#X obj 51 25 inlet;
#X obj 94 25 inlet;
#X obj 138 25 inlet;
#X obj 430 32 inlet;
#X obj 47 257 outlet;
#X obj 355 226 outlet;
#X msg 355 182 \$1 100;
#X text 401 211 (the slomotion break when stopping);
#X text 407 183 realtime pitch shifting;
#X text 55 7 transpose \, detune \, defaultrate;
#X connect 0 0 1 0;
#X connect 0 1 1 1;
#X connect 0 2 1 2;
#X connect 1 0 10 0;
#X connect 1 0 3 0;
#X connect 3 0 4 0;
#X connect 4 0 12 0;
#X connect 5 0 11 0;
#X connect 6 0 0 0;
#X connect 7 0 0 1;
#X connect 8 0 0 2;
#X connect 9 0 3 1;
#X connect 12 0 5 0;
#X restore 159 294 pd trans_detune_defRate_phaPlay;
#X obj 792 159 bng 30 250 50 0 empty empty Hit 35 7 0 10 -204786 -1
-1;
#N canvas 135 186 603 424 hit_curRate_newRate_phaStart 0;
#X obj 135 253 f;
#X obj 135 165 expr pow(2 \, ($f1 / 12)) * $f2;
#X text 299 73 oneshots --> disgard note off;
#X obj 135 208 bng 15 250 50 0 empty empty empty 17 7 0 10 -262144
-1 -1;
#X obj 242 223 f;
#X obj 196 43 inlet;
#X obj 168 354 outlet;
#X obj 218 354 outlet;
#X obj 150 43 inlet;
#X obj 268 354 outlet;
#X obj 104 43 inlet;
#X obj 104 148 f;
#X msg 119 125 0;
#X obj 119 102 loadbang;
#X text 384 333 phasorPlay currentRate phasorPhase;
#X text 275 223 f 0 = loadbang/default?;
#X text 153 20 hit currentRate newRate phasorStart;
#X obj 262 43 inlet;
#X connect 0 0 6 0;
#X connect 1 0 3 0;
#X connect 1 0 7 0;
#X connect 3 0 0 0;
#X connect 3 0 4 0;
#X connect 4 0 9 0;
#X connect 5 0 1 1;
#X connect 8 0 0 1;
#X connect 10 0 11 0;
#X connect 11 0 1 0;
#X connect 12 0 11 1;
#X connect 13 0 12 0;
#X connect 17 0 4 1;
#X restore 846 195 pd hit_curRate_newRate_phaStart;
#N canvas 163 364 450 300 reload_anti_volume 0;
#X obj 141 72 loadbang;
#X msg 77 146 0;
#X obj 171 215 f;
#X text 130 45 prevent clicks ?...;
#X msg 116 143 set 0;
#X obj 171 193 line 0;
#X obj 68 58 inlet;
#X obj 184 245 outlet;
#X obj 171 142 delay 1 1 msec;
#X msg 171 171 0.7 30;
#X connect 0 0 1 0;
#X connect 0 0 4 0;
#X connect 0 0 8 0;
#X connect 1 0 2 0;
#X connect 2 0 7 0;
#X connect 4 0 5 0;
#X connect 5 0 2 0;
#X connect 6 0 1 0;
#X connect 6 0 4 0;
#X connect 6 0 8 0;
#X connect 8 0 9 0;
#X connect 9 0 5 0;
#X restore -40 1100 pd reload_anti_volume;
#N canvas 0 23 593 598 stop_phaPlay_curRate_phaStart-phaPlay_phaPhase
0;
#X text 112 391 phaPlay_phaPhase;
#X text 97 62 stop_phaPlay_curRate_phaStart;
#X obj 120 103 inlet;
#X obj 158 103 inlet;
#X obj 199 103 inlet;
#X obj 274 103 inlet;
#X obj 116 366 outlet;
#X obj 166 366 outlet;
#X obj 171 323 line;
#X obj 259 303 f;
#X msg 199 299 set \$1;
#X obj 120 232 moses 0.1;
#X obj 158 193 > 0;
#X obj 120 210 f 1;
#X obj 171 254 bng 15 250 50 0 empty empty empty 17 7 0 10 -262144
-1 -1;
#X msg 120 253 0;
#X msg 171 276 0 200;
#X obj 259 269 delay 200;
#X connect 2 0 13 0;
#X connect 3 0 12 0;
#X connect 4 0 10 0;
#X connect 5 0 9 1;
#X connect 8 0 6 0;
#X connect 9 0 7 0;
#X connect 10 0 8 0;
#X connect 11 0 15 0;
#X connect 11 1 14 0;
#X connect 12 0 13 1;
#X connect 13 0 11 0;
#X connect 14 0 16 0;
#X connect 14 0 17 0;
#X connect 15 0 6 0;
#X connect 16 0 8 0;
#X connect 17 0 9 0;
#X restore 846 337 pd stop_phaPlay_curRate_phaStart-phaPlay_phaPhase
;
#X obj 794 286 bng 30 250 50 0 empty empty Stop 35 7 0 10 -261682 -1
-1;
#X obj 247 951 hsl 127 30 0 1 0 0 empty empty Position -2 -8 0 10 -262144
-1 -1 0 1;
#X text -109 -133 comment;
#X text -149 -34 comment;
#X obj 323 650 soundfiler;
#X obj 902 591 / 20;
#X text 318 672 todo: sum(R \, L) / 2 ipv alleen L;
#X floatatom 124 345 5 0 0 0 - - -, f 5;
#X floatatom 293 335 5 0 0 0 - - -, f 5;
#X text 707 -57 default rate depends on \; sample size \, samle rate
\; length (end t) \; \; new rate depends on \; pitch shift (transpose)/env
\; \; current rate depends on \; play on/off \, stop;
#X obj 478 1192 bng 15 250 50 0 empty empty empty 17 7 0 10 -261234
-1 -1;
#N canvas 96 232 652 697 pha1_pha2_start_length_sampleSize_loop- 0
;
#X obj 78 173 phasor~;
#X obj 107 436 *~;
#X obj 22 102 inlet;
#X obj 133 116 inlet;
#X obj 542 422 metro;
#X obj 542 444 snapshot~;
#X obj 543 473 /;
#X obj 542 400 loadbang;
#X obj 543 505 outlet;
#X text 275 270 \$1 100: prevent clicking \; (2nd number affects scrubbing
pitch);
#X obj 248 120 inlet;
#X text 267 249 scrub starting pos;
#X obj 135 320 +~;
#X obj 196 262 change;
#X obj 226 306 line~;
#X text 233 106 start (left);
#X text 167 577 L / R / snapshot;
#X text 47 27 sampleSize / phasor1in / phasor2in / start / end / loop
;
#X text 133 99 phasorPhase;
#X text 22 82 phasor rate/play;
#X obj 344 112 inlet;
#X text 332 94 length (% of sample used);
#X text 42 51 phasor1in (rate \, play \, stop) / phasor2in (phase)
/ start / length / loop / sampleSize, f 76;
#X obj 564 95 inlet;
#X msg 226 284 \$1 100;
#X obj 565 363 f;
#X obj 334 140 f;
#X obj 248 149 f;
#X obj 133 138 f;
#X obj 106 491 outlet~;
#X floatatom 334 162 5 0 0 0 - - -, f 5;
#X floatatom 22 124 5 0 0 0 - - -, f 5;
#X obj 79 200 *~;
#X connect 0 0 32 0;
#X connect 1 0 5 0;
#X connect 1 0 29 0;
#X connect 2 0 31 0;
#X connect 2 0 0 0;
#X connect 3 0 28 0;
#X connect 4 0 5 0;
#X connect 5 0 6 0;
#X connect 6 0 8 0;
#X connect 7 0 4 0;
#X connect 10 0 27 0;
#X connect 12 0 1 0;
#X connect 13 0 24 0;
#X connect 14 0 12 1;
#X connect 20 0 26 0;
#X connect 23 0 25 0;
#X connect 24 0 14 0;
#X connect 25 0 6 1;
#X connect 25 0 1 1;
#X connect 26 0 30 0;
#X connect 26 0 32 1;
#X connect 27 0 13 0;
#X connect 28 0 0 1;
#X connect 32 0 12 0;
#X restore -99 983 pd pha1_pha2_start_length_sampleSize_loop- L_R_snapshot_sampleRate
;
#X obj 124 364 bng 15 250 50 0 empty empty empty 17 7 0 10 -262144
-1 -1;
#X obj 293 354 bng 15 250 50 0 empty empty empty 17 7 0 10 -262144
-1 -1;
#X obj 810 224 bng 15 250 50 0 empty empty empty 17 7 0 10 -262144
-1 -1;
#X obj 802 380 bng 15 250 50 0 empty empty empty 17 7 0 10 -262144
-1 -1;
#X obj 1205 342 bng 15 250 50 0 empty empty empty 17 7 0 10 -262144
-1 -1;
#N canvas 0 463 520 391 loop_snapshot_lenght_sampleSize-play_phase
0;
#X msg 93 289 0;
#X obj 93 245 spigot;
#X obj 207 250 == 0;
#X obj 93 267 spigot 1;
#X obj 93 221 >= 0.99;
#X obj 171 127 expr if($f1 < 10000 \, 0.99 \, 0.999);
#X obj 132 197 *;
#X obj 171 149 t b f;
#X floatatom 132 175 5 0 0 0 - - -, f 5;
#X text 232 76 safe ceiling \; not all values will be reached;
#X obj 41 47 inlet;
#X obj 93 47 inlet;
#X obj 132 47 inlet;
#X obj 171 47 inlet;
#X obj 93 324 outlet;
#X text 161 317 reset phasorPhase?;
#X text 35 6 loop on/off / snapshot / end (%) / sampleSize;
#X obj 45 293 bng 15 250 50 0 empty empty empty 17 7 0 10 -262144 -1
-1;
#X floatatom 41 69 5 0 0 0 - - -, f 5;
#X floatatom 93 69 5 0 0 0 - - -, f 5;
#X floatatom 132 69 5 0 0 0 - - -, f 5;
#X floatatom 171 69 5 0 0 0 - - -, f 5;
#X connect 0 0 14 0;
#X connect 1 0 3 0;
#X connect 2 0 3 1;
#X connect 3 0 0 0;
#X connect 3 0 17 0;
#X connect 4 0 1 0;
#X connect 4 0 1 1;
#X connect 5 0 7 0;
#X connect 6 0 4 1;
#X connect 7 0 8 0;
#X connect 7 1 6 1;
#X connect 8 0 6 0;
#X connect 10 0 2 0;
#X connect 10 0 18 0;
#X connect 11 0 4 0;
#X connect 11 0 19 0;
#X connect 12 0 8 0;
#X connect 12 0 20 0;
#X connect 13 0 5 0;
#X connect 13 0 21 0;
#X restore 499 1182 pd loop_snapshot_lenght_sampleSize-play_phase;
#X text -132 262 todo: problem with triggering \; start/end/length
has to be touched first;
#X obj 4 200 utils/transpose_knob;
#X obj 116 200 utils/detune_knob;
#X obj 9 173 hsl 195 20 0 1 0 0 empty empty empty -2 -8 0 10 -99865
-228856 -1 0 1;
#X text 772 765 Nudge time;
#X floatatom 587 -32 5 0 0 0 - - -, f 5;
#X floatatom 587 12 5 0 0 0 - - -, f 5;
#X floatatom 586 54 5 0 0 0 - - -, f 5;
#X floatatom 226 185 5 0 0 0 - - -, f 5;
#X floatatom -118 189 5 0 0 0 - - -, f 5;
#X obj -116 219 bng 15 250 50 0 empty empty empty 17 7 0 10 -262144
-1 -1;
#X obj 445 -54 loadbang;
#X obj 445 -32 f \$1;
#X floatatom 445 -10 5 0 0 0 - - -, f 5;
#X obj 1027 502 r reload-\$1;
#X obj 513 -55 loadbang;
#X floatatom 513 -11 5 0 0 0 - - -, f 5;
#X obj 513 -33 f \$0;
#X text 211 -102 \$1 will we defined externally \, thus can be used
to acces internal params;
#X obj 222 159 r sampler-pitch-\$1;
#N canvas 489 297 726 398 reload-start_lenght_end_length 0;
#X obj 106 183 hsl 127 30 0 1 0 0 empty empty End -2 -8 0 10 -233017
-1 -1 0 1;
#X obj 28 279 -;
#X obj 107 133 hsl 127 30 0 1 0 0 empty empty Start -2 -8 0 10 -233017
-1 -1 0 1;
#X obj 245 133 hsl 127 30 0.01 1 1 0 empty empty Length -2 -8 0 10
-233017 -1 -1 0 1;
#X obj 242 191 +;
#X obj 242 168 t b f;
#X msg 272 258 color \$1;
#X text 284 224 end slider should not be touched;
#X msg 32 95 0;
#X msg 62 95 1;
#X obj 103 228 expr if($f1 > 1 \, 1 \, $f1) \; if($f1 > 1 \, 3 \, 10)
;
#X obj 28 235 t b f;
#X floatatom 28 258 5 0 0 0 - - -, f 5;
#X text 159 63 length slider = weird \; because realtime pitch shift
is not yet enabled;
#X obj 32 73 inlet;
#X obj 71 345 outlet;
#X obj 129 346 outlet;
#X obj 194 348 outlet;
#X text 57 371 reload-start_lenght_end_length;
#X text 27 51 on reload;
#X obj 28 301 expr if($f1 <= 0 \, 0.0001 \, $f1);
#X obj 332 312 expr if($f1 <= 0 \, 0.0001 \, $f1);
#X text 261 169 red means that \; the loop has been \; cut off;
#X obj 109 43 utils/ramp_generator;
#N canvas 0 23 450 300 length 0;
#X obj 111 47 inlet;
#X obj 111 69 moses 0.99;
#X obj 150 205 outlet;
#X obj 111 91 moses 0.5;
#X text 216 166 if < 0.5 \; use range [0 \, 0.9] \; else \; range [0.9
\, 1];
#X obj 111 113 expr $f1 * 1.8;
#X text 218 114 0.9/0.5 = 1.8;
#X obj 177 145 expr ($f1 * 0.1) + 0.9;
#X connect 0 0 1 0;
#X connect 1 0 3 0;
#X connect 1 1 2 0;
#X connect 3 0 5 0;
#X connect 3 1 7 0;
#X connect 5 0 2 0;
#X connect 7 0 2 0;
#X restore 326 51 pd length;
#X floatatom 474 119 5 0 0 0 - - -, f 5;
#X obj 502 48 bng 15 250 50 0 empty empty empty 17 7 0 10 -262144 -1
-1;
#X obj 120 73 bng 15 250 50 0 empty empty empty 17 7 0 10 -262144 -1
-1;
#X obj 30 157 bng 15 250 50 0 empty empty empty 17 7 0 10 -262144 -1
-1;
#X obj 326 29 r length-\$0;
#X obj 109 21 r pos-\$0;
#X connect 0 0 10 0;
#X connect 1 0 20 0;
#X connect 2 0 4 0;
#X connect 2 0 11 0;
#X connect 2 0 15 0;
#X connect 2 0 28 0;
#X connect 3 0 5 0;
#X connect 4 0 0 0;
#X connect 5 0 4 0;
#X connect 5 1 4 1;
#X connect 6 0 0 0;
#X connect 8 0 2 0;
#X connect 9 0 3 0;
#X connect 10 0 12 0;
#X connect 10 0 17 0;
#X connect 10 1 6 0;
#X connect 11 0 12 0;
#X connect 11 1 1 1;
#X connect 12 0 1 0;
#X connect 14 0 8 0;
#X connect 14 0 9 0;
#X connect 20 0 16 0;
#X connect 23 0 27 0;
#X connect 23 0 2 0;
#X connect 24 0 3 0;
#X connect 24 0 25 0;
#X connect 29 0 24 0;
#X connect 29 0 26 0;
#X connect 30 0 23 0;
#X coords 0 -1 1 1 300 120 1 100 100;
#X restore 765 808 pd reload-start_lenght_end_length \$1;
#X text 567 1089 TODO end t % dependend on samplesize and pitch;
#X obj -94 1026 tabread4~ sampl1R-\$0;
#X obj -117 1051 tabread4~ sampl1L-\$0;
#X obj 1182 3 table sampl1L-\$0;
#X obj 1182 23 table sampl1R-\$0;
#X msg 868 646 \; arRL-\$1 xticks 0 \$2 5 \; arRL-\$1 yticks 0 0.2
2 \; arRL-\$1 xlabel 0 \$3 \;;
#X obj 868 624 pack f f f;
#X obj 862 589 f \$0;
#X obj 860 568 bang;
#X msg 1066 640 \; arRL-\$1 xticks 0 \$2 10 \; arRL-\$1 yticks 0 0.2
2;
#X obj 1070 617 f \$0;
#X msg 1083 711 \; arRL-\$1 rename arRL2-\$1;
#X msg 323 628 read -resize \$1 arRL-\$2;
#X obj 381 582 f \$0;
#X obj 1044 526 f \$0;
#X text 114 648 creation arg:\$0 \; send pid to child;
#X msg 1068 548 \; sampl1L-\$1 normalize;
#X msg 1067 580 \; sampl1R-\$1 normalize;
#X obj 944 495 bng 15 250 50 0 empty empty empty 17 7 0 10 -262144
-1 -1;
#X floatatom 819 515 5 0 0 0 - - -, f 5;
#X floatatom -92 764 5 0 0 0 - - -, f 5;
#X floatatom 17 771 9 0 0 0 - - -, f 9;
#X floatatom 118 767 5 0 0 0 - - -, f 5;
#X obj 185 690 loadbang;
#X obj 185 712 f \$0;
#N canvas 222 410 683 494 read_length-defRate_sampleSize_reload 0;
#X text 153 138 soundfiler -> samplesize;
#X obj 284 158 bng 15 250 50 0 empty empty empty 17 7 0 10 -262144
-1 -1;
#X obj 16 38 inlet;
#X obj 284 208 outlet;
#X text 194 285 "change rate when sample lenght changes";
#X text 90 301 real default rate;
#X text 85 206 regular default rate;
#X obj 68 323 expr 1 / $f1;
#X obj 83 226 expr 44100 / $f1;
#X obj 68 438 outlet;
#X obj 68 38 inlet;
#X text 124 39 read / length (% of sample used);
#X obj 239 208 outlet;
#X obj 68 258 expr if($f1 <= 0 \, 0.0001 \, $f1);
#X floatatom 26 262 5 0 0 0 - - -, f 5;
#X floatatom 25 310 5 0 0 0 - - -, f 5;
#X obj 68 410 *;
#X msg 163 354 set 1 1;
#X obj 68 386 cyclone/bondo;
#X obj 163 331 loadbang;
#X obj 14 82 print;
#X obj 28 141 soundfiler_;
#X msg 28 119 read -resize \$1 sampl1L-\$2 sampl1R-\$2;
#X floatatom 191 92 5 0 0 0 - - -, f 5;
#X obj 403 37 inlet;
#X obj 163 69 f;
#X obj 118 91 pack s f;
#X obj 116 62 bang;
#X connect 1 0 3 0;
#X connect 2 0 20 0;
#X connect 2 0 27 0;
#X connect 2 0 26 0;
#X connect 7 0 18 0;
#X connect 8 0 14 0;
#X connect 8 0 18 1;
#X connect 10 0 13 0;
#X connect 13 0 7 0;
#X connect 13 0 15 0;
#X connect 16 0 9 0;
#X connect 17 0 18 0;
#X connect 18 0 16 0;
#X connect 18 1 16 1;
#X connect 19 0 17 0;
#X connect 21 0 1 0;
#X connect 21 0 8 0;
#X connect 21 0 12 0;
#X connect 22 0 21 0;
#X connect 24 0 25 0;
#X connect 25 0 23 0;
#X connect 25 0 26 1;
#X connect 26 0 22 0;
#X connect 27 0 25 0;
#X restore -113 719 pd read_length-defRate_sampleSize_reload;
#X floatatom 420 597 5 0 0 0 - - -, f 5;
#X obj 336 604 pack s f;
#X obj 328 581 t s b;
#X floatatom -144 987 5 0 0 0 - - -, f 5;
#X obj 6 37 bng 30 250 50 0 empty empty Hit 35 7 0 10 -204786 -1 -1
;
#X obj 6 73 bng 30 250 50 0 empty empty Stop 35 7 0 10 -261234 -1 -1
;
#X obj 499 1141 tgl 30 0 empty empty Loop_on/off 35 7 0 10 -203904
-1 -1 0 1;
#X obj 100 37 tgl 30 0 empty empty Loop 35 7 0 10 -203904 -1 -1 0 1
;
#X obj 99 73 tgl 30 0 empty empty Rev 35 7 0 10 -204800 -1 -1 0 1;
#X obj 847 312 r stop-\$0;
#X obj 327 555 r load-\$0;
#X obj -108 696 r load-\$0;
#X obj -124 519 symbol;
#X text 326 533 display waveform;
#N canvas 492 356 450 300 stop 0;
#X obj 50 51 inlet;
#X obj 47 79 s stop-\$0;
#X connect 0 0 1 0;
#X restore -62 83 pd stop;
#N canvas 377 390 450 300 rev 0;
#X obj 50 51 inlet;
#X obj 188 226 outlet;
#X obj 148 138 == 0;
#X obj 149 116 f 1;
#X obj 43 180 s reverse-\$0;
#X obj 194 66 r reverse-\$0;
#X obj 79 221 s hit-\$0;
#X obj 151 181 bng 15 250 50 0 empty empty empty 17 7 0 10 -262144
-1 -1;
#X connect 0 0 3 0;
#X connect 2 0 4 0;
#X connect 2 0 7 0;
#X connect 3 0 2 0;
#X connect 5 0 1 0;
#X connect 5 0 3 1;
#X connect 7 0 6 0;
#X restore 219 110 pd rev;
#N canvas 377 390 450 300 loop 0;
#X obj 50 41 inlet;
#X obj 188 216 outlet;
#X obj 148 128 == 0;
#X obj 149 106 f 1;
#X obj 194 70 r loop-\$0;
#X obj 31 205 s loop-\$0;
#X connect 0 0 3 0;
#X connect 2 0 5 0;
#X connect 3 0 2 0;
#X connect 4 0 3 1;
#X connect 4 0 1 0;
#X restore 55 -24 pd loop;
#N canvas 377 390 450 300 hit 0;
#X obj 50 51 inlet;
#X msg 50 73 0;
#X obj 72 101 s hit-\$0;
#X connect 0 0 1 0;
#X connect 1 0 2 0;
#X restore -55 38 pd hit;
#X msg 853 156 0;
#X obj 762 344 bng 15 250 50 0 empty empty empty 17 7 0 10 -262144
-1 -1;
#X obj 164 73 bng 30 250 50 0 empty empty Reload 35 7 0 10 -261682
-1 -1;
#X obj -124 540 s load-\$0;
#X msg -124 451 symbol ../samples/\$1.wav;
#X obj -87 399 loadbang;
#X obj -87 421 f \$1;
#X obj -124 408 f;
#X obj -124 388 bang;
#X text 210 -120 \$0 is a unique number per subpatch;
#X obj -41 1234 *~ 1;
#X obj -97 1234 *~ 1;
#X floatatom 7 1218 5 0 0 0 - - -, f 5;
#X obj 13 1130 bng 15 250 50 0 empty empty empty 17 7 0 10 -262144
-1 -1;
#X obj 431 887 spigot;
#X obj 487 890 tgl 15 0 empty empty empty 17 7 0 10 -262144 -1 -1 0
1;
#X msg 513 877 1;
#X text 424 955 change behaviour after \; first time use;
#X obj 1079 216 + 0;
#X obj 1087 194 hsl 128 15 0 1 0 0 empty empty Start_pos -2 -8 0 10
-262130 -1 -1 0 0;
#X text 1108 216 (independent of loop pos);
#X obj 68 37 bng 30 250 50 0 empty empty empty 35 7 0 10 -203904 -1
-1;
#X obj 68 73 bng 30 250 50 0 empty empty empty 35 7 0 10 -204800 -1
-1;
#X obj 53 -45 r sampler-loop-\$1;
#X obj 217 90 r sampler-reverse-\$1;
#X obj 345 1116 utils/vu_~;
#X obj 143 1169 env~;
#X floatatom 143 1191 5 0 0 0 - - -, f 5;
#X obj -119 760 bng 15 250 50 0 empty empty empty 17 7 0 10 -262144
-1 -1;
#X obj -9 769 bng 15 250 50 0 empty empty empty 17 7 0 10 -262144 -1
-1;
#X obj 175 768 bng 15 250 50 0 empty empty empty 17 7 0 10 -262144
-1 -1;
#X obj 146 958 r length-\$0;
#X obj 735 816 bng 15 250 50 0 empty empty empty 17 7 0 10 -262144
-1 -1;
#X obj 726 943 bng 15 250 50 0 empty empty empty 17 7 0 10 -262144
-1 -1;
#X obj 887 956 bng 15 250 50 0 empty empty empty 17 7 0 10 -262144
-1 -1;
#X obj 1030 950 bng 15 250 50 0 empty empty empty 17 7 0 10 -262144
-1 -1;
#X obj 911 936 s length-\$0;
#X obj 202 1024 s snapshot-\$0;
#X obj 592 1157 r snapshot-\$0;
#X obj 118 933 r sampleSize-\$0;
#X obj -6 933 r phasorPhase-\$0;
#X obj -92 956 r phasorPlay-\$0;
#X obj -126 930 r currentRate-\$0;
#X obj 213 1001 s positionGraph-\$0;
#X obj 675 1130 r length-\$0;
#X obj 729 1156 r sampleSize-\$0;
#X obj 581 1224 s phasorPhase-\$0;
#X obj 499 1204 s phasorPlay-\$0;
#X obj 907 150 r currentRate-\$0;
#X obj 1060 150 r phasorStart-\$0;
#X obj 1043 53 r currentRate-\$0;
#X obj 950 99 s phasorPlay-\$0;
#X obj 950 14 s phasorPlay-\$0;
#X obj 846 230 s phasorPlay-\$0;
#X obj 958 219 s currentRate-\$0;
#X obj 1052 239 s phasorPhase-\$0;
#X obj 342 316 s currentRate-\$0;
#X obj 372 273 r phasorPlay-\$0;
#X obj 178 376 s newRate-\$0;
#X obj 20 694 r length-\$0;
#X obj 5 741 s sampleSize-\$0;
#X obj -113 741 s defaultRate-\$0;
#X obj 968 170 r newRate-\$0;
#X obj 923 314 r phasorPlay-\$0;
#X obj 1040 313 r currentRate-\$0;
#X obj 1137 361 s phasorPhase-\$0;
#X obj 1167 313 r phasorStart-\$0;
#X obj 862 286 r sampler-stop-\$0;
#X obj 846 360 s phasorPlay-\$0;
#X obj 586 32 r currentRate-\$0;
#X obj 587 -10 r newRate-\$0;
#X obj 587 -54 r defaultRate-\$0;
#X obj 819 493 r sampleSize-\$0;
#X obj 902 569 r sampleSize-\$0;
#X obj -139 131 r positionGraph-\$0;
#X text -57 -75 API construction;
#X obj 431 117 r sampler-pos-\$1;
#X obj 429 161 r sampler-length-\$1;
#X obj 429 183 s length-\$0;
#X obj 431 139 s pos-\$0;
#X obj -123 19 r sampler-hit-\$1;
#X obj -131 61 r sampler-stop-\$1;
#X obj 849 130 r hit-\$0;
#X obj 217 32 r sampler-reload-\$1;
#X obj -40 1077 r reload-\$0;
#X obj 284 251 r defaultRate-\$0;
#X obj 491 1117 r loop-\$0;
#X obj 765 935 s loop-start-\$0;
#X obj 32 957 r loop-start-\$0;
#X obj 1183 148 r start-\$0;
#X msg 1183 170 set \$1;
#N canvas 0 23 450 300 reverse 0;
#X obj 44 85 inlet;
#X obj 183 89 inlet;
#X obj 64 222 outlet;
#X obj 64 200 expr if($f2 == 0 \, $f1 \, -$f1);
#X obj 100 171 f 0;
#X obj 130 171 f 0;
#X obj 183 111 t b f;
#X obj 44 107 t f b;
#X floatatom 204 155 5 0 0 0 - - -, f 5;
#X floatatom 34 158 5 0 0 0 - - -, f 5;
#X connect 0 0 7 0;
#X connect 1 0 6 0;
#X connect 3 0 2 0;
#X connect 4 0 3 0;
#X connect 5 0 3 1;
#X connect 6 0 4 0;
#X connect 6 1 5 0;
#X connect 6 1 8 0;
#X connect 7 0 4 0;
#X connect 7 0 9 0;
#X connect 7 1 5 0;
#X restore 177 349 pd reverse;
#X obj 186 322 r reverse-\$0;
#X floatatom 185 410 5 0 0 0 - - -, f 5;
#X obj 431 910 delay 3 1 msec;
#X obj 431 932 s hit-\$0;
#X obj 513 855 r hit-\$0;
#X obj 12 404 bng 15 250 50 0 empty empty empty 17 7 0 10 -262144 -1
-1;
#X obj -118 167 r reload-post\$0;
#X obj 758 784 r reload-post-\$0;
#X obj 121 742 s reset-\$0;
#X obj 218 52 s reload-\$0;
#X obj -124 367 r reload-\$0;
#X obj 431 864 r reset-\$0;
#X obj 1058 936 s end-\$0;
#X connect 0 0 12 0;
#X connect 3 0 160 0;
#X connect 4 0 3 0;
#X connect 11 0 118 1;
#X connect 11 0 119 1;
#X connect 11 0 120 0;
#X connect 12 0 89 0;
#X connect 14 0 102 0;
#X connect 15 0 102 0;
#X connect 16 0 70 2;
#X connect 18 0 19 0;
#X connect 19 0 159 0;
#X connect 20 0 32 0;
#X connect 20 0 199 0;
#X connect 20 1 164 0;
#X connect 21 0 22 0;
#X connect 22 0 39 0;
#X connect 22 0 161 0;
#X connect 22 1 39 0;
#X connect 22 1 162 0;
#X connect 22 2 39 0;
#X connect 22 2 126 0;
#X connect 23 0 11 0;
#X connect 24 0 40 0;
#X connect 24 0 176 0;
#X connect 24 1 41 0;
#X connect 24 1 173 0;
#X connect 25 0 24 0;
#X connect 30 0 70 1;
#X connect 30 0 72 0;
#X connect 32 0 37 0;
#X connect 33 0 38 0;
#X connect 36 0 66 0;
#X connect 36 0 65 0;
#X connect 36 0 133 0;
#X connect 36 0 134 0;
#X connect 36 1 26 0;
#X connect 36 1 145 0;
#X connect 36 1 151 0;
#X connect 42 0 35 0;
#X connect 42 0 154 0;
#X connect 42 0 155 0;
#X connect 44 0 20 0;
#X connect 45 0 20 1;
#X connect 54 0 55 0;
#X connect 55 0 56 0;
#X connect 57 0 78 0;
#X connect 58 0 60 0;
#X connect 60 0 59 0;
#X connect 62 0 51 0;
#X connect 62 0 45 0;
#X connect 63 0 141 0;
#X connect 63 0 195 0;
#X connect 63 1 142 0;
#X connect 63 1 144 0;
#X connect 63 2 143 0;
#X connect 63 2 212 0;
#X connect 65 0 118 0;
#X connect 66 0 119 0;
#X connect 70 0 69 0;
#X connect 71 0 70 0;
#X connect 72 0 71 0;
#X connect 76 0 29 0;
#X connect 77 0 90 0;
#X connect 77 0 91 1;
#X connect 78 0 80 0;
#X connect 78 0 81 0;
#X connect 87 0 88 0;
#X connect 88 0 89 2;
#X connect 89 0 84 0;
#X connect 89 0 136 0;
#X connect 89 0 169 0;
#X connect 89 1 85 0;
#X connect 89 1 137 0;
#X connect 89 1 168 0;
#X connect 89 2 86 0;
#X connect 89 2 138 0;
#X connect 89 2 208 0;
#X connect 91 0 76 0;
#X connect 92 0 91 0;
#X connect 92 1 77 0;
#X connect 94 0 107 0;
#X connect 95 0 104 0;
#X connect 96 0 42 0;
#X connect 99 0 24 0;
#X connect 100 0 92 0;
#X connect 101 0 89 0;
#X connect 102 0 111 0;
#X connect 105 0 98 0;
#X connect 106 0 97 0;
#X connect 108 0 22 0;
#X connect 110 0 209 0;
#X connect 112 0 102 0;
#X connect 113 0 114 0;
#X connect 114 0 115 0;
#X connect 115 0 112 0;
#X connect 116 0 115 0;
#X connect 118 0 10 0;
#X connect 119 0 9 0;
#X connect 121 0 23 0;
#X connect 122 0 202 0;
#X connect 123 0 122 1;
#X connect 124 0 123 0;
#X connect 126 0 163 0;
#X connect 127 0 126 1;
#X connect 129 0 106 0;
#X connect 130 0 105 0;
#X connect 131 0 106 0;
#X connect 132 0 105 0;
#X connect 134 0 135 0;
#X connect 139 0 36 3;
#X connect 146 0 42 1;
#X connect 147 0 36 4;
#X connect 148 0 36 1;
#X connect 149 0 36 0;
#X connect 149 0 93 0;
#X connect 150 0 36 0;
#X connect 152 0 42 2;
#X connect 153 0 42 3;
#X connect 156 0 22 1;
#X connect 157 0 22 3;
#X connect 158 0 19 1;
#X connect 165 0 20 3;
#X connect 167 0 89 1;
#X connect 170 0 22 2;
#X connect 171 0 24 1;
#X connect 172 0 24 2;
#X connect 174 0 24 3;
#X connect 175 0 24 0;
#X connect 175 0 109 0;
#X connect 177 0 50 0;
#X connect 178 0 49 0;
#X connect 179 0 48 0;
#X connect 180 0 83 0;
#X connect 181 0 16 0;
#X connect 181 0 30 0;
#X connect 182 0 46 0;
#X connect 184 0 187 0;
#X connect 185 0 186 0;
#X connect 188 0 107 0;
#X connect 189 0 104 0;
#X connect 190 0 108 0;
#X connect 191 0 209 0;
#X connect 192 0 23 0;
#X connect 193 0 20 2;
#X connect 193 0 33 0;
#X connect 194 0 96 0;
#X connect 196 0 36 2;
#X connect 197 0 198 0;
#X connect 198 0 127 0;
#X connect 199 0 166 0;
#X connect 200 0 199 1;
#X connect 200 0 201 0;
#X connect 202 0 203 0;
#X connect 204 0 124 0;
#X connect 205 0 114 0;
#X connect 206 0 44 0;
#X connect 206 0 52 0;
#X connect 206 0 53 0;
#X connect 206 0 45 1;
#X connect 207 0 63 0;
#X connect 207 0 140 0;
#X connect 210 0 116 0;
#X connect 211 0 122 0;
#X coords 0 -1 1 1 210 250 1 0 0;
