#N canvas 485 122 955 848 10;
#X obj -80 574 bng 30 250 50 0 empty empty Browse 35 7 0 10 -260097
-1 -1;
#X obj -99 959 r phasorPlay;
#X obj -1 959 r phasorPhase;
#N canvas 0 50 450 278 (subpatch) 0;
#X array arStart 1 float 2;
#X coords 0 1 1 -1 80 60 1 0 0;
#X restore 135 330 graph;
#N canvas 0 50 450 278 (subpatch) 0;
#X array arEnd 1 float 2;
#X coords 0 1 1 -1 80 60 1 0 0;
#X restore 225 330 graph;
#X msg 1032 218 0;
#X obj 1032 240 s phasorPlay;
#X obj 1032 183 bng 30 250 50 0 empty empty Pause 35 7 0 10 -262130
-1 -1;
#X text 343 1300 comment;
#X text -63 1321 comment;
#X text 754 1301 comment;
#X obj 515 608 r currentRate;
#X obj 640 591 tgl 30 0 empty empty Reverse 35 7 0 10 -204800 -1 -1
0 1;
#X obj 581 647 spigot;
#X obj 548 647 == 0;
#X obj 581 669 * -1;
#X obj 640 626 bng 15 250 50 0 empty empty empty 17 7 0 10 -262144
-1 -1;
#X obj 640 646 s reload;
#X text 260 397 when reverse is on \; the loop structure prevents the
\; thing form playing;
#X obj 515 669 spigot 1;
#X obj -64 127 r reload;
#X obj -52 1020 r reload;
#X text 8 1021 prevent clicks ?...;
#X obj -103 356 inlet;
#X obj 8 571 table sampl1L;
#X obj 8 591 table sampl1R;
#X obj -99 1195 outlet~;
#X obj -41 1195 outlet~;
#X obj -99 1167 *~;
#X obj -41 1167 *~;
#X obj -52 1072 vsl 30 79 0.01 1 1 0 empty empty empty 0 -9 0 10 -66577
-1 -1 5622 1;
#X text -88 415 outlets \; ~L / ~R;
#X obj -63 356 inlet;
#X obj -80 610 openpanel;
#X obj -23 356 inlet;
#X text -106 309 inlets \; browser / hit / stop, f 23;
#N canvas 0 23 450 278 (subpatch) 0;
#X array arRL 107514 float 2;
#X coords 0 1 107514 -1 200 50 1 0 0;
#X restore 6 39 graph;
#X obj 216 565 symbol;
#X msg 216 544 symbol samples/Comfast_kick.wav;
#X msg 216 524 symbol samples/Foals-Miami.wav;
#X msg 958 716 \; arRL rename arRL2;
#X msg 959 752 \; arRL2 rename arRL;
#X obj 743 585 r sampleSize;
#X obj 793 607 / 44100;
#X obj 743 629 pack f f;
#X msg 941 640 \; arRL xticks 0 \$1 10 \; arRL yticks 0 0.2 2;
#X text 870 709 in s;
#X msg 943 553 \; sampl1L normalize;
#X msg 943 585 \; sampl1R normalize;
#X obj 926 531 r reload;
#X obj 332 174 r defaultRate;
#X obj 420 196 r phasorPlay;
#X obj 207 241 s newRate;
#X obj 390 239 s currentRate;
#X obj 1032 325 s phasorPlay;
#X obj 1125 279 r currentRate;
#X obj 1032 264 tgl 30 0 empty empty Pause 35 7 0 10 -262130 -1 -1
0 1;
#N canvas 96 257 450 300 pause_curRate 0;
#X obj 65 66 change;
#X obj 65 89 sel 1;
#X obj 65 112 bng 15 250 50 0 empty empty empty 17 7 0 10 -262144 -1
-1;
#X obj 92 112 bng 15 250 50 0 empty empty empty 17 7 0 10 -262144 -1
-1;
#X msg 65 132 0;
#X obj 96 132 f;
#X obj 49 22 inlet;
#X obj 137 26 inlet;
#X obj 65 163 outlet;
#X connect 0 0 1 0;
#X connect 1 0 2 0;
#X connect 1 1 3 0;
#X connect 2 0 4 0;
#X connect 3 0 5 0;
#X connect 4 0 8 0;
#X connect 5 0 8 0;
#X connect 6 0 0 0;
#X connect 7 0 5 1;
#X restore 1032 302 pd pause_curRate;
#N canvas 21 334 709 541 trans_detune_defRate_phaPlay 0;
#X obj 51 60 cyclone/bondo 3;
#X obj 51 87 expr pow(2 \, ($f1 / 12)) * (1 + ($f2 / 1200)) * $f3;
#X text 121 153 Transpose \; +1 oct = +12 = 2*f \; (2 * x / 12) * f
\; \; +24 -> f * 4 \; +12 -> f x 2 \; +0 -> f x 1;
#X obj 355 137 spigot;
#X obj 355 159 change;
#X obj 355 203 line;
#X obj 51 25 inlet;
#X obj 94 25 inlet;
#X obj 138 25 inlet;
#X obj 430 32 inlet;
#X obj 47 257 outlet;
#X obj 355 226 outlet;
#X msg 355 182 \$1 100;
#X text 401 211 (the slomotion break when stopping);
#X text 407 183 realtime pitch shifting;
#X connect 0 0 1 0;
#X connect 0 1 1 1;
#X connect 0 2 1 2;
#X connect 1 0 10 0;
#X connect 1 0 3 0;
#X connect 3 0 4 0;
#X connect 4 0 12 0;
#X connect 5 0 11 0;
#X connect 6 0 0 0;
#X connect 7 0 0 1;
#X connect 8 0 0 2;
#X connect 9 0 3 1;
#X connect 12 0 5 0;
#X restore 207 217 pd trans_detune_defRate_phaPlay;
#X obj 571 223 bng 30 250 50 0 empty empty Hit 35 7 0 10 -204786 -1
-1;
#N canvas 135 186 603 424 hit_curRate_newRate_phaStart 0;
#X obj 135 253 f;
#X obj 135 165 expr pow(2 \, ($f1 / 12)) * $f2;
#X text 299 73 oneshots --> disgard note off;
#X obj 135 208 bng 15 250 50 0 empty empty empty 17 7 0 10 -262144
-1 -1;
#X obj 242 223 f;
#X obj 196 43 inlet;
#X obj 168 354 outlet;
#X obj 218 354 outlet;
#X obj 150 43 inlet;
#X obj 268 354 outlet;
#X obj 104 43 inlet;
#X obj 104 148 f;
#X msg 119 125 0;
#X obj 119 102 loadbang;
#X text 384 333 phasorPlay currentRate phasorPhase;
#X text 275 223 f 0 = loadbang/default?;
#X text 153 20 hit currentRate newRate phasorStart;
#X obj 262 43 inlet;
#X connect 0 0 6 0;
#X connect 1 0 3 0;
#X connect 1 0 7 0;
#X connect 3 0 0 0;
#X connect 3 0 4 0;
#X connect 4 0 9 0;
#X connect 5 0 1 1;
#X connect 8 0 0 1;
#X connect 10 0 11 0;
#X connect 11 0 1 0;
#X connect 12 0 11 1;
#X connect 13 0 12 0;
#X connect 17 0 4 1;
#X restore 571 259 pd hit_curRate_newRate_phaStart;
#X obj 693 234 r newRate;
#X obj 662 283 s currentRate;
#X obj 632 214 r currentRate;
#X obj 571 284 s phasorPlay;
#X obj 754 282 s phasorPhase;
#X obj 754 234 r phasorStart;
#N canvas 163 364 450 300 reload_anti_volume 0;
#X obj 141 72 loadbang;
#X msg 77 146 0;
#X obj 171 215 f;
#X text 130 45 prevent clicks ?...;
#X msg 116 143 set 0;
#X obj 171 193 line 0;
#X obj 68 58 inlet;
#X obj 184 245 outlet;
#X obj 171 142 delay 1;
#X msg 171 171 0.7 30;
#X connect 0 0 1 0;
#X connect 0 0 4 0;
#X connect 0 0 8 0;
#X connect 1 0 2 0;
#X connect 2 0 7 0;
#X connect 4 0 5 0;
#X connect 5 0 2 0;
#X connect 6 0 1 0;
#X connect 6 0 4 0;
#X connect 6 0 8 0;
#X connect 8 0 9 0;
#X connect 9 0 5 0;
#X restore -52 1043 pd reload_anti_volume;
#N canvas 0 22 593 598 stop_phaPlay_curRate_phaStart-phaPlay_phaPhase
0;
#X text 112 391 phaPlay_phaPhase;
#X text 97 62 stop_phaPlay_curRate_phaStart;
#X obj 120 103 inlet;
#X obj 158 103 inlet;
#X obj 199 103 inlet;
#X obj 274 103 inlet;
#X obj 116 366 outlet;
#X obj 166 366 outlet;
#X obj 171 323 line;
#X obj 259 303 f;
#X msg 199 299 set \$1;
#X obj 120 232 moses 0.1;
#X obj 158 193 > 0;
#X obj 120 210 f 1;
#X obj 171 254 bng 15 250 50 0 empty empty empty 17 7 0 10 -262144
-1 -1;
#X msg 120 253 0;
#X msg 171 276 0 200;
#X obj 259 269 delay 200;
#X connect 2 0 13 0;
#X connect 3 0 12 0;
#X connect 4 0 10 0;
#X connect 5 0 9 1;
#X connect 8 0 6 0;
#X connect 9 0 7 0;
#X connect 10 0 8 0;
#X connect 11 0 15 0;
#X connect 11 1 14 0;
#X connect 12 0 13 1;
#X connect 13 0 11 0;
#X connect 14 0 16 0;
#X connect 14 0 17 0;
#X connect 15 0 6 0;
#X connect 16 0 8 0;
#X connect 17 0 9 0;
#X restore 569 360 pd stop_phaPlay_curRate_phaStart-phaPlay_phaPhase
;
#X obj 569 322 bng 30 250 50 0 empty empty Stop 35 7 0 10 -261682 -1
-1;
#X obj 666 337 r phasorPlay;
#X obj 763 336 r currentRate;
#X obj 860 336 r phasorStart;
#X obj 569 383 s phasorPlay;
#X obj 860 384 s phasorPhase;
#X obj 247 951 hsl 127 30 0 1 0 0 empty empty Position -2 -8 0 10 -262144
-1 -1 5774 1;
#X obj 235 1019 tgl 30 0 empty empty Loop_on/off 35 7 0 10 -203904
-1 -1 1 1;
#X text -38 -84 comment;
#X text -149 -34 comment;
#X obj 287 617 soundfiler;
#X msg 287 595 read -resize \$1 arRL;
#X obj 743 607 / 20;
#X text 302 636 todo: sum(R \, L) / 2 ipv alleen L;
#X obj 38 821 s sampleSize;
#N canvas 490 297 726 398 reload-start_lenght_end_length 0;
#X obj 106 183 hsl 127 30 0 1 0 0 empty empty End -2 -8 0 10 -233017
-1 -1 12600 1;
#X obj 28 279 -;
#X obj 107 133 hsl 127 30 0 1 0 0 empty empty Start -2 -8 0 10 -233017
-1 -1 0 1;
#X obj 245 133 hsl 127 30 0.01 1 1 0 empty empty Length -2 -8 0 10
-233017 -1 -1 12600 1;
#X obj 242 191 +;
#X obj 242 168 t b f;
#X msg 272 258 color \$1;
#X text 284 224 end slider should not be touched;
#X msg 32 95 0;
#X msg 62 95 1;
#X obj 103 228 expr if($f1 > 1 \, 1 \, $f1) \; if($f1 > 1 \, 3 \, 10)
;
#X obj 28 235 t b f;
#X floatatom 28 258 5 0 0 0 - - -, f 5;
#X text 159 63 length slider = weird \; because realtime pitch shift
is not yet enabled;
#X obj 32 73 inlet;
#X obj 71 345 outlet;
#X obj 129 346 outlet;
#X obj 194 348 outlet;
#X text 57 371 reload-start_lenght_end_length;
#X text 27 51 on reload;
#X obj 28 301 expr if($f1 <= 0 \, 0.0001 \, $f1);
#X obj 332 312 expr if($f1 <= 0 \, 0.0001 \, $f1);
#X text 261 169 red means that \; the loop has been \; cut off;
#X obj 109 21 r sampler-pos;
#X obj 109 43 utils/ramp_generator;
#X obj 326 29 r sampler-length;
#N canvas 0 23 450 300 length 0;
#X obj 111 47 inlet;
#X obj 111 69 moses 0.99;
#X obj 150 205 outlet;
#X obj 111 91 moses 0.5;
#X text 216 166 if < 0.5 \; use range [0 \, 0.9] \; else \; range [0.9
\, 1];
#X obj 111 113 expr $f1 * 1.8;
#X text 218 114 0.9/0.5 = 1.8;
#X obj 177 145 expr ($f1 * 0.1) + 0.9;
#X connect 0 0 1 0;
#X connect 1 0 3 0;
#X connect 1 1 2 0;
#X connect 3 0 5 0;
#X connect 3 1 7 0;
#X connect 5 0 2 0;
#X connect 7 0 2 0;
#X restore 326 51 pd length;
#X floatatom 474 119 5 0 0 0 - - -, f 5;
#X connect 0 0 10 0;
#X connect 1 0 20 0;
#X connect 2 0 4 0;
#X connect 2 0 11 0;
#X connect 2 0 15 0;
#X connect 3 0 5 0;
#X connect 4 0 0 0;
#X connect 5 0 4 0;
#X connect 5 1 4 1;
#X connect 6 0 0 0;
#X connect 8 0 2 0;
#X connect 9 0 3 0;
#X connect 10 0 12 0;
#X connect 10 0 17 0;
#X connect 10 1 6 0;
#X connect 11 0 12 0;
#X connect 11 1 1 1;
#X connect 12 0 1 0;
#X connect 14 0 8 0;
#X connect 14 0 9 0;
#X connect 20 0 16 0;
#X connect 23 0 24 0;
#X connect 24 0 2 0;
#X connect 25 0 26 0;
#X connect 26 0 3 0;
#X connect 26 0 27 0;
#X coords 0 -1 1 1 300 120 1 100 100;
#X restore 241 760 pd reload-start_lenght_end_length;
#X obj 241 886 s start;
#X obj 534 888 s end;
#X obj 387 888 s length;
#X floatatom 172 268 5 0 0 0 - - -, f 5;
#X floatatom 341 258 5 0 0 0 - - -, f 5;
#N canvas 53 381 683 494 read_length-defRate_sampleSize_reload 0;
#X text 141 85 soundfiler -> samplesize;
#X msg 16 66 read -resize \$1 sampl1L sampl1R;
#X obj 272 105 bng 15 250 50 0 empty empty empty 17 7 0 10 -262144
-1 -1;
#X obj 16 25 inlet;
#X obj 272 155 outlet;
#X text 182 232 "change rate when sample lenght changes";
#X text 78 248 real default rate;
#X text 73 153 regular default rate;
#X obj 56 270 expr 1 / $f1;
#X obj 71 173 expr 44100 / $f1;
#X obj 56 385 outlet;
#X obj 56 25 inlet;
#X text 112 26 read / length (% of sample used);
#X obj 227 155 outlet;
#X obj 56 205 expr if($f1 <= 0 \, 0.0001 \, $f1);
#X floatatom 14 209 5 0 0 0 - - -, f 5;
#X floatatom 13 257 5 0 0 0 - - -, f 5;
#X obj 56 357 *;
#X msg 151 301 set 1 1;
#X obj 56 333 cyclone/bondo;
#X obj 151 278 loadbang;
#X obj 361 112 print;
#X obj 16 88 soundfiler_;
#X connect 1 0 22 0;
#X connect 2 0 4 0;
#X connect 3 0 1 0;
#X connect 3 0 21 0;
#X connect 8 0 19 0;
#X connect 9 0 15 0;
#X connect 9 0 19 1;
#X connect 11 0 14 0;
#X connect 14 0 8 0;
#X connect 14 0 16 0;
#X connect 17 0 10 0;
#X connect 18 0 19 0;
#X connect 19 0 17 0;
#X connect 19 1 17 1;
#X connect 20 0 18 0;
#X connect 22 0 2 0;
#X connect 22 0 9 0;
#X connect 22 0 13 0;
#X restore -80 799 pd read_length-defRate_sampleSize_reload;
#X obj -80 821 s defaultRate;
#X text 588 -51 default rate depends on \; sample size \, samle rate
\; length (end t) \; \; new rate depends on \; pitch shift (transpose)/env
\; \; current rate depends on \; play on/off \, stop;
#X obj 235 1082 s phasorPlay;
#X obj 214 1070 bng 15 250 50 0 empty empty empty 17 7 0 10 -261234
-1 -1;
#N canvas 0 272 840 697 pha1_pha2_start_length_sampleSize_loop- 0;
#X obj 74 -130 phasor~;
#X obj 149 42 *~;
#X obj 149 74 tabread4~ sampl1L;
#X obj 260 74 tabread4~ sampl1R;
#X obj 6 -290 inlet;
#X obj 116 -289 inlet;
#X obj 149 98 outlet~;
#X obj 260 98 outlet~;
#X obj 403 46 metro;
#X obj 403 68 snapshot~;
#X obj 404 97 /;
#X obj 403 24 loadbang;
#X obj 404 129 outlet;
#X text 220 -145 \$1 100: prevent clicking \; (2nd number affects scrubbing
pitch);
#X obj 233 -279 inlet;
#X text 212 -166 scrub starting pos;
#X obj 74 -98 *~;
#X obj 150 -38 +~;
#X obj 173 -114 change;
#X obj 203 -70 line~;
#X text 218 -293 start (left);
#X text 147 123 L / R / snapshot;
#X obj 17 -222 r currentRate;
#X obj 511 -256 r sampleSize;
#X text 32 -372 sampleSize / phasor1in / phasor2in / start / end /
loop;
#X text 116 -306 phasorPhase;
#X text 6 -310 phasor rate/play;
#X obj 119 -237 r phase;
#X obj 233 -250 r start;
#X obj 319 -259 r length;
#X obj 5 -244 r phasorPlay;
#X obj 116 -267 s phase;
#X obj 329 -287 inlet;
#X text 317 -305 length (% of sample used);
#X text 27 -348 phasor1in (rate \, play \, stop) / phasor2in (phase)
/ start / length / loop / sampleSize, f 83;
#X obj 511 -284 inlet;
#X text 625 -277 sampleSize;
#X msg 203 -92 \$1 100;
#X connect 0 0 16 0;
#X connect 1 0 2 0;
#X connect 1 0 3 0;
#X connect 1 0 9 0;
#X connect 2 0 6 0;
#X connect 3 0 7 0;
#X connect 5 0 31 0;
#X connect 8 0 9 0;
#X connect 9 0 10 0;
#X connect 10 0 12 0;
#X connect 11 0 8 0;
#X connect 16 0 17 0;
#X connect 17 0 1 0;
#X connect 18 0 37 0;
#X connect 19 0 17 1;
#X connect 22 0 0 0;
#X connect 23 0 1 1;
#X connect 23 0 10 1;
#X connect 27 0 0 1;
#X connect 28 0 18 0;
#X connect 29 0 16 1;
#X connect 30 0 0 0;
#X connect 37 0 19 0;
#X restore -99 983 pd pha1_pha2_start_length_sampleSize_loop- L_R_snapshot_sampleRate
;
#X obj 172 287 bng 15 250 50 0 empty empty empty 17 7 0 10 -262144
-1 -1;
#X obj 341 277 bng 15 250 50 0 empty empty empty 17 7 0 10 -262144
-1 -1;
#X obj 532 296 bng 15 250 50 0 empty empty empty 17 7 0 10 -262144
-1 -1;
#X obj 525 403 bng 15 250 50 0 empty empty empty 17 7 0 10 -262144
-1 -1;
#X obj 573 425 bng 15 250 50 0 empty empty empty 17 7 0 10 -262144
-1 -1;
#N canvas 0 463 520 391 loop_snapshot_lenght_sampleSize-play_phase
0;
#X msg 93 289 0;
#X obj 93 245 spigot;
#X obj 207 250 == 0;
#X obj 93 267 spigot 1;
#X obj 93 221 >= 0.99;
#X obj 171 127 expr if($f1 < 10000 \, 0.99 \, 0.999);
#X obj 132 197 *;
#X obj 171 149 t b f;
#X floatatom 132 175 5 0 0 0 - - -, f 5;
#X text 232 76 safe ceiling \; not all values will be reached;
#X obj 41 47 inlet;
#X obj 93 47 inlet;
#X obj 132 47 inlet;
#X obj 171 47 inlet;
#X obj 93 324 outlet;
#X text 161 317 reset phasorPhase?;
#X text 35 6 loop on/off / snapshot / end (%) / sampleSize;
#X obj 45 293 bng 15 250 50 0 empty empty empty 17 7 0 10 -262144 -1
-1;
#X floatatom 41 69 5 0 0 0 - - -, f 5;
#X floatatom 93 69 5 0 0 0 - - -, f 5;
#X floatatom 132 69 5 0 0 0 - - -, f 5;
#X floatatom 171 69 5 0 0 0 - - -, f 5;
#X connect 0 0 14 0;
#X connect 1 0 3 0;
#X connect 2 0 3 1;
#X connect 3 0 0 0;
#X connect 3 0 17 0;
#X connect 4 0 1 0;
#X connect 4 0 1 1;
#X connect 5 0 7 0;
#X connect 6 0 4 1;
#X connect 7 0 8 0;
#X connect 7 1 6 1;
#X connect 8 0 6 0;
#X connect 10 0 2 0;
#X connect 10 0 18 0;
#X connect 11 0 4 0;
#X connect 11 0 19 0;
#X connect 12 0 8 0;
#X connect 12 0 20 0;
#X connect 13 0 5 0;
#X connect 13 0 21 0;
#X restore 235 1060 pd loop_snapshot_lenght_sampleSize-play_phase;
#X obj 317 1082 s phasorPhase;
#X text -127 257 todo: problem with triggering \; start/end/length
has to be touched first;
#X obj 38 841 r sampleSize;
#X obj 457 1038 r sampleSize;
#X obj 130 770 r length;
#X obj 153 821 s reload;
#X obj 387 910 r length;
#X text 7 13 browser / hit / stop, f 23;
#X obj 4 150 utils/transpose_knob;
#X obj 116 150 utils/detune_knob;
#X msg 743 651 \; arRL xticks 0 \$1 5 \; arRL yticks 0 0.2 2 \; arRL
xlabel 0 \$2 \;;
#X obj 9 93 hsl 195 20 0 1 0 0 empty empty empty -2 -8 0 10 -99865
-228856 -1 8890 1;
#X obj 222 77 r positionGraph;
#X obj 331 981 s positionGraph;
#X text 243 733 Nudge time;
#X obj 467 38 r currentRate;
#X obj 468 -48 r defaultRate;
#X obj 468 -4 r newRate;
#X floatatom 468 -26 5 0 0 0 - - -, f 5;
#X floatatom 468 18 5 0 0 0 - - -, f 5;
#X floatatom 467 60 5 0 0 0 - - -, f 5;
#X msg 141 662 symbol samples/1.wav;
#X obj 141 684 symbol;
#X floatatom 254 164 5 0 0 0 - - -, f 5;
#X obj 223 117 r sampler-pitch;
#X floatatom -64 149 5 0 0 0 - - -, f 5;
#X obj -91 171 bng 15 250 50 0 empty empty empty 17 7 0 10 -262144
-1 -1;
#X obj 227 995 r sampler-loop;
#X obj 275 -33 loadbang;
#X obj 275 -11 f \$1;
#X floatatom 275 11 5 0 0 0 - - -, f 5;
#X connect 0 0 33 0;
#X connect 1 0 95 0;
#X connect 2 0 95 1;
#X connect 5 0 6 0;
#X connect 7 0 5 0;
#X connect 11 0 13 0;
#X connect 11 0 19 0;
#X connect 12 0 13 1;
#X connect 12 0 14 0;
#X connect 12 0 16 0;
#X connect 13 0 15 0;
#X connect 14 0 19 1;
#X connect 16 0 17 0;
#X connect 20 0 110 0;
#X connect 20 0 111 0;
#X connect 20 0 127 0;
#X connect 20 0 128 0;
#X connect 21 0 67 0;
#X connect 23 0 90 0;
#X connect 23 0 80 0;
#X connect 28 0 26 0;
#X connect 29 0 27 0;
#X connect 30 0 28 1;
#X connect 30 0 29 1;
#X connect 32 0 60 0;
#X connect 33 0 90 0;
#X connect 34 0 68 0;
#X connect 37 0 80 0;
#X connect 37 0 90 0;
#X connect 38 0 37 0;
#X connect 39 0 37 0;
#X connect 42 0 43 0;
#X connect 42 0 81 0;
#X connect 43 0 44 1;
#X connect 44 0 112 0;
#X connect 49 0 47 0;
#X connect 49 0 48 0;
#X connect 50 0 58 2;
#X connect 50 0 89 0;
#X connect 51 0 58 3;
#X connect 55 0 57 1;
#X connect 56 0 57 0;
#X connect 57 0 54 0;
#X connect 58 0 52 0;
#X connect 58 0 88 0;
#X connect 58 1 53 0;
#X connect 59 0 60 0;
#X connect 60 0 64 0;
#X connect 60 0 98 0;
#X connect 60 1 62 0;
#X connect 60 1 98 0;
#X connect 60 2 65 0;
#X connect 60 2 98 0;
#X connect 61 0 60 2;
#X connect 63 0 60 1;
#X connect 66 0 60 3;
#X connect 67 0 30 0;
#X connect 68 0 73 0;
#X connect 68 0 99 0;
#X connect 68 1 74 0;
#X connect 68 1 100 0;
#X connect 69 0 68 0;
#X connect 70 0 68 1;
#X connect 71 0 68 2;
#X connect 72 0 68 3;
#X connect 75 0 115 0;
#X connect 76 0 101 0;
#X connect 80 0 79 0;
#X connect 81 0 44 0;
#X connect 84 0 85 0;
#X connect 84 0 95 2;
#X connect 84 1 87 0;
#X connect 84 1 95 3;
#X connect 84 2 86 0;
#X connect 88 0 96 0;
#X connect 89 0 97 0;
#X connect 90 0 91 0;
#X connect 90 1 83 0;
#X connect 90 2 84 0;
#X connect 90 2 107 0;
#X connect 95 0 28 0;
#X connect 95 1 29 0;
#X connect 95 2 75 0;
#X connect 95 2 101 1;
#X connect 101 0 93 0;
#X connect 101 0 94 0;
#X connect 101 0 102 0;
#X connect 104 0 95 4;
#X connect 105 0 101 3;
#X connect 106 0 90 1;
#X connect 108 0 101 2;
#X connect 110 0 58 0;
#X connect 111 0 58 1;
#X connect 114 0 113 0;
#X connect 117 0 122 0;
#X connect 118 0 120 0;
#X connect 119 0 121 0;
#X connect 123 0 124 0;
#X connect 124 0 80 0;
#X connect 126 0 125 0;
#X connect 126 0 111 0;
#X connect 129 0 76 0;
#X connect 130 0 131 0;
#X connect 131 0 132 0;
#X coords 0 -1 1 1 210 200 1 0 0;
