#N canvas 474 124 955 848 10;
#X obj 195 701 bng 30 250 50 0 empty empty Browse 35 7 0 10 -260097
-1 -1;
#N canvas 0 50 450 278 (subpatch) 0;
#X array arStart-\$0 1 float 2;
#X coords 0 1 1 -1 80 60 1 0 0;
#X restore 1079 -74 graph;
#N canvas 0 50 450 278 (subpatch) 0;
#X array arEnd-\$0 1 float 2;
#X coords 0 1 1 -1 80 60 1 0 0;
#X restore 1169 -74 graph;
#X msg 950 -8 0;
#X obj 950 -43 bng 30 250 50 0 empty empty Pause 35 7 0 10 -262130
-1 -1;
#X text 343 1300 comment;
#X text -63 1321 comment;
#X text 754 1301 comment;
#X obj 1073 1146 tgl 30 0 empty empty Reverse 35 7 0 10 -204800 -1
-1 0 1;
#X obj 1018 1205 spigot;
#X obj 980 1202 == 0;
#X obj 1018 1227 * -1;
#X obj 1072 1181 bng 15 250 50 0 empty empty empty 17 7 0 10 -262144
-1 -1;
#X text 303 379 when reverse is on \; the loop structure prevents the
\; thing form playing;
#X obj 947 1224 spigot 1;
#X text 49 1078 prevent clicks ?...;
#X obj -96 348 inlet;
#X obj -99 1265 outlet~;
#X obj -41 1265 outlet~;
#X obj -40 1129 vsl 30 79 0.01 1 1 0 empty empty empty 0 -9 0 10 -66577
-1 -1 7196 1;
#X text -81 407 outlets \; ~L / ~R;
#X obj -48 349 inlet;
#X obj 195 737 openpanel;
#X obj 3 346 inlet;
#X text -106 309 inlets \; browser / hit / stop, f 23;
#N canvas 0 23 450 278 (subpatch) 0;
#X array arRL-\$0 135224 float 2;
#X coords 0 1 135224 -1 200 50 1 0 0;
#X restore 6 119 graph;
#X obj -101 522 symbol;
#X msg -101 501 symbol samples/Comfast_kick.wav;
#X msg -101 481 symbol samples/Foals-Miami.wav;
#X obj 952 591 / 44100;
#X text 995 704 in s;
#X obj 950 38 tgl 30 0 empty empty Pause 35 7 0 10 -262130 -1 -1 0
1;
#N canvas 96 257 450 300 pause_curRate 0;
#X obj 65 66 change;
#X obj 65 89 sel 1;
#X obj 65 112 bng 15 250 50 0 empty empty empty 17 7 0 10 -262144 -1
-1;
#X obj 92 112 bng 15 250 50 0 empty empty empty 17 7 0 10 -262144 -1
-1;
#X msg 65 132 0;
#X obj 96 132 f;
#X obj 49 22 inlet;
#X obj 137 26 inlet;
#X obj 65 163 outlet;
#X connect 0 0 1 0;
#X connect 1 0 2 0;
#X connect 1 1 3 0;
#X connect 2 0 4 0;
#X connect 3 0 5 0;
#X connect 4 0 8 0;
#X connect 5 0 8 0;
#X connect 6 0 0 0;
#X connect 7 0 5 1;
#X restore 950 76 pd pause_curRate;
#N canvas 21 334 709 541 trans_detune_defRate_phaPlay 0;
#X obj 51 60 cyclone/bondo 3;
#X obj 51 87 expr pow(2 \, ($f1 / 12)) * (1 + ($f2 / 1200)) * $f3;
#X text 121 153 Transpose \; +1 oct = +12 = 2*f \; (2 * x / 12) * f
\; \; +24 -> f * 4 \; +12 -> f x 2 \; +0 -> f x 1;
#X obj 355 137 spigot;
#X obj 355 159 change;
#X obj 355 203 line;
#X obj 51 25 inlet;
#X obj 94 25 inlet;
#X obj 138 25 inlet;
#X obj 430 32 inlet;
#X obj 47 257 outlet;
#X obj 355 226 outlet;
#X msg 355 182 \$1 100;
#X text 401 211 (the slomotion break when stopping);
#X text 407 183 realtime pitch shifting;
#X connect 0 0 1 0;
#X connect 0 1 1 1;
#X connect 0 2 1 2;
#X connect 1 0 10 0;
#X connect 1 0 3 0;
#X connect 3 0 4 0;
#X connect 4 0 12 0;
#X connect 5 0 11 0;
#X connect 6 0 0 0;
#X connect 7 0 0 1;
#X connect 8 0 0 2;
#X connect 9 0 3 1;
#X connect 12 0 5 0;
#X restore 217 237 pd trans_detune_defRate_phaPlay;
#X obj 805 155 bng 30 250 50 0 empty empty Hit 35 7 0 10 -204786 -1
-1;
#N canvas 135 186 603 424 hit_curRate_newRate_phaStart 0;
#X obj 135 253 f;
#X obj 135 165 expr pow(2 \, ($f1 / 12)) * $f2;
#X text 299 73 oneshots --> disgard note off;
#X obj 135 208 bng 15 250 50 0 empty empty empty 17 7 0 10 -262144
-1 -1;
#X obj 242 223 f;
#X obj 196 43 inlet;
#X obj 168 354 outlet;
#X obj 218 354 outlet;
#X obj 150 43 inlet;
#X obj 268 354 outlet;
#X obj 104 43 inlet;
#X obj 104 148 f;
#X msg 119 125 0;
#X obj 119 102 loadbang;
#X text 384 333 phasorPlay currentRate phasorPhase;
#X text 275 223 f 0 = loadbang/default?;
#X text 153 20 hit currentRate newRate phasorStart;
#X obj 262 43 inlet;
#X connect 0 0 6 0;
#X connect 1 0 3 0;
#X connect 1 0 7 0;
#X connect 3 0 0 0;
#X connect 3 0 4 0;
#X connect 4 0 9 0;
#X connect 5 0 1 1;
#X connect 8 0 0 1;
#X connect 10 0 11 0;
#X connect 11 0 1 0;
#X connect 12 0 11 1;
#X connect 13 0 12 0;
#X connect 17 0 4 1;
#X restore 846 195 pd hit_curRate_newRate_phaStart;
#N canvas 163 364 450 300 reload_anti_volume 1;
#X obj 141 72 loadbang;
#X msg 77 146 0;
#X obj 171 215 f;
#X text 130 45 prevent clicks ?...;
#X msg 116 143 set 0;
#X obj 171 193 line 0;
#X obj 68 58 inlet;
#X obj 184 245 outlet;
#X obj 171 142 delay 1 1 msec;
#X msg 171 171 0.7 30;
#X connect 0 0 1 0;
#X connect 0 0 4 0;
#X connect 0 0 8 0;
#X connect 1 0 2 0;
#X connect 2 0 7 0;
#X connect 4 0 5 0;
#X connect 5 0 2 0;
#X connect 6 0 1 0;
#X connect 6 0 4 0;
#X connect 6 0 8 0;
#X connect 8 0 9 0;
#X connect 9 0 5 0;
#X restore -40 1100 pd reload_anti_volume;
#N canvas 0 23 593 598 stop_phaPlay_curRate_phaStart-phaPlay_phaPhase
0;
#X text 112 391 phaPlay_phaPhase;
#X text 97 62 stop_phaPlay_curRate_phaStart;
#X obj 120 103 inlet;
#X obj 158 103 inlet;
#X obj 199 103 inlet;
#X obj 274 103 inlet;
#X obj 116 366 outlet;
#X obj 166 366 outlet;
#X obj 171 323 line;
#X obj 259 303 f;
#X msg 199 299 set \$1;
#X obj 120 232 moses 0.1;
#X obj 158 193 > 0;
#X obj 120 210 f 1;
#X obj 171 254 bng 15 250 50 0 empty empty empty 17 7 0 10 -262144
-1 -1;
#X msg 120 253 0;
#X msg 171 276 0 200;
#X obj 259 269 delay 200;
#X connect 2 0 13 0;
#X connect 3 0 12 0;
#X connect 4 0 10 0;
#X connect 5 0 9 1;
#X connect 8 0 6 0;
#X connect 9 0 7 0;
#X connect 10 0 8 0;
#X connect 11 0 15 0;
#X connect 11 1 14 0;
#X connect 12 0 13 1;
#X connect 13 0 11 0;
#X connect 14 0 16 0;
#X connect 14 0 17 0;
#X connect 15 0 6 0;
#X connect 16 0 8 0;
#X connect 17 0 9 0;
#X restore 846 337 pd stop_phaPlay_curRate_phaStart-phaPlay_phaPhase
;
#X obj 802 298 bng 30 250 50 0 empty empty Stop 35 7 0 10 -261682 -1
-1;
#X obj 247 951 hsl 127 30 0 1 0 0 empty empty Position -2 -8 0 10 -262144
-1 -1 0 1;
#X text -109 -133 comment;
#X text -149 -34 comment;
#X obj 309 589 soundfiler;
#X obj 902 591 / 20;
#X text 304 611 todo: sum(R \, L) / 2 ipv alleen L;
#X floatatom 182 288 5 0 0 0 - - -, f 5;
#X floatatom 351 278 5 0 0 0 - - -, f 5;
#X text 707 -57 default rate depends on \; sample size \, samle rate
\; length (end t) \; \; new rate depends on \; pitch shift (transpose)/env
\; \; current rate depends on \; play on/off \, stop;
#X obj 478 1192 bng 15 250 50 0 empty empty empty 17 7 0 10 -261234
-1 -1;
#N canvas 526 226 840 697 pha1_pha2_start_length_sampleSize_loop- 0
;
#X obj 74 -130 phasor~;
#X obj 99 42 *~;
#X obj 6 -290 inlet;
#X obj 116 -289 inlet;
#X obj 403 46 metro;
#X obj 403 68 snapshot~;
#X obj 404 97 /;
#X obj 403 24 loadbang;
#X obj 404 129 outlet;
#X text 220 -145 \$1 100: prevent clicking \; (2nd number affects scrubbing
pitch);
#X obj 233 -279 inlet;
#X text 212 -166 scrub starting pos;
#X obj 74 -98 *~;
#X obj 100 -38 +~;
#X obj 173 -114 change;
#X obj 203 -70 line~;
#X text 218 -293 start (left);
#X text 152 178 L / R / snapshot;
#X text 32 -372 sampleSize / phasor1in / phasor2in / start / end /
loop;
#X text 116 -306 phasorPhase;
#X text 6 -310 phasor rate/play;
#X obj 329 -287 inlet;
#X text 317 -305 length (% of sample used);
#X text 27 -348 phasor1in (rate \, play \, stop) / phasor2in (phase)
/ start / length / loop / sampleSize, f 83;
#X obj 511 -284 inlet;
#X text 625 -277 sampleSize;
#X msg 203 -92 \$1 100;
#X obj 35 -218 r currentRate-\$1;
#X obj 511 -256 f;
#X obj 319 -259 f;
#X obj 233 -250 f;
#X obj 116 -267 f;
#X obj 120 -243 f;
#X obj 5 -244 r phasorPlay-\$1;
#X obj 26 -177 f;
#X obj 40 94 outlet~;
#X connect 0 0 12 0;
#X connect 1 0 5 0;
#X connect 1 0 35 0;
#X connect 2 0 0 0;
#X connect 3 0 31 0;
#X connect 4 0 5 0;
#X connect 5 0 6 0;
#X connect 6 0 8 0;
#X connect 7 0 4 0;
#X connect 10 0 30 0;
#X connect 12 0 13 0;
#X connect 13 0 1 0;
#X connect 14 0 26 0;
#X connect 15 0 13 1;
#X connect 21 0 29 0;
#X connect 24 0 28 0;
#X connect 26 0 15 0;
#X connect 27 0 34 0;
#X connect 28 0 1 1;
#X connect 28 0 6 1;
#X connect 29 0 12 1;
#X connect 30 0 14 0;
#X connect 31 0 32 0;
#X connect 32 0 0 1;
#X connect 33 0 34 0;
#X restore -99 983 pd pha1_pha2_start_length_sampleSize_loop- L_R_snapshot_sampleRate
;
#X obj 182 307 bng 15 250 50 0 empty empty empty 17 7 0 10 -262144
-1 -1;
#X obj 351 297 bng 15 250 50 0 empty empty empty 17 7 0 10 -262144
-1 -1;
#X obj 810 224 bng 15 250 50 0 empty empty empty 17 7 0 10 -262144
-1 -1;
#X obj 802 380 bng 15 250 50 0 empty empty empty 17 7 0 10 -262144
-1 -1;
#X obj 850 402 bng 15 250 50 0 empty empty empty 17 7 0 10 -262144
-1 -1;
#N canvas 0 463 520 391 loop_snapshot_lenght_sampleSize-play_phase
0;
#X msg 93 289 0;
#X obj 93 245 spigot;
#X obj 207 250 == 0;
#X obj 93 267 spigot 1;
#X obj 93 221 >= 0.99;
#X obj 171 127 expr if($f1 < 10000 \, 0.99 \, 0.999);
#X obj 132 197 *;
#X obj 171 149 t b f;
#X floatatom 132 175 5 0 0 0 - - -, f 5;
#X text 232 76 safe ceiling \; not all values will be reached;
#X obj 41 47 inlet;
#X obj 93 47 inlet;
#X obj 132 47 inlet;
#X obj 171 47 inlet;
#X obj 93 324 outlet;
#X text 161 317 reset phasorPhase?;
#X text 35 6 loop on/off / snapshot / end (%) / sampleSize;
#X obj 45 293 bng 15 250 50 0 empty empty empty 17 7 0 10 -262144 -1
-1;
#X floatatom 41 69 5 0 0 0 - - -, f 5;
#X floatatom 93 69 5 0 0 0 - - -, f 5;
#X floatatom 132 69 5 0 0 0 - - -, f 5;
#X floatatom 171 69 5 0 0 0 - - -, f 5;
#X connect 0 0 14 0;
#X connect 1 0 3 0;
#X connect 2 0 3 1;
#X connect 3 0 0 0;
#X connect 3 0 17 0;
#X connect 4 0 1 0;
#X connect 4 0 1 1;
#X connect 5 0 7 0;
#X connect 6 0 4 1;
#X connect 7 0 8 0;
#X connect 7 1 6 1;
#X connect 8 0 6 0;
#X connect 10 0 2 0;
#X connect 10 0 18 0;
#X connect 11 0 4 0;
#X connect 11 0 19 0;
#X connect 12 0 8 0;
#X connect 12 0 20 0;
#X connect 13 0 5 0;
#X connect 13 0 21 0;
#X restore 499 1182 pd loop_snapshot_lenght_sampleSize-play_phase;
#X text -127 257 todo: problem with triggering \; start/end/length
has to be touched first;
#X obj 4 200 utils/transpose_knob;
#X obj 116 200 utils/detune_knob;
#X obj 9 173 hsl 195 20 0 1 0 0 empty empty empty -2 -8 0 10 -99865
-228856 -1 0 1;
#X text 750 773 Nudge time;
#X floatatom 587 -32 5 0 0 0 - - -, f 5;
#X floatatom 587 12 5 0 0 0 - - -, f 5;
#X floatatom 586 54 5 0 0 0 - - -, f 5;
#X floatatom 219 199 5 0 0 0 - - -, f 5;
#X floatatom -88 186 5 0 0 0 - - -, f 5;
#X obj -86 216 bng 15 250 50 0 empty empty empty 17 7 0 10 -262144
-1 -1;
#X obj 445 -54 loadbang;
#X obj 445 -32 f \$1;
#X floatatom 445 -10 5 0 0 0 - - -, f 5;
#X obj 586 32 r currentRate-\$1;
#X obj 400 259 s currentRate-\$1;
#X obj 907 150 r currentRate-\$1;
#X obj 957 219 s currentRate-\$1;
#X obj 1043 53 r currentRate-\$1;
#X obj -88 164 r reload-\$1;
#X obj 342 194 r defaultRate-\$1;
#X obj 430 216 r phasorPlay-\$1;
#X obj 587 -10 r newRate-\$1;
#X obj 587 -54 r defaultRate-\$1;
#X obj -139 131 r positionGraph-\$1;
#X obj 219 815 s defaultRate-\$1;
#X obj 108 923 r sampleSize-\$1;
#X obj 337 815 s sampleSize-\$1;
#X obj 505 819 s reload-\$1;
#X obj 339 766 r length-\$1;
#X obj 1058 936 s end-\$1;
#X obj 911 936 s length-\$1;
#X obj 765 935 s start-\$1;
#X obj 675 1130 r length-\$1;
#X obj 491 1117 r sampler-loop-\$1;
#X obj 213 1001 s positionGraph-\$1;
#X obj 581 1224 s phasorPhase-\$1;
#X obj 721 1160 r sampleSize-\$1;
#X obj 499 1204 s phasorPlay-\$1;
#X obj -40 1077 r reload-\$1;
#X obj -92 956 r phasorPlay-\$1;
#X obj -7 937 r phasorPhase-\$1;
#X obj 947 1163 r currentRate-\$1;
#X obj 1077 1204 s reload-\$1;
#X obj 902 569 r sampleSize-\$1;
#X obj 1027 502 r reload-\$1;
#X obj 950 99 s phasorPlay-\$1;
#X obj 950 14 s phasorPlay-\$1;
#X obj 1060 150 r phasorStart-\$1;
#X obj 968 170 r newRate-\$1;
#X obj 846 230 s phasorPlay-\$1;
#X obj 1029 238 s phasorPhase-\$1;
#X obj 1167 313 r phasorStart-\$1;
#X obj 1137 361 s phasorPhase-\$1;
#X obj 1040 313 r currentRate-\$1;
#X obj 923 314 r phasorPlay-\$1;
#X obj 846 360 s phasorPlay-\$1;
#X obj 513 -55 loadbang;
#X floatatom 513 -11 5 0 0 0 - - -, f 5;
#X obj 513 -33 f \$0;
#X text 36 -80 \$1 will we defined externally \, thus can be used to
acces internal params;
#X obj 215 173 r sampler-pitch-\$1;
#X obj 217 261 s newRate-\$1;
#N canvas 490 297 726 398 reload-start_lenght_end_length 0;
#X obj 106 183 hsl 127 30 0 1 0 0 empty empty End -2 -8 0 10 -233017
-1 -1 12600 1;
#X obj 28 279 -;
#X obj 107 133 hsl 127 30 0 1 0 0 empty empty Start -2 -8 0 10 -233017
-1 -1 0 1;
#X obj 245 133 hsl 127 30 0.01 1 1 0 empty empty Length -2 -8 0 10
-233017 -1 -1 12600 1;
#X obj 242 191 +;
#X obj 242 168 t b f;
#X msg 272 258 color \$1;
#X text 284 224 end slider should not be touched;
#X msg 32 95 0;
#X msg 62 95 1;
#X obj 103 228 expr if($f1 > 1 \, 1 \, $f1) \; if($f1 > 1 \, 3 \, 10)
;
#X obj 28 235 t b f;
#X floatatom 28 258 5 0 0 0 - - -, f 5;
#X text 159 63 length slider = weird \; because realtime pitch shift
is not yet enabled;
#X obj 32 73 inlet;
#X obj 71 345 outlet;
#X obj 129 346 outlet;
#X obj 194 348 outlet;
#X text 57 371 reload-start_lenght_end_length;
#X text 27 51 on reload;
#X obj 28 301 expr if($f1 <= 0 \, 0.0001 \, $f1);
#X obj 332 312 expr if($f1 <= 0 \, 0.0001 \, $f1);
#X text 261 169 red means that \; the loop has been \; cut off;
#X obj 109 43 utils/ramp_generator;
#N canvas 0 23 450 300 length 0;
#X obj 111 47 inlet;
#X obj 111 69 moses 0.99;
#X obj 150 205 outlet;
#X obj 111 91 moses 0.5;
#X text 216 166 if < 0.5 \; use range [0 \, 0.9] \; else \; range [0.9
\, 1];
#X obj 111 113 expr $f1 * 1.8;
#X text 218 114 0.9/0.5 = 1.8;
#X obj 177 145 expr ($f1 * 0.1) + 0.9;
#X connect 0 0 1 0;
#X connect 1 0 3 0;
#X connect 1 1 2 0;
#X connect 3 0 5 0;
#X connect 3 1 7 0;
#X connect 5 0 2 0;
#X connect 7 0 2 0;
#X restore 326 51 pd length;
#X floatatom 474 119 5 0 0 0 - - -, f 5;
#X obj 109 21 r sampler-pos-\$1;
#X obj 326 29 r sampler-length-\$1;
#X connect 0 0 10 0;
#X connect 1 0 20 0;
#X connect 2 0 4 0;
#X connect 2 0 11 0;
#X connect 2 0 15 0;
#X connect 3 0 5 0;
#X connect 4 0 0 0;
#X connect 5 0 4 0;
#X connect 5 1 4 1;
#X connect 6 0 0 0;
#X connect 8 0 2 0;
#X connect 9 0 3 0;
#X connect 10 0 12 0;
#X connect 10 0 17 0;
#X connect 10 1 6 0;
#X connect 11 0 12 0;
#X connect 11 1 1 1;
#X connect 12 0 1 0;
#X connect 14 0 8 0;
#X connect 14 0 9 0;
#X connect 20 0 16 0;
#X connect 23 0 2 0;
#X connect 24 0 3 0;
#X connect 24 0 25 0;
#X connect 26 0 23 0;
#X connect 27 0 24 0;
#X coords 0 -1 1 1 300 120 1 100 100;
#X restore 765 808 pd reload-start_lenght_end_length \$1;
#X text 567 1089 TODO end t % dependend on samplesize and pitch;
#X obj -94 1026 tabread4~ sampl1R-\$0;
#X obj -117 1051 tabread4~ sampl1L-\$0;
#X obj -130 918 r currentRate-\$1;
#X obj 1182 3 table sampl1L-\$0;
#X obj 1182 23 table sampl1R-\$0;
#X msg 868 646 \; arRL-\$1 xticks 0 \$2 5 \; arRL-\$1 yticks 0 0.2
2 \; arRL-\$1 xlabel 0 \$3 \;;
#X obj 868 624 pack f f f;
#X obj 862 589 f \$0;
#X obj 860 568 bang;
#X msg 1066 640 \; arRL-\$1 xticks 0 \$2 10 \; arRL-\$1 yticks 0 0.2
2;
#X obj 1070 617 f \$0;
#X msg 1083 711 \; arRL-\$1 rename arRL2-\$1;
#X msg 309 567 read -resize \$1 arRL-\$2;
#X obj 367 521 f \$0;
#X obj 1044 526 f \$0;
#X text 446 722 creation arg:\$0 \; send pid to child;
#X msg 1068 548 \; sampl1L-\$1 normalize;
#X msg 1067 580 \; sampl1R-\$1 normalize;
#X obj 944 495 bng 15 250 50 0 empty empty empty 17 7 0 10 -262144
-1 -1;
#X obj 819 493 r sampleSize-\$1;
#X floatatom 819 515 5 0 0 0 - - -, f 5;
#X floatatom 217 836 5 0 0 0 - - -, f 5;
#X floatatom 264 842 5 0 0 0 - - -, f 5;
#X floatatom 458 817 5 0 0 0 - - -, f 5;
#X obj 515 768 loadbang;
#X obj 515 790 f \$0;
#N canvas 222 410 683 494 read_length-defRate_sampleSize_reload 0;
#X text 153 138 soundfiler -> samplesize;
#X obj 284 158 bng 15 250 50 0 empty empty empty 17 7 0 10 -262144
-1 -1;
#X obj 16 38 inlet;
#X obj 284 208 outlet;
#X text 194 285 "change rate when sample lenght changes";
#X text 90 301 real default rate;
#X text 85 206 regular default rate;
#X obj 68 323 expr 1 / $f1;
#X obj 83 226 expr 44100 / $f1;
#X obj 68 438 outlet;
#X obj 68 38 inlet;
#X text 124 39 read / length (% of sample used);
#X obj 239 208 outlet;
#X obj 68 258 expr if($f1 <= 0 \, 0.0001 \, $f1);
#X floatatom 26 262 5 0 0 0 - - -, f 5;
#X floatatom 25 310 5 0 0 0 - - -, f 5;
#X obj 68 410 *;
#X msg 163 354 set 1 1;
#X obj 68 386 cyclone/bondo;
#X obj 163 331 loadbang;
#X obj 14 82 print;
#X obj 28 141 soundfiler_;
#X msg 28 119 read -resize \$1 sampl1L-\$2 sampl1R-\$2;
#X floatatom 191 92 5 0 0 0 - - -, f 5;
#X obj 403 37 inlet;
#X obj 163 69 f;
#X obj 118 91 pack s f;
#X obj 116 62 bang;
#X connect 1 0 3 0;
#X connect 2 0 20 0;
#X connect 2 0 27 0;
#X connect 2 0 26 0;
#X connect 7 0 18 0;
#X connect 8 0 14 0;
#X connect 8 0 18 1;
#X connect 10 0 13 0;
#X connect 13 0 7 0;
#X connect 13 0 15 0;
#X connect 16 0 9 0;
#X connect 17 0 18 0;
#X connect 18 0 16 0;
#X connect 18 1 16 1;
#X connect 19 0 17 0;
#X connect 21 0 1 0;
#X connect 21 0 8 0;
#X connect 21 0 12 0;
#X connect 22 0 21 0;
#X connect 24 0 25 0;
#X connect 25 0 23 0;
#X connect 25 0 26 1;
#X connect 26 0 22 0;
#X connect 27 0 25 0;
#X restore 219 793 pd read_length-defRate_sampleSize_reload;
#X floatatom 406 536 5 0 0 0 - - -, f 5;
#X obj 322 543 pack s f;
#X obj 314 520 t s b;
#X floatatom -144 987 5 0 0 0 - - -, f 5;
#X obj -133 1018 bng 15 250 50 0 empty empty empty 17 7 0 10 -262144
-1 -1;
#X obj 7 26 bng 30 250 50 0 empty empty Browse 35 7 0 10 -260097 -1
-1;
#X obj 85 26 bng 30 250 50 0 empty empty Hit 35 7 0 10 -204786 -1 -1
;
#X obj -77 20 openpanel;
#X obj 85 62 bng 30 250 50 0 empty empty Stop 35 7 0 10 -261234 -1
-1;
#X obj 499 1141 tgl 30 0 empty empty Loop_on/off 35 7 0 10 -203904
-1 -1 1 1;
#X obj 150 24 tgl 30 0 empty empty Loop 35 7 0 10 -203904 -1 -1 1 1
;
#X obj 149 60 tgl 30 0 empty empty Rev 35 7 0 10 -204800 -1 -1 0 1
;
#X obj 6 366 s stop-\$0;
#X obj 847 312 r stop-\$0;
#X obj -96 378 s load-\$0;
#X obj 313 494 r load-\$0;
#X obj 236 716 r browse-\$0;
#X obj 235 762 r load-\$0;
#X obj -100 544 s load-\$0;
#X obj 202 1024 s snapshot-\$1;
#X obj 592 1157 r snapshot-\$1;
#X obj 856 134 r sampler-hit-\$1;
#X obj 4 391 s sampler-hit-\$1;
#X obj -100 580 r sampler-reload-\$1;
#X obj 32 957 r start-\$1;
#X obj 120 953 r length-\$1;
#X obj 816 784 r reload-\$1;
#X obj -100 666 symbol;
#X msg -101 457 symbol samples/1.wav;
#X text 312 472 display waveform;
#N canvas 492 356 450 300 stop 0;
#X obj 50 51 inlet;
#X obj 47 79 s sampler-stop-\$1;
#X connect 0 0 1 0;
#X restore -79 70 pd stop;
#N canvas 377 390 450 300 rev 0;
#X msg 91 153 set \$1;
#X obj 50 51 inlet;
#X obj 91 179 outlet;
#X obj 47 78 s sampler-rev-\$1;
#X obj 88 130 r sampler-rev-\$1;
#X connect 0 0 2 0;
#X connect 1 0 3 0;
#X connect 4 0 0 0;
#X restore 219 72 pd rev;
#N canvas 377 390 450 300 loop 0;
#X msg 91 153 set \$1;
#X obj 50 51 inlet;
#X obj 91 179 outlet;
#X obj 47 78 s sampler-loop-\$1;
#X obj 88 130 r sampler-loop-\$1;
#X connect 0 0 2 0;
#X connect 1 0 3 0;
#X connect 4 0 0 0;
#X restore 227 32 pd loop;
#X obj -77 42 s load-\$1;
#N canvas 377 390 450 300 hit 0;
#X obj 50 51 inlet;
#X msg 50 73 0;
#X obj 72 101 s sampler-hit-\$1;
#X connect 0 0 1 0;
#X connect 1 0 2 0;
#X restore 86 -20 pd hit;
#X obj 862 286 r sampler-stop-\$1;
#X msg 856 156 0;
#X obj 762 344 bng 15 250 50 0 empty empty empty 17 7 0 10 -262144
-1 -1;
#X obj 8 62 bng 30 250 50 0 empty empty Reload 35 7 0 10 -261682 -1
-1;
#X obj -136 94 s sampler-reload-\$1;
#X obj -100 687 s load-\$0;
#X msg -100 644 symbol ../samples/\$1.wav;
#X obj -101 772 s sampler-hit-\$1;
#X floatatom -14 683 5 0 0 0 - - -, f 5;
#X obj 44 565 loadbang;
#X obj 44 587 f \$1;
#X obj -100 622 f;
#X obj -100 602 bang;
#X text 58 -106 \$0 is a unique number per subpatch;
#X obj -102 748 delay 3 1 msec;
#X obj -41 1234 *~ 1;
#X obj -97 1234 *~ 1;
#X obj -102 726 r reload-\$1;
#X floatatom 7 1218 5 0 0 0 - - -, f 5;
#X obj 13 1130 bng 15 250 50 0 empty empty empty 17 7 0 10 -262144
-1 -1;
#X connect 0 0 22 0;
#X connect 3 0 103 0;
#X connect 4 0 3 0;
#X connect 8 0 9 1;
#X connect 8 0 10 0;
#X connect 8 0 12 0;
#X connect 9 0 11 0;
#X connect 10 0 14 1;
#X connect 12 0 99 0;
#X connect 16 0 162 0;
#X connect 19 0 198 1;
#X connect 19 0 199 1;
#X connect 19 0 201 0;
#X connect 21 0 170 0;
#X connect 22 0 147 0;
#X connect 23 0 160 0;
#X connect 26 0 166 0;
#X connect 27 0 26 0;
#X connect 28 0 26 0;
#X connect 29 0 127 2;
#X connect 31 0 32 0;
#X connect 32 0 102 0;
#X connect 33 0 45 0;
#X connect 33 0 118 0;
#X connect 33 1 71 0;
#X connect 34 0 35 0;
#X connect 35 0 52 0;
#X connect 35 0 106 0;
#X connect 35 1 52 0;
#X connect 35 1 73 0;
#X connect 35 2 52 0;
#X connect 35 2 107 0;
#X connect 36 0 19 0;
#X connect 37 0 53 0;
#X connect 37 0 112 0;
#X connect 37 1 54 0;
#X connect 37 1 109 0;
#X connect 38 0 37 0;
#X connect 43 0 127 1;
#X connect 43 0 129 0;
#X connect 45 0 50 0;
#X connect 46 0 51 0;
#X connect 49 0 122 0;
#X connect 49 0 121 0;
#X connect 49 1 39 0;
#X connect 49 1 167 0;
#X connect 49 1 91 0;
#X connect 55 0 48 0;
#X connect 55 0 92 0;
#X connect 55 0 94 0;
#X connect 57 0 33 0;
#X connect 58 0 33 1;
#X connect 67 0 68 0;
#X connect 68 0 69 0;
#X connect 70 0 63 0;
#X connect 72 0 35 1;
#X connect 74 0 32 1;
#X connect 75 0 57 0;
#X connect 75 0 65 0;
#X connect 75 0 66 0;
#X connect 75 0 58 1;
#X connect 76 0 33 2;
#X connect 76 0 46 0;
#X connect 77 0 33 3;
#X connect 78 0 62 0;
#X connect 79 0 61 0;
#X connect 80 0 59 0;
#X connect 82 0 49 4;
#X connect 85 0 147 1;
#X connect 89 0 55 2;
#X connect 90 0 157 0;
#X connect 93 0 55 3;
#X connect 95 0 36 0;
#X connect 96 0 49 0;
#X connect 96 0 151 0;
#X connect 96 0 152 0;
#X connect 97 0 49 1;
#X connect 98 0 9 0;
#X connect 98 0 14 0;
#X connect 100 0 29 0;
#X connect 100 0 43 0;
#X connect 101 0 135 0;
#X connect 104 0 35 3;
#X connect 105 0 35 2;
#X connect 108 0 37 3;
#X connect 110 0 37 2;
#X connect 111 0 37 1;
#X connect 113 0 115 0;
#X connect 115 0 114 0;
#X connect 117 0 64 0;
#X connect 117 0 58 0;
#X connect 119 0 88 0;
#X connect 119 1 87 0;
#X connect 119 2 86 0;
#X connect 121 0 198 0;
#X connect 122 0 199 0;
#X connect 123 0 49 0;
#X connect 127 0 126 0;
#X connect 128 0 127 0;
#X connect 129 0 128 0;
#X connect 133 0 42 0;
#X connect 134 0 148 0;
#X connect 134 0 149 1;
#X connect 135 0 137 0;
#X connect 135 0 138 0;
#X connect 140 0 141 0;
#X connect 145 0 146 0;
#X connect 146 0 147 2;
#X connect 147 0 81 0;
#X connect 147 0 142 0;
#X connect 147 1 83 0;
#X connect 147 1 143 0;
#X connect 147 2 84 0;
#X connect 147 2 144 0;
#X connect 149 0 133 0;
#X connect 150 0 149 0;
#X connect 150 1 134 0;
#X connect 153 0 155 0;
#X connect 154 0 182 0;
#X connect 155 0 181 0;
#X connect 156 0 178 0;
#X connect 157 0 55 0;
#X connect 158 0 180 0;
#X connect 159 0 179 0;
#X connect 161 0 37 0;
#X connect 163 0 150 0;
#X connect 164 0 22 0;
#X connect 165 0 147 0;
#X connect 168 0 55 1;
#X connect 169 0 184 0;
#X connect 171 0 195 0;
#X connect 172 0 49 2;
#X connect 173 0 49 3;
#X connect 174 0 119 0;
#X connect 175 0 188 0;
#X connect 176 0 26 0;
#X connect 179 0 159 0;
#X connect 180 0 158 0;
#X connect 183 0 37 0;
#X connect 183 0 185 0;
#X connect 184 0 35 0;
#X connect 186 0 187 0;
#X connect 189 0 175 0;
#X connect 192 0 193 0;
#X connect 193 0 194 1;
#X connect 194 0 189 0;
#X connect 194 0 191 0;
#X connect 195 0 194 0;
#X connect 197 0 190 0;
#X connect 198 0 18 0;
#X connect 199 0 17 0;
#X connect 200 0 197 0;
#X connect 202 0 36 0;
#X coords 0 -1 1 1 210 250 1 0 0;
