#N canvas 824 476 450 300 10;
#X obj 92 144 soundfiler;
#X obj 81 100 inlet;
#X obj 104 223 >= 1;
#X floatatom 104 245 5 0 0 0 - - -, f 5;
#X obj 92 166 spigot;
#X obj 92 188 outlet;
#X obj 142 166 spigot;
#X obj 142 188 outlet;
#X connect 0 0 2 0;
#X connect 0 0 4 0;
#X connect 0 1 6 0;
#X connect 1 0 0 0;
#X connect 2 0 3 0;
#X connect 2 0 4 1;
#X connect 2 0 6 1;
#X connect 4 0 5 0;
#X connect 6 0 7 0;
