#N canvas 678 281 585 454 10;
#X obj 113 83 inlet~;
#X obj 163 83 inlet~;
#X obj 213 83 inlet;
#X obj 130 173 outlet~;
#X obj 190 173 outlet~;
#X obj 277 127 moses 0.5;
#X text 279 46 0: cut all;
#X text 279 69 1: boost +6 \; (with limiting);
#X obj 277 149 expr $f1 * 2;
#X floatatom 287 199 5 0 0 0 - - -, f 5;
#X obj 113 105 *~;
#X obj 163 105 *~;
#N canvas 0 23 450 300 limiter 0;
#X restore 155 207 pd limiter;
#X obj 337 169 expr 1 + 4 * ($f1 - 0.5);
#X connect 0 0 10 0;
#X connect 1 0 11 0;
#X connect 2 0 5 0;
#X connect 5 0 8 0;
#X connect 5 1 13 0;
#X connect 8 0 9 0;
#X connect 9 0 11 1;
#X connect 9 0 10 1;
#X connect 10 0 3 0;
#X connect 11 0 4 0;
#X connect 13 0 9 0;
