#N canvas 938 260 585 454 10;
#X obj 113 83 inlet~;
#X obj 163 83 inlet~;
#X obj 213 83 inlet;
#X obj 110 353 outlet~;
#X obj 170 353 outlet~;
#X obj 228 110 moses 0.5;
#X text 279 46 0: cut all;
#X text 279 69 1: boost +6 \; (with limiting);
#X obj 228 132 expr $f1 * 2;
#X floatatom 224 157 5 0 0 0 - - -, f 5;
#X obj 113 175 *~;
#X obj 163 175 *~;
#X obj 288 152 expr 1 + 4 * ($f1 - 0.5);
#X obj 27 67 env~;
#X obj 27 89 - 100;
#X obj 27 111 vu 15 120 empty empty -1 -8 0 10 -66577 -1 1 0;
#X obj 129 234 saturator~;
#X obj 25 271 env~;
#X obj 25 293 - 100;
#X obj 25 315 vu 15 120 empty empty -1 -8 0 10 -66577 -1 1 0;
#X obj 446 228 tgl 15 0 empty empty empty 17 7 0 10 -261682 -1 -1 1
1;
#X obj 104 320 *~;
#X obj 135 320 *~;
#X obj 444 257 == 0;
#X obj 214 232 saturator~;
#X obj 173 319 *~;
#X obj 204 319 *~;
#X text 343 211 limiter on/off;
#X obj 493 92 inlet;
#X text 294 315 this affects the saturator pre? \; why;
#X connect 0 0 10 0;
#X connect 1 0 11 0;
#X connect 2 0 5 0;
#X connect 5 0 8 0;
#X connect 5 1 12 0;
#X connect 8 0 9 0;
#X connect 9 0 10 1;
#X connect 9 0 11 1;
#X connect 10 0 16 0;
#X connect 10 0 21 0;
#X connect 11 0 24 0;
#X connect 11 0 25 0;
#X connect 12 0 9 0;
#X connect 13 0 14 0;
#X connect 14 0 15 0;
#X connect 16 0 22 0;
#X connect 17 0 18 0;
#X connect 18 0 19 0;
#X connect 20 0 23 0;
#X connect 20 0 22 1;
#X connect 20 0 26 1;
#X connect 21 0 3 0;
#X connect 22 0 3 0;
#X connect 23 0 21 1;
#X connect 23 0 25 1;
#X connect 24 0 26 0;
#X connect 25 0 4 0;
#X connect 26 0 4 0;
#X connect 28 0 20 0;
