#N canvas 298 368 866 532 10;
#X obj 7 51 inlet~;
#X obj 57 51 inlet~;
#X obj 127 29 inlet;
#X obj -46 343 outlet~;
#X obj 4 343 outlet~;
#X obj 513 12 loadbang;
#X obj 106 130 hsl 25 15 0 1 0 0 empty empty Low -2 -8 0 10 -261682
-1 -1 2400 1;
#X obj 146 130 hsl 25 15 0 1 0 0 empty empty Mid -2 -8 0 10 -261682
-1 -1 2400 1;
#X obj 186 130 hsl 25 15 0 1 0 0 empty empty High -2 -8 0 10 -261682
-1 -1 2400 1;
#X obj 257 29 inlet;
#X obj 387 29 inlet;
#X msg 513 34 0.5;
#X obj 387 73 ../utils/line_;
#X obj 257 73 ../utils/line_;
#X obj 127 73 ../utils/line_;
#X obj 127 51 expr $f1;
#X obj 256 51 expr $f1;
#X obj 387 51 expr $f1;
#X text 5 24 L \, R \, 1 \, 2 \, 3;
#X obj 106 149 hsl 25 8 0 1 0 0 empty empty empty -2 -8 0 10 -261682
-1 -1 1200 1;
#X obj 146 149 hsl 25 8 0 1 0 0 empty empty empty -2 -8 0 10 -261682
-1 -1 1200 1;
#X obj 186 149 hsl 25 8 0 1 0 0 empty empty empty -2 -8 0 10 -261682
-1 -1 1200 1;
#X obj 272 134 loadbang;
#X msg 279 159 set 0.5;
#N canvas 814 348 450 300 eqband 0;
#X obj 28 55 inlet~;
#X obj 78 55 inlet~;
#X obj 138 68 inlet;
#X obj 197 86 inlet;
#X obj 28 77 hip~;
#X obj 78 77 hip~;
#X obj 28 99 lop~;
#X obj 78 99 lop~;
#X obj 28 121 outlet~;
#X obj 88 121 outlet~;
#X connect 0 0 4 0;
#X connect 1 0 5 0;
#X connect 2 0 4 1;
#X connect 2 0 5 1;
#X connect 3 0 6 1;
#X connect 3 0 7 1;
#X connect 4 0 6 0;
#X connect 5 0 7 0;
#X connect 6 0 8 0;
#X connect 7 0 9 0;
#X restore -91 198 pd eqband;
#X obj -131 72 loadbang;
#X text -176 39 cutoff frequencies;
#X msg -142 97 250;
#X msg -102 97 2500;
#X floatatom 111 207 5 0 0 0 - - -, f 5;
#X floatatom 151 207 5 0 0 0 - - -, f 5;
#X floatatom 191 207 5 0 0 0 - - -, f 5;
#X obj -177 186 lop~;
#X obj -16 153 hip~;
#X obj -137 186 lop~;
#X obj 24 153 hip~;
#X text -194 419 comment;
#X obj -23 240 eqgain~;
#X obj 56 280 loadbang;
#X obj -40 313 *~;
#X obj -10 313 *~;
#X obj -133 304 env~;
#X obj 160 349 vu 15 120 empty empty -1 -8 0 10 -66577 -1 1 0;
#X obj -133 326 - 100;
#X obj 176 263 env~;
#X obj 176 285 - 100;
#X obj 271 305 vu 15 120 empty empty -1 -8 0 10 -66577 -1 1 0;
#X msg 21 281 1;
#X obj -143 240 eqgain~;
#X obj -83 240 eqgain~;
#X obj 414 188 bng 15 250 50 0 empty empty empty 17 7 0 10 -262144
-1 -1;
#X msg 519 202 LIMIT;
#X msg 519 220 CRACK;
#X msg 519 237 COMPRESS;
#X obj 439 282 limiter~ 10;
#X obj 529 282 limiter~ 10;
#X obj 639 151 loadbang;
#X msg 521 312 print;
#X msg 599 255 compress 96 88 0.25;
#X connect 0 0 32 0;
#X connect 0 0 24 0;
#X connect 0 0 33 0;
#X connect 1 0 34 0;
#X connect 1 0 35 0;
#X connect 1 0 24 1;
#X connect 2 0 15 0;
#X connect 5 0 11 0;
#X connect 6 0 29 0;
#X connect 7 0 30 0;
#X connect 8 0 31 0;
#X connect 9 0 16 0;
#X connect 10 0 17 0;
#X connect 11 0 15 0;
#X connect 11 0 16 0;
#X connect 11 0 17 0;
#X connect 12 0 8 0;
#X connect 13 0 7 0;
#X connect 14 0 6 0;
#X connect 15 0 14 0;
#X connect 16 0 13 0;
#X connect 17 0 12 0;
#X connect 22 0 23 0;
#X connect 23 0 19 0;
#X connect 23 0 20 0;
#X connect 23 0 21 0;
#X connect 24 0 49 0;
#X connect 24 1 49 1;
#X connect 25 0 27 0;
#X connect 25 0 28 0;
#X connect 27 0 24 2;
#X connect 27 0 32 1;
#X connect 27 0 34 1;
#X connect 28 0 24 3;
#X connect 28 0 33 1;
#X connect 28 0 35 1;
#X connect 29 0 48 2;
#X connect 30 0 49 2;
#X connect 31 0 37 2;
#X connect 32 0 44 0;
#X connect 32 0 48 0;
#X connect 33 0 37 0;
#X connect 34 0 48 1;
#X connect 35 0 37 1;
#X connect 37 0 39 0;
#X connect 37 1 40 0;
#X connect 38 0 47 0;
#X connect 39 0 3 0;
#X connect 40 0 4 0;
#X connect 41 0 43 0;
#X connect 43 0 42 0;
#X connect 44 0 45 0;
#X connect 45 0 46 0;
#X connect 47 0 39 1;
#X connect 47 0 40 1;
#X connect 48 0 39 0;
#X connect 48 0 41 0;
#X connect 48 1 40 0;
#X connect 49 0 39 0;
#X connect 49 1 40 0;
#X connect 51 0 54 0;
#X connect 51 0 55 0;
#X connect 52 0 55 0;
#X connect 52 0 54 0;
#X connect 53 0 54 0;
#X connect 53 0 55 0;
#X connect 56 0 53 0;
#X connect 56 0 58 0;
#X connect 57 0 55 0;
#X connect 58 0 54 0;
#X connect 58 0 55 0;
#X coords 0 -1 1 1 130 60 1 100 100;
