#N canvas 782 254 816 531 10;
#X obj 7 75 inlet~;
#X obj 57 75 inlet~;
#X obj 7 327 vcf~, f 6;
#X obj 57 327 vcf~, f 6;
#X obj 73 260 sig~;
#X obj 106 116 vsl 25 128 25 22000 1 0 empty empty f 0 -9 0 10 -232576
-1 -1 9000 1;
#X obj 148 164 vsl 15 80 0 10 0 0 empty empty q 0 -9 0 10 -232576 -1
-1 3200 1;
#X obj 7 409 outlet~;
#X obj 57 409 outlet~;
#X obj 409 181 loadbang;
#X msg 409 203 24000;
#X text 141 103 LP;
#X obj 149 57 inlet;
#X obj 189 57 inlet;
#X msg 449 203 1;
#X floatatom 135 129 6 0 0 0 - - -, f 6;
#X obj 191 311 i;
#X connect 0 0 2 0;
#X connect 1 0 3 0;
#X connect 2 1 7 0;
#X connect 3 1 8 0;
#X connect 4 0 2 1;
#X connect 4 0 3 1;
#X connect 5 0 4 0;
#X connect 5 0 16 0;
#X connect 6 0 3 2;
#X connect 6 0 2 2;
#X connect 9 0 10 0;
#X connect 9 0 14 0;
#X connect 10 0 5 0;
#X connect 12 0 5 0;
#X connect 13 0 6 0;
#X connect 14 0 6 0;
#X connect 16 0 15 0;
#X coords 0 -1 1 1 75 150 2 100 100;
