#N canvas 782 254 816 531 10;
#X obj 7 75 inlet~;
#X obj 57 75 inlet~;
#X obj 105 139 vsl 25 100 25 22050 1 0 empty empty empty 0 -9 0 10
-232576 -1 -1 9900 1;
#X obj 7 389 outlet~;
#X obj 57 389 outlet~;
#X obj 409 181 loadbang;
#X text 104 100 LP;
#X obj 149 57 inlet;
#X msg 449 203 1;
#X floatatom 104 117 6 0 0 0 - - -, f 6;
#X obj 154 292 i;
#X obj 7 327 lop~, f 6;
#X obj 57 327 lop~, f 6;
#X obj 7 347 lop~, f 6;
#X obj 57 347 lop~, f 6;
#X msg 409 203 22050;
#X connect 0 0 11 0;
#X connect 1 0 12 0;
#X connect 2 0 10 0;
#X connect 2 0 11 1;
#X connect 2 0 12 1;
#X connect 2 0 13 1;
#X connect 2 0 14 1;
#X connect 5 0 15 0;
#X connect 5 0 8 0;
#X connect 7 0 2 0;
#X connect 10 0 9 0;
#X connect 11 0 13 0;
#X connect 12 0 14 0;
#X connect 13 0 3 0;
#X connect 14 0 4 0;
#X connect 15 0 2 0;
#X coords 0 -1 1 1 50 150 2 100 100;
